<?xml version="1.0" standalone="no"?>
<!DOCTYPE svg PUBLIC "-//W3C//DTD SVG 1.1//EN" "http://www.w3.org/Graphics/SVG/1.1/DTD/svg11.dtd" >
<svg xmlns="http://www.w3.org/2000/svg" xmlns:xlink="http://www.w3.org/1999/xlink" version="1.1">
<metadata>
Created by FontForge 20170924 at Tue Aug 11 14:52:36 2020
 By www-data
Copyright (c) 2016 by Martin Va'cha. All rights reserved.
</metadata>
<defs>
<font id="Matter-Regular" horiz-adv-x="0" >
  <font-face 
    font-family="Matter"
    font-weight="400"
    font-stretch="normal"
    units-per-em="1000"
    panose-1="0 0 5 0 0 0 0 0 0 0"
    ascent="810"
    descent="-190"
    x-height="504"
    cap-height="700"
    bbox="-733 -212 1525 1081"
    underline-thickness="50"
    underline-position="-100"
    unicode-range="U+000D-FB02"
  />
<missing-glyph horiz-adv-x="1082" 
d="M105.5 554q64.5 113 175.5 182t242 74v-1000q-132 4 -242.5 72.5t-175 181.5t-64.5 245t64.5 245zM559 806q41 -14 75 -84.5t54 -179.5t20 -233t-20 -232.5t-54 -179t-75 -84.5v993zM851.5 99q-31.5 -99 -88 -169.5t-128.5 -100.5q51 66 80.5 194.5t29.5 285.5t-29.5 286
t-80.5 196q71 -30 127.5 -101.5t88.5 -171t32 -209.5q0 -111 -31.5 -210zM1003 118q-38 -91 -107 -160.5t-159 -107.5q84 73 133.5 195t49.5 264q0 141 -49.5 264t-133.5 196q90 -38 159 -108t107 -161t38 -191t-38 -191z" />
    <glyph glyph-name=".notdef" horiz-adv-x="1082" 
d="M105.5 554q64.5 113 175.5 182t242 74v-1000q-132 4 -242.5 72.5t-175 181.5t-64.5 245t64.5 245zM559 806q41 -14 75 -84.5t54 -179.5t20 -233t-20 -232.5t-54 -179t-75 -84.5v993zM851.5 99q-31.5 -99 -88 -169.5t-128.5 -100.5q51 66 80.5 194.5t29.5 285.5t-29.5 286
t-80.5 196q71 -30 127.5 -101.5t88.5 -171t32 -209.5q0 -111 -31.5 -210zM1003 118q-38 -91 -107 -160.5t-159 -107.5q84 73 133.5 195t49.5 264q0 141 -49.5 264t-133.5 196q90 -38 159 -108t107 -161t38 -191t-38 -191z" />
    <glyph glyph-name="nonmarkingreturn" unicode="&#xd;" horiz-adv-x="241" 
 />
    <glyph glyph-name="space" unicode=" " horiz-adv-x="241" 
 />
    <glyph glyph-name="A" unicode="A" horiz-adv-x="656" 
d="M647 0h-95l-69 178h-311l-69 -178h-94l277 700h83zM328 580l-125 -321h249z" />
    <glyph glyph-name="Aacute" unicode="&#xc1;" horiz-adv-x="656" 
d="M647 0h-95l-69 178h-311l-69 -178h-94l277 700h83zM328 580l-125 -321h249zM349 756h-62l72 148h107z" />
    <glyph glyph-name="Abreve" unicode="&#x102;" horiz-adv-x="656" 
d="M647 0h-95l-69 178h-311l-69 -178h-94l277 700h83zM328 580l-125 -321h249zM236.5 789q-36.5 36 -36.5 91h68q0 -28 17 -46t43 -18q27 0 44.5 18t17.5 46h68q0 -55 -37 -91t-93 -36q-55 0 -91.5 36z" />
    <glyph glyph-name="Acircumflex" unicode="&#xc2;" horiz-adv-x="656" 
d="M647 0h-95l-69 178h-311l-69 -178h-94l277 700h83zM328 580l-125 -321h249zM177 756l116 148h69l116 -148h-68l-82 90l-83 -90h-68z" />
    <glyph glyph-name="Adieresis" unicode="&#xc4;" horiz-adv-x="656" 
d="M647 0h-95l-69 178h-311l-69 -178h-94l277 700h83zM328 580l-125 -321h249zM198.5 808.5q-16.5 16.5 -16.5 40.5q0 25 16.5 41.5t40.5 16.5q26 0 43 -16.5t17 -41.5q0 -24 -17.5 -40.5t-42.5 -16.5q-24 0 -40.5 16.5zM375.5 808.5q-16.5 16.5 -16.5 40.5q0 25 16.5 41.5
t41.5 16.5t42 -16.5t17 -41.5q0 -24 -17 -40.5t-42 -16.5t-41.5 16.5z" />
    <glyph glyph-name="Agrave" unicode="&#xc0;" horiz-adv-x="656" 
d="M647 0h-95l-69 178h-311l-69 -178h-94l277 700h83zM328 580l-125 -321h249zM288 904l72 -148h-62l-117 148h107z" />
    <glyph glyph-name="Amacron" unicode="&#x100;" horiz-adv-x="656" 
d="M647 0h-95l-69 178h-311l-69 -178h-94l277 700h83zM328 580l-125 -321h249zM461 787h-267v70h267v-70z" />
    <glyph glyph-name="Aogonek" unicode="&#x104;" horiz-adv-x="656" 
d="M670 -185q-27 -5 -49 -5q-50 0 -81.5 27.5t-31.5 71.5q0 21 12.5 47t30.5 45l-68 177h-311l-69 -178h-94l277 700h83l278 -700h-17q-19 -20 -31 -40.5t-12 -36.5q0 -19 11.5 -29.5t30.5 -10.5q21 0 31 2zM328 580l-125 -321h249z" />
    <glyph glyph-name="Aring" unicode="&#xc5;" horiz-adv-x="656" 
d="M647 0h-95l-69 178h-311l-69 -178h-94l277 700h83zM328 580l-125 -321h249zM250 768.5q-31 29.5 -31 73.5t31.5 73t77.5 29q47 0 78 -29t31 -73t-31 -73.5t-78 -29.5t-78 29.5zM366.5 804.5q15.5 14.5 15.5 37.5q0 22 -15.5 36.5t-38.5 14.5t-38 -14.5t-15 -36.5
q0 -23 15 -37.5t38 -14.5t38.5 14.5z" />
    <glyph glyph-name="Aringacute" unicode="&#x1fa;" horiz-adv-x="656" 
d="M250 768.5q-31 29.5 -31 73.5q0 36 21.5 62.5t55.5 35.5l69 141h107l-112 -141q35 -9 56 -36t21 -62q0 -44 -31 -73.5t-78 -29.5t-78 29.5zM290 878.5q-15 -14.5 -15 -36.5q0 -23 15 -37.5t38 -14.5t38.5 14.5t15.5 37.5q0 22 -15.5 36.5t-38.5 14.5t-38 -14.5zM647 0
h-95l-69 178h-311l-69 -178h-94l277 700h83zM328 580l-125 -321h249z" />
    <glyph glyph-name="Atilde" unicode="&#xc3;" horiz-adv-x="656" 
d="M647 0h-95l-69 178h-311l-69 -178h-94l277 700h83zM328 580l-125 -321h249zM156 791q1 46 30.5 75t76.5 29q38 0 75 -27q23 -15 34.5 -21t27.5 -6q40 0 45 50l62 -11q-2 -47 -31.5 -75.5t-75.5 -28.5q-34 0 -75 26q-5 3 -17.5 12t-23 13t-21.5 4q-19 0 -31.5 -13
t-14.5 -37z" />
    <glyph glyph-name="AE" unicode="&#xc6;" horiz-adv-x="954" 
d="M551 331v-249h361v-82h-453v186h-247l-105 -186h-100l403 700h491v-81h-350v-206h284v-82h-284zM459 625l-201 -357h201v357z" />
    <glyph glyph-name="AEacute" unicode="&#x1fc;" horiz-adv-x="954" 
d="M551 331v-249h361v-82h-453v186h-247l-105 -186h-100l403 700h491v-81h-350v-206h284v-82h-284zM459 625l-201 -357h201v357zM533 756h-62l72 148h107z" />
    <glyph glyph-name="B" unicode="B" horiz-adv-x="613" 
d="M73 0v700h254q100 0 157 -47.5t57 -132.5q0 -46 -27 -83.5t-65 -53.5q57 -20 90 -64.5t33 -114.5q0 -95 -61 -149.5t-169 -54.5h-269zM323 412q63 0 95.5 26.5t32.5 78.5t-32.5 78.5t-95.5 26.5h-159v-210h159zM327 82q76 0 115 31.5t39 92.5q0 62 -39 94t-115 32h-163
v-250h163z" />
    <glyph glyph-name="C" unicode="C" horiz-adv-x="714" 
d="M212.5 32.5q-77.5 40.5 -124.5 121t-47 196.5q0 115 47 196t124.5 121.5t168.5 40.5q114 0 193.5 -59.5t101.5 -161.5l-90 -20q-17 76 -70.5 118t-135.5 42q-72 0 -127.5 -32.5t-86.5 -95t-31 -149.5t31 -149.5t86.5 -94.5t127.5 -32q81 0 133.5 40t71.5 113l91 -19
q-27 -100 -105 -158t-190 -58q-91 0 -168.5 40.5z" />
    <glyph glyph-name="Cacute" unicode="&#x106;" horiz-adv-x="714" 
d="M212.5 32.5q-77.5 40.5 -124.5 121t-47 196.5q0 115 47 196t124.5 121.5t168.5 40.5q114 0 193.5 -59.5t101.5 -161.5l-90 -20q-17 76 -70.5 118t-135.5 42q-72 0 -127.5 -32.5t-86.5 -95t-31 -149.5t31 -149.5t86.5 -94.5t127.5 -32q81 0 133.5 40t71.5 113l91 -19
q-27 -100 -105 -158t-190 -58q-91 0 -168.5 40.5zM394 756h-62l72 148h107z" />
    <glyph glyph-name="Ccaron" unicode="&#x10c;" horiz-adv-x="714" 
d="M212.5 32.5q-77.5 40.5 -124.5 121t-47 196.5q0 115 47 196t124.5 121.5t168.5 40.5q114 0 193.5 -59.5t101.5 -161.5l-90 -20q-17 76 -70.5 118t-135.5 42q-72 0 -127.5 -32.5t-86.5 -95t-31 -149.5t31 -149.5t86.5 -94.5t127.5 -32q81 0 133.5 40t71.5 113l91 -19
q-27 -100 -105 -158t-190 -58q-91 0 -168.5 40.5zM407 756h-69l-116 148h68l83 -89l82 89h68z" />
    <glyph glyph-name="Ccedilla" unicode="&#xc7;" horiz-adv-x="714" 
d="M513.5 114q52.5 40 71.5 113l91 -19q-26 -97 -99.5 -154.5t-180.5 -61.5l-68 -139h-107l111 142q-81 10 -147 53.5t-105 120t-39 181.5q0 115 47 196t124.5 121.5t168.5 40.5q114 0 193.5 -59.5t101.5 -161.5l-90 -20q-17 76 -70.5 118t-135.5 42q-72 0 -127.5 -32.5
t-86.5 -95t-31 -149.5t31 -149.5t86.5 -94.5t127.5 -32q81 0 133.5 40z" />
    <glyph glyph-name="Ccircumflex" unicode="&#x108;" horiz-adv-x="714" 
d="M212.5 32.5q-77.5 40.5 -124.5 121t-47 196.5q0 115 47 196t124.5 121.5t168.5 40.5q114 0 193.5 -59.5t101.5 -161.5l-90 -20q-17 76 -70.5 118t-135.5 42q-72 0 -127.5 -32.5t-86.5 -95t-31 -149.5t31 -149.5t86.5 -94.5t127.5 -32q81 0 133.5 40t71.5 113l91 -19
q-27 -100 -105 -158t-190 -58q-91 0 -168.5 40.5zM222 756l116 148h69l116 -148h-68l-82 90l-83 -90h-68z" />
    <glyph glyph-name="Cdotaccent" unicode="&#x10a;" horiz-adv-x="714" 
d="M212.5 32.5q-77.5 40.5 -124.5 121t-47 196.5q0 115 47 196t124.5 121.5t168.5 40.5q114 0 193.5 -59.5t101.5 -161.5l-90 -20q-17 76 -70.5 118t-135.5 42q-72 0 -127.5 -32.5t-86.5 -95t-31 -149.5t31 -149.5t86.5 -94.5t127.5 -32q81 0 133.5 40t71.5 113l91 -19
q-27 -100 -105 -158t-190 -58q-91 0 -168.5 40.5zM331 812q-17 17 -17 42q0 26 17 43t42 17q26 0 43.5 -17t17.5 -43q0 -25 -17.5 -42t-43.5 -17q-25 0 -42 17z" />
    <glyph glyph-name="D" unicode="D" horiz-adv-x="673" 
d="M73 0v700h208q99 0 179 -41t126 -120.5t46 -188.5t-46 -188.5t-126 -120.5t-179 -41h-208zM278 82q71 0 130 28t94.5 88.5t35.5 151.5t-35.5 151.5t-94.5 89t-130 28.5h-115v-537h115z" />
    <glyph glyph-name="Eth" unicode="&#xd0;" horiz-adv-x="673" 
d="M281 700q99 0 179 -41t126 -120.5t46 -188.5t-46 -188.5t-126 -120.5t-179 -41h-208v318h-61v64h61v318h208zM278 82q71 0 130 28t94.5 88.5t35.5 151.5t-35.5 151.5t-94.5 89t-130 28.5h-115v-237h151v-64h-151v-236h115z" />
    <glyph glyph-name="Dcaron" unicode="&#x10e;" horiz-adv-x="673" 
d="M73 0v700h208q99 0 179 -41t126 -120.5t46 -188.5t-46 -188.5t-126 -120.5t-179 -41h-208zM278 82q71 0 130 28t94.5 88.5t35.5 151.5t-35.5 151.5t-94.5 89t-130 28.5h-115v-537h115zM335 756h-69l-116 148h68l83 -89l82 89h68z" />
    <glyph glyph-name="Dcroat" unicode="&#x110;" horiz-adv-x="673" 
d="M281 700q99 0 179 -41t126 -120.5t46 -188.5t-46 -188.5t-126 -120.5t-179 -41h-208v318h-61v64h61v318h208zM278 82q71 0 130 28t94.5 88.5t35.5 151.5t-35.5 151.5t-94.5 89t-130 28.5h-115v-237h151v-64h-151v-236h115z" />
    <glyph glyph-name="E" unicode="E" horiz-adv-x="567" 
d="M525 0h-452v700h441v-81h-350v-206h284v-82h-284v-249h361v-82z" />
    <glyph glyph-name="Eacute" unicode="&#xc9;" horiz-adv-x="567" 
d="M525 0h-452v700h441v-81h-350v-206h284v-82h-284v-249h361v-82zM323 756h-62l72 148h107z" />
    <glyph glyph-name="Ebreve" unicode="&#x114;" horiz-adv-x="567" 
d="M525 0h-452v700h441v-81h-350v-206h284v-82h-284v-249h361v-82zM210.5 789q-36.5 36 -36.5 91h68q0 -28 17 -46t43 -18q27 0 44.5 18t17.5 46h68q0 -55 -37 -91t-93 -36q-55 0 -91.5 36z" />
    <glyph glyph-name="Ecaron" unicode="&#x11a;" horiz-adv-x="567" 
d="M525 0h-452v700h441v-81h-350v-206h284v-82h-284v-249h361v-82zM336 756h-69l-116 148h68l83 -89l82 89h68z" />
    <glyph glyph-name="Ecircumflex" unicode="&#xca;" horiz-adv-x="567" 
d="M525 0h-452v700h441v-81h-350v-206h284v-82h-284v-249h361v-82zM151 756l116 148h69l116 -148h-68l-82 90l-83 -90h-68z" />
    <glyph glyph-name="Edieresis" unicode="&#xcb;" horiz-adv-x="567" 
d="M525 0h-452v700h441v-81h-350v-206h284v-82h-284v-249h361v-82zM172.5 808.5q-16.5 16.5 -16.5 40.5q0 25 16.5 41.5t40.5 16.5q26 0 43 -16.5t17 -41.5q0 -24 -17.5 -40.5t-42.5 -16.5q-24 0 -40.5 16.5zM349.5 808.5q-16.5 16.5 -16.5 40.5q0 25 16.5 41.5t41.5 16.5
t42 -16.5t17 -41.5q0 -24 -17 -40.5t-42 -16.5t-41.5 16.5z" />
    <glyph glyph-name="Edotaccent" unicode="&#x116;" horiz-adv-x="567" 
d="M525 0h-452v700h441v-81h-350v-206h284v-82h-284v-249h361v-82zM260 812q-17 17 -17 42q0 26 17 43t42 17q26 0 43.5 -17t17.5 -43q0 -25 -17.5 -42t-43.5 -17q-25 0 -42 17z" />
    <glyph glyph-name="Egrave" unicode="&#xc8;" horiz-adv-x="567" 
d="M525 0h-452v700h441v-81h-350v-206h284v-82h-284v-249h361v-82zM262 904l72 -148h-62l-117 148h107z" />
    <glyph glyph-name="Emacron" unicode="&#x112;" horiz-adv-x="567" 
d="M525 0h-452v700h441v-81h-350v-206h284v-82h-284v-249h361v-82zM435 787h-267v70h267v-70z" />
    <glyph glyph-name="Eogonek" unicode="&#x118;" horiz-adv-x="567" 
d="M565 -185q-27 -5 -49 -5q-50 0 -81.5 27.5t-31.5 71.5q0 20 12 46t30 45h-372v700h441v-81h-350v-206h284v-82h-284v-249h361v-82q-19 -20 -31 -40.5t-12 -36.5q0 -19 11.5 -29.5t30.5 -10.5q21 0 31 2z" />
    <glyph glyph-name="F" unicode="F" horiz-adv-x="561" 
d="M164 0h-91v700h448v-81h-357v-214h292v-82h-292v-323z" />
    <glyph glyph-name="G" unicode="G" horiz-adv-x="742" 
d="M211 33q-77 41 -123.5 121.5t-46.5 195.5t47 195.5t124.5 121.5t167.5 41q117 0 197.5 -60t101.5 -161l-90 -19q-15 74 -70.5 116.5t-138.5 42.5q-72 0 -127 -32.5t-86.5 -95t-31.5 -149.5t31 -149t86.5 -94.5t126.5 -32.5q64 0 113 26t76 73.5t28 108.5h-244v79h330
v-361h-83v108q-24 -53 -85 -84.5t-136 -31.5q-90 0 -167 41z" />
    <glyph glyph-name="Gbreve" unicode="&#x11e;" horiz-adv-x="742" 
d="M211 33q-77 41 -123.5 121.5t-46.5 195.5t47 195.5t124.5 121.5t167.5 41q117 0 197.5 -60t101.5 -161l-90 -19q-15 74 -70.5 116.5t-138.5 42.5q-72 0 -127 -32.5t-86.5 -95t-31.5 -149.5t31 -149t86.5 -94.5t126.5 -32.5q64 0 113 26t76 73.5t28 108.5h-244v79h330
v-361h-83v108q-24 -53 -85 -84.5t-136 -31.5q-90 0 -167 41zM276.5 789q-36.5 36 -36.5 91h68q0 -28 17 -46t43 -18q27 0 44.5 18t17.5 46h68q0 -55 -37 -91t-93 -36q-55 0 -91.5 36z" />
    <glyph glyph-name="Gcircumflex" unicode="&#x11c;" horiz-adv-x="742" 
d="M211 33q-77 41 -123.5 121.5t-46.5 195.5t47 195.5t124.5 121.5t167.5 41q117 0 197.5 -60t101.5 -161l-90 -19q-15 74 -70.5 116.5t-138.5 42.5q-72 0 -127 -32.5t-86.5 -95t-31.5 -149.5t31 -149t86.5 -94.5t126.5 -32.5q64 0 113 26t76 73.5t28 108.5h-244v79h330
v-361h-83v108q-24 -53 -85 -84.5t-136 -31.5q-90 0 -167 41zM217 756l116 148h69l116 -148h-68l-82 90l-83 -90h-68z" />
    <glyph glyph-name="uni0122" unicode="&#x122;" horiz-adv-x="742" 
d="M211 33q-77 41 -123.5 121.5t-46.5 195.5t47 195.5t124.5 121.5t167.5 41q117 0 197.5 -60t101.5 -161l-90 -19q-15 74 -70.5 116.5t-138.5 42.5q-72 0 -127 -32.5t-86.5 -95t-31.5 -149.5t31 -149t86.5 -94.5t126.5 -32.5q64 0 113 26t76 73.5t28 108.5h-244v79h330
v-361h-83v108q-24 -53 -85 -84.5t-136 -31.5q-90 0 -167 41zM337 -190h-62l44 148h98z" />
    <glyph glyph-name="Gdotaccent" unicode="&#x120;" horiz-adv-x="742" 
d="M211 33q-77 41 -123.5 121.5t-46.5 195.5t47 195.5t124.5 121.5t167.5 41q117 0 197.5 -60t101.5 -161l-90 -19q-15 74 -70.5 116.5t-138.5 42.5q-72 0 -127 -32.5t-86.5 -95t-31.5 -149.5t31 -149t86.5 -94.5t126.5 -32.5q64 0 113 26t76 73.5t28 108.5h-244v79h330
v-361h-83v108q-24 -53 -85 -84.5t-136 -31.5q-90 0 -167 41zM326 812q-17 17 -17 42q0 26 17 43t42 17q26 0 43.5 -17t17.5 -43q0 -25 -17.5 -42t-43.5 -17q-25 0 -42 17z" />
    <glyph glyph-name="H" unicode="H" horiz-adv-x="691" 
d="M527 410v290h91v-700h-91v328h-363v-328h-91v700h91v-290h363z" />
    <glyph glyph-name="Hbar" unicode="&#x126;" horiz-adv-x="691" 
d="M618 591h69v-73h-69v-518h-91v328h-363v-328h-91v518h-69v73h69v109h91v-109h363v109h91v-109zM164 410h363v108h-363v-108z" />
    <glyph glyph-name="Hcircumflex" unicode="&#x124;" horiz-adv-x="691" 
d="M527 410v290h91v-700h-91v328h-363v-328h-91v700h91v-290h363zM194 756l116 148h69l116 -148h-68l-82 90l-83 -90h-68z" />
    <glyph glyph-name="I" unicode="I" horiz-adv-x="236" 
d="M164 0h-91v700h91v-700z" />
    <glyph glyph-name="IJ" unicode="&#x132;" horiz-adv-x="575" 
d="M164 0h-91v700h91v-700zM261 83q24 -8 52 -8q52 0 76 28t24 95v502h89v-499q0 -104 -48 -155.5t-131 -51.5q-30 0 -62 8v81z" />
    <glyph glyph-name="Iacute" unicode="&#xcd;" horiz-adv-x="236" 
d="M164 0h-91v700h91v-700zM138 756h-62l72 148h107z" />
    <glyph glyph-name="Ibreve" unicode="&#x12c;" horiz-adv-x="236" 
d="M164 0h-91v700h91v-700zM25.5 789q-36.5 36 -36.5 91h68q0 -28 17 -46t43 -18q27 0 44.5 18t17.5 46h68q0 -55 -37 -91t-93 -36q-55 0 -91.5 36z" />
    <glyph glyph-name="Icircumflex" unicode="&#xce;" horiz-adv-x="236" 
d="M164 0h-91v700h91v-700zM-34 756l116 148h69l116 -148h-68l-82 90l-83 -90h-68z" />
    <glyph glyph-name="Idieresis" unicode="&#xcf;" horiz-adv-x="236" 
d="M164 0h-91v700h91v-700zM-12.5 808.5q-16.5 16.5 -16.5 40.5q0 25 16.5 41.5t40.5 16.5q26 0 43 -16.5t17 -41.5q0 -24 -17.5 -40.5t-42.5 -16.5q-24 0 -40.5 16.5zM164.5 808.5q-16.5 16.5 -16.5 40.5q0 25 16.5 41.5t41.5 16.5t42 -16.5t17 -41.5q0 -24 -17 -40.5
t-42 -16.5t-41.5 16.5z" />
    <glyph glyph-name="Idotaccent" unicode="&#x130;" horiz-adv-x="236" 
d="M164 0h-91v700h91v-700zM75 812q-17 17 -17 42q0 26 17 43t42 17q26 0 43.5 -17t17.5 -43q0 -25 -17.5 -42t-43.5 -17q-25 0 -42 17z" />
    <glyph glyph-name="Igrave" unicode="&#xcc;" horiz-adv-x="236" 
d="M164 0h-91v700h91v-700zM78 904l72 -148h-62l-117 148h107z" />
    <glyph glyph-name="Imacron" unicode="&#x12a;" horiz-adv-x="236" 
d="M164 0h-91v700h91v-700zM251 787h-267v70h267v-70z" />
    <glyph glyph-name="Iogonek" unicode="&#x12e;" horiz-adv-x="236" 
d="M204 -185q-27 -5 -49 -5q-50 0 -81.5 27.5t-31.5 71.5q0 20 12 46t30 45h-11v700h91v-700q-19 -20 -31 -40.5t-12 -36.5q0 -19 11.5 -29.5t30.5 -10.5q21 0 31 2z" />
    <glyph glyph-name="Itilde" unicode="&#x128;" horiz-adv-x="236" 
d="M164 0h-91v700h91v-700zM-55 791q1 46 30.5 75t76.5 29q38 0 75 -27q23 -15 34.5 -21t27.5 -6q40 0 45 50l62 -11q-2 -47 -31.5 -75.5t-75.5 -28.5q-34 0 -75 26q-5 3 -17.5 12t-23 13t-21.5 4q-19 0 -31.5 -13t-14.5 -37z" />
    <glyph glyph-name="J" unicode="J" horiz-adv-x="339" 
d="M25 83q24 -8 52 -8q52 0 76 28t24 95v502h89v-499q0 -104 -48 -155.5t-131 -51.5q-30 0 -62 8v81z" />
    <glyph glyph-name="Jcircumflex" unicode="&#x134;" horiz-adv-x="339" 
d="M25 83q24 -8 52 -8q52 0 76 28t24 95v502h89v-499q0 -104 -48 -155.5t-131 -51.5q-30 0 -62 8v81zM70 756l116 148h69l116 -148h-68l-82 90l-83 -90h-68z" />
    <glyph glyph-name="K" unicode="K" horiz-adv-x="629" 
d="M620 0h-110l-253 358l-93 -96v-262h-91v700h91v-317l306 317h121l-270 -278z" />
    <glyph glyph-name="uni0136" unicode="&#x136;" horiz-adv-x="629" 
d="M620 0h-110l-253 358l-93 -96v-262h-91v700h91v-317l306 317h121l-270 -278zM268 -190h-62l44 148h98z" />
    <glyph glyph-name="L" unicode="L" horiz-adv-x="525" 
d="M511 0h-438v700h91v-618h347v-82z" />
    <glyph glyph-name="Lacute" unicode="&#x139;" horiz-adv-x="525" 
d="M511 0h-438v700h91v-618h347v-82zM138 756h-62l72 148h107z" />
    <glyph glyph-name="Lcaron" unicode="&#x13d;" horiz-adv-x="525" 
d="M511 0h-438v700h91v-618h347v-82zM269 560h-51l32 174h88z" />
    <glyph glyph-name="uni013B" unicode="&#x13b;" horiz-adv-x="525" 
d="M511 0h-438v700h91v-618h347v-82zM283 -190h-62l44 148h98z" />
    <glyph glyph-name="Ldot" unicode="&#x13f;" horiz-adv-x="525" 
d="M511 0h-438v700h91v-618h347v-82zM317 313q-17 17 -17 43t17 43t44 17q26 0 43.5 -17.5t17.5 -42.5q0 -26 -17.5 -43t-43.5 -17q-27 0 -44 17z" />
    <glyph glyph-name="Lslash" unicode="&#x141;" horiz-adv-x="525" 
d="M164 313v-231h347v-82h-438v271l-87 -41v78l87 41v351h91v-309l176 82v-77z" />
    <glyph glyph-name="M" unicode="M" horiz-adv-x="837" 
d="M162 0h-89v700h110l236 -568l236 568h110v-700h-90v528l-218 -528h-76l-219 528v-528z" />
    <glyph glyph-name="N" unicode="N" horiz-adv-x="689" 
d="M162 0h-89v700h101l353 -557v557h89v-700h-101l-353 555v-555z" />
    <glyph glyph-name="Nacute" unicode="&#x143;" horiz-adv-x="689" 
d="M162 0h-89v700h101l353 -557v557h89v-700h-101l-353 555v-555zM366 756h-62l72 148h107z" />
    <glyph glyph-name="Ncaron" unicode="&#x147;" horiz-adv-x="689" 
d="M162 0h-89v700h101l353 -557v557h89v-700h-101l-353 555v-555zM379 756h-69l-116 148h68l83 -89l82 89h68z" />
    <glyph glyph-name="uni0145" unicode="&#x145;" horiz-adv-x="689" 
d="M162 0h-89v700h101l353 -557v557h89v-700h-101l-353 555v-555zM315 -190h-62l44 148h98z" />
    <glyph glyph-name="Eng" unicode="&#x14a;" horiz-adv-x="689" 
d="M527 700h89v-750q0 -49 -21.5 -86.5t-60.5 -56.5t-90 -15v78q44 -4 64 20t20 74v24l-366 567v-555h-89v700h101l353 -557v557z" />
    <glyph glyph-name="Ntilde" unicode="&#xd1;" horiz-adv-x="689" 
d="M162 0h-89v700h101l353 -557v557h89v-700h-101l-353 555v-555zM173 791q1 46 30.5 75t76.5 29q38 0 75 -27q23 -15 34.5 -21t27.5 -6q40 0 45 50l62 -11q-2 -47 -31.5 -75.5t-75.5 -28.5q-34 0 -75 26q-5 3 -17.5 12t-23 13t-21.5 4q-19 0 -31.5 -13t-14.5 -37z" />
    <glyph glyph-name="O" unicode="O" horiz-adv-x="771" 
d="M208.5 38q-78.5 46 -123 127.5t-44.5 184.5t44.5 184.5t123 127.5t177.5 46q98 0 176.5 -46t123 -127.5t44.5 -184.5t-44.5 -184.5t-123 -127.5t-176.5 -46q-99 0 -177.5 46zM515 109.5q57 35.5 89.5 98.5t32.5 142t-32.5 142t-90 99t-129.5 36t-129 -36t-89.5 -99
t-32.5 -142t32.5 -142t89.5 -98.5t129 -35.5q73 0 130 35.5z" />
    <glyph glyph-name="Oacute" unicode="&#xd3;" horiz-adv-x="771" 
d="M208.5 38q-78.5 46 -123 127.5t-44.5 184.5t44.5 184.5t123 127.5t177.5 46q98 0 176.5 -46t123 -127.5t44.5 -184.5t-44.5 -184.5t-123 -127.5t-176.5 -46q-99 0 -177.5 46zM515 109.5q57 35.5 89.5 98.5t32.5 142t-32.5 142t-90 99t-129.5 36t-129 -36t-89.5 -99
t-32.5 -142t32.5 -142t89.5 -98.5t129 -35.5q73 0 130 35.5zM406 756h-62l72 148h107z" />
    <glyph glyph-name="Obreve" unicode="&#x14e;" horiz-adv-x="771" 
d="M208.5 38q-78.5 46 -123 127.5t-44.5 184.5t44.5 184.5t123 127.5t177.5 46q98 0 176.5 -46t123 -127.5t44.5 -184.5t-44.5 -184.5t-123 -127.5t-176.5 -46q-99 0 -177.5 46zM515 109.5q57 35.5 89.5 98.5t32.5 142t-32.5 142t-90 99t-129.5 36t-129 -36t-89.5 -99
t-32.5 -142t32.5 -142t89.5 -98.5t129 -35.5q73 0 130 35.5zM293.5 789q-36.5 36 -36.5 91h68q0 -28 17 -46t43 -18q27 0 44.5 18t17.5 46h68q0 -55 -37 -91t-93 -36q-55 0 -91.5 36z" />
    <glyph glyph-name="Ocircumflex" unicode="&#xd4;" horiz-adv-x="771" 
d="M208.5 38q-78.5 46 -123 127.5t-44.5 184.5t44.5 184.5t123 127.5t177.5 46q98 0 176.5 -46t123 -127.5t44.5 -184.5t-44.5 -184.5t-123 -127.5t-176.5 -46q-99 0 -177.5 46zM515 109.5q57 35.5 89.5 98.5t32.5 142t-32.5 142t-90 99t-129.5 36t-129 -36t-89.5 -99
t-32.5 -142t32.5 -142t89.5 -98.5t129 -35.5q73 0 130 35.5zM234 756l116 148h69l116 -148h-68l-82 90l-83 -90h-68z" />
    <glyph glyph-name="Odieresis" unicode="&#xd6;" horiz-adv-x="771" 
d="M208.5 38q-78.5 46 -123 127.5t-44.5 184.5t44.5 184.5t123 127.5t177.5 46q98 0 176.5 -46t123 -127.5t44.5 -184.5t-44.5 -184.5t-123 -127.5t-176.5 -46q-99 0 -177.5 46zM515 109.5q57 35.5 89.5 98.5t32.5 142t-32.5 142t-90 99t-129.5 36t-129 -36t-89.5 -99
t-32.5 -142t32.5 -142t89.5 -98.5t129 -35.5q73 0 130 35.5zM255.5 808.5q-16.5 16.5 -16.5 40.5q0 25 16.5 41.5t40.5 16.5q26 0 43 -16.5t17 -41.5q0 -24 -17.5 -40.5t-42.5 -16.5q-24 0 -40.5 16.5zM432.5 808.5q-16.5 16.5 -16.5 40.5q0 25 16.5 41.5t41.5 16.5
t42 -16.5t17 -41.5q0 -24 -17 -40.5t-42 -16.5t-41.5 16.5z" />
    <glyph glyph-name="Ograve" unicode="&#xd2;" horiz-adv-x="771" 
d="M208.5 38q-78.5 46 -123 127.5t-44.5 184.5t44.5 184.5t123 127.5t177.5 46q98 0 176.5 -46t123 -127.5t44.5 -184.5t-44.5 -184.5t-123 -127.5t-176.5 -46q-99 0 -177.5 46zM515 109.5q57 35.5 89.5 98.5t32.5 142t-32.5 142t-90 99t-129.5 36t-129 -36t-89.5 -99
t-32.5 -142t32.5 -142t89.5 -98.5t129 -35.5q73 0 130 35.5zM346 904l72 -148h-62l-117 148h107z" />
    <glyph glyph-name="Ohungarumlaut" unicode="&#x150;" horiz-adv-x="771" 
d="M208.5 38q-78.5 46 -123 127.5t-44.5 184.5t44.5 184.5t123 127.5t177.5 46q98 0 176.5 -46t123 -127.5t44.5 -184.5t-44.5 -184.5t-123 -127.5t-176.5 -46q-99 0 -177.5 46zM515 109.5q57 35.5 89.5 98.5t32.5 142t-32.5 142t-90 99t-129.5 36t-129 -36t-89.5 -99
t-32.5 -142t32.5 -142t89.5 -98.5t129 -35.5q73 0 130 35.5zM340 756h-73l72 148h82zM477 756h-73l72 148h83z" />
    <glyph glyph-name="Omacron" unicode="&#x14c;" horiz-adv-x="771" 
d="M208.5 38q-78.5 46 -123 127.5t-44.5 184.5t44.5 184.5t123 127.5t177.5 46q98 0 176.5 -46t123 -127.5t44.5 -184.5t-44.5 -184.5t-123 -127.5t-176.5 -46q-99 0 -177.5 46zM515 109.5q57 35.5 89.5 98.5t32.5 142t-32.5 142t-90 99t-129.5 36t-129 -36t-89.5 -99
t-32.5 -142t32.5 -142t89.5 -98.5t129 -35.5q73 0 130 35.5zM519 787h-267v70h267v-70z" />
    <glyph glyph-name="Oslash" unicode="&#xd8;" horiz-adv-x="771" 
d="M647 591q40 -47 61.5 -108.5t21.5 -132.5q0 -103 -44.5 -184.5t-123 -127.5t-176.5 -46q-112 0 -199 60l-59 -69l-61 57l58 68q-40 47 -62 109t-22 133q0 103 44.5 184.5t123 127.5t177.5 46q111 0 198 -60l59 69l62 -57zM184 178l344 404q-61 45 -143 45q-72 0 -129 -36
t-89.5 -99t-32.5 -142q0 -100 50 -172zM515 109.5q57 35.5 89.5 98.5t32.5 142q0 99 -50 172l-344 -404q63 -44 142 -44q73 0 130 35.5z" />
    <glyph glyph-name="Otilde" unicode="&#xd5;" horiz-adv-x="771" 
d="M208.5 38q-78.5 46 -123 127.5t-44.5 184.5t44.5 184.5t123 127.5t177.5 46q98 0 176.5 -46t123 -127.5t44.5 -184.5t-44.5 -184.5t-123 -127.5t-176.5 -46q-99 0 -177.5 46zM515 109.5q57 35.5 89.5 98.5t32.5 142t-32.5 142t-90 99t-129.5 36t-129 -36t-89.5 -99
t-32.5 -142t32.5 -142t89.5 -98.5t129 -35.5q73 0 130 35.5zM213 791q1 46 30.5 75t76.5 29q38 0 75 -27q23 -15 34.5 -21t27.5 -6q40 0 45 50l62 -11q-2 -47 -31.5 -75.5t-75.5 -28.5q-34 0 -75 26q-5 3 -17.5 12t-23 13t-21.5 4q-19 0 -31.5 -13t-14.5 -37z" />
    <glyph glyph-name="OE" unicode="&#x152;" horiz-adv-x="1144" 
d="M741 82h361v-82h-453v111q-47 -57 -115 -88t-148 -31q-99 0 -177.5 46t-123 127.5t-44.5 184.5t44.5 184.5t123 127.5t177.5 46q80 0 148 -31t115 -88v111h442v-81h-350v-206h284v-82h-284v-249zM515 109.5q57 35.5 89.5 98.5t32.5 142t-32.5 142t-90 99t-129.5 36
t-129 -36t-89.5 -99t-32.5 -142t32.5 -142t89.5 -98.5t129 -35.5q73 0 130 35.5z" />
    <glyph glyph-name="P" unicode="P" horiz-adv-x="588" 
d="M73 0v700h266q102 0 163 -55.5t61 -147.5t-61 -147.5t-163 -55.5h-175v-294h-91zM336 376q62 0 97.5 32t35.5 89t-35.5 89.5t-97.5 32.5h-172v-243h172z" />
    <glyph glyph-name="Thorn" unicode="&#xde;" horiz-adv-x="588" 
d="M73 0v700h91v-152h175q104 0 164 -53t60 -145t-60 -145t-164 -53h-175v-152h-91zM338 232q68 0 100 32t32 86t-32 86t-100 32h-174v-236h174z" />
    <glyph glyph-name="Q" unicode="Q" horiz-adv-x="772" 
d="M703 203.5q-27 -67.5 -76 -116.5l74 -82l-57 -49l-77 85q-80 -49 -181 -49q-99 0 -177.5 46t-123 127.5t-44.5 184.5t44.5 184.5t123 127.5t177.5 46q98 0 176.5 -46t123 -127.5t44.5 -184.5q0 -79 -27 -146.5zM508 105l-137 151l57 50l139 -153q34 37 52 87.5t18 109.5
q0 79 -32.5 142t-90 99t-129.5 36t-129 -36t-89.5 -99t-32.5 -142t32.5 -142t89.5 -98.5t129 -35.5q67 0 123 31z" />
    <glyph glyph-name="R" unicode="R" horiz-adv-x="631" 
d="M617 0h-107l-189 312h-157v-312h-91v700h252q66 0 116 -24t77 -68t27 -102q0 -64 -34.5 -111.5t-95.5 -68.5zM164 619v-225h151q65 0 101 29.5t36 82.5t-36 83t-101 30h-151z" />
    <glyph glyph-name="Racute" unicode="&#x154;" horiz-adv-x="631" 
d="M617 0h-107l-189 312h-157v-312h-91v700h252q66 0 116 -24t77 -68t27 -102q0 -64 -34.5 -111.5t-95.5 -68.5zM164 619v-225h151q65 0 101 29.5t36 82.5t-36 83t-101 30h-151zM304 756h-62l72 148h107z" />
    <glyph glyph-name="Rcaron" unicode="&#x158;" horiz-adv-x="631" 
d="M617 0h-107l-189 312h-157v-312h-91v700h252q66 0 116 -24t77 -68t27 -102q0 -64 -34.5 -111.5t-95.5 -68.5zM164 619v-225h151q65 0 101 29.5t36 82.5t-36 83t-101 30h-151zM317 756h-69l-116 148h68l83 -89l82 89h68z" />
    <glyph glyph-name="uni0156" unicode="&#x156;" horiz-adv-x="631" 
d="M617 0h-107l-189 312h-157v-312h-91v700h252q66 0 116 -24t77 -68t27 -102q0 -64 -34.5 -111.5t-95.5 -68.5zM164 619v-225h151q65 0 101 29.5t36 82.5t-36 83t-101 30h-151zM282 -190h-62l44 148h98z" />
    <glyph glyph-name="S" unicode="S" horiz-adv-x="586" 
d="M171.5 19q-56.5 27 -94 76t-48.5 112l86 28q10 -73 61 -117.5t121 -44.5q72 0 115 31.5t43 83.5q0 41 -23.5 66.5t-58.5 40t-96 32.5q-73 22 -116 41t-73.5 57t-30.5 100q0 54 30 95.5t84 64.5t122 23q96 0 164 -47.5t81 -125.5l-83 -32q-11 57 -53.5 90.5t-108.5 33.5
q-67 0 -105.5 -27.5t-38.5 -74.5q0 -32 20.5 -52.5t52 -32.5t86.5 -27q76 -21 124 -41.5t82.5 -64.5t34.5 -118q0 -59 -31.5 -103.5t-89 -69t-133.5 -24.5q-67 0 -123.5 27z" />
    <glyph glyph-name="Sacute" unicode="&#x15a;" horiz-adv-x="586" 
d="M171.5 19q-56.5 27 -94 76t-48.5 112l86 28q10 -73 61 -117.5t121 -44.5q72 0 115 31.5t43 83.5q0 41 -23.5 66.5t-58.5 40t-96 32.5q-73 22 -116 41t-73.5 57t-30.5 100q0 54 30 95.5t84 64.5t122 23q96 0 164 -47.5t81 -125.5l-83 -32q-11 57 -53.5 90.5t-108.5 33.5
q-67 0 -105.5 -27.5t-38.5 -74.5q0 -32 20.5 -52.5t52 -32.5t86.5 -27q76 -21 124 -41.5t82.5 -64.5t34.5 -118q0 -59 -31.5 -103.5t-89 -69t-133.5 -24.5q-67 0 -123.5 27zM312 756h-62l72 148h107z" />
    <glyph glyph-name="Scaron" unicode="&#x160;" horiz-adv-x="586" 
d="M171.5 19q-56.5 27 -94 76t-48.5 112l86 28q10 -73 61 -117.5t121 -44.5q72 0 115 31.5t43 83.5q0 41 -23.5 66.5t-58.5 40t-96 32.5q-73 22 -116 41t-73.5 57t-30.5 100q0 54 30 95.5t84 64.5t122 23q96 0 164 -47.5t81 -125.5l-83 -32q-11 57 -53.5 90.5t-108.5 33.5
q-67 0 -105.5 -27.5t-38.5 -74.5q0 -32 20.5 -52.5t52 -32.5t86.5 -27q76 -21 124 -41.5t82.5 -64.5t34.5 -118q0 -59 -31.5 -103.5t-89 -69t-133.5 -24.5q-67 0 -123.5 27zM326 756h-69l-116 148h68l83 -89l82 89h68z" />
    <glyph glyph-name="Scedilla" unicode="&#x15e;" horiz-adv-x="586" 
d="M490 54.5q-59 -52.5 -159 -60.5l-68 -141h-107l109 140q-91 9 -155.5 67.5t-80.5 146.5l86 28q10 -73 61 -117.5t121 -44.5q72 0 115 31.5t43 83.5q0 41 -23.5 66.5t-58.5 40t-96 32.5q-73 22 -116 41t-73.5 57t-30.5 100q0 54 30 95.5t84 64.5t122 23q96 0 164 -47.5
t81 -125.5l-83 -32q-11 57 -53.5 90.5t-108.5 33.5q-67 0 -105.5 -27.5t-38.5 -74.5q0 -32 20.5 -52.5t52 -32.5t86.5 -27q76 -21 124 -41.5t82.5 -64.5t34.5 -118q0 -82 -59 -134.5z" />
    <glyph glyph-name="Scircumflex" unicode="&#x15c;" horiz-adv-x="586" 
d="M171.5 19q-56.5 27 -94 76t-48.5 112l86 28q10 -73 61 -117.5t121 -44.5q72 0 115 31.5t43 83.5q0 41 -23.5 66.5t-58.5 40t-96 32.5q-73 22 -116 41t-73.5 57t-30.5 100q0 54 30 95.5t84 64.5t122 23q96 0 164 -47.5t81 -125.5l-83 -32q-11 57 -53.5 90.5t-108.5 33.5
q-67 0 -105.5 -27.5t-38.5 -74.5q0 -32 20.5 -52.5t52 -32.5t86.5 -27q76 -21 124 -41.5t82.5 -64.5t34.5 -118q0 -59 -31.5 -103.5t-89 -69t-133.5 -24.5q-67 0 -123.5 27zM140 756l116 148h69l116 -148h-68l-82 90l-83 -90h-68z" />
    <glyph glyph-name="uni0218" unicode="&#x218;" horiz-adv-x="586" 
d="M171.5 19q-56.5 27 -94 76t-48.5 112l86 28q10 -73 61 -117.5t121 -44.5q72 0 115 31.5t43 83.5q0 41 -23.5 66.5t-58.5 40t-96 32.5q-73 22 -116 41t-73.5 57t-30.5 100q0 54 30 95.5t84 64.5t122 23q96 0 164 -47.5t81 -125.5l-83 -32q-11 57 -53.5 90.5t-108.5 33.5
q-67 0 -105.5 -27.5t-38.5 -74.5q0 -32 20.5 -52.5t52 -32.5t86.5 -27q76 -21 124 -41.5t82.5 -64.5t34.5 -118q0 -59 -31.5 -103.5t-89 -69t-133.5 -24.5q-67 0 -123.5 27zM258 -190h-62l44 148h98z" />
    <glyph glyph-name="uni1E9E" unicode="&#x1e9e;" horiz-adv-x="610" 
d="M417 685.5q48 -22.5 78.5 -62.5t37.5 -91l-149 -144q83 -7 134 -57.5t51 -127.5q0 -57 -27 -103.5t-74 -73t-105 -26.5h-131v82h127q52 0 87.5 35t35.5 87q0 55 -35 87.5t-93 32.5h-70l-11 51l168 167q-11 38 -47 61.5t-83 23.5q-66 0 -106.5 -43t-40.5 -113v-471h-91
v471q0 71 30 124.5t84 83t124 29.5q58 0 106 -22.5z" />
    <glyph glyph-name="T" unicode="T" horiz-adv-x="573" 
d="M332 0h-91v619h-223v81h536v-81h-222v-619z" />
    <glyph glyph-name="Tbar" unicode="&#x166;" horiz-adv-x="559" 
d="M554 700v-81h-222v-181h177v-74h-177v-364h-91v364h-190v74h190v181h-223v81h536z" />
    <glyph glyph-name="Tcaron" unicode="&#x164;" horiz-adv-x="573" 
d="M332 0h-91v619h-223v81h536v-81h-222v-619zM320 756h-69l-116 148h68l83 -89l82 89h68z" />
    <glyph glyph-name="uni0162" unicode="&#x162;" horiz-adv-x="573" 
d="M18 619v81h536v-81h-222v-619l-72 -147h-107l114 147h-26v619h-223z" />
    <glyph glyph-name="uni021A" unicode="&#x21a;" horiz-adv-x="573" 
d="M332 0h-91v619h-223v81h536v-81h-222v-619zM256 -190h-62l44 148h98z" />
    <glyph glyph-name="U" unicode="U" horiz-adv-x="676" 
d="M199 22q-60 30 -93 86.5t-33 133.5v458h89v-463q0 -76 48 -119.5t128 -43.5q81 0 129.5 43.5t48.5 119.5v463h88v-458q0 -77 -33 -133.5t-93 -86.5t-140 -30q-79 0 -139 30z" />
    <glyph glyph-name="Uacute" unicode="&#xda;" horiz-adv-x="676" 
d="M199 22q-60 30 -93 86.5t-33 133.5v458h89v-463q0 -76 48 -119.5t128 -43.5q81 0 129.5 43.5t48.5 119.5v463h88v-458q0 -77 -33 -133.5t-93 -86.5t-140 -30q-79 0 -139 30zM359 756h-62l72 148h107z" />
    <glyph glyph-name="Ubreve" unicode="&#x16c;" horiz-adv-x="676" 
d="M199 22q-60 30 -93 86.5t-33 133.5v458h89v-463q0 -76 48 -119.5t128 -43.5q81 0 129.5 43.5t48.5 119.5v463h88v-458q0 -77 -33 -133.5t-93 -86.5t-140 -30q-79 0 -139 30zM246.5 789q-36.5 36 -36.5 91h68q0 -28 17 -46t43 -18q27 0 44.5 18t17.5 46h68q0 -55 -37 -91
t-93 -36q-55 0 -91.5 36z" />
    <glyph glyph-name="Ucircumflex" unicode="&#xdb;" horiz-adv-x="676" 
d="M199 22q-60 30 -93 86.5t-33 133.5v458h89v-463q0 -76 48 -119.5t128 -43.5q81 0 129.5 43.5t48.5 119.5v463h88v-458q0 -77 -33 -133.5t-93 -86.5t-140 -30q-79 0 -139 30zM187 756l116 148h69l116 -148h-68l-82 90l-83 -90h-68z" />
    <glyph glyph-name="Udieresis" unicode="&#xdc;" horiz-adv-x="676" 
d="M199 22q-60 30 -93 86.5t-33 133.5v458h89v-463q0 -76 48 -119.5t128 -43.5q81 0 129.5 43.5t48.5 119.5v463h88v-458q0 -77 -33 -133.5t-93 -86.5t-140 -30q-79 0 -139 30zM208.5 808.5q-16.5 16.5 -16.5 40.5q0 25 16.5 41.5t40.5 16.5q26 0 43 -16.5t17 -41.5
q0 -24 -17.5 -40.5t-42.5 -16.5q-24 0 -40.5 16.5zM385.5 808.5q-16.5 16.5 -16.5 40.5q0 25 16.5 41.5t41.5 16.5t42 -16.5t17 -41.5q0 -24 -17 -40.5t-42 -16.5t-41.5 16.5z" />
    <glyph glyph-name="Ugrave" unicode="&#xd9;" horiz-adv-x="676" 
d="M199 22q-60 30 -93 86.5t-33 133.5v458h89v-463q0 -76 48 -119.5t128 -43.5q81 0 129.5 43.5t48.5 119.5v463h88v-458q0 -77 -33 -133.5t-93 -86.5t-140 -30q-79 0 -139 30zM298 904l72 -148h-62l-117 148h107z" />
    <glyph glyph-name="Uhungarumlaut" unicode="&#x170;" horiz-adv-x="676" 
d="M199 22q-60 30 -93 86.5t-33 133.5v458h89v-463q0 -76 48 -119.5t128 -43.5q81 0 129.5 43.5t48.5 119.5v463h88v-458q0 -77 -33 -133.5t-93 -86.5t-140 -30q-79 0 -139 30zM293 756h-73l72 148h82zM430 756h-73l72 148h83z" />
    <glyph glyph-name="Umacron" unicode="&#x16a;" horiz-adv-x="676" 
d="M199 22q-60 30 -93 86.5t-33 133.5v458h89v-463q0 -76 48 -119.5t128 -43.5q81 0 129.5 43.5t48.5 119.5v463h88v-458q0 -77 -33 -133.5t-93 -86.5t-140 -30q-79 0 -139 30zM471 787h-267v70h267v-70z" />
    <glyph glyph-name="Uogonek" unicode="&#x172;" horiz-adv-x="676" 
d="M516 700h88v-458q0 -107 -62.5 -173t-168.5 -75q-37 -42 -37 -71q0 -19 11.5 -29.5t30.5 -10.5q21 0 31 2l10 -70q-27 -5 -49 -5q-50 0 -81.5 27.5t-31.5 71.5q0 19 10.5 42.5t26.5 43.5q-102 11 -161.5 76.5t-59.5 170.5v458h89v-463q0 -76 48 -119.5t128 -43.5
q81 0 129.5 43.5t48.5 119.5v463z" />
    <glyph glyph-name="Uring" unicode="&#x16e;" horiz-adv-x="676" 
d="M199 22q-60 30 -93 86.5t-33 133.5v458h89v-463q0 -76 48 -119.5t128 -43.5q81 0 129.5 43.5t48.5 119.5v463h88v-458q0 -77 -33 -133.5t-93 -86.5t-140 -30q-79 0 -139 30zM260 768.5q-31 29.5 -31 73.5t31.5 73t77.5 29q47 0 78 -29t31 -73t-31 -73.5t-78 -29.5
t-78 29.5zM376.5 804.5q15.5 14.5 15.5 37.5q0 22 -15.5 36.5t-38.5 14.5t-38 -14.5t-15 -36.5q0 -23 15 -37.5t38 -14.5t38.5 14.5z" />
    <glyph glyph-name="Utilde" unicode="&#x168;" horiz-adv-x="676" 
d="M199 22q-60 30 -93 86.5t-33 133.5v458h89v-463q0 -76 48 -119.5t128 -43.5q81 0 129.5 43.5t48.5 119.5v463h88v-458q0 -77 -33 -133.5t-93 -86.5t-140 -30q-79 0 -139 30zM166 791q1 46 30.5 75t76.5 29q38 0 75 -27q23 -15 34.5 -21t27.5 -6q40 0 45 50l62 -11
q-2 -47 -31.5 -75.5t-75.5 -28.5q-34 0 -75 26q-5 3 -17.5 12t-23 13t-21.5 4q-19 0 -31.5 -13t-14.5 -37z" />
    <glyph glyph-name="V" unicode="V" horiz-adv-x="636" 
d="M365 0h-93l-263 700h93l216 -595l217 595h93z" />
    <glyph glyph-name="W" unicode="W" horiz-adv-x="990" 
d="M326 0h-95l-213 700h94l167 -595l169 595h95l168 -595l167 595h94l-212 -700h-96l-168 564z" />
    <glyph glyph-name="Wacute" unicode="&#x1e82;" horiz-adv-x="990" 
d="M326 0h-95l-213 700h94l167 -595l169 595h95l168 -595l167 595h94l-212 -700h-96l-168 564zM517 756h-62l72 148h107z" />
    <glyph glyph-name="Wcircumflex" unicode="&#x174;" horiz-adv-x="990" 
d="M326 0h-95l-213 700h94l167 -595l169 595h95l168 -595l167 595h94l-212 -700h-96l-168 564zM345 756l116 148h69l116 -148h-68l-82 90l-83 -90h-68z" />
    <glyph glyph-name="Wdieresis" unicode="&#x1e84;" horiz-adv-x="990" 
d="M326 0h-95l-213 700h94l167 -595l169 595h95l168 -595l167 595h94l-212 -700h-96l-168 564zM366.5 808.5q-16.5 16.5 -16.5 40.5q0 25 16.5 41.5t40.5 16.5q26 0 43 -16.5t17 -41.5q0 -24 -17.5 -40.5t-42.5 -16.5q-24 0 -40.5 16.5zM543.5 808.5q-16.5 16.5 -16.5 40.5
q0 25 16.5 41.5t41.5 16.5t42 -16.5t17 -41.5q0 -24 -17 -40.5t-42 -16.5t-41.5 16.5z" />
    <glyph glyph-name="Wgrave" unicode="&#x1e80;" horiz-adv-x="990" 
d="M326 0h-95l-213 700h94l167 -595l169 595h95l168 -595l167 595h94l-212 -700h-96l-168 564zM456 904l72 -148h-62l-117 148h107z" />
    <glyph glyph-name="X" unicode="X" horiz-adv-x="600" 
d="M348 376l238 -376h-95l-191 301l-191 -301h-95l239 377l-205 323h95l157 -248l157 248h96z" />
    <glyph glyph-name="Y" unicode="Y" horiz-adv-x="593" 
d="M342 0h-92v293l-246 407h103l189 -320l190 320h103l-247 -407v-293z" />
    <glyph glyph-name="Yacute" unicode="&#xdd;" horiz-adv-x="593" 
d="M342 0h-92v293l-246 407h103l189 -320l190 320h103l-247 -407v-293zM317 756h-62l72 148h107z" />
    <glyph glyph-name="Ycircumflex" unicode="&#x176;" horiz-adv-x="593" 
d="M342 0h-92v293l-246 407h103l189 -320l190 320h103l-247 -407v-293zM145 756l116 148h69l116 -148h-68l-82 90l-83 -90h-68z" />
    <glyph glyph-name="Ydieresis" unicode="&#x178;" horiz-adv-x="593" 
d="M342 0h-92v293l-246 407h103l189 -320l190 320h103l-247 -407v-293zM166.5 808.5q-16.5 16.5 -16.5 40.5q0 25 16.5 41.5t40.5 16.5q26 0 43 -16.5t17 -41.5q0 -24 -17.5 -40.5t-42.5 -16.5q-24 0 -40.5 16.5zM343.5 808.5q-16.5 16.5 -16.5 40.5q0 25 16.5 41.5
t41.5 16.5t42 -16.5t17 -41.5q0 -24 -17 -40.5t-42 -16.5t-41.5 16.5z" />
    <glyph glyph-name="Ygrave" unicode="&#x1ef2;" horiz-adv-x="593" 
d="M342 0h-92v293l-246 407h103l189 -320l190 320h103l-247 -407v-293zM256 904l72 -148h-62l-117 148h107z" />
    <glyph glyph-name="Z" unicode="Z" horiz-adv-x="592" 
d="M553 0h-528v79l422 540h-400v81h506v-79l-415 -539h415v-82z" />
    <glyph glyph-name="Zacute" unicode="&#x179;" horiz-adv-x="592" 
d="M553 0h-528v79l422 540h-400v81h506v-79l-415 -539h415v-82zM311 756h-62l72 148h107z" />
    <glyph glyph-name="Zcaron" unicode="&#x17d;" horiz-adv-x="592" 
d="M553 0h-528v79l422 540h-400v81h506v-79l-415 -539h415v-82zM324 756h-69l-116 148h68l83 -89l82 89h68z" />
    <glyph glyph-name="Zdotaccent" unicode="&#x17b;" horiz-adv-x="592" 
d="M553 0h-528v79l422 540h-400v81h506v-79l-415 -539h415v-82zM248 812q-17 17 -17 42q0 26 17 43t42 17q26 0 43.5 -17t17.5 -43q0 -25 -17.5 -42t-43.5 -17q-25 0 -42 17z" />
    <glyph glyph-name="G.ss03" horiz-adv-x="748" 
d="M207.5 37.5q-78.5 45.5 -122.5 127t-44 185.5t44 185.5t122.5 127t179.5 45.5q78 0 143 -27.5t108 -77.5t57 -116l-91 -19q-16 74 -74 116.5t-143 42.5q-74 0 -131.5 -32.5t-89.5 -95t-32 -149.5q0 -80 32 -143t89.5 -98t131.5 -35q99 0 160 56.5t64 151.5h-271v79h367
v-33q0 -101 -39.5 -177t-112 -117.5t-168.5 -41.5q-101 0 -179.5 45.5z" />
    <glyph glyph-name="Gbreve.ss03" horiz-adv-x="748" 
d="M207.5 37.5q-78.5 45.5 -122.5 127t-44 185.5t44 185.5t122.5 127t179.5 45.5q78 0 143 -27.5t108 -77.5t57 -116l-91 -19q-16 74 -74 116.5t-143 42.5q-74 0 -131.5 -32.5t-89.5 -95t-32 -149.5q0 -80 32 -143t89.5 -98t131.5 -35q99 0 160 56.5t64 151.5h-271v79h367
v-33q0 -101 -39.5 -177t-112 -117.5t-168.5 -41.5q-101 0 -179.5 45.5zM285.5 789q-36.5 36 -36.5 91h68q0 -28 17 -46t43 -18q27 0 44.5 18t17.5 46h68q0 -55 -37 -91t-93 -36q-55 0 -91.5 36z" />
    <glyph glyph-name="Gcircumflex.ss03" horiz-adv-x="748" 
d="M207.5 37.5q-78.5 45.5 -122.5 127t-44 185.5t44 185.5t122.5 127t179.5 45.5q78 0 143 -27.5t108 -77.5t57 -116l-91 -19q-16 74 -74 116.5t-143 42.5q-74 0 -131.5 -32.5t-89.5 -95t-32 -149.5q0 -80 32 -143t89.5 -98t131.5 -35q99 0 160 56.5t64 151.5h-271v79h367
v-33q0 -101 -39.5 -177t-112 -117.5t-168.5 -41.5q-101 0 -179.5 45.5zM226 756l116 148h69l116 -148h-68l-82 90l-83 -90h-68z" />
    <glyph glyph-name="uni0122.ss03" horiz-adv-x="748" 
d="M207.5 37.5q-78.5 45.5 -122.5 127t-44 185.5t44 185.5t122.5 127t179.5 45.5q78 0 143 -27.5t108 -77.5t57 -116l-91 -19q-16 74 -74 116.5t-143 42.5q-74 0 -131.5 -32.5t-89.5 -95t-32 -149.5q0 -80 32 -143t89.5 -98t131.5 -35q99 0 160 56.5t64 151.5h-271v79h367
v-33q0 -101 -39.5 -177t-112 -117.5t-168.5 -41.5q-101 0 -179.5 45.5zM346 -190h-62l44 148h98z" />
    <glyph glyph-name="Gdotaccent.ss03" horiz-adv-x="748" 
d="M207.5 37.5q-78.5 45.5 -122.5 127t-44 185.5t44 185.5t122.5 127t179.5 45.5q78 0 143 -27.5t108 -77.5t57 -116l-91 -19q-16 74 -74 116.5t-143 42.5q-74 0 -131.5 -32.5t-89.5 -95t-32 -149.5q0 -80 32 -143t89.5 -98t131.5 -35q99 0 160 56.5t64 151.5h-271v79h367
v-33q0 -101 -39.5 -177t-112 -117.5t-168.5 -41.5q-101 0 -179.5 45.5zM335 812q-17 17 -17 42q0 26 17 43t42 17q26 0 43.5 -17t17.5 -43q0 -25 -17.5 -42t-43.5 -17q-25 0 -42 17z" />
    <glyph glyph-name="a" unicode="a" horiz-adv-x="533" 
d="M407 461q57 -51 57 -138v-323h-84v86q-22 -43 -67.5 -68.5t-100.5 -25.5q-75 0 -122.5 41.5t-47.5 107.5q0 72 59.5 113t180.5 53l98 11v10q0 52 -33.5 82.5t-89.5 30.5q-52 0 -86 -29t-39 -80l-79 15q11 75 67.5 120t136.5 45q93 0 150 -51zM339 107q41 45 41 121v24
l-98 -11q-76 -8 -115.5 -33.5t-39.5 -65.5q0 -35 27.5 -57.5t70.5 -22.5q73 0 114 45z" />
    <glyph glyph-name="aacute" unicode="&#xe1;" horiz-adv-x="533" 
d="M407 461q57 -51 57 -138v-323h-84v86q-22 -43 -67.5 -68.5t-100.5 -25.5q-75 0 -122.5 41.5t-47.5 107.5q0 72 59.5 113t180.5 53l98 11v10q0 52 -33.5 82.5t-89.5 30.5q-52 0 -86 -29t-39 -80l-79 15q11 75 67.5 120t136.5 45q93 0 150 -51zM339 107q41 45 41 121v24
l-98 -11q-76 -8 -115.5 -33.5t-39.5 -65.5q0 -35 27.5 -57.5t70.5 -22.5q73 0 114 45zM280 560h-62l72 148h107z" />
    <glyph glyph-name="abreve" unicode="&#x103;" horiz-adv-x="533" 
d="M407 461q57 -51 57 -138v-323h-84v86q-22 -43 -67.5 -68.5t-100.5 -25.5q-75 0 -122.5 41.5t-47.5 107.5q0 72 59.5 113t180.5 53l98 11v10q0 52 -33.5 82.5t-89.5 30.5q-52 0 -86 -29t-39 -80l-79 15q11 75 67.5 120t136.5 45q93 0 150 -51zM339 107q41 45 41 121v24
l-98 -11q-76 -8 -115.5 -33.5t-39.5 -65.5q0 -35 27.5 -57.5t70.5 -22.5q73 0 114 45zM167.5 593q-36.5 36 -36.5 91h68q0 -28 17 -46t43 -18q27 0 44.5 18t17.5 46h68q0 -55 -37 -91t-93 -36q-55 0 -91.5 36z" />
    <glyph glyph-name="acircumflex" unicode="&#xe2;" horiz-adv-x="533" 
d="M407 461q57 -51 57 -138v-323h-84v86q-22 -43 -67.5 -68.5t-100.5 -25.5q-75 0 -122.5 41.5t-47.5 107.5q0 72 59.5 113t180.5 53l98 11v10q0 52 -33.5 82.5t-89.5 30.5q-52 0 -86 -29t-39 -80l-79 15q11 75 67.5 120t136.5 45q93 0 150 -51zM339 107q41 45 41 121v24
l-98 -11q-76 -8 -115.5 -33.5t-39.5 -65.5q0 -35 27.5 -57.5t70.5 -22.5q73 0 114 45zM108 560l116 148h69l116 -148h-68l-82 90l-83 -90h-68z" />
    <glyph glyph-name="adieresis" unicode="&#xe4;" horiz-adv-x="533" 
d="M407 461q57 -51 57 -138v-323h-84v86q-22 -43 -67.5 -68.5t-100.5 -25.5q-75 0 -122.5 41.5t-47.5 107.5q0 72 59.5 113t180.5 53l98 11v10q0 52 -33.5 82.5t-89.5 30.5q-52 0 -86 -29t-39 -80l-79 15q11 75 67.5 120t136.5 45q93 0 150 -51zM339 107q41 45 41 121v24
l-98 -11q-76 -8 -115.5 -33.5t-39.5 -65.5q0 -35 27.5 -57.5t70.5 -22.5q73 0 114 45zM129.5 612.5q-16.5 16.5 -16.5 40.5q0 25 16.5 41.5t40.5 16.5q26 0 43 -16.5t17 -41.5q0 -24 -17.5 -40.5t-42.5 -16.5q-24 0 -40.5 16.5zM306.5 612.5q-16.5 16.5 -16.5 40.5
q0 25 16.5 41.5t41.5 16.5t42 -16.5t17 -41.5q0 -24 -17 -40.5t-42 -16.5t-41.5 16.5z" />
    <glyph glyph-name="agrave" unicode="&#xe0;" horiz-adv-x="533" 
d="M407 461q57 -51 57 -138v-323h-84v86q-22 -43 -67.5 -68.5t-100.5 -25.5q-75 0 -122.5 41.5t-47.5 107.5q0 72 59.5 113t180.5 53l98 11v10q0 52 -33.5 82.5t-89.5 30.5q-52 0 -86 -29t-39 -80l-79 15q11 75 67.5 120t136.5 45q93 0 150 -51zM339 107q41 45 41 121v24
l-98 -11q-76 -8 -115.5 -33.5t-39.5 -65.5q0 -35 27.5 -57.5t70.5 -22.5q73 0 114 45zM219 708l72 -148h-62l-117 148h107z" />
    <glyph glyph-name="amacron" unicode="&#x101;" horiz-adv-x="533" 
d="M407 461q57 -51 57 -138v-323h-84v86q-22 -43 -67.5 -68.5t-100.5 -25.5q-75 0 -122.5 41.5t-47.5 107.5q0 72 59.5 113t180.5 53l98 11v10q0 52 -33.5 82.5t-89.5 30.5q-52 0 -86 -29t-39 -80l-79 15q11 75 67.5 120t136.5 45q93 0 150 -51zM339 107q41 45 41 121v24
l-98 -11q-76 -8 -115.5 -33.5t-39.5 -65.5q0 -35 27.5 -57.5t70.5 -22.5q73 0 114 45zM392 591h-267v70h267v-70z" />
    <glyph glyph-name="aogonek" unicode="&#x105;" horiz-adv-x="533" 
d="M504 -185q-28 -5 -49 -5q-50 0 -81.5 27.5t-31.5 71.5q0 20 12 46t30 45h-4v86q-22 -43 -67.5 -68.5t-100.5 -25.5q-75 0 -122.5 41.5t-47.5 107.5q0 72 59.5 113t180.5 53l98 11v10q0 52 -33.5 82.5t-89.5 30.5q-52 0 -86 -29t-39 -80l-79 15q11 75 67.5 120t136.5 45
q93 0 150 -51t57 -138v-323q-19 -20 -31 -40.5t-12 -36.5q0 -19 11.5 -29.5t30.5 -10.5q21 0 31 2zM339 107q41 45 41 121v24l-98 -11q-76 -8 -115.5 -33.5t-39.5 -65.5q0 -35 27.5 -57.5t70.5 -22.5q73 0 114 45z" />
    <glyph glyph-name="aring" unicode="&#xe5;" horiz-adv-x="533" 
d="M407 461q57 -51 57 -138v-323h-84v86q-22 -43 -67.5 -68.5t-100.5 -25.5q-75 0 -122.5 41.5t-47.5 107.5q0 72 59.5 113t180.5 53l98 11v10q0 52 -33.5 82.5t-89.5 30.5q-52 0 -86 -29t-39 -80l-79 15q11 75 67.5 120t136.5 45q93 0 150 -51zM339 107q41 45 41 121v24
l-98 -11q-76 -8 -115.5 -33.5t-39.5 -65.5q0 -35 27.5 -57.5t70.5 -22.5q73 0 114 45zM182 572.5q-31 29.5 -31 73.5t31.5 73t77.5 29q47 0 78 -29t31 -73t-31 -73.5t-78 -29.5t-78 29.5zM298.5 608.5q15.5 14.5 15.5 37.5q0 22 -15.5 36.5t-38.5 14.5t-38 -14.5t-15 -36.5
q0 -23 15 -37.5t38 -14.5t38.5 14.5z" />
    <glyph glyph-name="aringacute" unicode="&#x1fb;" horiz-adv-x="533" 
d="M182 572.5q-31 29.5 -31 73.5q0 42 29.5 71t73.5 31l70 143h107l-117 -148h-19q34 -10 54 -36.5t20 -60.5q0 -44 -31 -73.5t-78 -29.5t-78 29.5zM222 682.5q-15 -14.5 -15 -36.5q0 -23 15 -37.5t38 -14.5t38.5 14.5t15.5 37.5q0 22 -15.5 36.5t-38.5 14.5t-38 -14.5z
M407 461q57 -51 57 -138v-323h-84v86q-22 -43 -67.5 -68.5t-100.5 -25.5q-75 0 -122.5 41.5t-47.5 107.5q0 72 59.5 113t180.5 53l98 11v10q0 52 -33.5 82.5t-89.5 30.5q-52 0 -86 -29t-39 -80l-79 15q11 75 67.5 120t136.5 45q93 0 150 -51zM339 107q41 45 41 121v24
l-98 -11q-76 -8 -115.5 -33.5t-39.5 -65.5q0 -35 27.5 -57.5t70.5 -22.5q73 0 114 45z" />
    <glyph glyph-name="atilde" unicode="&#xe3;" horiz-adv-x="533" 
d="M407 461q57 -51 57 -138v-323h-84v86q-22 -43 -67.5 -68.5t-100.5 -25.5q-75 0 -122.5 41.5t-47.5 107.5q0 72 59.5 113t180.5 53l98 11v10q0 52 -33.5 82.5t-89.5 30.5q-52 0 -86 -29t-39 -80l-79 15q11 75 67.5 120t136.5 45q93 0 150 -51zM339 107q41 45 41 121v24
l-98 -11q-76 -8 -115.5 -33.5t-39.5 -65.5q0 -35 27.5 -57.5t70.5 -22.5q73 0 114 45zM87 595q1 46 30.5 75t76.5 29q38 0 75 -27q23 -15 34.5 -21t27.5 -6q40 0 45 50l62 -11q-2 -47 -31.5 -75.5t-75.5 -28.5q-34 0 -75 26q-5 3 -17.5 12t-23 13t-21.5 4q-19 0 -31.5 -13
t-14.5 -37z" />
    <glyph glyph-name="ae" unicode="&#xe6;" horiz-adv-x="915" 
d="M873 236h-398q4 -76 48.5 -122.5t112.5 -46.5q58 0 96.5 26t48.5 73l80 -19q-18 -73 -78 -114t-147 -41q-69 0 -122 30.5t-85 83.5q-29 -54 -82 -84t-125 -30q-81 0 -130.5 41.5t-49.5 107.5q0 75 63 119t183 44h101v24q0 51 -35.5 82t-92.5 31q-52 0 -87 -28.5
t-39 -70.5l-78 15q7 44 35 79.5t72 55.5t97 20q62 0 110 -23t74 -65q33 42 81 65t108 23q72 0 127 -31.5t84.5 -86t29.5 -119.5q0 -21 -2 -39zM785 307q-6 60 -45.5 97t-105.5 37q-59 0 -100 -35.5t-54 -98.5h305zM346.5 106q42.5 45 42.5 121v11h-101q-77 0 -118.5 -26.5
t-41.5 -69.5q0 -36 28.5 -58.5t73.5 -22.5q74 0 116.5 45z" />
    <glyph glyph-name="aeacute" unicode="&#x1fd;" horiz-adv-x="915" 
d="M873 236h-398q4 -76 48.5 -122.5t112.5 -46.5q58 0 96.5 26t48.5 73l80 -19q-18 -73 -78 -114t-147 -41q-69 0 -122 30.5t-85 83.5q-29 -54 -82 -84t-125 -30q-81 0 -130.5 41.5t-49.5 107.5q0 75 63 119t183 44h101v24q0 51 -35.5 82t-92.5 31q-52 0 -87 -28.5
t-39 -70.5l-78 15q7 44 35 79.5t72 55.5t97 20q62 0 110 -23t74 -65q33 42 81 65t108 23q72 0 127 -31.5t84.5 -86t29.5 -119.5q0 -21 -2 -39zM785 307q-6 60 -45.5 97t-105.5 37q-59 0 -100 -35.5t-54 -98.5h305zM346.5 106q42.5 45 42.5 121v11h-101q-77 0 -118.5 -26.5
t-41.5 -69.5q0 -36 28.5 -58.5t73.5 -22.5q74 0 116.5 45zM487 560h-62l72 148h107z" />
    <glyph glyph-name="b" unicode="b" horiz-adv-x="601" 
d="M217 15q-46 23 -63 58v-73h-85v708h85v-276q24 36 69.5 58t95.5 22q76 0 130.5 -33.5t83 -92.5t28.5 -134t-28.5 -134t-83.5 -92.5t-131 -33.5q-55 0 -101 23zM429 118.5q45 50.5 45 133.5t-45 133.5t-119 50.5t-118.5 -50.5t-44.5 -133.5t44.5 -133.5t118.5 -50.5
t119 50.5z" />
    <glyph glyph-name="c" unicode="c" horiz-adv-x="549" 
d="M159 24.5q-57 32.5 -88 91.5t-31 136t31 136t88 91.5t131 32.5q88 0 147.5 -44.5t73.5 -119.5l-84 -17q-8 46 -45 75.5t-90 29.5q-74 0 -118.5 -50.5t-44.5 -133.5t44.5 -133.5t118.5 -50.5q54 0 90.5 28t46.5 78l83 -17q-16 -78 -75.5 -121.5t-146.5 -43.5
q-74 0 -131 32.5z" />
    <glyph glyph-name="cacute" unicode="&#x107;" horiz-adv-x="549" 
d="M159 24.5q-57 32.5 -88 91.5t-31 136t31 136t88 91.5t131 32.5q88 0 147.5 -44.5t73.5 -119.5l-84 -17q-8 46 -45 75.5t-90 29.5q-74 0 -118.5 -50.5t-44.5 -133.5t44.5 -133.5t118.5 -50.5q54 0 90.5 28t46.5 78l83 -17q-16 -78 -75.5 -121.5t-146.5 -43.5
q-74 0 -131 32.5zM308 560h-62l72 148h107z" />
    <glyph glyph-name="ccaron" unicode="&#x10d;" horiz-adv-x="549" 
d="M159 24.5q-57 32.5 -88 91.5t-31 136t31 136t88 91.5t131 32.5q88 0 147.5 -44.5t73.5 -119.5l-84 -17q-8 46 -45 75.5t-90 29.5q-74 0 -118.5 -50.5t-44.5 -133.5t44.5 -133.5t118.5 -50.5q54 0 90.5 28t46.5 78l83 -17q-16 -78 -75.5 -121.5t-146.5 -43.5
q-74 0 -131 32.5zM322 560h-69l-116 148h68l83 -89l82 89h68z" />
    <glyph glyph-name="ccedilla" unicode="&#xe7;" horiz-adv-x="549" 
d="M512 157q-16 -73 -68.5 -116t-131.5 -48l-68 -140h-107l110 142q-95 14 -151 83t-56 174q0 77 31 136t88 91.5t131 32.5q88 0 147.5 -44.5t73.5 -119.5l-84 -17q-8 46 -45 75.5t-90 29.5q-74 0 -118.5 -50.5t-44.5 -133.5t44.5 -133.5t118.5 -50.5q54 0 90.5 28t46.5 78z
" />
    <glyph glyph-name="ccircumflex" unicode="&#x109;" horiz-adv-x="549" 
d="M159 24.5q-57 32.5 -88 91.5t-31 136t31 136t88 91.5t131 32.5q88 0 147.5 -44.5t73.5 -119.5l-84 -17q-8 46 -45 75.5t-90 29.5q-74 0 -118.5 -50.5t-44.5 -133.5t44.5 -133.5t118.5 -50.5q54 0 90.5 28t46.5 78l83 -17q-16 -78 -75.5 -121.5t-146.5 -43.5
q-74 0 -131 32.5zM136 560l116 148h69l116 -148h-68l-82 90l-83 -90h-68z" />
    <glyph glyph-name="cdotaccent" unicode="&#x10b;" horiz-adv-x="549" 
d="M159 24.5q-57 32.5 -88 91.5t-31 136t31 136t88 91.5t131 32.5q88 0 147.5 -44.5t73.5 -119.5l-84 -17q-8 46 -45 75.5t-90 29.5q-74 0 -118.5 -50.5t-44.5 -133.5t44.5 -133.5t118.5 -50.5q54 0 90.5 28t46.5 78l83 -17q-16 -78 -75.5 -121.5t-146.5 -43.5
q-74 0 -131 32.5zM245 616q-17 17 -17 42q0 26 17 43t42 17q26 0 43.5 -17t17.5 -43q0 -25 -17.5 -42t-43.5 -17q-25 0 -42 17z" />
    <glyph glyph-name="d" unicode="d" horiz-adv-x="601" 
d="M152 25.5q-55 33.5 -83.5 92.5t-28.5 134t28.5 134t83 92.5t130.5 33.5q50 0 95.5 -22t69.5 -58v276h85v-708h-85v73q-17 -35 -63 -58t-101 -23q-76 0 -131 33.5zM410 118.5q45 50.5 45 133.5t-45 133.5t-119 50.5t-119 -50.5t-45 -133.5t45 -133.5t119 -50.5t119 50.5z
" />
    <glyph glyph-name="eth" unicode="&#xf0;" horiz-adv-x="598" 
d="M444 630q55 -56 84.5 -135t29.5 -175q0 -106 -33.5 -179.5t-92.5 -111t-136 -37.5q-74 0 -132.5 33.5t-91 92.5t-32.5 134q0 74 32.5 133t89.5 92t129 33q59 0 106.5 -26t72.5 -74q-17 113 -103 192l-150 -55l-18 50l118 43q-47 32 -107 53l100 26q43 -18 88 -49l103 38
l17 -51zM418 119.5q47 51.5 47 132.5t-47 132.5t-122 51.5t-122 -51.5t-47 -132.5t47 -132.5t122 -51.5t122 51.5z" />
    <glyph glyph-name="dcaron" unicode="&#x10f;" horiz-adv-x="681" 
d="M152 25.5q-55 33.5 -83.5 92.5t-28.5 134t28.5 134t83 92.5t130.5 33.5q50 0 95.5 -22t69.5 -58v276h85v-708h-85v73q-17 -35 -63 -58t-101 -23q-76 0 -131 33.5zM410 118.5q45 50.5 45 133.5t-45 133.5t-119 50.5t-119 -50.5t-45 -133.5t45 -133.5t119 -50.5t119 50.5z
M630 560h-51l32 174h88z" />
    <glyph glyph-name="dcroat" unicode="&#x111;" horiz-adv-x="601" 
d="M613 637v-64h-81v-573h-85v73q-17 -35 -63 -58t-101 -23q-76 0 -131 33.5t-83.5 92.5t-28.5 134t28.5 134t83 92.5t130.5 33.5q50 0 95.5 -22t69.5 -58v141h-136v64h136v71h85v-71h81zM410 118.5q45 50.5 45 133.5t-45 133.5t-119 50.5t-119 -50.5t-45 -133.5t45 -133.5
t119 -50.5t119 50.5z" />
    <glyph glyph-name="e" unicode="e" horiz-adv-x="565" 
d="M523 236h-398q4 -76 48.5 -122.5t112.5 -46.5q58 0 96 26t49 73l80 -19q-19 -73 -78.5 -114t-146.5 -41q-74 0 -129.5 34.5t-86 94t-30.5 131.5t29.5 131.5t85 94t129.5 34.5q72 0 127 -31.5t84.5 -86t29.5 -119.5q0 -21 -2 -39zM435 307q-6 60 -46 97t-105 37
q-59 0 -100 -35.5t-54 -98.5h305z" />
    <glyph glyph-name="eacute" unicode="&#xe9;" horiz-adv-x="565" 
d="M523 236h-398q4 -76 48.5 -122.5t112.5 -46.5q58 0 96 26t49 73l80 -19q-19 -73 -78.5 -114t-146.5 -41q-74 0 -129.5 34.5t-86 94t-30.5 131.5t29.5 131.5t85 94t129.5 34.5q72 0 127 -31.5t84.5 -86t29.5 -119.5q0 -21 -2 -39zM435 307q-6 60 -46 97t-105 37
q-59 0 -100 -35.5t-54 -98.5h305zM300 560h-62l72 148h107z" />
    <glyph glyph-name="ebreve" unicode="&#x115;" horiz-adv-x="565" 
d="M523 236h-398q4 -76 48.5 -122.5t112.5 -46.5q58 0 96 26t49 73l80 -19q-19 -73 -78.5 -114t-146.5 -41q-74 0 -129.5 34.5t-86 94t-30.5 131.5t29.5 131.5t85 94t129.5 34.5q72 0 127 -31.5t84.5 -86t29.5 -119.5q0 -21 -2 -39zM435 307q-6 60 -46 97t-105 37
q-59 0 -100 -35.5t-54 -98.5h305zM187.5 593q-36.5 36 -36.5 91h68q0 -28 17 -46t43 -18q27 0 44.5 18t17.5 46h68q0 -55 -37 -91t-93 -36q-55 0 -91.5 36z" />
    <glyph glyph-name="ecaron" unicode="&#x11b;" horiz-adv-x="565" 
d="M523 236h-398q4 -76 48.5 -122.5t112.5 -46.5q58 0 96 26t49 73l80 -19q-19 -73 -78.5 -114t-146.5 -41q-74 0 -129.5 34.5t-86 94t-30.5 131.5t29.5 131.5t85 94t129.5 34.5q72 0 127 -31.5t84.5 -86t29.5 -119.5q0 -21 -2 -39zM435 307q-6 60 -46 97t-105 37
q-59 0 -100 -35.5t-54 -98.5h305zM313 560h-69l-116 148h68l83 -89l82 89h68z" />
    <glyph glyph-name="ecircumflex" unicode="&#xea;" horiz-adv-x="565" 
d="M523 236h-398q4 -76 48.5 -122.5t112.5 -46.5q58 0 96 26t49 73l80 -19q-19 -73 -78.5 -114t-146.5 -41q-74 0 -129.5 34.5t-86 94t-30.5 131.5t29.5 131.5t85 94t129.5 34.5q72 0 127 -31.5t84.5 -86t29.5 -119.5q0 -21 -2 -39zM435 307q-6 60 -46 97t-105 37
q-59 0 -100 -35.5t-54 -98.5h305zM128 560l116 148h69l116 -148h-68l-82 90l-83 -90h-68z" />
    <glyph glyph-name="edieresis" unicode="&#xeb;" horiz-adv-x="565" 
d="M523 236h-398q4 -76 48.5 -122.5t112.5 -46.5q58 0 96 26t49 73l80 -19q-19 -73 -78.5 -114t-146.5 -41q-74 0 -129.5 34.5t-86 94t-30.5 131.5t29.5 131.5t85 94t129.5 34.5q72 0 127 -31.5t84.5 -86t29.5 -119.5q0 -21 -2 -39zM435 307q-6 60 -46 97t-105 37
q-59 0 -100 -35.5t-54 -98.5h305zM149.5 612.5q-16.5 16.5 -16.5 40.5q0 25 16.5 41.5t40.5 16.5q26 0 43 -16.5t17 -41.5q0 -24 -17.5 -40.5t-42.5 -16.5q-24 0 -40.5 16.5zM326.5 612.5q-16.5 16.5 -16.5 40.5q0 25 16.5 41.5t41.5 16.5t42 -16.5t17 -41.5
q0 -24 -17 -40.5t-42 -16.5t-41.5 16.5z" />
    <glyph glyph-name="edotaccent" unicode="&#x117;" horiz-adv-x="565" 
d="M523 236h-398q4 -76 48.5 -122.5t112.5 -46.5q58 0 96 26t49 73l80 -19q-19 -73 -78.5 -114t-146.5 -41q-74 0 -129.5 34.5t-86 94t-30.5 131.5t29.5 131.5t85 94t129.5 34.5q72 0 127 -31.5t84.5 -86t29.5 -119.5q0 -21 -2 -39zM435 307q-6 60 -46 97t-105 37
q-59 0 -100 -35.5t-54 -98.5h305zM237 616q-17 17 -17 42q0 26 17 43t42 17q26 0 43.5 -17t17.5 -43q0 -25 -17.5 -42t-43.5 -17q-25 0 -42 17z" />
    <glyph glyph-name="egrave" unicode="&#xe8;" horiz-adv-x="565" 
d="M523 236h-398q4 -76 48.5 -122.5t112.5 -46.5q58 0 96 26t49 73l80 -19q-19 -73 -78.5 -114t-146.5 -41q-74 0 -129.5 34.5t-86 94t-30.5 131.5t29.5 131.5t85 94t129.5 34.5q72 0 127 -31.5t84.5 -86t29.5 -119.5q0 -21 -2 -39zM435 307q-6 60 -46 97t-105 37
q-59 0 -100 -35.5t-54 -98.5h305zM239 708l72 -148h-62l-117 148h107z" />
    <glyph glyph-name="emacron" unicode="&#x113;" horiz-adv-x="565" 
d="M523 236h-398q4 -76 48.5 -122.5t112.5 -46.5q58 0 96 26t49 73l80 -19q-19 -73 -78.5 -114t-146.5 -41q-74 0 -129.5 34.5t-86 94t-30.5 131.5t29.5 131.5t85 94t129.5 34.5q72 0 127 -31.5t84.5 -86t29.5 -119.5q0 -21 -2 -39zM435 307q-6 60 -46 97t-105 37
q-59 0 -100 -35.5t-54 -98.5h305zM412 591h-267v70h267v-70z" />
    <glyph glyph-name="eogonek" unicode="&#x119;" horiz-adv-x="565" 
d="M523 236h-398q4 -76 48.5 -122.5t112.5 -46.5q58 0 96 26t49 73l80 -19q-15 -59 -58 -98t-107 -52q-18 -19 -29.5 -39t-11.5 -35q0 -19 11.5 -29.5t30.5 -10.5q21 0 31 2l10 -70q-27 -5 -49 -5q-50 0 -81.5 27.5t-31.5 71.5q0 18 10 41.5t26 42.5q-67 6 -117.5 41.5
t-77.5 92.5t-27 125q0 72 29.5 131.5t85 94t129.5 34.5q72 0 127 -31.5t84.5 -86t29.5 -119.5q0 -21 -2 -39zM435 307q-6 60 -46 97t-105 37q-59 0 -100 -35.5t-54 -98.5h305z" />
    <glyph glyph-name="f" unicode="f" horiz-adv-x="366" 
d="M119 0v429h-86v75h86v47q0 81 41 125.5t108 44.5q40 0 68 -8l-4 -76q-26 10 -53 10q-34 0 -54.5 -24.5t-20.5 -64.5v-54h129v-75h-129v-429h-85z" />
    <glyph glyph-name="g" unicode="g" horiz-adv-x="594" 
d="M441 504h84v-480q0 -63 -29.5 -111.5t-83 -75.5t-122.5 -27q-88 0 -150 42.5t-73 110.5l82 14q4 -42 43.5 -68.5t97.5 -26.5q67 0 109 37t42 96v70q-17 -32 -62 -52t-99 -20q-76 0 -130 32t-82 88.5t-28 128.5t28 129t81.5 89t128.5 32q50 0 95 -21.5t68 -54.5v68z
M404.5 136q43.5 47 43.5 126t-43.5 126.5t-116.5 47.5q-74 0 -117.5 -47.5t-43.5 -126.5t44 -126t117 -47t116.5 47z" />
    <glyph glyph-name="gbreve" unicode="&#x11f;" horiz-adv-x="594" 
d="M441 504h84v-480q0 -63 -29.5 -111.5t-83 -75.5t-122.5 -27q-88 0 -150 42.5t-73 110.5l82 14q4 -42 43.5 -68.5t97.5 -26.5q67 0 109 37t42 96v70q-17 -32 -62 -52t-99 -20q-76 0 -130 32t-82 88.5t-28 128.5t28 129t81.5 89t128.5 32q50 0 95 -21.5t68 -54.5v68z
M404.5 136q43.5 47 43.5 126t-43.5 126.5t-116.5 47.5q-74 0 -117.5 -47.5t-43.5 -126.5t44 -126t117 -47t116.5 47zM194.5 593q-36.5 36 -36.5 91h68q0 -28 17 -46t43 -18q27 0 44.5 18t17.5 46h68q0 -55 -37 -91t-93 -36q-55 0 -91.5 36z" />
    <glyph glyph-name="gcircumflex" unicode="&#x11d;" horiz-adv-x="594" 
d="M441 504h84v-480q0 -63 -29.5 -111.5t-83 -75.5t-122.5 -27q-88 0 -150 42.5t-73 110.5l82 14q4 -42 43.5 -68.5t97.5 -26.5q67 0 109 37t42 96v70q-17 -32 -62 -52t-99 -20q-76 0 -130 32t-82 88.5t-28 128.5t28 129t81.5 89t128.5 32q50 0 95 -21.5t68 -54.5v68z
M404.5 136q43.5 47 43.5 126t-43.5 126.5t-116.5 47.5q-74 0 -117.5 -47.5t-43.5 -126.5t44 -126t117 -47t116.5 47zM135 560l116 148h69l116 -148h-68l-82 90l-83 -90h-68z" />
    <glyph glyph-name="uni0123" unicode="&#x123;" horiz-adv-x="594" 
d="M441 504h84v-480q0 -63 -29.5 -111.5t-83 -75.5t-122.5 -27q-88 0 -150 42.5t-73 110.5l82 14q4 -42 43.5 -68.5t97.5 -26.5q67 0 109 37t42 96v70q-17 -32 -62 -52t-99 -20q-76 0 -130 32t-82 88.5t-28 128.5t28 129t81.5 89t128.5 32q50 0 95 -21.5t68 -54.5v68z
M404.5 136q43.5 47 43.5 126t-43.5 126.5t-116.5 47.5q-74 0 -117.5 -47.5t-43.5 -126.5t44 -126t117 -47t116.5 47zM313 708h64l-29 -148h-95z" />
    <glyph glyph-name="gdotaccent" unicode="&#x121;" horiz-adv-x="594" 
d="M441 504h84v-480q0 -63 -29.5 -111.5t-83 -75.5t-122.5 -27q-88 0 -150 42.5t-73 110.5l82 14q4 -42 43.5 -68.5t97.5 -26.5q67 0 109 37t42 96v70q-17 -32 -62 -52t-99 -20q-76 0 -130 32t-82 88.5t-28 128.5t28 129t81.5 89t128.5 32q50 0 95 -21.5t68 -54.5v68z
M404.5 136q43.5 47 43.5 126t-43.5 126.5t-116.5 47.5q-74 0 -117.5 -47.5t-43.5 -126.5t44 -126t117 -47t116.5 47zM245 616q-17 17 -17 42q0 26 17 43t42 17q26 0 43.5 -17t17.5 -43q0 -25 -17.5 -42t-43.5 -17q-25 0 -42 17z" />
    <glyph glyph-name="h" unicode="h" horiz-adv-x="584" 
d="M69 0v708h85v-303q27 53 71.5 80t100.5 27q86 0 137.5 -49t51.5 -131v-332h-85v316q0 56 -32.5 87.5t-90.5 31.5q-70 0 -111.5 -59t-41.5 -160v-216h-85z" />
    <glyph glyph-name="hbar" unicode="&#x127;" horiz-adv-x="584" 
d="M463.5 463q51.5 -49 51.5 -131v-332h-85v316q0 56 -32.5 87.5t-90.5 31.5q-70 0 -111.5 -59t-41.5 -160v-216h-85v573h-83v64h83v71h85v-71h134v-64h-134v-168q27 53 71.5 80t100.5 27q86 0 137.5 -49z" />
    <glyph glyph-name="hcircumflex" unicode="&#x125;" horiz-adv-x="584" 
d="M69 0v708h85v-303q27 53 71.5 80t100.5 27q86 0 137.5 -49t51.5 -131v-332h-85v316q0 56 -32.5 87.5t-90.5 31.5q-70 0 -111.5 -59t-41.5 -160v-216h-85zM-41 756l116 148h69l116 -148h-68l-82 90l-83 -90h-68z" />
    <glyph glyph-name="i" unicode="i" horiz-adv-x="223" 
d="M154 0h-85v504h85v-504zM69 616q-17 17 -17 42q0 26 17 43t42 17q26 0 43.5 -17t17.5 -43q0 -25 -17.5 -42t-43.5 -17q-25 0 -42 17z" />
    <glyph glyph-name="dotlessi" unicode="&#x131;" horiz-adv-x="223" 
d="M154 0h-85v504h85v-504z" />
    <glyph glyph-name="iacute" unicode="&#xed;" horiz-adv-x="223" 
d="M154 0h-85v504h85v-504zM132 560h-62l72 148h107z" />
    <glyph glyph-name="ibreve" unicode="&#x12d;" horiz-adv-x="223" 
d="M154 0h-85v504h85v-504zM19.5 593q-36.5 36 -36.5 91h68q0 -28 17 -46t43 -18q27 0 44.5 18t17.5 46h68q0 -55 -37 -91t-93 -36q-55 0 -91.5 36z" />
    <glyph glyph-name="icircumflex" unicode="&#xee;" horiz-adv-x="223" 
d="M154 0h-85v504h85v-504zM-40 560l116 148h69l116 -148h-68l-82 90l-83 -90h-68z" />
    <glyph glyph-name="idieresis" unicode="&#xef;" horiz-adv-x="223" 
d="M154 0h-85v504h85v-504zM-18.5 612.5q-16.5 16.5 -16.5 40.5q0 25 16.5 41.5t40.5 16.5q26 0 43 -16.5t17 -41.5q0 -24 -17.5 -40.5t-42.5 -16.5q-24 0 -40.5 16.5zM158.5 612.5q-16.5 16.5 -16.5 40.5q0 25 16.5 41.5t41.5 16.5t42 -16.5t17 -41.5q0 -24 -17 -40.5
t-42 -16.5t-41.5 16.5z" />
    <glyph glyph-name="i.loclTRK" horiz-adv-x="223" 
d="M154 0h-85v504h85v-504zM69 616q-17 17 -17 42q0 26 17 43t42 17q26 0 43.5 -17t17.5 -43q0 -25 -17.5 -42t-43.5 -17q-25 0 -42 17z" />
    <glyph glyph-name="igrave" unicode="&#xec;" horiz-adv-x="223" 
d="M154 0h-85v504h85v-504zM71 708l72 -148h-62l-117 148h107z" />
    <glyph glyph-name="imacron" unicode="&#x12b;" horiz-adv-x="223" 
d="M154 0h-85v504h85v-504zM244 591h-267v70h267v-70z" />
    <glyph glyph-name="iogonek" unicode="&#x12f;" horiz-adv-x="223" 
d="M69 616q-17 17 -17 42q0 26 17 43t42 17q26 0 43.5 -17t17.5 -43q0 -25 -17.5 -42t-43.5 -17q-25 0 -42 17zM194 -185q-27 -5 -49 -5q-50 0 -81.5 27.5t-31.5 71.5q0 20 12 46t30 45h-5v504h85v-504q-19 -20 -31 -40.5t-12 -36.5q0 -19 11.5 -29.5t30.5 -10.5q21 0 31 2z
" />
    <glyph glyph-name="itilde" unicode="&#x129;" horiz-adv-x="223" 
d="M154 0h-85v504h85v-504zM-61 595q1 46 30.5 75t76.5 29q38 0 75 -27q23 -15 34.5 -21t27.5 -6q40 0 45 50l62 -11q-2 -47 -31.5 -75.5t-75.5 -28.5q-34 0 -75 26q-5 3 -17.5 12t-23 13t-21.5 4q-19 0 -31.5 -13t-14.5 -37z" />
    <glyph glyph-name="j" unicode="j" horiz-adv-x="224" 
d="M-14 -189l-2 76l14 -1q37 0 55 24.5t18 69.5v524h85v-535q0 -70 -41 -114.5t-108 -44.5zM71 616q-17 17 -17 42q0 26 17 43t42 17q26 0 43.5 -17t17.5 -43q0 -25 -17.5 -42t-43.5 -17q-25 0 -42 17z" />
    <glyph glyph-name="uni0237" unicode="&#x237;" horiz-adv-x="224" 
d="M-14 -189l-2 76l14 -1q37 0 55 24.5t18 69.5v524h85v-535q0 -70 -41 -114.5t-108 -44.5z" />
    <glyph glyph-name="jcircumflex" unicode="&#x135;" horiz-adv-x="224" 
d="M-14 -189l-2 76l14 -1q37 0 55 24.5t18 69.5v524h85v-535q0 -70 -41 -114.5t-108 -44.5zM-38 560l116 148h69l116 -148h-68l-82 90l-83 -90h-68z" />
    <glyph glyph-name="k" unicode="k" horiz-adv-x="531" 
d="M518 0h-106l-190 248l-67 -61v-187h-86v708h86v-409l233 205h113l-216 -199z" />
    <glyph glyph-name="uni0137" unicode="&#x137;" horiz-adv-x="531" 
d="M518 0h-106l-190 248l-67 -61v-187h-86v708h86v-409l233 205h113l-216 -199zM218 -190h-62l44 148h98z" />
    <glyph glyph-name="kgreenlandic" unicode="&#x138;" horiz-adv-x="531" 
d="M518 0h-106l-192 250l-65 -60v-190h-86v504h86v-208l236 208h108l-216 -197z" />
    <glyph glyph-name="l" unicode="l" horiz-adv-x="223" 
d="M154 0h-85v708h85v-708z" />
    <glyph glyph-name="lacute" unicode="&#x13a;" horiz-adv-x="223" 
d="M154 0h-85v708h85v-708zM129 756h-62l72 148h107z" />
    <glyph glyph-name="lcaron" unicode="&#x13e;" horiz-adv-x="304" 
d="M154 0h-85v708h85v-708zM252 560h-51l32 174h88z" />
    <glyph glyph-name="uni013C" unicode="&#x13c;" horiz-adv-x="223" 
d="M154 0h-85v708h85v-708zM78 -190h-62l44 148h98z" />
    <glyph glyph-name="ldot" unicode="&#x140;" horiz-adv-x="389" 
d="M154 0h-85v708h85v-708zM216 303q-17 17 -17 43t17 43t44 17q26 0 43.5 -17.5t17.5 -42.5q0 -26 -17.5 -43t-43.5 -17q-27 0 -44 17z" />
    <glyph glyph-name="lslash" unicode="&#x142;" horiz-adv-x="285" 
d="M185 429l88 41v-78l-88 -41v-351h-85v311l-88 -41v77l88 41v320h85v-279z" />
    <glyph glyph-name="m" unicode="m" horiz-adv-x="878" 
d="M69 0v504h85v-95q20 47 58.5 75t93.5 28q62 0 106.5 -28t57.5 -78q21 47 64.5 76.5t98.5 29.5q81 0 128.5 -47t47.5 -127v-338h-85v321q0 53 -29 84.5t-81 31.5q-63 0 -98 -51t-35 -133v-253h-85v321q0 53 -28.5 84.5t-80.5 31.5q-63 0 -98 -51t-35 -133v-253h-85z" />
    <glyph glyph-name="n" unicode="n" horiz-adv-x="576" 
d="M69 0v504h85v-95q27 47 72 75t101 28q79 0 129.5 -49t50.5 -129v-334h-85v318q0 52 -31 84.5t-83 32.5q-71 0 -112.5 -57.5t-41.5 -156.5v-221h-85z" />
    <glyph glyph-name="nacute" unicode="&#x144;" horiz-adv-x="576" 
d="M69 0v504h85v-95q27 47 72 75t101 28q79 0 129.5 -49t50.5 -129v-334h-85v318q0 52 -31 84.5t-83 32.5q-71 0 -112.5 -57.5t-41.5 -156.5v-221h-85zM306 560h-62l72 148h107z" />
    <glyph glyph-name="napostrophe" unicode="&#x149;" horiz-adv-x="579" 
d="M120 560h-51l32 174h88zM72 0v504h85v-95q27 47 72 75t101 28q79 0 129.5 -49t50.5 -129v-334h-85v318q0 52 -31 84.5t-83 32.5q-71 0 -112.5 -57.5t-41.5 -156.5v-221h-85z" />
    <glyph glyph-name="ncaron" unicode="&#x148;" horiz-adv-x="576" 
d="M69 0v504h85v-95q27 47 72 75t101 28q79 0 129.5 -49t50.5 -129v-334h-85v318q0 52 -31 84.5t-83 32.5q-71 0 -112.5 -57.5t-41.5 -156.5v-221h-85zM319 560h-69l-116 148h68l83 -89l82 89h68z" />
    <glyph glyph-name="uni0146" unicode="&#x146;" horiz-adv-x="576" 
d="M69 0v504h85v-95q27 47 72 75t101 28q79 0 129.5 -49t50.5 -129v-334h-85v318q0 52 -31 84.5t-83 32.5q-71 0 -112.5 -57.5t-41.5 -156.5v-221h-85zM255 -190h-62l44 148h98z" />
    <glyph glyph-name="eng" unicode="&#x14b;" horiz-adv-x="576" 
d="M456.5 463q50.5 -49 50.5 -129v-369q0 -68 -42.5 -111.5t-111.5 -43.5q-12 0 -18 1l-3 78q5 -1 15 -1q75 1 75 95v335q0 52 -31 84.5t-83 32.5q-71 0 -112.5 -57.5t-41.5 -156.5v-221h-85v504h85v-95q27 47 72 75t101 28q79 0 129.5 -49z" />
    <glyph glyph-name="ntilde" unicode="&#xf1;" horiz-adv-x="576" 
d="M69 0v504h85v-95q27 47 72 75t101 28q79 0 129.5 -49t50.5 -129v-334h-85v318q0 52 -31 84.5t-83 32.5q-71 0 -112.5 -57.5t-41.5 -156.5v-221h-85zM113 595q1 46 30.5 75t76.5 29q38 0 75 -27q23 -15 34.5 -21t27.5 -6q40 0 45 50l62 -11q-2 -47 -31.5 -75.5
t-75.5 -28.5q-34 0 -75 26q-5 3 -17.5 12t-23 13t-21.5 4q-19 0 -31.5 -13t-14.5 -37z" />
    <glyph glyph-name="o" unicode="o" horiz-adv-x="593" 
d="M163.5 25.5q-58.5 33.5 -91 92.5t-32.5 134t32.5 134t91 92.5t132.5 33.5t132.5 -33.5t91.5 -92.5t33 -134t-33 -134t-91.5 -92.5t-132.5 -33.5t-132.5 33.5zM418 119.5q47 51.5 47 132.5t-47 132.5t-122 51.5t-122 -51.5t-47 -132.5t47 -132.5t122 -51.5t122 51.5z" />
    <glyph glyph-name="oacute" unicode="&#xf3;" horiz-adv-x="593" 
d="M163.5 25.5q-58.5 33.5 -91 92.5t-32.5 134t32.5 134t91 92.5t132.5 33.5t132.5 -33.5t91.5 -92.5t33 -134t-33 -134t-91.5 -92.5t-132.5 -33.5t-132.5 33.5zM418 119.5q47 51.5 47 132.5t-47 132.5t-122 51.5t-122 -51.5t-47 -132.5t47 -132.5t122 -51.5t122 51.5z
M317 560h-62l72 148h107z" />
    <glyph glyph-name="obreve" unicode="&#x14f;" horiz-adv-x="593" 
d="M163.5 25.5q-58.5 33.5 -91 92.5t-32.5 134t32.5 134t91 92.5t132.5 33.5t132.5 -33.5t91.5 -92.5t33 -134t-33 -134t-91.5 -92.5t-132.5 -33.5t-132.5 33.5zM418 119.5q47 51.5 47 132.5t-47 132.5t-122 51.5t-122 -51.5t-47 -132.5t47 -132.5t122 -51.5t122 51.5z
M204.5 593q-36.5 36 -36.5 91h68q0 -28 17 -46t43 -18q27 0 44.5 18t17.5 46h68q0 -55 -37 -91t-93 -36q-55 0 -91.5 36z" />
    <glyph glyph-name="ocircumflex" unicode="&#xf4;" horiz-adv-x="593" 
d="M163.5 25.5q-58.5 33.5 -91 92.5t-32.5 134t32.5 134t91 92.5t132.5 33.5t132.5 -33.5t91.5 -92.5t33 -134t-33 -134t-91.5 -92.5t-132.5 -33.5t-132.5 33.5zM418 119.5q47 51.5 47 132.5t-47 132.5t-122 51.5t-122 -51.5t-47 -132.5t47 -132.5t122 -51.5t122 51.5z
M145 560l116 148h69l116 -148h-68l-82 90l-83 -90h-68z" />
    <glyph glyph-name="odieresis" unicode="&#xf6;" horiz-adv-x="593" 
d="M163.5 25.5q-58.5 33.5 -91 92.5t-32.5 134t32.5 134t91 92.5t132.5 33.5t132.5 -33.5t91.5 -92.5t33 -134t-33 -134t-91.5 -92.5t-132.5 -33.5t-132.5 33.5zM418 119.5q47 51.5 47 132.5t-47 132.5t-122 51.5t-122 -51.5t-47 -132.5t47 -132.5t122 -51.5t122 51.5z
M166.5 612.5q-16.5 16.5 -16.5 40.5q0 25 16.5 41.5t40.5 16.5q26 0 43 -16.5t17 -41.5q0 -24 -17.5 -40.5t-42.5 -16.5q-24 0 -40.5 16.5zM343.5 612.5q-16.5 16.5 -16.5 40.5q0 25 16.5 41.5t41.5 16.5t42 -16.5t17 -41.5q0 -24 -17 -40.5t-42 -16.5t-41.5 16.5z" />
    <glyph glyph-name="ograve" unicode="&#xf2;" horiz-adv-x="593" 
d="M163.5 25.5q-58.5 33.5 -91 92.5t-32.5 134t32.5 134t91 92.5t132.5 33.5t132.5 -33.5t91.5 -92.5t33 -134t-33 -134t-91.5 -92.5t-132.5 -33.5t-132.5 33.5zM418 119.5q47 51.5 47 132.5t-47 132.5t-122 51.5t-122 -51.5t-47 -132.5t47 -132.5t122 -51.5t122 51.5z
M256 708l72 -148h-62l-117 148h107z" />
    <glyph glyph-name="ohungarumlaut" unicode="&#x151;" horiz-adv-x="593" 
d="M163.5 25.5q-58.5 33.5 -91 92.5t-32.5 134t32.5 134t91 92.5t132.5 33.5t132.5 -33.5t91.5 -92.5t33 -134t-33 -134t-91.5 -92.5t-132.5 -33.5t-132.5 33.5zM418 119.5q47 51.5 47 132.5t-47 132.5t-122 51.5t-122 -51.5t-47 -132.5t47 -132.5t122 -51.5t122 51.5z
M251 560h-73l72 148h82zM388 560h-73l72 148h83z" />
    <glyph glyph-name="omacron" unicode="&#x14d;" horiz-adv-x="593" 
d="M163.5 25.5q-58.5 33.5 -91 92.5t-32.5 134t32.5 134t91 92.5t132.5 33.5t132.5 -33.5t91.5 -92.5t33 -134t-33 -134t-91.5 -92.5t-132.5 -33.5t-132.5 33.5zM418 119.5q47 51.5 47 132.5t-47 132.5t-122 51.5t-122 -51.5t-47 -132.5t47 -132.5t122 -51.5t122 51.5z
M429 591h-267v70h267v-70z" />
    <glyph glyph-name="oslash" unicode="&#xf8;" horiz-adv-x="593" 
d="M492 426q29 -35 45 -79t16 -95q0 -75 -33 -134t-91.5 -92.5t-132.5 -33.5q-82 0 -142 40l-60 -70l-54 48l59 69q-28 34 -43.5 78.5t-15.5 94.5q0 75 32.5 134t91 92.5t132.5 33.5q78 0 140 -38l59 68l55 -48zM155 144l229 269q-38 23 -88 23q-75 0 -122 -51.5t-47 -132.5
q0 -61 28 -108zM418 119.5q47 51.5 47 132.5q0 63 -29 109l-230 -268q39 -25 90 -25q75 0 122 51.5z" />
    <glyph glyph-name="otilde" unicode="&#xf5;" horiz-adv-x="593" 
d="M163.5 25.5q-58.5 33.5 -91 92.5t-32.5 134t32.5 134t91 92.5t132.5 33.5t132.5 -33.5t91.5 -92.5t33 -134t-33 -134t-91.5 -92.5t-132.5 -33.5t-132.5 33.5zM418 119.5q47 51.5 47 132.5t-47 132.5t-122 51.5t-122 -51.5t-47 -132.5t47 -132.5t122 -51.5t122 51.5z
M124 595q1 46 30.5 75t76.5 29q38 0 75 -27q23 -15 34.5 -21t27.5 -6q40 0 45 50l62 -11q-2 -47 -31.5 -75.5t-75.5 -28.5q-34 0 -75 26q-5 3 -17.5 12t-23 13t-21.5 4q-19 0 -31.5 -13t-14.5 -37z" />
    <glyph glyph-name="oe" unicode="&#x153;" horiz-adv-x="995" 
d="M953 236h-398q4 -76 48.5 -122.5t112.5 -46.5q57 0 95.5 26t48.5 73l81 -19q-19 -73 -78.5 -114t-146.5 -41q-67 0 -120 29.5t-85 81.5q-34 -52 -90 -81.5t-125 -29.5q-74 0 -132.5 33.5t-91 92.5t-32.5 134t32.5 134t91 92.5t132.5 33.5q68 0 124 -29t90 -81
q32 51 84 80.5t119 29.5q73 0 128 -31.5t84.5 -86t29.5 -119.5q0 -21 -2 -39zM865 307q-6 60 -46 97t-106 37q-59 0 -99.5 -35.5t-54.5 -98.5h306zM418 119.5q47 51.5 47 132.5t-47 132.5t-122 51.5t-122 -51.5t-47 -132.5t47 -132.5t122 -51.5t122 51.5z" />
    <glyph glyph-name="p" unicode="p" horiz-adv-x="601" 
d="M69 -182v686h85v-73q21 35 66.5 58t99.5 23q76 0 130 -33.5t82.5 -92.5t28.5 -134t-29 -134t-83.5 -92.5t-130.5 -33.5q-48 0 -93 21.5t-71 56.5v-252h-85zM430 118.5q45 50.5 45 133.5t-45 133.5t-120 50.5q-74 0 -118.5 -50.5t-44.5 -133.5t44.5 -133.5t118.5 -50.5
q75 0 120 50.5z" />
    <glyph glyph-name="thorn" unicode="&#xfe;" horiz-adv-x="601" 
d="M69 -204v910h87v-267q28 33 73.5 53t90.5 20q76 0 130 -33.5t82.5 -92.5t28.5 -134t-29 -134t-83.5 -92.5t-130.5 -33.5q-50 0 -95.5 19t-66.5 47v-262h-87zM431.5 119q43.5 51 43.5 133t-43.5 133t-121.5 51q-77 0 -120 -51t-43 -133q0 -83 42.5 -133.5t120.5 -50.5
t121.5 51z" />
    <glyph glyph-name="q" unicode="q" horiz-adv-x="601" 
d="M532 -182h-85v252q-25 -34 -70.5 -56t-92.5 -22q-76 0 -131 33.5t-84 92.5t-29 134t28.5 134t82.5 92.5t130 33.5q54 0 100 -23t66 -58v73h85v-686zM409.5 118.5q44.5 50.5 44.5 133.5t-44.5 133.5t-118.5 50.5q-75 0 -119.5 -50.5t-44.5 -133.5t44.5 -133.5t119.5 -50.5
q74 0 118.5 50.5z" />
    <glyph glyph-name="r" unicode="r" horiz-adv-x="383" 
d="M364 421q-28 12 -65 12q-64 0 -104.5 -61.5t-40.5 -179.5v-192h-85v504h85v-102q22 48 66 79t91 31q33 0 58 -9z" />
    <glyph glyph-name="racute" unicode="&#x155;" horiz-adv-x="383" 
d="M364 421q-28 12 -65 12q-64 0 -104.5 -61.5t-40.5 -179.5v-192h-85v504h85v-102q22 48 66 79t91 31q33 0 58 -9zM235 560h-62l72 148h107z" />
    <glyph glyph-name="rcaron" unicode="&#x159;" horiz-adv-x="383" 
d="M364 421q-28 12 -65 12q-64 0 -104.5 -61.5t-40.5 -179.5v-192h-85v504h85v-102q22 48 66 79t91 31q33 0 58 -9zM249 560h-69l-116 148h68l83 -89l82 89h68z" />
    <glyph glyph-name="uni0157" unicode="&#x157;" horiz-adv-x="383" 
d="M364 421q-28 12 -65 12q-64 0 -104.5 -61.5t-40.5 -179.5v-192h-85v504h85v-102q22 48 66 79t91 31q33 0 58 -9zM79 -190h-62l44 148h98z" />
    <glyph glyph-name="s" unicode="s" horiz-adv-x="462" 
d="M100.5 35q-53.5 43 -72.5 104l73 32q34 -107 137 -107q45 0 73.5 22.5t28.5 54.5q0 27 -16.5 44t-40.5 26t-67 20q-54 14 -86.5 27.5t-56 42t-23.5 77.5q0 60 48 97t129 37q67 0 119 -34.5t68 -89.5l-71 -31q-10 38 -43.5 61.5t-74.5 23.5q-43 0 -68 -16.5t-25 -46.5
t27 -44.5t84 -27.5q56 -14 92 -28.5t62 -47t26 -88.5q0 -67 -51 -109t-134 -42q-84 0 -137.5 43z" />
    <glyph glyph-name="sacute" unicode="&#x15b;" horiz-adv-x="462" 
d="M100.5 35q-53.5 43 -72.5 104l73 32q34 -107 137 -107q45 0 73.5 22.5t28.5 54.5q0 27 -16.5 44t-40.5 26t-67 20q-54 14 -86.5 27.5t-56 42t-23.5 77.5q0 60 48 97t129 37q67 0 119 -34.5t68 -89.5l-71 -31q-10 38 -43.5 61.5t-74.5 23.5q-43 0 -68 -16.5t-25 -46.5
t27 -44.5t84 -27.5q56 -14 92 -28.5t62 -47t26 -88.5q0 -67 -51 -109t-134 -42q-84 0 -137.5 43zM248 560h-62l72 148h107z" />
    <glyph glyph-name="scaron" unicode="&#x161;" horiz-adv-x="462" 
d="M100.5 35q-53.5 43 -72.5 104l73 32q34 -107 137 -107q45 0 73.5 22.5t28.5 54.5q0 27 -16.5 44t-40.5 26t-67 20q-54 14 -86.5 27.5t-56 42t-23.5 77.5q0 60 48 97t129 37q67 0 119 -34.5t68 -89.5l-71 -31q-10 38 -43.5 61.5t-74.5 23.5q-43 0 -68 -16.5t-25 -46.5
t27 -44.5t84 -27.5q56 -14 92 -28.5t62 -47t26 -88.5q0 -67 -51 -109t-134 -42q-84 0 -137.5 43zM261 560h-69l-116 148h68l83 -89l82 89h68z" />
    <glyph glyph-name="scedilla" unicode="&#x15f;" horiz-adv-x="462" 
d="M159 334.5q27 -14.5 84 -27.5q56 -14 92 -28.5t62 -47t26 -88.5q0 -61 -42.5 -102t-115.5 -48l-68 -140h-107l110 142q-68 9 -111.5 50t-60.5 94l73 32q34 -107 137 -107q45 0 73.5 22.5t28.5 54.5q0 27 -16.5 44t-40.5 26t-67 20q-54 14 -86.5 27.5t-56 42t-23.5 77.5
q0 60 48 97t129 37q67 0 119 -34.5t68 -89.5l-71 -31q-10 38 -43.5 61.5t-74.5 23.5q-43 0 -68 -16.5t-25 -46.5t27 -44.5z" />
    <glyph glyph-name="scircumflex" unicode="&#x15d;" horiz-adv-x="462" 
d="M100.5 35q-53.5 43 -72.5 104l73 32q34 -107 137 -107q45 0 73.5 22.5t28.5 54.5q0 27 -16.5 44t-40.5 26t-67 20q-54 14 -86.5 27.5t-56 42t-23.5 77.5q0 60 48 97t129 37q67 0 119 -34.5t68 -89.5l-71 -31q-10 38 -43.5 61.5t-74.5 23.5q-43 0 -68 -16.5t-25 -46.5
t27 -44.5t84 -27.5q56 -14 92 -28.5t62 -47t26 -88.5q0 -67 -51 -109t-134 -42q-84 0 -137.5 43zM76 560l116 148h69l116 -148h-68l-82 90l-83 -90h-68z" />
    <glyph glyph-name="uni0219" unicode="&#x219;" horiz-adv-x="462" 
d="M100.5 35q-53.5 43 -72.5 104l73 32q34 -107 137 -107q45 0 73.5 22.5t28.5 54.5q0 27 -16.5 44t-40.5 26t-67 20q-54 14 -86.5 27.5t-56 42t-23.5 77.5q0 60 48 97t129 37q67 0 119 -34.5t68 -89.5l-71 -31q-10 38 -43.5 61.5t-74.5 23.5q-43 0 -68 -16.5t-25 -46.5
t27 -44.5t84 -27.5q56 -14 92 -28.5t62 -47t26 -88.5q0 -67 -51 -109t-134 -42q-84 0 -137.5 43zM193 -190h-62l44 148h98z" />
    <glyph glyph-name="germandbls" unicode="&#xdf;" horiz-adv-x="590" 
d="M272.5 -5.5q-29.5 2.5 -33.5 4.5v79q44 -8 76 -8q73 1 112 36.5t39 98.5q0 68 -48.5 102t-128.5 34h-50v78h54q60 0 93.5 29t33.5 80q0 49 -33.5 78t-88.5 29q-56 0 -88.5 -37t-32.5 -108v-490h-91v341h-58v78h58v72q0 69 28.5 118t77 74t106.5 25q63 0 110 -22.5t72 -62
t25 -89.5q0 -54 -28 -94.5t-70 -50.5q62 -17 105 -63t43 -118q0 -105 -63 -160.5t-169 -55.5q-21 0 -50.5 2.5z" />
    <glyph glyph-name="longs" unicode="&#x17f;" horiz-adv-x="365" 
d="M119 0v431h-86v73h86v47q0 81 41 125.5t108 44.5q40 0 69 -8l-5 -76q-24 10 -52 10q-34 0 -55.5 -24.5t-21.5 -65.5v-557h-84z" />
    <glyph glyph-name="t" unicode="t" horiz-adv-x="367" 
d="M337 4q-33 -12 -79 -12q-68 0 -108.5 39.5t-40.5 119.5v278h-94v75h94v153h85v-153h135v-75h-135v-281q0 -39 20 -59t54 -20q37 0 63 13z" />
    <glyph glyph-name="tbar" unicode="&#x167;" horiz-adv-x="367" 
d="M337 4q-33 -12 -79 -12q-68 0 -108.5 39.5t-40.5 119.5v69h-92v64h92v145h-94v75h94v153h85v-153h135v-75h-135v-145h125v-64h-125v-72q0 -39 20 -59t54 -20q37 0 63 13z" />
    <glyph glyph-name="tcaron" unicode="&#x165;" horiz-adv-x="367" 
d="M337 4q-33 -12 -79 -12q-68 0 -108.5 39.5t-40.5 119.5v278h-94v75h94v153h85v-153h135v-75h-135v-281q0 -39 20 -59t54 -20q37 0 63 13zM325 560h-51l32 174h88z" />
    <glyph glyph-name="uni0163" unicode="&#x163;" horiz-adv-x="367" 
d="M337 4q-33 -12 -79 -12h-12l-68 -139h-107l118 152q-38 16 -59 52.5t-21 93.5v278h-94v75h94v153h85v-153h135v-75h-135v-281q0 -39 20 -59t54 -20q37 0 63 13z" />
    <glyph glyph-name="uni021B" unicode="&#x21b;" horiz-adv-x="367" 
d="M337 4q-33 -12 -79 -12q-68 0 -108.5 39.5t-40.5 119.5v278h-94v75h94v153h85v-153h135v-75h-135v-281q0 -39 20 -59t54 -20q37 0 63 13zM173 -190h-62l44 148h98z" />
    <glyph glyph-name="u" unicode="u" horiz-adv-x="576" 
d="M507 504v-504h-85v95q-27 -47 -72 -75t-101 -28q-79 0 -129.5 49t-50.5 129v334h85v-318q0 -52 31 -84.5t83 -32.5q71 0 112.5 57.5t41.5 156.5v221h85z" />
    <glyph glyph-name="uacute" unicode="&#xfa;" horiz-adv-x="576" 
d="M507 504v-504h-85v95q-27 -47 -72 -75t-101 -28q-79 0 -129.5 49t-50.5 129v334h85v-318q0 -52 31 -84.5t83 -32.5q71 0 112.5 57.5t41.5 156.5v221h85zM306 560h-62l72 148h107z" />
    <glyph glyph-name="ubreve" unicode="&#x16d;" horiz-adv-x="576" 
d="M507 504v-504h-85v95q-27 -47 -72 -75t-101 -28q-79 0 -129.5 49t-50.5 129v334h85v-318q0 -52 31 -84.5t83 -32.5q71 0 112.5 57.5t41.5 156.5v221h85zM193.5 593q-36.5 36 -36.5 91h68q0 -28 17 -46t43 -18q27 0 44.5 18t17.5 46h68q0 -55 -37 -91t-93 -36
q-55 0 -91.5 36z" />
    <glyph glyph-name="ucircumflex" unicode="&#xfb;" horiz-adv-x="576" 
d="M507 504v-504h-85v95q-27 -47 -72 -75t-101 -28q-79 0 -129.5 49t-50.5 129v334h85v-318q0 -52 31 -84.5t83 -32.5q71 0 112.5 57.5t41.5 156.5v221h85zM134 560l116 148h69l116 -148h-68l-82 90l-83 -90h-68z" />
    <glyph glyph-name="udieresis" unicode="&#xfc;" horiz-adv-x="576" 
d="M507 504v-504h-85v95q-27 -47 -72 -75t-101 -28q-79 0 -129.5 49t-50.5 129v334h85v-318q0 -52 31 -84.5t83 -32.5q71 0 112.5 57.5t41.5 156.5v221h85zM155.5 612.5q-16.5 16.5 -16.5 40.5q0 25 16.5 41.5t40.5 16.5q26 0 43 -16.5t17 -41.5q0 -24 -17.5 -40.5
t-42.5 -16.5q-24 0 -40.5 16.5zM332.5 612.5q-16.5 16.5 -16.5 40.5q0 25 16.5 41.5t41.5 16.5t42 -16.5t17 -41.5q0 -24 -17 -40.5t-42 -16.5t-41.5 16.5z" />
    <glyph glyph-name="ugrave" unicode="&#xf9;" horiz-adv-x="576" 
d="M507 504v-504h-85v95q-27 -47 -72 -75t-101 -28q-79 0 -129.5 49t-50.5 129v334h85v-318q0 -52 31 -84.5t83 -32.5q71 0 112.5 57.5t41.5 156.5v221h85zM246 708l72 -148h-62l-117 148h107z" />
    <glyph glyph-name="uhungarumlaut" unicode="&#x171;" horiz-adv-x="576" 
d="M507 504v-504h-85v95q-27 -47 -72 -75t-101 -28q-79 0 -129.5 49t-50.5 129v334h85v-318q0 -52 31 -84.5t83 -32.5q71 0 112.5 57.5t41.5 156.5v221h85zM240 560h-73l72 148h82zM377 560h-73l72 148h83z" />
    <glyph glyph-name="umacron" unicode="&#x16b;" horiz-adv-x="576" 
d="M507 504v-504h-85v95q-27 -47 -72 -75t-101 -28q-79 0 -129.5 49t-50.5 129v334h85v-318q0 -52 31 -84.5t83 -32.5q71 0 112.5 57.5t41.5 156.5v221h85zM418 591h-267v70h267v-70z" />
    <glyph glyph-name="uogonek" unicode="&#x173;" horiz-adv-x="576" 
d="M542 -185q-27 -5 -49 -5q-50 0 -81.5 27.5t-31.5 71.5q0 20 12 46t30 45v95q-27 -47 -72 -75t-101 -28q-79 0 -129.5 49t-50.5 129v334h85v-318q0 -52 31 -84.5t83 -32.5q71 0 112.5 57.5t41.5 156.5v221h85v-504h-5q-19 -20 -31 -40.5t-12 -36.5q0 -19 11.5 -29.5
t30.5 -10.5q21 0 31 2z" />
    <glyph glyph-name="uring" unicode="&#x16f;" horiz-adv-x="576" 
d="M507 504v-504h-85v95q-27 -47 -72 -75t-101 -28q-79 0 -129.5 49t-50.5 129v334h85v-318q0 -52 31 -84.5t83 -32.5q71 0 112.5 57.5t41.5 156.5v221h85zM208 572.5q-31 29.5 -31 73.5t31.5 73t77.5 29q47 0 78 -29t31 -73t-31 -73.5t-78 -29.5t-78 29.5zM324.5 608.5
q15.5 14.5 15.5 37.5q0 22 -15.5 36.5t-38.5 14.5t-38 -14.5t-15 -36.5q0 -23 15 -37.5t38 -14.5t38.5 14.5z" />
    <glyph glyph-name="utilde" unicode="&#x169;" horiz-adv-x="576" 
d="M507 504v-504h-85v95q-27 -47 -72 -75t-101 -28q-79 0 -129.5 49t-50.5 129v334h85v-318q0 -52 31 -84.5t83 -32.5q71 0 112.5 57.5t41.5 156.5v221h85zM113 595q1 46 30.5 75t76.5 29q38 0 75 -27q23 -15 34.5 -21t27.5 -6q40 0 45 50l62 -11q-2 -47 -31.5 -75.5
t-75.5 -28.5q-34 0 -75 26q-5 3 -17.5 12t-23 13t-21.5 4q-19 0 -31.5 -13t-14.5 -37z" />
    <glyph glyph-name="v" unicode="v" horiz-adv-x="482" 
d="M284 0h-87l-184 504h87l140 -405l141 405h88z" />
    <glyph glyph-name="w" unicode="w" horiz-adv-x="764" 
d="M264 0h-83l-154 504h87l109 -385l118 385h82l118 -385l108 385h89l-155 -504h-83l-118 383z" />
    <glyph glyph-name="wacute" unicode="&#x1e83;" horiz-adv-x="764" 
d="M264 0h-83l-154 504h87l109 -385l118 385h82l118 -385l108 385h89l-155 -504h-83l-118 383zM403 560h-62l72 148h107z" />
    <glyph glyph-name="wcircumflex" unicode="&#x175;" horiz-adv-x="764" 
d="M264 0h-83l-154 504h87l109 -385l118 385h82l118 -385l108 385h89l-155 -504h-83l-118 383zM231 560l116 148h69l116 -148h-68l-82 90l-83 -90h-68z" />
    <glyph glyph-name="wdieresis" unicode="&#x1e85;" horiz-adv-x="764" 
d="M264 0h-83l-154 504h87l109 -385l118 385h82l118 -385l108 385h89l-155 -504h-83l-118 383zM252.5 612.5q-16.5 16.5 -16.5 40.5q0 25 16.5 41.5t40.5 16.5q26 0 43 -16.5t17 -41.5q0 -24 -17.5 -40.5t-42.5 -16.5q-24 0 -40.5 16.5zM429.5 612.5q-16.5 16.5 -16.5 40.5
q0 25 16.5 41.5t41.5 16.5t42 -16.5t17 -41.5q0 -24 -17 -40.5t-42 -16.5t-41.5 16.5z" />
    <glyph glyph-name="wgrave" unicode="&#x1e81;" horiz-adv-x="764" 
d="M264 0h-83l-154 504h87l109 -385l118 385h82l118 -385l108 385h89l-155 -504h-83l-118 383zM342 708l72 -148h-62l-117 148h107z" />
    <glyph glyph-name="x" unicode="x" horiz-adv-x="484" 
d="M290 260l175 -260h-96l-127 189l-127 -189h-96l175 260l-164 244h95l117 -173l116 173h96z" />
    <glyph glyph-name="y" unicode="y" horiz-adv-x="501" 
d="M253 118l148 386h87l-264 -686h-87l73 189l-197 497h92z" />
    <glyph glyph-name="yacute" unicode="&#xfd;" horiz-adv-x="501" 
d="M253 118l148 386h87l-264 -686h-87l73 189l-197 497h92zM271 560h-62l72 148h107z" />
    <glyph glyph-name="ycircumflex" unicode="&#x177;" horiz-adv-x="501" 
d="M253 118l148 386h87l-264 -686h-87l73 189l-197 497h92zM99 560l116 148h69l116 -148h-68l-82 90l-83 -90h-68z" />
    <glyph glyph-name="ydieresis" unicode="&#xff;" horiz-adv-x="501" 
d="M253 118l148 386h87l-264 -686h-87l73 189l-197 497h92zM120.5 612.5q-16.5 16.5 -16.5 40.5q0 25 16.5 41.5t40.5 16.5q26 0 43 -16.5t17 -41.5q0 -24 -17.5 -40.5t-42.5 -16.5q-24 0 -40.5 16.5zM297.5 612.5q-16.5 16.5 -16.5 40.5q0 25 16.5 41.5t41.5 16.5t42 -16.5
t17 -41.5q0 -24 -17 -40.5t-42 -16.5t-41.5 16.5z" />
    <glyph glyph-name="ygrave" unicode="&#x1ef3;" horiz-adv-x="501" 
d="M253 118l148 386h87l-264 -686h-87l73 189l-197 497h92zM210 708l72 -148h-62l-117 148h107z" />
    <glyph glyph-name="z" unicode="z" horiz-adv-x="490" 
d="M454 0h-421v65l311 364h-293v75h401v-65l-307 -364h309v-75z" />
    <glyph glyph-name="zacute" unicode="&#x17a;" horiz-adv-x="490" 
d="M454 0h-421v65l311 364h-293v75h401v-65l-307 -364h309v-75zM274 560h-62l72 148h107z" />
    <glyph glyph-name="zcaron" unicode="&#x17e;" horiz-adv-x="490" 
d="M454 0h-421v65l311 364h-293v75h401v-65l-307 -364h309v-75zM287 560h-69l-116 148h68l83 -89l82 89h68z" />
    <glyph glyph-name="zdotaccent" unicode="&#x17c;" horiz-adv-x="490" 
d="M454 0h-421v65l311 364h-293v75h401v-65l-307 -364h309v-75zM211 616q-17 17 -17 42q0 26 17 43t42 17q26 0 43.5 -17t17.5 -43q0 -25 -17.5 -42t-43.5 -17q-25 0 -42 17z" />
    <glyph glyph-name="r.calt" horiz-adv-x="360" 
d="M325 427q-15 4 -34 4q-62 0 -99.5 -60.5t-37.5 -178.5v-192h-85v504h85v-102q20 48 61 79t87 31q16 0 28 -2z" />
    <glyph glyph-name="racute.calt" horiz-adv-x="360" 
d="M325 427q-15 4 -34 4q-62 0 -99.5 -60.5t-37.5 -178.5v-192h-85v504h85v-102q20 48 61 79t87 31q16 0 28 -2zM219 560h-62l72 148h107z" />
    <glyph glyph-name="rcaron.calt" horiz-adv-x="360" 
d="M325 427q-15 4 -34 4q-62 0 -99.5 -60.5t-37.5 -178.5v-192h-85v504h85v-102q20 48 61 79t87 31q16 0 28 -2zM233 560h-69l-116 148h68l83 -89l82 89h68z" />
    <glyph glyph-name="uni0157.calt" horiz-adv-x="360" 
d="M325 427q-15 4 -34 4q-62 0 -99.5 -60.5t-37.5 -178.5v-192h-85v504h85v-102q20 48 61 79t87 31q16 0 28 -2zM79 -190h-62l44 148h98z" />
    <glyph glyph-name="germandbls.calt" horiz-adv-x="610" 
d="M417 685.5q48 -22.5 78.5 -62.5t37.5 -91l-149 -144q83 -7 134 -57.5t51 -127.5q0 -57 -27 -103.5t-74 -73t-105 -26.5h-131v82h127q52 0 87.5 35t35.5 87q0 55 -35 87.5t-93 32.5h-70l-11 51l168 167q-11 38 -47 61.5t-83 23.5q-66 0 -106.5 -43t-40.5 -113v-471h-91
v471q0 71 30 124.5t84 83t124 29.5q58 0 106 -22.5z" />
    <glyph glyph-name="a.ss01" horiz-adv-x="601" 
d="M532 504v-504h-85v73q-17 -35 -63 -58t-101 -23q-76 0 -131 33.5t-83.5 92.5t-28.5 134t28.5 134t83 92.5t130.5 33.5q50 0 95.5 -22t69.5 -58v72h85zM410 118.5q45 50.5 45 133.5t-45 133.5t-119 50.5t-119 -50.5t-45 -133.5t45 -133.5t119 -50.5t119 50.5z" />
    <glyph glyph-name="aacute.ss01" horiz-adv-x="601" 
d="M532 504v-504h-85v73q-17 -35 -63 -58t-101 -23q-76 0 -131 33.5t-83.5 92.5t-28.5 134t28.5 134t83 92.5t130.5 33.5q50 0 95.5 -22t69.5 -58v72h85zM410 118.5q45 50.5 45 133.5t-45 133.5t-119 50.5t-119 -50.5t-45 -133.5t45 -133.5t119 -50.5t119 50.5zM323 560h-62
l72 148h107z" />
    <glyph glyph-name="abreve.ss01" horiz-adv-x="601" 
d="M532 504v-504h-85v73q-17 -35 -63 -58t-101 -23q-76 0 -131 33.5t-83.5 92.5t-28.5 134t28.5 134t83 92.5t130.5 33.5q50 0 95.5 -22t69.5 -58v72h85zM410 118.5q45 50.5 45 133.5t-45 133.5t-119 50.5t-119 -50.5t-45 -133.5t45 -133.5t119 -50.5t119 50.5zM209.5 593
q-36.5 36 -36.5 91h68q0 -28 17 -46t43 -18q27 0 44.5 18t17.5 46h68q0 -55 -37 -91t-93 -36q-55 0 -91.5 36z" />
    <glyph glyph-name="acircumflex.ss01" horiz-adv-x="601" 
d="M532 504v-504h-85v73q-17 -35 -63 -58t-101 -23q-76 0 -131 33.5t-83.5 92.5t-28.5 134t28.5 134t83 92.5t130.5 33.5q50 0 95.5 -22t69.5 -58v72h85zM410 118.5q45 50.5 45 133.5t-45 133.5t-119 50.5t-119 -50.5t-45 -133.5t45 -133.5t119 -50.5t119 50.5zM151 560
l116 148h69l116 -148h-68l-82 90l-83 -90h-68z" />
    <glyph glyph-name="adieresis.ss01" horiz-adv-x="601" 
d="M532 504v-504h-85v73q-17 -35 -63 -58t-101 -23q-76 0 -131 33.5t-83.5 92.5t-28.5 134t28.5 134t83 92.5t130.5 33.5q50 0 95.5 -22t69.5 -58v72h85zM410 118.5q45 50.5 45 133.5t-45 133.5t-119 50.5t-119 -50.5t-45 -133.5t45 -133.5t119 -50.5t119 50.5zM172.5 612.5
q-16.5 16.5 -16.5 40.5q0 25 16.5 41.5t40.5 16.5q26 0 43 -16.5t17 -41.5q0 -24 -17.5 -40.5t-42.5 -16.5q-24 0 -40.5 16.5zM349.5 612.5q-16.5 16.5 -16.5 40.5q0 25 16.5 41.5t41.5 16.5t42 -16.5t17 -41.5q0 -24 -17 -40.5t-42 -16.5t-41.5 16.5z" />
    <glyph glyph-name="agrave.ss01" horiz-adv-x="601" 
d="M532 504v-504h-85v73q-17 -35 -63 -58t-101 -23q-76 0 -131 33.5t-83.5 92.5t-28.5 134t28.5 134t83 92.5t130.5 33.5q50 0 95.5 -22t69.5 -58v72h85zM410 118.5q45 50.5 45 133.5t-45 133.5t-119 50.5t-119 -50.5t-45 -133.5t45 -133.5t119 -50.5t119 50.5zM262 708
l72 -148h-62l-117 148h107z" />
    <glyph glyph-name="amacron.ss01" horiz-adv-x="601" 
d="M532 504v-504h-85v73q-17 -35 -63 -58t-101 -23q-76 0 -131 33.5t-83.5 92.5t-28.5 134t28.5 134t83 92.5t130.5 33.5q50 0 95.5 -22t69.5 -58v72h85zM410 118.5q45 50.5 45 133.5t-45 133.5t-119 50.5t-119 -50.5t-45 -133.5t45 -133.5t119 -50.5t119 50.5zM435 591
h-267v70h267v-70z" />
    <glyph glyph-name="aogonek.ss01" horiz-adv-x="601" 
d="M572 -185q-27 -5 -49 -5q-50 0 -81.5 27.5t-31.5 71.5q0 20 12 46t30 45h-5v73q-17 -35 -63 -58t-101 -23q-76 0 -131 33.5t-83.5 92.5t-28.5 134t28.5 134t83 92.5t130.5 33.5q50 0 95.5 -22t69.5 -58v72h85v-504q-19 -20 -31 -40.5t-12 -36.5q0 -19 11.5 -29.5
t30.5 -10.5q21 0 31 2zM410 118.5q45 50.5 45 133.5t-45 133.5t-119 50.5t-119 -50.5t-45 -133.5t45 -133.5t119 -50.5t119 50.5z" />
    <glyph glyph-name="aring.ss01" horiz-adv-x="601" 
d="M532 504v-504h-85v73q-17 -35 -63 -58t-101 -23q-76 0 -131 33.5t-83.5 92.5t-28.5 134t28.5 134t83 92.5t130.5 33.5q50 0 95.5 -22t69.5 -58v72h85zM410 118.5q45 50.5 45 133.5t-45 133.5t-119 50.5t-119 -50.5t-45 -133.5t45 -133.5t119 -50.5t119 50.5zM224 572.5
q-31 29.5 -31 73.5t31.5 73t77.5 29q47 0 78 -29t31 -73t-31 -73.5t-78 -29.5t-78 29.5zM340.5 608.5q15.5 14.5 15.5 37.5q0 22 -15.5 36.5t-38.5 14.5t-38 -14.5t-15 -36.5q0 -23 15 -37.5t38 -14.5t38.5 14.5z" />
    <glyph glyph-name="aringacute.ss01" horiz-adv-x="601" 
d="M224 572.5q-31 29.5 -31 73.5q0 36 21.5 62.5t55.5 35.5l69 141h107l-112 -141q35 -9 56 -36t21 -62q0 -44 -31 -73.5t-78 -29.5t-78 29.5zM264 682.5q-15 -14.5 -15 -36.5q0 -23 15 -37.5t38 -14.5t38.5 14.5t15.5 37.5q0 22 -15.5 36.5t-38.5 14.5t-38 -14.5zM447 504
h85v-504h-85v73q-17 -35 -63 -58t-101 -23q-76 0 -131 33.5t-83.5 92.5t-28.5 134t28.5 134t83 92.5t130.5 33.5q50 0 95.5 -22t69.5 -58v72zM410 118.5q45 50.5 45 133.5t-45 133.5t-119 50.5t-119 -50.5t-45 -133.5t45 -133.5t119 -50.5t119 50.5z" />
    <glyph glyph-name="atilde.ss01" horiz-adv-x="601" 
d="M532 504v-504h-85v73q-17 -35 -63 -58t-101 -23q-76 0 -131 33.5t-83.5 92.5t-28.5 134t28.5 134t83 92.5t130.5 33.5q50 0 95.5 -22t69.5 -58v72h85zM410 118.5q45 50.5 45 133.5t-45 133.5t-119 50.5t-119 -50.5t-45 -133.5t45 -133.5t119 -50.5t119 50.5zM130 595
q1 46 30.5 75t76.5 29q38 0 75 -27q23 -15 34.5 -21t27.5 -6q40 0 45 50l62 -11q-2 -47 -31.5 -75.5t-75.5 -28.5q-34 0 -75 26q-5 3 -17.5 12t-23 13t-21.5 4q-19 0 -31.5 -13t-14.5 -37z" />
    <glyph glyph-name="ae.ss01" horiz-adv-x="982" 
d="M940 236h-398q5 -77 49 -123t113 -46q57 0 95.5 26t48.5 73l80 -19q-18 -74 -75.5 -114.5t-144.5 -40.5q-55 0 -100 22t-76 63v-77h-85v73q-17 -35 -63 -58t-101 -23q-76 0 -131 33.5t-83.5 92.5t-28.5 134t28.5 134t83 92.5t130.5 33.5q50 0 95.5 -22t69.5 -58v72h85
v-76q30 40 74 62t99 22q73 0 126.5 -31.5t82 -85.5t28.5 -120q0 -21 -2 -39zM853 307q-7 60 -47 97t-105 37q-59 0 -99.5 -35.5t-54.5 -98.5h306zM410 118.5q45 50.5 45 133.5t-45 133.5t-119 50.5t-119 -50.5t-45 -133.5t45 -133.5t119 -50.5t119 50.5z" />
    <glyph glyph-name="aeacute.ss01" horiz-adv-x="982" 
d="M940 236h-398q5 -77 49 -123t113 -46q57 0 95.5 26t48.5 73l80 -19q-18 -74 -75.5 -114.5t-144.5 -40.5q-55 0 -100 22t-76 63v-77h-85v73q-17 -35 -63 -58t-101 -23q-76 0 -131 33.5t-83.5 92.5t-28.5 134t28.5 134t83 92.5t130.5 33.5q50 0 95.5 -22t69.5 -58v72h85
v-76q30 40 74 62t99 22q73 0 126.5 -31.5t82 -85.5t28.5 -120q0 -21 -2 -39zM853 307q-7 60 -47 97t-105 37q-59 0 -99.5 -35.5t-54.5 -98.5h306zM410 118.5q45 50.5 45 133.5t-45 133.5t-119 50.5t-119 -50.5t-45 -133.5t45 -133.5t119 -50.5t119 50.5zM525 560h-62l72 148
h107z" />
    <glyph glyph-name="g.ss02" horiz-adv-x="525" 
d="M328 98q79 0 125 -34t46 -101q0 -74 -63 -113.5t-169 -39.5q-109 0 -170.5 37.5t-61.5 106.5q0 31 15 57.5t39 45.5q-40 27 -40 78q0 32 18.5 56.5t49.5 38.5q-42 45 -42 112q0 50 25 88.5t68.5 60t97.5 21.5q49 0 92 -20l79 68l49 -56l-67 -57q38 -44 38 -105
q0 -77 -53.5 -123.5t-137.5 -46.5q-51 0 -94 19q-41 -18 -41 -51q0 -22 17.5 -32t44.5 -10h135zM189.5 415.5q-31.5 -27.5 -31.5 -73.5t31.5 -73.5t76.5 -27.5t76.5 27.5t31.5 73.5t-31.5 73.5t-76.5 27.5t-76.5 -27.5zM377.5 -98.5q38.5 19.5 38.5 55.5q0 39 -26 55.5
t-74 16.5h-107q-27 0 -51 3q-40 -27 -40 -77q0 -35 38 -54t111 -19q72 0 110.5 19.5z" />
    <glyph glyph-name="gbreve.ss02" horiz-adv-x="525" 
d="M328 98q79 0 125 -34t46 -101q0 -74 -63 -113.5t-169 -39.5q-109 0 -170.5 37.5t-61.5 106.5q0 31 15 57.5t39 45.5q-40 27 -40 78q0 32 18.5 56.5t49.5 38.5q-42 45 -42 112q0 50 25 88.5t68.5 60t97.5 21.5q49 0 92 -20l79 68l49 -56l-67 -57q38 -44 38 -105
q0 -77 -53.5 -123.5t-137.5 -46.5q-51 0 -94 19q-41 -18 -41 -51q0 -22 17.5 -32t44.5 -10h135zM189.5 415.5q-31.5 -27.5 -31.5 -73.5t31.5 -73.5t76.5 -27.5t76.5 27.5t31.5 73.5t-31.5 73.5t-76.5 27.5t-76.5 -27.5zM377.5 -98.5q38.5 19.5 38.5 55.5q0 39 -26 55.5
t-74 16.5h-107q-27 0 -51 3q-40 -27 -40 -77q0 -35 38 -54t111 -19q72 0 110.5 19.5zM172.5 593q-36.5 36 -36.5 91h68q0 -28 17 -46t43 -18q27 0 44.5 18t17.5 46h68q0 -55 -37 -91t-93 -36q-55 0 -91.5 36z" />
    <glyph glyph-name="gcircumflex.ss02" horiz-adv-x="525" 
d="M328 98q79 0 125 -34t46 -101q0 -74 -63 -113.5t-169 -39.5q-109 0 -170.5 37.5t-61.5 106.5q0 31 15 57.5t39 45.5q-40 27 -40 78q0 32 18.5 56.5t49.5 38.5q-42 45 -42 112q0 50 25 88.5t68.5 60t97.5 21.5q49 0 92 -20l79 68l49 -56l-67 -57q38 -44 38 -105
q0 -77 -53.5 -123.5t-137.5 -46.5q-51 0 -94 19q-41 -18 -41 -51q0 -22 17.5 -32t44.5 -10h135zM189.5 415.5q-31.5 -27.5 -31.5 -73.5t31.5 -73.5t76.5 -27.5t76.5 27.5t31.5 73.5t-31.5 73.5t-76.5 27.5t-76.5 -27.5zM377.5 -98.5q38.5 19.5 38.5 55.5q0 39 -26 55.5
t-74 16.5h-107q-27 0 -51 3q-40 -27 -40 -77q0 -35 38 -54t111 -19q72 0 110.5 19.5zM113 560l116 148h69l116 -148h-68l-82 90l-83 -90h-68z" />
    <glyph glyph-name="uni0123.ss02" horiz-adv-x="525" 
d="M328 98q79 0 125 -34t46 -101q0 -74 -63 -113.5t-169 -39.5q-109 0 -170.5 37.5t-61.5 106.5q0 31 15 57.5t39 45.5q-40 27 -40 78q0 32 18.5 56.5t49.5 38.5q-42 45 -42 112q0 50 25 88.5t68.5 60t97.5 21.5q49 0 92 -20l79 68l49 -56l-67 -57q38 -44 38 -105
q0 -77 -53.5 -123.5t-137.5 -46.5q-51 0 -94 19q-41 -18 -41 -51q0 -22 17.5 -32t44.5 -10h135zM189.5 415.5q-31.5 -27.5 -31.5 -73.5t31.5 -73.5t76.5 -27.5t76.5 27.5t31.5 73.5t-31.5 73.5t-76.5 27.5t-76.5 -27.5zM377.5 -98.5q38.5 19.5 38.5 55.5q0 39 -26 55.5
t-74 16.5h-107q-27 0 -51 3q-40 -27 -40 -77q0 -35 38 -54t111 -19q72 0 110.5 19.5zM291 708h64l-29 -148h-95z" />
    <glyph glyph-name="gdotaccent.ss02" horiz-adv-x="525" 
d="M328 98q79 0 125 -34t46 -101q0 -74 -63 -113.5t-169 -39.5q-109 0 -170.5 37.5t-61.5 106.5q0 31 15 57.5t39 45.5q-40 27 -40 78q0 32 18.5 56.5t49.5 38.5q-42 45 -42 112q0 50 25 88.5t68.5 60t97.5 21.5q49 0 92 -20l79 68l49 -56l-67 -57q38 -44 38 -105
q0 -77 -53.5 -123.5t-137.5 -46.5q-51 0 -94 19q-41 -18 -41 -51q0 -22 17.5 -32t44.5 -10h135zM189.5 415.5q-31.5 -27.5 -31.5 -73.5t31.5 -73.5t76.5 -27.5t76.5 27.5t31.5 73.5t-31.5 73.5t-76.5 27.5t-76.5 -27.5zM377.5 -98.5q38.5 19.5 38.5 55.5q0 39 -26 55.5
t-74 16.5h-107q-27 0 -51 3q-40 -27 -40 -77q0 -35 38 -54t111 -19q72 0 110.5 19.5zM222 616q-17 17 -17 42q0 26 17 43t42 17q26 0 43.5 -17t17.5 -43q0 -25 -17.5 -42t-43.5 -17q-25 0 -42 17z" />
    <glyph glyph-name="fi" unicode="&#xfb01;" horiz-adv-x="558" 
d="M490 504v-504h-86v429h-202v-429h-84v429h-85v75h85v47q0 81 41 125.5t108 44.5q40 0 68 -8l-4 -76q-26 10 -53 10q-34 0 -55 -24.5t-21 -65.5v-53h288zM490.5 701q17.5 -17 17.5 -43q0 -25 -17.5 -42t-43.5 -17q-25 0 -42 17t-17 42q0 26 17 43t42 17q26 0 43.5 -17z
" />
    <glyph glyph-name="fl" unicode="&#xfb02;" horiz-adv-x="577" 
d="M423 708h85v-708h-85v429h-221v-429h-84v429h-85v75h85v47q0 81 41 125.5t108 44.5q40 0 68 -8l-4 -76q-26 10 -53 10q-34 0 -55 -24.5t-21 -65.5v-53h221v204z" />
    <glyph glyph-name="f_f.dlig" horiz-adv-x="661" 
d="M499 504h129v-75h-129v-429h-85v429h-210v-429h-85v429h-86v75h86v47q0 81 41 125.5t108 44.5q40 0 68 -8l-4 -76q-26 10 -53 10q-34 0 -54.5 -24.5t-20.5 -64.5v-54h210v47q0 81 41 125.5t108 44.5q40 0 68 -8l-4 -76q-26 10 -52 10q-35 0 -55.5 -24.5t-20.5 -64.5v-54z
" />
    <glyph glyph-name="f_f_i.dlig" horiz-adv-x="811" 
d="M743 504v-504h-86v429h-204v-429h-84v429h-165v-429h-85v429h-86v75h86v47q0 81 41 125.5t108 44.5q40 0 68 -8l-4 -76q-26 10 -53 10q-34 0 -54.5 -24.5t-20.5 -64.5v-54h165v47q0 81 41 125.5t108 44.5q40 0 68 -8l-4 -76q-26 10 -53 10q-34 0 -55 -24.5t-21 -65.5v-53
h290zM743.5 701q17.5 -17 17.5 -43q0 -25 -17.5 -42t-43.5 -17q-25 0 -42 17t-17 42q0 26 17 43t42 17q26 0 43.5 -17z" />
    <glyph glyph-name="f_f_l.dlig" horiz-adv-x="830" 
d="M676 708h85v-708h-85v429h-223v-429h-84v429h-165v-429h-85v429h-86v75h86v47q0 81 41 125.5t108 44.5q40 0 68 -8l-4 -76q-26 10 -53 10q-34 0 -54.5 -24.5t-20.5 -64.5v-54h165v47q0 81 41 125.5t108 44.5q40 0 68 -8l-4 -76q-26 10 -53 10q-34 0 -55 -24.5t-21 -65.5
v-53h223v204z" />
    <glyph glyph-name="f_i.dlig" horiz-adv-x="558" 
d="M490 504v-504h-86v429h-202v-429h-84v429h-85v75h85v47q0 81 41 125.5t108 44.5q40 0 68 -8l-4 -76q-26 10 -53 10q-34 0 -55 -24.5t-21 -65.5v-53h288zM490.5 701q17.5 -17 17.5 -43q0 -25 -17.5 -42t-43.5 -17q-25 0 -42 17t-17 42q0 26 17 43t42 17q26 0 43.5 -17z
" />
    <glyph glyph-name="f_l.dlig" horiz-adv-x="577" 
d="M423 708h85v-708h-85v429h-221v-429h-84v429h-85v75h85v47q0 81 41 125.5t108 44.5q40 0 68 -8l-4 -76q-26 10 -53 10q-34 0 -55 -24.5t-21 -65.5v-53h221v204z" />
    <glyph glyph-name="ordfeminine" unicode="&#xaa;" horiz-adv-x="338" 
d="M259.5 675.5q36.5 -32.5 36.5 -88.5v-203h-59v50q-14 -25 -42.5 -40t-61.5 -15q-47 0 -77 26.5t-30 67.5q0 46 37 72t113 34l61 6v5q0 32 -20.5 51t-53.5 19q-31 0 -51.5 -18t-24.5 -49l-54 10q7 47 43.5 76t86.5 29q60 0 96.5 -32.5zM211.5 452.5q24.5 25.5 25.5 69.5
v17l-62 -6q-45 -5 -67.5 -20t-22.5 -39q0 -21 16.5 -34t42.5 -13q43 0 67.5 25.5z" />
    <glyph glyph-name="ordmasculine" unicode="&#xba;" horiz-adv-x="379" 
d="M105.5 400q-37.5 21 -58.5 58.5t-21 85.5q0 47 21 84.5t58.5 58.5t84.5 21t84 -21t58 -58.5t21 -84.5q0 -48 -21 -85.5t-58 -58.5t-84 -21t-84.5 21zM263 463q28 31 28 81q0 49 -28 80.5t-73 31.5q-46 0 -74.5 -31.5t-28.5 -80.5q0 -50 28.5 -81t74.5 -31q45 0 73 31z
" />
    <glyph glyph-name="uni0394" unicode="&#x394;" horiz-adv-x="656" 
d="M286 700h83l278 -700h-638zM328 580l-194 -499h388z" />
    <glyph glyph-name="uni03A9" unicode="&#x3a9;" horiz-adv-x="735" 
d="M650.5 208.5q-43.5 -78.5 -116.5 -126.5h148v-82h-241v82h1v22q75 41 118 114t43 155q0 74 -30.5 132.5t-84 91.5t-121.5 33q-67 0 -120.5 -33t-84 -91.5t-30.5 -132.5q0 -82 43.5 -154.5t117.5 -114.5v-22h1v-82h-241v82h148q-73 48 -116.5 126.5t-43.5 167.5
q0 94 42.5 170t117 119t166.5 43t167 -43t117.5 -119t42.5 -170q0 -89 -43.5 -167.5z" />
    <glyph glyph-name="uni03BC" unicode="&#x3bc;" horiz-adv-x="569" 
d="M417 504h85v-504h-85v95q-25 -47 -68 -75t-96 -28q-58 0 -104 46v-228h-85v694h85v-318q0 -52 31 -84.5t83 -32.5q71 0 112.5 57.5t41.5 156.5v221z" />
    <glyph glyph-name="pi" unicode="&#x3c0;" horiz-adv-x="617" 
d="M576 430h-96v-268q0 -45 18.5 -69.5t55.5 -24.5q7 0 13 1l-2 -76l-20 -1q-68 0 -109 44.5t-41 114.5v279h-174v-430h-84v430h-96v74h535v-74z" />
    <glyph glyph-name="zero" unicode="0" horiz-adv-x="617" 
d="M110.5 88.5q-69.5 96.5 -69.5 261.5t69.5 261.5t198.5 96.5q85 0 145.5 -44.5t91.5 -125t31 -188.5t-31 -188.5t-91.5 -125t-145.5 -44.5q-129 0 -198.5 96.5zM437.5 148q45.5 74 45.5 202t-45.5 202.5t-128.5 74.5q-85 0 -130 -74t-45 -203q0 -128 45 -202t130 -74
q83 0 128.5 74z" />
    <glyph glyph-name="one" unicode="1" horiz-adv-x="347" 
d="M188 586q-35 -32 -75 -50.5t-91 -27.5v81q108 23 180 111h72v-700h-86v586z" />
    <glyph glyph-name="two" unicode="2" horiz-adv-x="560" 
d="M30 0l-1 79l263 227q61 53 89 99t28 93q0 59 -36.5 94t-97.5 35q-67 0 -105.5 -40.5t-38.5 -108.5q0 -16 1 -24l-88 6q-1 8 -1 23q0 66 29 117t82 79.5t121 28.5t120 -26t80 -73.5t28 -110.5q0 -64 -37 -125t-118 -129l-190 -162h345v-82h-473z" />
    <glyph glyph-name="three" unicode="3" horiz-adv-x="571" 
d="M152.5 17q-54.5 25 -88 71t-39.5 106l86 13q7 -61 52 -97t112 -36q73 0 116.5 40t43.5 106q0 68 -41 106t-114 38q-20 0 -40.5 -6t-36.5 -16l-39 58l221 219h-340v81h447v-79l-199 -194q9 1 28 1q61 0 108.5 -25.5t73.5 -73t26 -111.5q0 -67 -31.5 -118t-89 -79.5
t-133.5 -28.5q-68 0 -122.5 25z" />
    <glyph glyph-name="four" unicode="4" horiz-adv-x="612" 
d="M481 0h-91v171h-369v82l355 447h105v-447h101v-82h-101v-171zM390 596l-271 -343h271v343z" />
    <glyph glyph-name="five" unicode="5" horiz-adv-x="572" 
d="M116.5 44.5q-68.5 52.5 -82.5 140.5l85 15q10 -58 54.5 -92t110.5 -34q70 0 111.5 43.5t41.5 114.5q0 73 -43.5 115t-119.5 42q-49 0 -88.5 -22t-66.5 -62l-66 14l55 381h373v-81h-306l-30 -210q27 26 66.5 42t77.5 16q72 0 127 -29.5t85 -82.5t30 -123q0 -72 -30 -126.5
t-85.5 -84t-129.5 -29.5q-101 0 -169.5 52.5z" />
    <glyph glyph-name="six" unicode="6" horiz-adv-x="598" 
d="M435.5 438.5q56.5 -30.5 88 -85t31.5 -122.5q0 -69 -32.5 -123.5t-90.5 -85t-131 -30.5q-77 0 -136 39.5t-91.5 112t-32.5 168.5q0 126 41.5 215t114.5 135t168 46q53 0 102.5 -16.5t88.5 -47.5l-46 -71q-63 54 -146 54q-67 0 -120.5 -34t-85 -94t-32.5 -135
q24 48 73.5 76.5t108.5 28.5q71 0 127.5 -30.5zM417 119q45 45 46 115q0 69 -45.5 113.5t-115.5 44.5t-115.5 -44.5t-45.5 -113.5q0 -70 45.5 -115t115.5 -45t115 45z" />
    <glyph glyph-name="seven" unicode="7" horiz-adv-x="550" 
d="M113 0q16 142 100 301.5t211 317.5h-393v81h487v-81q-290 -374 -312 -619h-93z" />
    <glyph glyph-name="eight" unicode="8" horiz-adv-x="574" 
d="M158 18q-57 26 -88.5 73t-31.5 110q0 61 36 109t96 67q-47 21 -75 61t-28 86q0 54 27.5 96t77.5 65t117 23q65 0 114.5 -23t76.5 -65t27 -96q0 -46 -28 -86.5t-75 -60.5q60 -19 96 -67t36 -109q0 -63 -31.5 -110t-87.5 -73t-128 -26q-74 0 -131 26zM383 441.5
q35 30.5 35 81.5q0 49 -35.5 78.5t-93.5 29.5q-61 0 -97 -29.5t-36 -78.5q0 -51 36 -81.5t97 -30.5q59 0 94 30.5zM401.5 107q42.5 36 42.5 95t-42.5 95t-113.5 36q-72 0 -115 -36t-43 -95t43 -95t115 -36q71 0 113.5 36z" />
    <glyph glyph-name="nine" unicode="9" horiz-adv-x="596" 
d="M160.5 261.5q-56.5 30.5 -88 85t-31.5 122.5q0 69 32.5 123.5t90.5 85t131 30.5q77 0 136 -39.5t91.5 -112t32.5 -168.5q0 -126 -41.5 -215t-114.5 -135t-168 -46q-53 0 -102.5 16.5t-88.5 47.5l46 71q62 -53 146 -53q67 0 120.5 33.5t85 93.5t32.5 135
q-24 -48 -73.5 -76.5t-108.5 -28.5q-71 0 -127.5 30.5zM179 581.5q-45 -45.5 -46 -115.5q0 -69 45.5 -113.5t115.5 -44.5t115.5 44.5t45.5 113.5q0 46 -20.5 82.5t-57.5 57.5t-83 21q-70 0 -115 -45.5z" />
    <glyph glyph-name="uni2460" unicode="&#x2460;" horiz-adv-x="799" 
d="M215.5 38.5q-81.5 46.5 -128 128t-46.5 183.5t46.5 183.5t128 128t183.5 46.5t184 -46.5t128.5 -128t46.5 -183.5t-46.5 -183.5t-128.5 -128t-184 -46.5t-183.5 46.5zM553 85.5q69 39.5 108.5 109t39.5 155.5t-39.5 155.5t-108.5 109t-154 39.5t-154 -39.5t-108 -109
t-39 -155.5t39 -155.5t108 -109t154 -39.5t154 39.5zM391 480q-47 -31 -81 -39v61q41 12 93 50h52v-385h-64v313z" />
    <glyph glyph-name="uni2461" unicode="&#x2461;" horiz-adv-x="799" 
d="M215.5 38.5q-81.5 46.5 -128 128t-46.5 183.5t46.5 183.5t128 128t183.5 46.5t184 -46.5t128.5 -128t46.5 -183.5t-46.5 -183.5t-128.5 -128t-184 -46.5t-183.5 46.5zM553 85.5q69 39.5 108.5 109t39.5 155.5t-39.5 155.5t-108.5 109t-154 39.5t-154 -39.5t-108 -109
t-39 -155.5t39 -155.5t108 -109t154 -39.5t154 39.5zM266 167v56l126 107q38 31 55.5 56.5t17.5 50.5q0 27 -17 43t-46 16q-34 0 -52.5 -23.5t-14.5 -62.5l-65 5q-3 40 13 72.5t47.5 50.5t71.5 18q60 0 96.5 -33t36.5 -86q0 -37 -22.5 -72t-73.5 -75l-78 -63h174v-60h-269z
" />
    <glyph glyph-name="uni2462" unicode="&#x2462;" horiz-adv-x="799" 
d="M215.5 38.5q-81.5 46.5 -128 128t-46.5 183.5t46.5 183.5t128 128t183.5 46.5t184 -46.5t128.5 -128t46.5 -183.5t-46.5 -183.5t-128.5 -128t-184 -46.5t-183.5 46.5zM553 85.5q69 39.5 108.5 109t39.5 155.5t-39.5 155.5t-108.5 109t-154 39.5t-154 -39.5t-108 -109
t-39 -155.5t39 -155.5t108 -109t154 -39.5t154 39.5zM299 193.5q-39 30.5 -45 81.5l64 10q4 -28 26 -45t53 -17q34 0 54.5 18.5t20.5 49.5t-19.5 49t-53.5 18q-24 0 -42 -12l-29 45l108 102h-171l1 59h252v-59l-100 -90q55 3 89.5 -28t34.5 -86q0 -57 -40 -91.5t-105 -34.5
q-59 0 -98 30.5z" />
    <glyph glyph-name="uni2463" unicode="&#x2463;" horiz-adv-x="799" 
d="M215.5 38.5q-81.5 46.5 -128 128t-46.5 183.5t46.5 183.5t128 128t183.5 46.5t184 -46.5t128.5 -128t46.5 -183.5t-46.5 -183.5t-128.5 -128t-184 -46.5t-183.5 46.5zM553 85.5q69 39.5 108.5 109t39.5 155.5t-39.5 155.5t-108.5 109t-154 39.5t-154 -39.5t-108 -109
t-39 -155.5t39 -155.5t108 -109t154 -39.5t154 39.5zM485 167h-69v83h-198v60l192 242h75v-242h53v-60h-53v-83zM416 471l-127 -161h127v161z" />
    <glyph glyph-name="uni2464" unicode="&#x2464;" horiz-adv-x="799" 
d="M215.5 38.5q-81.5 46.5 -128 128t-46.5 183.5t46.5 183.5t128 128t183.5 46.5t184 -46.5t128.5 -128t46.5 -183.5t-46.5 -183.5t-128.5 -128t-184 -46.5t-183.5 46.5zM553 85.5q69 39.5 108.5 109t39.5 155.5t-39.5 155.5t-108.5 109t-154 39.5t-154 -39.5t-108 -109
t-39 -155.5t39 -155.5t108 -109t154 -39.5t154 39.5zM304.5 191.5q-38.5 28.5 -46.5 77.5l63 11q5 -26 26 -41.5t51 -15.5q32 0 51.5 20t19.5 52q0 34 -20 53.5t-55 19.5q-49 0 -76 -41l-49 11l31 214h210v-60h-161l-15 -98q35 30 76 30q57 0 93 -35.5t36 -93.5
q0 -60 -38 -96t-100 -36q-58 0 -96.5 28.5z" />
    <glyph glyph-name="uni2465" unicode="&#x2465;" horiz-adv-x="799" 
d="M215.5 38.5q-81.5 46.5 -128 128t-46.5 183.5t46.5 183.5t128 128t183.5 46.5t184 -46.5t128.5 -128t46.5 -183.5t-46.5 -183.5t-128.5 -128t-184 -46.5t-183.5 46.5zM553 85.5q69 39.5 108.5 109t39.5 155.5t-39.5 155.5t-108.5 109t-154 39.5t-154 -39.5t-108 -109
t-39 -155.5t39 -155.5t108 -109t154 -39.5t154 39.5zM498 389q38 -37 38 -95q0 -57 -40.5 -94t-102.5 -37q-66 0 -107 49t-41 126q0 70 24.5 119.5t65.5 74.5t92 25q30 0 59 -10t50 -29l-32 -46q-14 12 -34.5 18.5t-42.5 6.5q-51 0 -83 -33.5t-34 -87.5q12 23 36.5 36.5
t54.5 13.5q59 0 97 -37zM448 244.5q21 21.5 21 55.5q0 32 -21.5 51.5t-54.5 19.5t-54 -20.5t-21 -52.5q0 -33 21 -54t54 -21q34 0 55 21.5z" />
    <glyph glyph-name="uni2466" unicode="&#x2466;" horiz-adv-x="799" 
d="M215.5 38.5q-81.5 46.5 -128 128t-46.5 183.5t46.5 183.5t128 128t183.5 46.5t184 -46.5t128.5 -128t46.5 -183.5t-46.5 -183.5t-128.5 -128t-184 -46.5t-183.5 46.5zM553 85.5q69 39.5 108.5 109t39.5 155.5t-39.5 155.5t-108.5 109t-154 39.5t-154 -39.5t-108 -109
t-39 -155.5t39 -155.5t108 -109t154 -39.5t154 39.5zM304 167q53 183 164 325h-204l-1 60h272v-60q-61 -82 -102.5 -166.5t-61.5 -158.5h-67z" />
    <glyph glyph-name="uni2467" unicode="&#x2467;" horiz-adv-x="799" 
d="M215.5 38.5q-81.5 46.5 -128 128t-46.5 183.5t46.5 183.5t128 128t183.5 46.5t184 -46.5t128.5 -128t46.5 -183.5t-46.5 -183.5t-128.5 -128t-184 -46.5t-183.5 46.5zM553 85.5q69 39.5 108.5 109t39.5 155.5t-39.5 155.5t-108.5 109t-154 39.5t-154 -39.5t-108 -109
t-39 -155.5t39 -155.5t108 -109t154 -39.5t154 39.5zM299 195q-40 32 -40 84q0 33 19.5 59t50.5 36q-24 12 -39 34t-15 46q0 43 35 72.5t90 29.5t89.5 -29.5t34.5 -72.5q0 -25 -15 -47t-40 -33q32 -10 52 -36t20 -59q0 -52 -40 -84t-101 -32t-101 32zM443.5 414.5
q16.5 13.5 16.5 35.5q0 24 -16.5 38t-43.5 14q-28 0 -44 -13.5t-16 -38.5q0 -23 16 -36t44 -13q27 0 43.5 13.5zM452.5 236.5q19.5 16.5 19.5 44.5q0 27 -19.5 43.5t-52.5 16.5t-53 -16.5t-20 -43.5q0 -28 20 -44.5t53 -16.5t52.5 16.5z" />
    <glyph glyph-name="uni2468" unicode="&#x2468;" horiz-adv-x="799" 
d="M215.5 38.5q-81.5 46.5 -128 128t-46.5 183.5t46.5 183.5t128 128t183.5 46.5t184 -46.5t128.5 -128t46.5 -183.5t-46.5 -183.5t-128.5 -128t-184 -46.5t-183.5 46.5zM553 85.5q69 39.5 108.5 109t39.5 155.5t-39.5 155.5t-108.5 109t-154 39.5t-154 -39.5t-108 -109
t-39 -155.5t39 -155.5t108 -109t154 -39.5t154 39.5zM295 330q-38 37 -38 95q0 57 40.5 94t102.5 37q66 0 107 -49t41 -126q0 -70 -24.5 -119.5t-65.5 -74.5t-92 -25q-30 0 -59 10t-50 29l32 46q14 -12 34.5 -18.5t42.5 -6.5q51 0 83 33.5t34 87.5q-12 -23 -36.5 -36.5
t-54.5 -13.5q-59 0 -97 37zM345 474.5q-21 -21.5 -21 -55.5q0 -32 21.5 -51.5t54.5 -19.5t54 20.5t21 52.5q0 33 -21 54t-54 21q-34 0 -55 -21.5z" />
    <glyph glyph-name="three.ss04" horiz-adv-x="574" 
d="M158 18.5q-57 26.5 -88.5 74.5t-31.5 111l91 6q0 -62 43.5 -100.5t115.5 -38.5q70 0 113 34t43 89q0 61 -43 93t-117 32q-45 0 -55 -1l-2 78q12 -1 42 -1q44 0 78 17.5t52.5 47t18.5 63.5q0 49 -38 78.5t-97 29.5q-40 0 -72.5 -17t-50.5 -46.5t-17 -65.5l-88 7
q0 56 29 101.5t81 71.5t118 26q65 0 116 -23t79.5 -65t28.5 -96q0 -59 -39 -105.5t-101 -57.5q76 -3 122.5 -49.5t46.5 -119.5q0 -58 -31.5 -103.5t-87.5 -71t-128 -25.5q-74 0 -131 26.5z" />
    <glyph glyph-name="uni2462.ss04" horiz-adv-x="799" 
d="M215.5 38.5q-81.5 46.5 -128 128t-46.5 183.5t46.5 183.5t128 128t183.5 46.5t184 -46.5t128.5 -128t46.5 -183.5t-46.5 -183.5t-128.5 -128t-184 -46.5t-183.5 46.5zM553 85.5q69 39.5 108.5 109t39.5 155.5t-39.5 155.5t-108.5 109t-154 39.5t-154 -39.5t-108 -109
t-39 -155.5t39 -155.5t108 -109t154 -39.5t154 39.5zM302 195.5q-40 32.5 -40 86.5l67 3q0 -28 20.5 -46.5t52.5 -18.5t52.5 16t20.5 41q0 28 -20.5 44t-54.5 16h-39v55l32 -1q30 0 48.5 17.5t19.5 43.5q0 23 -17 36t-46 13q-27 0 -46 -17t-19 -42l-62 4q0 46 36 78t91 32
t91 -29t36 -73q0 -32 -20.5 -57t-53.5 -31q40 -2 65 -28t25 -64q0 -49 -39 -80t-100 -31q-60 0 -100 32.5z" />
    <glyph glyph-name="zero.tf" horiz-adv-x="609" 
d="M102.5 88.5q-69.5 96.5 -69.5 261.5t69.5 261.5t198.5 96.5q85 0 145.5 -44.5t91.5 -125t31 -188.5t-31 -188.5t-91.5 -125t-145.5 -44.5q-129 0 -198.5 96.5zM429.5 148q45.5 74 45.5 202t-45.5 202.5t-128.5 74.5q-85 0 -130 -74t-45 -203q0 -128 45 -202t130 -74
q83 0 128.5 74z" />
    <glyph glyph-name="one.tf" horiz-adv-x="609" 
d="M372 82h173v-82h-466v82h206v504q-34 -32 -74 -50.5t-91 -27.5v81q108 23 180 111h72v-618z" />
    <glyph glyph-name="two.tf" horiz-adv-x="609" 
d="M63 0l-1 79l263 227q61 53 89 99t28 93q0 59 -36.5 94t-97.5 35q-67 0 -105.5 -40.5t-38.5 -108.5q0 -16 1 -24l-88 6q-1 8 -1 23q0 66 29 117t82 79.5t121 28.5t120 -26t80 -73.5t28 -110.5q0 -64 -37 -125t-118 -129l-190 -162h345v-82h-473z" />
    <glyph glyph-name="three.tf" horiz-adv-x="609" 
d="M178.5 17q-54.5 25 -88 71t-39.5 106l86 13q7 -61 52 -97t112 -36q73 0 116.5 40t43.5 106q0 68 -41 106t-114 38q-20 0 -40.5 -6t-36.5 -16l-39 58l221 219h-340v81h447v-79l-199 -194q9 1 28 1q61 0 108.5 -25.5t73.5 -73t26 -111.5q0 -67 -31.5 -118t-89 -79.5
t-133.5 -28.5q-68 0 -122.5 25z" />
    <glyph glyph-name="four.tf" horiz-adv-x="609" 
d="M480 0h-91v171h-369v82l355 447h105v-447h101v-82h-101v-171zM389 596l-271 -343h271v343z" />
    <glyph glyph-name="five.tf" horiz-adv-x="609" 
d="M146.5 44.5q-68.5 52.5 -82.5 140.5l85 15q10 -58 54.5 -92t110.5 -34q70 0 111.5 43.5t41.5 114.5q0 73 -43.5 115t-119.5 42q-49 0 -88.5 -22t-66.5 -62l-66 14l55 381h373v-81h-306l-30 -210q27 26 66.5 42t77.5 16q72 0 127 -29.5t85 -82.5t30 -123q0 -72 -30 -126.5
t-85.5 -84t-129.5 -29.5q-101 0 -169.5 52.5z" />
    <glyph glyph-name="six.tf" horiz-adv-x="609" 
d="M441.5 438.5q56.5 -30.5 88 -85t31.5 -122.5q0 -69 -32.5 -123.5t-90.5 -85t-131 -30.5q-77 0 -136 39.5t-91.5 112t-32.5 168.5q0 126 41.5 215t114.5 135t168 46q53 0 102.5 -16.5t88.5 -47.5l-46 -71q-63 54 -146 54q-67 0 -120.5 -34t-85 -94t-32.5 -135
q24 48 73.5 76.5t108.5 28.5q71 0 127.5 -30.5zM423 119q45 45 46 115q0 69 -45.5 113.5t-115.5 44.5t-115.5 -44.5t-45.5 -113.5q0 -70 45.5 -115t115.5 -45t115 45z" />
    <glyph glyph-name="seven.tf" horiz-adv-x="609" 
d="M571 619q-290 -374 -312 -619h-93q16 142 100 301.5t211 317.5h-332v-128h-85v209h511v-81z" />
    <glyph glyph-name="eight.tf" horiz-adv-x="609" 
d="M175 18q-57 26 -88.5 73t-31.5 110q0 61 36 109t96 67q-47 21 -75 61t-28 86q0 54 27.5 96t77.5 65t117 23q65 0 114.5 -23t76.5 -65t27 -96q0 -46 -28 -86.5t-75 -60.5q60 -19 96 -67t36 -109q0 -63 -31.5 -110t-87.5 -73t-128 -26q-74 0 -131 26zM400 441.5
q35 30.5 35 81.5q0 49 -35.5 78.5t-93.5 29.5q-61 0 -97 -29.5t-36 -78.5q0 -51 36 -81.5t97 -30.5q59 0 94 30.5zM418.5 107q42.5 36 42.5 95t-42.5 95t-113.5 36q-72 0 -115 -36t-43 -95t43 -95t115 -36q71 0 113.5 36z" />
    <glyph glyph-name="nine.tf" horiz-adv-x="609" 
d="M167.5 267.5q-56.5 30.5 -88 85t-31.5 122.5q0 69 32.5 123.5t90.5 85t131 30.5q77 0 136 -39.5t91.5 -111.5t32.5 -168q0 -126 -41 -215.5t-114.5 -135.5t-168.5 -46q-53 0 -102.5 16.5t-88.5 47.5l46 71q62 -53 146 -53q67 0 120.5 34t85 94t32.5 135
q-24 -49 -73.5 -77.5t-108.5 -28.5q-71 0 -127.5 30.5zM186 588q-45 -45 -46 -116q0 -69 45.5 -113.5t115.5 -44.5t115.5 44.5t45.5 113.5q0 71 -45 116t-116 45q-70 0 -115 -45z" />
    <glyph glyph-name="three.tf.ss04" horiz-adv-x="609" 
d="M185 18.5q-57 26.5 -88.5 74.5t-31.5 111l91 6q0 -62 43.5 -100.5t115.5 -38.5q70 0 113 34t43 89q0 61 -43 93t-117 32q-45 0 -55 -1l-2 78q12 -1 42 -1q44 0 78 17.5t52.5 47t18.5 63.5q0 49 -38 78.5t-97 29.5q-40 0 -72.5 -17t-50.5 -46.5t-17 -65.5l-88 7
q0 56 29 101.5t81 71.5t118 26q65 0 116 -23t79.5 -65t28.5 -96q0 -59 -39 -105.5t-101 -57.5q76 -3 122.5 -49.5t46.5 -119.5q0 -58 -31.5 -103.5t-87.5 -71t-128 -25.5q-74 0 -131 26.5z" />
    <glyph glyph-name="zero.subs" horiz-adv-x="360" 
d="M64.5 -120.5q-41.5 53.5 -41.5 143.5t41.5 143t115.5 53q73 0 115 -53.5t42 -142.5t-42 -143t-115 -54q-74 0 -115.5 53.5zM244.5 -77.5q22.5 36.5 22.5 100.5t-22.5 100t-64.5 36t-64.5 -36t-22.5 -100q0 -65 22.5 -101t64.5 -36t64.5 36.5z" />
    <glyph glyph-name="one.subs" horiz-adv-x="212" 
d="M109 143q-47 -31 -81 -39v61q41 12 93 50h52v-385h-64v313z" />
    <glyph glyph-name="two.subs" horiz-adv-x="331" 
d="M31 -170l-1 56l126 107q38 31 55.5 56.5t17.5 50.5q0 27 -17 43t-46 16q-34 0 -52.5 -23.5t-14.5 -62.5l-65 5q-3 40 13 72.5t47.5 50.5t71.5 18q60 0 96.5 -33t36.5 -86q0 -37 -22.5 -72t-73.5 -75l-78 -63h174v-60h-268z" />
    <glyph glyph-name="three.subs" horiz-adv-x="334" 
d="M68 -143.5q-39 30.5 -45 81.5l64 10q4 -28 26 -45t53 -17q34 0 54.5 18.5t20.5 49.5t-19.5 49t-53.5 18q-24 0 -42 -12l-29 45l108 102h-171l1 59h252v-59l-100 -90q55 3 89.5 -28t34.5 -86q0 -57 -40 -91.5t-105 -34.5q-59 0 -98 30.5z" />
    <glyph glyph-name="four.subs" horiz-adv-x="367" 
d="M291 -170h-69v83h-198v60l192 242h75v-242h53v-60h-53v-83zM222 134l-127 -161h127v161z" />
    <glyph glyph-name="five.subs" horiz-adv-x="330" 
d="M70.5 -145.5q-38.5 28.5 -46.5 77.5l63 11q5 -26 26 -41.5t51 -15.5q32 0 51.5 20t19.5 52q0 34 -20 53.5t-55 19.5q-49 0 -76 -41l-49 11l31 214h210v-60h-161l-15 -98q35 30 76 30q57 0 93 -35.5t36 -93.5q0 -60 -38 -96t-100 -36q-58 0 -96.5 28.5z" />
    <glyph glyph-name="six.subs" horiz-adv-x="354" 
d="M284 52q38 -37 38 -95q0 -57 -40.5 -94t-102.5 -37q-66 0 -107 49t-41 126q0 70 24.5 119.5t65.5 74.5t92 25q30 0 59 -10t50 -29l-32 -46q-14 12 -34.5 18.5t-42.5 6.5q-51 0 -83 -33.5t-34 -87.5q12 23 36.5 36.5t54.5 13.5q59 0 97 -37zM234 -92.5q21 21.5 21 55.5
q0 32 -21.5 51.5t-54.5 19.5t-54 -20.5t-21 -52.5q0 -33 21 -54t54 -21q34 0 55 21.5z" />
    <glyph glyph-name="seven.subs" horiz-adv-x="302" 
d="M59 -170q53 183 164 325h-204v60h271v-60q-61 -82 -102.5 -166.5t-61.5 -158.5h-67z" />
    <glyph glyph-name="eight.subs" horiz-adv-x="344" 
d="M71 -142q-40 32 -40 84q0 33 19.5 59t50.5 36q-24 12 -39 34t-15 46q0 43 35.5 72.5t90.5 29.5q54 0 88.5 -29.5t34.5 -72.5q0 -25 -15 -47t-40 -33q32 -10 52 -36t20 -59q0 -52 -40 -84t-100 -32q-62 0 -102 32zM215.5 77q16.5 14 16.5 36q0 24 -16.5 38t-42.5 14
q-28 0 -44.5 -14t-16.5 -38q0 -23 16.5 -36.5t44.5 -13.5q26 0 42.5 14zM224.5 -100.5q19.5 16.5 19.5 44.5q0 27 -19.5 43.5t-52.5 16.5t-53 -16.5t-20 -43.5q0 -28 20 -44.5t53 -16.5t52.5 16.5z" />
    <glyph glyph-name="nine.subs" horiz-adv-x="354" 
d="M70 -7q-38 37 -38 95q0 57 40.5 94t102.5 37q66 0 107 -49t41 -126q0 -70 -24.5 -119.5t-65.5 -74.5t-92 -25q-30 0 -59 10t-50 29l32 46q14 -12 34.5 -18.5t42.5 -6.5q51 0 83 33.5t34 87.5q-12 -23 -36.5 -36.5t-54.5 -13.5q-59 0 -97 37zM120 137.5
q-21 -21.5 -21 -55.5q0 -32 21.5 -51.5t54.5 -19.5t54 20.5t21 52.5q0 33 -21 54t-54 21q-34 0 -55 -21.5z" />
    <glyph glyph-name="zero.dnom" horiz-adv-x="360" 
d="M64.5 49.5q-41.5 53.5 -41.5 143.5t41.5 143t115.5 53q73 0 115 -53.5t42 -142.5t-42 -143t-115 -54q-74 0 -115.5 53.5zM244.5 92.5q22.5 36.5 22.5 100.5t-22.5 100t-64.5 36t-64.5 -36t-22.5 -100q0 -65 22.5 -101t64.5 -36t64.5 36.5z" />
    <glyph glyph-name="one.dnom" horiz-adv-x="212" 
d="M109 313q-47 -31 -81 -39v61q41 12 93 50h52v-385h-64v313z" />
    <glyph glyph-name="two.dnom" horiz-adv-x="331" 
d="M31 0l-1 56l126 107q38 31 55.5 56.5t17.5 50.5q0 27 -17 43t-46 16q-34 0 -52.5 -23.5t-14.5 -62.5l-65 5q-3 40 13 72.5t47.5 50.5t71.5 18q60 0 96.5 -33t36.5 -86q0 -37 -22.5 -72t-73.5 -75l-78 -63h174v-60h-268z" />
    <glyph glyph-name="three.dnom" horiz-adv-x="334" 
d="M68 26.5q-39 30.5 -45 81.5l64 10q4 -28 26 -45t53 -17q34 0 54.5 18.5t20.5 49.5t-19.5 49t-53.5 18q-24 0 -42 -12l-29 45l108 102h-171l1 59h252v-59l-100 -90q55 3 89.5 -28t34.5 -86q0 -57 -40 -91.5t-105 -34.5q-59 0 -98 30.5z" />
    <glyph glyph-name="four.dnom" horiz-adv-x="367" 
d="M291 0h-69v83h-198v60l192 242h75v-242h53v-60h-53v-83zM222 304l-127 -161h127v161z" />
    <glyph glyph-name="five.dnom" horiz-adv-x="330" 
d="M70.5 24.5q-38.5 28.5 -46.5 77.5l63 11q5 -26 26 -41.5t51 -15.5q32 0 51.5 20t19.5 52q0 34 -20 53.5t-55 19.5q-49 0 -76 -41l-49 11l31 214h210v-60h-161l-15 -98q35 30 76 30q57 0 93 -35.5t36 -93.5q0 -60 -38 -96t-100 -36q-58 0 -96.5 28.5z" />
    <glyph glyph-name="six.dnom" horiz-adv-x="354" 
d="M284 222q38 -37 38 -95q0 -57 -40.5 -94t-102.5 -37q-66 0 -107 49t-41 126q0 70 24.5 119.5t65.5 74.5t92 25q30 0 59 -10t50 -29l-32 -46q-14 12 -34.5 18.5t-42.5 6.5q-51 0 -83 -33.5t-34 -87.5q12 23 36.5 36.5t54.5 13.5q59 0 97 -37zM234 77.5q21 21.5 21 55.5
q0 32 -21.5 51.5t-54.5 19.5t-54 -20.5t-21 -52.5q0 -33 21 -54t54 -21q34 0 55 21.5z" />
    <glyph glyph-name="seven.dnom" horiz-adv-x="302" 
d="M59 0q53 183 164 325h-204v60h271v-60q-61 -82 -102.5 -166.5t-61.5 -158.5h-67z" />
    <glyph glyph-name="eight.dnom" horiz-adv-x="344" 
d="M71 28q-40 32 -40 84q0 33 19.5 59t50.5 36q-24 12 -39 34t-15 46q0 43 35.5 72.5t90.5 29.5q54 0 88.5 -29.5t34.5 -72.5q0 -25 -15 -47t-40 -33q32 -10 52 -36t20 -59q0 -52 -40 -84t-100 -32q-62 0 -102 32zM215.5 247q16.5 14 16.5 36q0 24 -16.5 38t-42.5 14
q-28 0 -44.5 -14t-16.5 -38q0 -23 16.5 -36.5t44.5 -13.5q26 0 42.5 14zM224.5 69.5q19.5 16.5 19.5 44.5q0 27 -19.5 43.5t-52.5 16.5t-53 -16.5t-20 -43.5q0 -28 20 -44.5t53 -16.5t52.5 16.5z" />
    <glyph glyph-name="nine.dnom" horiz-adv-x="354" 
d="M70 163q-38 37 -38 95q0 57 40.5 94t102.5 37q66 0 107 -49t41 -126q0 -70 -24.5 -119.5t-65.5 -74.5t-92 -25q-30 0 -59 10t-50 29l32 46q14 -12 34.5 -18.5t42.5 -6.5q51 0 83 33.5t34 87.5q-12 -23 -36.5 -36.5t-54.5 -13.5q-59 0 -97 37zM120 307.5
q-21 -21.5 -21 -55.5q0 -32 21.5 -51.5t54.5 -19.5t54 20.5t21 52.5q0 33 -21 54t-54 21q-34 0 -55 -21.5z" />
    <glyph glyph-name="zero.numr" horiz-adv-x="360" 
d="M64.5 364.5q-41.5 53.5 -41.5 143.5t41.5 143t115.5 53q73 0 115 -53.5t42 -142.5t-42 -143t-115 -54q-74 0 -115.5 53.5zM244.5 407.5q22.5 36.5 22.5 100.5t-22.5 100t-64.5 36t-64.5 -36t-22.5 -100q0 -65 22.5 -101t64.5 -36t64.5 36.5z" />
    <glyph glyph-name="one.numr" horiz-adv-x="212" 
d="M109 628q-47 -31 -81 -39v61q41 12 93 50h52v-385h-64v313z" />
    <glyph glyph-name="two.numr" horiz-adv-x="331" 
d="M30 315v56l126 107q38 31 55.5 56.5t17.5 50.5q0 27 -17 43t-46 16q-34 0 -52.5 -23.5t-14.5 -62.5l-65 5q-3 40 13 72.5t47.5 50.5t71.5 18q60 0 96.5 -33t36.5 -86q0 -37 -22.5 -72t-73.5 -75l-78 -63h174v-60h-269z" />
    <glyph glyph-name="three.numr" horiz-adv-x="334" 
d="M68 341.5q-39 30.5 -45 81.5l64 10q4 -28 26 -45t53 -17q34 0 54.5 18.5t20.5 49.5t-19.5 49t-53.5 18q-24 0 -42 -12l-29 45l108 102h-171l1 59h252v-59l-100 -90q55 3 89.5 -28t34.5 -86q0 -57 -40 -91.5t-105 -34.5q-59 0 -98 30.5z" />
    <glyph glyph-name="four.numr" horiz-adv-x="367" 
d="M291 315h-69v83h-198v60l192 242h75v-242h53v-60h-53v-83zM222 619l-127 -161h127v161z" />
    <glyph glyph-name="five.numr" horiz-adv-x="330" 
d="M70.5 339.5q-38.5 28.5 -46.5 77.5l63 11q5 -26 26 -41.5t51 -15.5q32 0 51.5 20t19.5 52q0 34 -20 53.5t-55 19.5q-49 0 -76 -41l-49 11l31 214h210v-60h-161l-15 -98q35 30 76 30q57 0 93 -35.5t36 -93.5q0 -60 -38 -96t-100 -36q-58 0 -96.5 28.5z" />
    <glyph glyph-name="six.numr" horiz-adv-x="354" 
d="M284 537q38 -37 38 -95q0 -57 -40.5 -94t-102.5 -37q-66 0 -107 49t-41 126q0 70 24.5 119.5t65.5 74.5t92 25q30 0 59 -10t50 -29l-32 -46q-14 12 -34.5 18.5t-42.5 6.5q-51 0 -83 -33.5t-34 -87.5q12 23 36.5 36.5t54.5 13.5q59 0 97 -37zM234 392.5q21 21.5 21 55.5
q0 32 -21.5 51.5t-54.5 19.5t-54 -20.5t-21 -52.5q0 -33 21 -54t54 -21q34 0 55 21.5z" />
    <glyph glyph-name="seven.numr" horiz-adv-x="302" 
d="M59 315q53 183 164 325h-204l-1 60h272v-60q-61 -82 -102.5 -166.5t-61.5 -158.5h-67z" />
    <glyph glyph-name="eight.numr" horiz-adv-x="344" 
d="M71 343q-40 32 -40 84q0 33 19.5 59t50.5 36q-24 12 -39 34t-15 46q0 43 35 72.5t90 29.5t89.5 -29.5t34.5 -72.5q0 -25 -15 -47t-40 -33q32 -10 52 -36t20 -59q0 -52 -40 -84t-101 -32t-101 32zM215.5 562.5q16.5 13.5 16.5 35.5q0 24 -16.5 38t-43.5 14
q-28 0 -44 -13.5t-16 -38.5q0 -23 16 -36t44 -13q27 0 43.5 13.5zM224.5 384.5q19.5 16.5 19.5 44.5q0 27 -19.5 43.5t-52.5 16.5t-53 -16.5t-20 -43.5q0 -28 20 -44.5t53 -16.5t52.5 16.5z" />
    <glyph glyph-name="nine.numr" horiz-adv-x="354" 
d="M70 478q-38 37 -38 95q0 57 40.5 94t102.5 37q66 0 107 -49t41 -126q0 -70 -24.5 -119.5t-65.5 -74.5t-92 -25q-30 0 -59 10t-50 29l32 46q14 -12 34.5 -18.5t42.5 -6.5q51 0 83 33.5t34 87.5q-12 -23 -36.5 -36.5t-54.5 -13.5q-59 0 -97 37zM120 622.5
q-21 -21.5 -21 -55.5q0 -32 21.5 -51.5t54.5 -19.5t54 20.5t21 52.5q0 33 -21 54t-54 21q-34 0 -55 -21.5z" />
    <glyph glyph-name="uni00B9" unicode="&#xb9;" horiz-adv-x="212" 
d="M109 688q-47 -31 -81 -39v61q41 12 93 50h52v-385h-64v313z" />
    <glyph glyph-name="uni00B2" unicode="&#xb2;" horiz-adv-x="331" 
d="M31 375l-1 56l126 107q38 31 55.5 56.5t17.5 50.5q0 27 -17 43t-46 16q-34 0 -52.5 -23.5t-14.5 -62.5l-65 5q-3 40 13 72.5t47.5 50.5t71.5 18q60 0 96.5 -33t36.5 -86q0 -37 -22.5 -72t-73.5 -75l-78 -63h174v-60h-268z" />
    <glyph glyph-name="uni00B3" unicode="&#xb3;" horiz-adv-x="334" 
d="M68 401.5q-39 30.5 -45 81.5l64 10q4 -28 26 -45t53 -17q34 0 54.5 18.5t20.5 49.5t-19.5 49t-53.5 18q-24 0 -42 -12l-29 45l108 102h-171l1 59h252v-59l-100 -90q55 3 89.5 -28t34.5 -86q0 -57 -40 -91.5t-105 -34.5q-59 0 -98 30.5z" />
    <glyph glyph-name="zero.sups" horiz-adv-x="360" 
d="M64.5 424.5q-41.5 53.5 -41.5 143.5t41.5 143t115.5 53q73 0 115 -53.5t42 -142.5t-42 -143t-115 -54q-74 0 -115.5 53.5zM244.5 467.5q22.5 36.5 22.5 100.5t-22.5 100t-64.5 36t-64.5 -36t-22.5 -100q0 -65 22.5 -101t64.5 -36t64.5 36.5z" />
    <glyph glyph-name="one.sups" horiz-adv-x="212" 
d="M109 688q-47 -31 -81 -39v61q41 12 93 50h52v-385h-64v313z" />
    <glyph glyph-name="two.sups" horiz-adv-x="331" 
d="M31 375l-1 56l126 107q38 31 55.5 56.5t17.5 50.5q0 27 -17 43t-46 16q-34 0 -52.5 -23.5t-14.5 -62.5l-65 5q-3 40 13 72.5t47.5 50.5t71.5 18q60 0 96.5 -33t36.5 -86q0 -37 -22.5 -72t-73.5 -75l-78 -63h174v-60h-268z" />
    <glyph glyph-name="three.sups" horiz-adv-x="334" 
d="M68 401.5q-39 30.5 -45 81.5l64 10q4 -28 26 -45t53 -17q34 0 54.5 18.5t20.5 49.5t-19.5 49t-53.5 18q-24 0 -42 -12l-29 45l108 102h-171l1 59h252v-59l-100 -90q55 3 89.5 -28t34.5 -86q0 -57 -40 -91.5t-105 -34.5q-59 0 -98 30.5z" />
    <glyph glyph-name="four.sups" horiz-adv-x="367" 
d="M291 375h-69v83h-198v60l192 242h75v-242h53v-60h-53v-83zM222 679l-127 -161h127v161z" />
    <glyph glyph-name="five.sups" horiz-adv-x="330" 
d="M70.5 399.5q-38.5 28.5 -46.5 77.5l63 11q5 -26 26 -41.5t51 -15.5q32 0 51.5 20t19.5 52q0 34 -20 53.5t-55 19.5q-49 0 -76 -41l-49 11l31 214h210v-60h-161l-15 -98q35 30 76 30q57 0 93 -35.5t36 -93.5q0 -60 -38 -96t-100 -36q-58 0 -96.5 28.5z" />
    <glyph glyph-name="six.sups" horiz-adv-x="354" 
d="M284 597q38 -37 38 -95t-40 -94.5t-104 -36.5q-65 0 -106 49.5t-41 129.5q0 69 24.5 117.5t65.5 73t92 24.5q30 0 59 -10t50 -29l-32 -46q-14 12 -34.5 18.5t-42.5 6.5q-51 0 -83 -33.5t-34 -87.5q12 23 36.5 36.5t54.5 13.5q59 0 97 -37zM234 452.5q21 21.5 21 55.5
q0 32 -21.5 51.5t-54.5 19.5t-54 -20.5t-21 -52.5t21 -53.5t54 -21.5q34 0 55 21.5z" />
    <glyph glyph-name="seven.sups" horiz-adv-x="302" 
d="M59 375q53 183 164 325h-204v60h271v-60q-61 -82 -102.5 -166.5t-61.5 -158.5h-67z" />
    <glyph glyph-name="eight.sups" horiz-adv-x="344" 
d="M71 403q-40 32 -40 84q0 33 19.5 59t50.5 36q-24 12 -39 34t-15 46q0 43 35.5 72.5t90.5 29.5q54 0 88.5 -29.5t34.5 -72.5q0 -25 -15 -47t-40 -33q32 -10 52 -36t20 -59q0 -52 -40 -84t-100 -32q-62 0 -102 32zM215.5 622q16.5 14 16.5 36q0 24 -16.5 38t-42.5 14
q-28 0 -44.5 -14t-16.5 -38q0 -23 16.5 -36.5t44.5 -13.5q26 0 42.5 14zM224.5 444.5q19.5 16.5 19.5 44.5q0 27 -19.5 43.5t-52.5 16.5t-53 -16.5t-20 -43.5q0 -28 20 -44.5t53 -16.5t52.5 16.5z" />
    <glyph glyph-name="nine.sups" horiz-adv-x="354" 
d="M70 538q-38 37 -38 95q0 57 40.5 94t103.5 37q65 0 105.5 -49.5t40.5 -129.5q0 -69 -24 -117.5t-65 -73t-92 -24.5q-30 0 -59 10t-51 29l32 46q33 -25 78 -25q50 0 82.5 33.5t35.5 87.5q-13 -23 -38 -36.5t-54 -13.5q-59 0 -97 37zM122 683.5q-21 -20.5 -21 -54.5
q0 -32 21 -52.5t53 -20.5t53.5 20.5t21.5 52.5q0 33 -21.5 54t-53.5 21t-53 -20.5z" />
    <glyph glyph-name="fraction" unicode="&#x2044;" horiz-adv-x="244" 
d="M-74 0h-76l468 700h76z" />
    <glyph glyph-name="onehalf" unicode="&#xbd;" horiz-adv-x="792" 
d="M109 628q-47 -31 -81 -39v61q41 12 93 50h52v-385h-64v313zM163 0h-76l468 700h76zM492 0l-1 56l126 107q38 31 55.5 56.5t17.5 50.5q0 27 -17 43t-46 16q-34 0 -52.5 -23.5t-14.5 -62.5l-65 5q-3 40 13 72.5t47.5 50.5t71.5 18q60 0 96.5 -33t36.5 -86q0 -37 -22.5 -72
t-73.5 -75l-78 -63h174v-60h-268z" />
    <glyph glyph-name="onequarter" unicode="&#xbc;" horiz-adv-x="765" 
d="M689 0h-69v83h-198v60l192 242h75v-242h53v-60h-53v-83zM620 304l-127 -161h127v161zM109 628q-47 -31 -81 -39v61q41 12 93 50h52v-385h-64v313zM169 0h-76l468 700h76z" />
    <glyph glyph-name="threequarters" unicode="&#xbe;" horiz-adv-x="833" 
d="M68 341.5q-39 30.5 -45 81.5l64 10q4 -28 26 -45t53 -17q34 0 54.5 18.5t20.5 49.5t-19.5 49t-53.5 18q-24 0 -42 -12l-29 45l108 102h-171l1 59h252v-59l-100 -90q55 3 89.5 -28t34.5 -86q0 -57 -40 -91.5t-105 -34.5q-59 0 -98 30.5zM757 0h-69v83h-198v60l192 242h75
v-242h53v-60h-53v-83zM688 304l-127 -161h127v161zM226 0h-76l468 700h76z" />
    <glyph glyph-name="oneeighth" unicode="&#x215b;" horiz-adv-x="807" 
d="M534 28q-40 32 -40 84q0 33 19.5 59t50.5 36q-24 12 -39 34t-15 46q0 43 35.5 72.5t90.5 29.5q54 0 88.5 -29.5t34.5 -72.5q0 -25 -15 -47t-40 -33q32 -10 52 -36t20 -59q0 -52 -40 -84t-100 -32q-62 0 -102 32zM678.5 247q16.5 14 16.5 36q0 24 -16.5 38t-42.5 14
q-28 0 -44.5 -14t-16.5 -38q0 -23 16.5 -36.5t44.5 -13.5q26 0 42.5 14zM687.5 69.5q19.5 16.5 19.5 44.5q0 27 -19.5 43.5t-52.5 16.5t-53 -16.5t-20 -43.5q0 -28 20 -44.5t53 -16.5t52.5 16.5zM109 628q-47 -31 -81 -39v61q41 12 93 50h52v-385h-64v313zM185 0h-76
l468 700h76z" />
    <glyph glyph-name="threeeighths" unicode="&#x215c;" horiz-adv-x="877" 
d="M68 341.5q-39 30.5 -45 81.5l64 10q4 -28 26 -45t53 -17q34 0 54.5 18.5t20.5 49.5t-19.5 49t-53.5 18q-24 0 -42 -12l-29 45l108 102h-171l1 59h252v-59l-100 -90q55 3 89.5 -28t34.5 -86q0 -57 -40 -91.5t-105 -34.5q-59 0 -98 30.5zM604 28q-40 32 -40 84
q0 33 19.5 59t50.5 36q-24 12 -39 34t-15 46q0 43 35.5 72.5t90.5 29.5q54 0 88.5 -29.5t34.5 -72.5q0 -25 -15 -47t-40 -33q32 -10 52 -36t20 -59q0 -52 -40 -84t-100 -32q-62 0 -102 32zM748.5 247q16.5 14 16.5 36q0 24 -16.5 38t-42.5 14q-28 0 -44.5 -14t-16.5 -38
q0 -23 16.5 -36.5t44.5 -13.5q26 0 42.5 14zM757.5 69.5q19.5 16.5 19.5 44.5q0 27 -19.5 43.5t-52.5 16.5t-53 -16.5t-20 -43.5q0 -28 20 -44.5t53 -16.5t52.5 16.5zM229 0h-76l468 700h76z" />
    <glyph glyph-name="fiveeighths" unicode="&#x215d;" horiz-adv-x="877" 
d="M70.5 339.5q-38.5 28.5 -46.5 77.5l63 11q5 -26 26 -41.5t51 -15.5q32 0 51.5 20t19.5 52q0 34 -20 53.5t-55 19.5q-49 0 -76 -41l-49 11l31 214h210v-60h-161l-15 -98q35 30 76 30q57 0 93 -35.5t36 -93.5q0 -60 -38 -96t-100 -36q-58 0 -96.5 28.5zM604 28
q-40 32 -40 84q0 33 19.5 59t50.5 36q-24 12 -39 34t-15 46q0 43 35.5 72.5t90.5 29.5q54 0 88.5 -29.5t34.5 -72.5q0 -25 -15 -47t-40 -33q32 -10 52 -36t20 -59q0 -52 -40 -84t-100 -32q-62 0 -102 32zM748.5 247q16.5 14 16.5 36q0 24 -16.5 38t-42.5 14q-28 0 -44.5 -14
t-16.5 -38q0 -23 16.5 -36.5t44.5 -13.5q26 0 42.5 14zM757.5 69.5q19.5 16.5 19.5 44.5q0 27 -19.5 43.5t-52.5 16.5t-53 -16.5t-20 -43.5q0 -28 20 -44.5t53 -16.5t52.5 16.5zM243 0h-76l468 700h76z" />
    <glyph glyph-name="seveneighths" unicode="&#x215e;" horiz-adv-x="797" 
d="M59 315q53 183 164 325h-204l-1 60h272v-60q-61 -82 -102.5 -166.5t-61.5 -158.5h-67zM524 28q-40 32 -40 84q0 33 19.5 59t50.5 36q-24 12 -39 34t-15 46q0 43 35.5 72.5t90.5 29.5q54 0 88.5 -29.5t34.5 -72.5q0 -25 -15 -47t-40 -33q32 -10 52 -36t20 -59
q0 -52 -40 -84t-100 -32q-62 0 -102 32zM668.5 247q16.5 14 16.5 36q0 24 -16.5 38t-42.5 14q-28 0 -44.5 -14t-16.5 -38q0 -23 16.5 -36.5t44.5 -13.5q26 0 42.5 14zM677.5 69.5q19.5 16.5 19.5 44.5q0 27 -19.5 43.5t-52.5 16.5t-53 -16.5t-20 -43.5q0 -28 20 -44.5
t53 -16.5t52.5 16.5zM155 0h-76l468 700h76z" />
    <glyph glyph-name="three.subs.ss04" horiz-adv-x="326" 
d="M63 -141.5q-40 32.5 -40 86.5l67 3q0 -28 20.5 -46.5t52.5 -18.5t52.5 16t20.5 41q0 28 -20.5 44t-54.5 16h-39v55l32 -1q30 0 48.5 17.5t19.5 43.5q0 23 -17 36t-46 13q-27 0 -46 -17t-19 -42l-62 4q0 46 36 78t91 32t91 -29t36 -73q0 -32 -20.5 -57t-53.5 -31
q40 -2 65 -28t25 -64q0 -49 -39 -80t-100 -31q-60 0 -100 32.5z" />
    <glyph glyph-name="three.dnom.ss04" horiz-adv-x="326" 
d="M63 28.5q-40 32.5 -40 86.5l67 3q0 -28 20.5 -46.5t52.5 -18.5t52.5 16t20.5 41q0 28 -20.5 44t-54.5 16h-39v55l32 -1q30 0 48.5 17.5t19.5 43.5q0 23 -17 36t-46 13q-27 0 -46 -17t-19 -42l-62 4q0 46 36 78t91 32t91 -29t36 -73q0 -32 -20.5 -57t-53.5 -31
q40 -2 65 -28t25 -64q0 -49 -39 -80t-100 -31q-60 0 -100 32.5z" />
    <glyph glyph-name="three.numr.ss04" horiz-adv-x="326" 
d="M63 343.5q-40 32.5 -40 86.5l67 3q0 -28 20.5 -46.5t52.5 -18.5t52.5 16t20.5 41q0 28 -20.5 44t-54.5 16h-39v55l32 -1q30 0 48.5 17.5t19.5 43.5q0 23 -17 36t-46 13q-27 0 -46 -17t-19 -42l-62 4q0 46 36 78t91 32t91 -29t36 -73q0 -32 -20.5 -57t-53.5 -31
q40 -2 65 -28t25 -64q0 -49 -39 -80t-100 -31q-60 0 -100 32.5z" />
    <glyph glyph-name="uni00B3.ss04" horiz-adv-x="333" 
d="M63 403.5q-40 32.5 -40 86.5l67 3q0 -28 20.5 -46.5t52.5 -18.5t52.5 16t20.5 41q0 28 -20.5 44t-54.5 16h-39v55l32 -1q30 0 48.5 17.5t19.5 43.5q0 23 -17 36t-46 13q-27 0 -46 -17t-19 -42l-62 4q0 46 36 78t91 32t91 -29t36 -73q0 -32 -20.5 -57t-53.5 -31
q40 -2 65 -28t25 -64q0 -49 -39 -80t-100 -31q-60 0 -100 32.5z" />
    <glyph glyph-name="three.sups.ss04" horiz-adv-x="333" 
d="M63 403.5q-40 32.5 -40 86.5l67 3q0 -28 20.5 -46.5t52.5 -18.5t52.5 16t20.5 41q0 28 -20.5 44t-54.5 16h-39v55l32 -1q30 0 48.5 17.5t19.5 43.5q0 23 -17 36t-46 13q-27 0 -46 -17t-19 -42l-62 4q0 46 36 78t91 32t91 -29t36 -73q0 -32 -20.5 -57t-53.5 -31
q40 -2 65 -28t25 -64q0 -49 -39 -80t-100 -31q-60 0 -100 32.5z" />
    <glyph glyph-name="uni2160" unicode="&#x2160;" horiz-adv-x="455" 
d="M383 700v-81h-110v-537h110v-82h-310v82h109v537h-109v81h310z" />
    <glyph glyph-name="uni2161" unicode="&#x2161;" horiz-adv-x="701" 
d="M628 700v-81h-109v-537h109v-82h-555v82h109v537h-109v81h555zM273 82h154v537h-154v-537z" />
    <glyph glyph-name="uni2162" unicode="&#x2162;" horiz-adv-x="946" 
d="M874 700v-81h-110v-537h110v-82h-801v82h109v537h-109v81h801zM273 619v-537h154v537h-154zM519 82h154v537h-154v-537z" />
    <glyph glyph-name="uni2163" unicode="&#x2163;" horiz-adv-x="1106" 
d="M1033 700v-81h-93l-202 -537h295v-82h-960v82h109v537h-109v81h960zM273 619v-537h311l-202 537h-109zM474 619l187 -514l187 514h-374z" />
    <glyph glyph-name="uni2164" unicode="&#x2164;" horiz-adv-x="905" 
d="M833 700v-81h-97l-202 -537h274v-82h-710v82h282l-202 537h-105v81h760zM270 619l186 -514l187 514h-373z" />
    <glyph glyph-name="uni2165" unicode="&#x2165;" horiz-adv-x="1106" 
d="M1033 700v-81h-109v-537h109v-82h-960v82h305l-202 537h-103v81h960zM455 105l187 514h-374zM533 82h300v537h-98z" />
    <glyph glyph-name="uni2166" unicode="&#x2166;" horiz-adv-x="1352" 
d="M1279 700v-81h-109v-537h109v-82h-1206v82h305l-202 537h-103v81h1206zM455 105l187 514h-374zM735 619l-202 -537h300v537h-98zM924 619v-537h154v537h-154z" />
    <glyph glyph-name="uni2167" unicode="&#x2167;" horiz-adv-x="1597" 
d="M1525 700v-81h-110v-537h110v-82h-1452v82h305l-202 537h-103v81h1452zM455 105l187 514h-374zM735 619l-202 -537h300v537h-98zM924 619v-537h154v537h-154zM1169 619v-537h155v537h-155z" />
    <glyph glyph-name="uni2168" unicode="&#x2168;" horiz-adv-x="1093" 
d="M1020 619h-98l-182 -269l181 -268h99v-82h-947v82h109v537h-109v81h947v-81zM273 82h185l181 268l-182 269h-184v-537zM559 619l131 -193l130 193h-261zM559 82h260l-130 193z" />
    <glyph glyph-name="uni2169" unicode="&#x2169;" horiz-adv-x="807" 
d="M734 619h-98l-182 -269l181 -268h99v-82h-661v82h99l181 268l-182 269h-98v81h661v-81zM534 619h-261l131 -193zM273 82h260l-130 193z" />
    <glyph glyph-name="uni216A" unicode="&#x216a;" horiz-adv-x="1018" 
d="M945 700v-81h-109v-537h109v-82h-872v82h99l181 268l-182 269h-98v81h872zM534 619h-262l131 -194zM635 82h110v537h-109l-182 -269zM533 82l-130 193l-130 -193h260z" />
    <glyph glyph-name="uni216B" unicode="&#x216b;" horiz-adv-x="1305" 
d="M1232 700v-81h-109v-537h109v-82h-1159v82h99l181 268l-182 269h-98v81h1159zM534 619h-262l131 -194zM635 82h110v537h-109l-182 -269zM1032 82v537h-196v-537h196zM533 82l-130 193l-130 -193h260z" />
    <glyph glyph-name="uni216C" unicode="&#x216c;" horiz-adv-x="634" 
d="M619 191l1 -109v-82h-547v82h109v537h-109v81h310v-81h-110v-537h266l-2 108z" />
    <glyph glyph-name="uni216D" unicode="&#x216d;" horiz-adv-x="715" 
d="M677 0l-82 -1v90q-38 -47 -92 -72t-122 -25q-91 0 -168.5 40.5t-124.5 121t-47 196.5q0 115 47 196t124.5 121.5t168.5 40.5q70 0 124.5 -24.5t90.5 -71.5v87l79 1l1 -213l-90 -20q-17 76 -70.5 118t-135.5 42q-72 0 -127.5 -32.5t-86.5 -95t-31 -149.5t31 -149.5
t86.5 -94.5t127.5 -32q81 0 133.5 40t71.5 113l91 -19z" />
    <glyph glyph-name="uni216E" unicode="&#x216e;" horiz-adv-x="782" 
d="M569.5 659q79.5 -41 125.5 -120.5t46 -188.5t-46 -188.5t-125.5 -120.5t-178.5 -41h-318v82h109v537h-109v81h318q99 0 178.5 -41zM388 82q71 0 129.5 28t94 88.5t35.5 151.5t-35.5 151.5t-94.5 89t-129 28.5h-116v-537h116z" />
    <glyph glyph-name="uni216F" unicode="&#x216f;" horiz-adv-x="1056" 
d="M983 700v-81h-109v-537h109v-82h-199v528l-218 -528h-76l-219 528v-528h-198v82h109v537h-109v81h219l236 -568l236 568h219z" />
    <glyph glyph-name="period" unicode="." horiz-adv-x="259" 
d="M86 9q-17 17 -17 43t17 43t44 17q26 0 43.5 -17.5t17.5 -42.5q0 -26 -17.5 -43t-43.5 -17q-27 0 -44 17z" />
    <glyph glyph-name="comma" unicode="," horiz-adv-x="257" 
d="M88 -106h-60l58 210h114z" />
    <glyph glyph-name="colon" unicode=":" horiz-adv-x="259" 
d="M86 409q-17 17 -17 43t17 43t44 17q26 0 43.5 -17.5t17.5 -42.5q0 -26 -17.5 -43t-43.5 -17q-27 0 -44 17zM86 9q-17 17 -17 43t17 43t44 17q26 0 43.5 -17.5t17.5 -42.5q0 -26 -17.5 -43t-43.5 -17q-27 0 -44 17z" />
    <glyph glyph-name="semicolon" unicode=";" horiz-adv-x="271" 
d="M86 -106h-60l58 210h114zM127 375q-17 17 -17 43t17 43t44 17q26 0 43.5 -17.5t17.5 -42.5q0 -26 -17.5 -43t-43.5 -17q-27 0 -44 17z" />
    <glyph glyph-name="ellipsis" unicode="&#x2026;" horiz-adv-x="778" 
d="M86 9q-17 17 -17 43t17 43t44 17q26 0 43.5 -17.5t17.5 -42.5q0 -26 -17.5 -43t-43.5 -17q-27 0 -44 17zM345 9q-17 17 -17 43t17 43t44 17q26 0 43.5 -17.5t17.5 -42.5q0 -26 -17.5 -43t-43.5 -17q-27 0 -44 17zM605 9q-17 17 -17 43t17 43t44 17q26 0 43.5 -17.5
t17.5 -42.5q0 -26 -17.5 -43t-43.5 -17q-27 0 -44 17z" />
    <glyph glyph-name="exclam" unicode="!" horiz-adv-x="268" 
d="M165 198h-62l-24 502h111zM90.5 9q-17.5 17 -17.5 43t17.5 43t44.5 17q26 0 43 -17t17 -43t-17 -43t-43 -17q-27 0 -44.5 17z" />
    <glyph glyph-name="exclamdown" unicode="&#xa1;" horiz-adv-x="268" 
d="M178 487q17 -17 17 -43q0 -25 -17 -42.5t-43 -17.5q-27 0 -44.5 17t-17.5 43t17.5 43t44.5 17q26 0 43 -17zM79 -204l24 502h62l25 -502h-111z" />
    <glyph glyph-name="question" unicode="?" horiz-adv-x="512" 
d="M185 195q-1 48 14 82.5t36.5 56t57.5 48.5q30 23 47 39.5t28.5 39.5t11.5 53q0 52 -33.5 84t-88.5 32q-62 0 -100 -36.5t-39 -97.5l-84 11q4 91 65 146t158 55q64 0 112 -24.5t74.5 -68t26.5 -99.5q0 -46 -15 -78.5t-36 -53.5t-56 -46q-32 -23 -50 -40t-30 -42.5
t-12 -60.5h-87zM190.5 9q-17.5 17 -17.5 43t17.5 43t43.5 17t43.5 -17t17.5 -43t-17.5 -43t-43.5 -17t-43.5 17z" />
    <glyph glyph-name="questiondown" unicode="&#xbf;" horiz-adv-x="444" 
d="M282.5 487q17.5 -17 17.5 -43t-17.5 -43t-43.5 -17t-43.5 17t-17.5 43t17.5 43t43.5 17t43.5 -17zM288 301q1 -48 -14 -82.5t-36.5 -56t-57.5 -48.5q-30 -23 -47 -39.5t-28.5 -39.5t-11.5 -53q0 -52 33.5 -84t88.5 -32q62 0 100 36.5t39 97.5l84 -11q-4 -91 -65 -146
t-158 -55q-64 0 -112 24.5t-74.5 68t-26.5 99.5q0 46 15 78.5t36 53.5t56 46q32 23 50 40t30 42.5t12 60.5h87z" />
    <glyph glyph-name="periodcentered" unicode="&#xb7;" horiz-adv-x="255" 
d="M87 310q-17 17 -17 43t17 43t44 17q26 0 43.5 -17.5t17.5 -42.5q0 -26 -17.5 -43t-43.5 -17q-27 0 -44 17z" />
    <glyph glyph-name="bullet" unicode="&#x2022;" horiz-adv-x="482" 
d="M141 99q-46 27 -73 72.5t-27 100.5q0 54 27 100t73.5 73t101.5 27q54 0 99.5 -27t72 -73t26.5 -100q0 -55 -26.5 -100.5t-72 -72.5t-99.5 -27q-56 0 -102 27z" />
    <glyph glyph-name="asterisk" unicode="*" horiz-adv-x="490" 
d="M432 588l20 -66l-154 -46l99 -127l-54 -41l-98 133l-98 -133l-54 41l98 127l-153 46l20 66l154 -48l-1 160h68l-1 -160z" />
    <glyph glyph-name="numbersign" unicode="#" horiz-adv-x="679" 
d="M649 493v-68h-139l-33 -150h128v-68h-143l-46 -207h-72l46 207h-162l-46 -207h-72l46 207h-126v68h141l33 150h-130v68h145l46 207h71l-46 -207h163l46 207h72l-46 -207h124zM243 275h162l33 150h-162z" />
    <glyph glyph-name="slash" unicode="/" horiz-adv-x="419" 
d="M95 -1h-86l314 701h87z" />
    <glyph glyph-name="backslash" unicode="\" horiz-adv-x="419" 
d="M96 700l314 -701h-86l-315 701h87z" />
    <glyph glyph-name="colon.case" horiz-adv-x="259" 
d="M86 499q-17 17 -17 43t17 43t44 17q26 0 43.5 -17.5t17.5 -42.5q0 -26 -17.5 -43t-43.5 -17q-27 0 -44 17zM86 99q-17 17 -17 43t17 43t44 17q26 0 43.5 -17.5t17.5 -42.5q0 -26 -17.5 -43t-43.5 -17q-27 0 -44 17z" />
    <glyph glyph-name="bullet.case" horiz-adv-x="482" 
d="M141 169q-46 27 -73 72.5t-27 100.5q0 54 27 100t73.5 73t101.5 27q54 0 99.5 -27t72 -73t26.5 -100q0 -55 -26.5 -100.5t-72 -72.5t-99.5 -27q-56 0 -102 27z" />
    <glyph glyph-name="period.tf" horiz-adv-x="609" 
d="M261 9q-17 17 -17 43t17 43t44 17q26 0 43.5 -17.5t17.5 -42.5q0 -26 -17.5 -43t-43.5 -17q-27 0 -44 17z" />
    <glyph glyph-name="comma.tf" horiz-adv-x="609" 
d="M264 -106h-60l58 210h114z" />
    <glyph glyph-name="parenleft" unicode="(" horiz-adv-x="272" 
d="M192 -172q-76 98 -117 220t-41 249t41 249t117 219l59 -44q-135 -199 -135 -424q0 -223 135 -424z" />
    <glyph glyph-name="parenright" unicode=")" horiz-adv-x="272" 
d="M21 -127q135 201 135 424q0 225 -135 424l59 44q76 -97 117.5 -219.5t41.5 -248.5t-41.5 -248.5t-117.5 -220.5z" />
    <glyph glyph-name="braceleft" unicode="{" horiz-adv-x="320" 
d="M245 -138q-50 0 -80.5 33t-30.5 86v208q0 49 -20 70t-66 22v73q45 1 65.5 22t20.5 69v209q0 53 30.5 85.5t80.5 32.5h51v-71h-28q-29 0 -42.5 -14t-13.5 -43v-219q0 -46 -19 -70t-54 -37q36 -14 54.5 -38t18.5 -71v-219q0 -56 56 -56h28v-72h-51z" />
    <glyph glyph-name="braceright" unicode="}" horiz-adv-x="320" 
d="M24 -138v72h28q56 0 56 56v219q0 47 18.5 71t54.5 38q-35 13 -54 37t-19 70v219q0 29 -13.5 43t-42.5 14h-28v71h51q50 0 80.5 -32.5t30.5 -85.5v-209q0 -48 20.5 -69t65.5 -22v-73q-46 -1 -66 -22t-20 -70v-208q0 -53 -30.5 -86t-80.5 -33h-51z" />
    <glyph glyph-name="bracketleft" unicode="[" horiz-adv-x="304" 
d="M273 -146h-200v914h200v-68h-125v-778h125v-68z" />
    <glyph glyph-name="bracketright" unicode="]" horiz-adv-x="304" 
d="M231 768v-914h-200v68h125v778h-125v68h200z" />
    <glyph glyph-name="parenleft.case" horiz-adv-x="272" 
d="M192 -147q-76 98 -117 220t-41 249t41 249t117 219l59 -44q-135 -199 -135 -424q0 -223 135 -424z" />
    <glyph glyph-name="parenright.case" horiz-adv-x="272" 
d="M21 -102q135 201 135 424q0 225 -135 424l59 44q76 -97 117.5 -219.5t41.5 -248.5t-41.5 -248.5t-117.5 -220.5z" />
    <glyph glyph-name="braceleft.case" horiz-adv-x="320" 
d="M245 -113q-50 0 -80.5 33t-30.5 86v208q0 49 -20 70t-66 22v73q45 1 65.5 22t20.5 69v209q0 53 30.5 85.5t80.5 32.5h51v-71h-28q-29 0 -42.5 -14t-13.5 -43v-219q0 -46 -19 -70t-54 -37q36 -14 54.5 -38t18.5 -71v-219q0 -56 56 -56h28v-72h-51z" />
    <glyph glyph-name="braceright.case" horiz-adv-x="320" 
d="M24 -113v72h28q56 0 56 56v219q0 47 18.5 71t54.5 38q-35 13 -54 37t-19 70v219q0 29 -13.5 43t-42.5 14h-28v71h51q50 0 80.5 -32.5t30.5 -85.5v-209q0 -48 20.5 -69t65.5 -22v-73q-46 -1 -66 -22t-20 -70v-208q0 -53 -30.5 -86t-80.5 -33h-51z" />
    <glyph glyph-name="bracketleft.case" horiz-adv-x="304" 
d="M273 -121h-200v914h200v-68h-125v-778h125v-68z" />
    <glyph glyph-name="bracketright.case" horiz-adv-x="304" 
d="M231 793v-914h-200v68h125v778h-125v68h200z" />
    <glyph glyph-name="hyphen" unicode="-" horiz-adv-x="353" 
d="M324 251h-295v75h295v-75z" />
    <glyph glyph-name="uni00AD" unicode="&#xad;" horiz-adv-x="353" 
d="M324 251h-295v75h295v-75z" />
    <glyph glyph-name="endash" unicode="&#x2013;" horiz-adv-x="500" 
d="M476 251h-452v75h452v-75z" />
    <glyph glyph-name="emdash" unicode="&#x2014;" horiz-adv-x="1000" 
d="M976 251h-952v75h952v-75z" />
    <glyph glyph-name="underscore" unicode="_" horiz-adv-x="500" 
d="M476 -75h-452v75h452v-75z" />
    <glyph glyph-name="hyphen.case" horiz-adv-x="353" 
d="M324 327h-295v75h295v-75z" />
    <glyph glyph-name="uni00AD.case" horiz-adv-x="353" 
d="M324 327h-295v75h295v-75z" />
    <glyph glyph-name="endash.case" horiz-adv-x="500" 
d="M476 327h-452v75h452v-75z" />
    <glyph glyph-name="emdash.case" horiz-adv-x="1000" 
d="M976 327h-952v75h952v-75z" />
    <glyph glyph-name="quotesinglbase" unicode="&#x201a;" horiz-adv-x="227" 
d="M84 -94h-58l54 198h109z" />
    <glyph glyph-name="quotedblbase" unicode="&#x201e;" horiz-adv-x="375" 
d="M231 -94h-58l54 198h109zM84 -94h-58l54 198h109z" />
    <glyph glyph-name="quotedblleft" unicode="&#x201c;" horiz-adv-x="375" 
d="M144 708h57l-54 -198h-109zM291 708h58l-54 -198h-110z" />
    <glyph glyph-name="quotedblright" unicode="&#x201d;" horiz-adv-x="375" 
d="M231 510h-58l54 198h109zM84 510h-58l54 198h109z" />
    <glyph glyph-name="quoteleft" unicode="&#x2018;" horiz-adv-x="227" 
d="M144 708h57l-54 -198h-109z" />
    <glyph glyph-name="quoteright" unicode="&#x2019;" horiz-adv-x="227" 
d="M84 510h-58l54 198h109z" />
    <glyph glyph-name="guillemotleft" unicode="&#xab;" horiz-adv-x="557" 
d="M287 161v-89l-257 203v53l257 202v-88l-180 -141zM521 161v-89l-257 203v53l257 202v-88l-180 -141z" />
    <glyph glyph-name="guillemotright" unicode="&#xbb;" horiz-adv-x="574" 
d="M293 275l-257 -203v89l180 140l-180 141v88l257 -202v-53zM545 275l-257 -203v89l180 140l-180 141v88l257 -202v-53z" />
    <glyph glyph-name="guilsinglleft" unicode="&#x2039;" horiz-adv-x="322" 
d="M287 161v-89l-257 203v53l257 202v-88l-180 -141z" />
    <glyph glyph-name="guilsinglright" unicode="&#x203a;" horiz-adv-x="323" 
d="M293 275l-257 -203v89l180 140l-180 141v88l257 -202v-53z" />
    <glyph glyph-name="quotedbl" unicode="&#x22;" horiz-adv-x="351" 
d="M127 510h-62l-19 198h101zM285 510h-62l-19 198h101z" />
    <glyph glyph-name="quotesingle" unicode="'" horiz-adv-x="192" 
d="M127 510h-62l-19 198h101z" />
    <glyph glyph-name="quotesinglbase.ss05" horiz-adv-x="199" 
d="M155.5 20q-5.5 -14 -27.5 -55l-32 -59h-48l37 85q-20 5 -33.5 21.5t-13.5 37.5q0 26 18.5 44t44.5 18q25 0 42.5 -18t17.5 -44q0 -16 -5.5 -30z" />
    <glyph glyph-name="quotedblbase.ss05" horiz-adv-x="355" 
d="M155.5 20q-5.5 -14 -27.5 -55l-32 -59h-48l37 85q-20 5 -33.5 21.5t-13.5 37.5q0 26 18.5 44t44.5 18q25 0 42.5 -18t17.5 -44q0 -16 -5.5 -30zM311.5 20q-5.5 -14 -27.5 -55l-32 -59h-48l37 85q-20 5 -33.5 21.5t-13.5 37.5q0 26 18.5 44t44.5 18q25 0 42.5 -18
t17.5 -44q0 -16 -5.5 -30z" />
    <glyph glyph-name="quotedblleft.ss05" horiz-adv-x="355" 
d="M43.5 594.5q5.5 14.5 28.5 54.5l31 59h48l-37 -85q21 -5 34 -21.5t13 -37.5q0 -25 -18 -43.5t-44 -18.5q-25 0 -43 18t-18 44q0 16 5.5 30.5zM199.5 594.5q5.5 14.5 27.5 54.5l32 59h48l-37 -85q20 -5 33.5 -21.5t13.5 -37.5q0 -26 -18.5 -44t-44.5 -18q-25 0 -42.5 18
t-17.5 44q0 16 5.5 30.5z" />
    <glyph glyph-name="quotedblright.ss05" horiz-adv-x="355" 
d="M155.5 620q-5.5 -14 -27.5 -55l-32 -59h-48l37 85q-20 5 -33.5 21.5t-13.5 37.5q0 26 18.5 44t44.5 18q25 0 42.5 -18t17.5 -44q0 -16 -5.5 -30zM311.5 620q-5.5 -14 -27.5 -55l-32 -59h-48l37 85q-20 5 -33.5 21.5t-13.5 37.5q0 26 18.5 44t44.5 18q25 0 42.5 -18
t17.5 -44q0 -16 -5.5 -30z" />
    <glyph glyph-name="quoteleft.ss05" horiz-adv-x="199" 
d="M43.5 592.5q5.5 14.5 28.5 54.5l31 59h48l-37 -84q21 -5 34 -22t13 -38q0 -25 -18 -43.5t-44 -18.5q-25 0 -43 18t-18 44q0 16 5.5 30.5z" />
    <glyph glyph-name="quoteright.ss05" horiz-adv-x="199" 
d="M155.5 620q-5.5 -14 -27.5 -55l-32 -59h-48l37 85q-20 5 -33.5 21.5t-13.5 37.5q0 26 18.5 44t44.5 18q25 0 42.5 -18t17.5 -44q0 -16 -5.5 -30z" />
    <glyph glyph-name="uni00A0" unicode="&#xa0;" horiz-adv-x="241" 
 />
    <glyph glyph-name="space.tf" horiz-adv-x="609" 
 />
    <glyph glyph-name="uni0E3F" unicode="&#xe3f;" horiz-adv-x="613" 
d="M539 318.5q33 -44.5 33 -114.5q0 -95 -61 -149.5t-169 -54.5h-10v-100h-83v100h-176v700h176v100h83v-100q98 -2 153.5 -49t55.5 -131q0 -46 -27 -83.5t-65 -53.5q57 -20 90 -64.5zM164 622v-210h159q63 0 95.5 26.5t32.5 78.5t-32.5 78.5t-95.5 26.5h-159zM327 82
q76 0 115 31.5t39 92.5q0 62 -39 94t-115 32h-163v-250h163z" />
    <glyph glyph-name="uni20BF" unicode="&#x20bf;" horiz-adv-x="613" 
d="M530 74.5q-42 -51.5 -119 -67.5v-120l-83 1v112h-73v-113l-82 1v112h-100v700h100v100h82v-100h72h1v100h83v-111q62 -17 96 -60.5t34 -108.5q0 -46 -27 -83.5t-65 -53.5q57 -20 90 -64.5t33 -114.5q0 -78 -42 -129.5zM164 622v-210h159q63 0 95.5 26.5t32.5 78.5
t-32.5 78.5t-95.5 26.5h-159zM327 82q76 0 115 31.5t39 92.5q0 62 -39 94t-115 32h-163v-250h163z" />
    <glyph glyph-name="cent" unicode="&#xa2;" horiz-adv-x="549" 
d="M512 157q-14 -68 -62 -110.5t-121 -52.5v-110l-83 1v110q-94 14 -150 83.5t-56 173.5t56 173.5t150 83.5v112h83v-111q73 -10 121.5 -53t60.5 -109l-84 -17q-8 46 -45 75.5t-90 29.5q-74 0 -118.5 -50.5t-44.5 -133.5t44.5 -133.5t118.5 -50.5q54 0 90.5 28t46.5 78z" />
    <glyph glyph-name="currency" unicode="&#xa4;" horiz-adv-x="659" 
d="M542 98l77 -77l-59 -58l-76 76q-66 -47 -154 -47q-90 0 -155 48l-76 -77l-59 58l78 78q-44 66 -44 153q0 86 44 152l-78 80l58 58l77 -78q65 48 155 48q88 0 154 -47l77 77l58 -58l-77 -79q45 -65 45 -153q0 -87 -45 -154zM452 119.5q47 51.5 47 132.5t-47 132.5
t-122 51.5t-122 -51.5t-47 -132.5t47 -132.5t122 -51.5t122 51.5z" />
    <glyph glyph-name="dollar" unicode="$" horiz-adv-x="586" 
d="M491.5 56q-57.5 -52 -154.5 -62v-94h-82v95q-87 11 -148.5 68.5t-77.5 143.5l86 28q10 -73 61 -117.5t121 -44.5q72 0 115 31.5t43 83.5q0 41 -23.5 66.5t-58.5 40t-96 32.5q-73 22 -116 41t-73.5 57t-30.5 100q0 74 54.5 123t143.5 58v94h82v-95q80 -11 134.5 -56.5
t66.5 -113.5l-83 -32q-11 57 -53.5 90.5t-108.5 33.5q-67 0 -105.5 -27.5t-38.5 -74.5q0 -32 20.5 -52.5t52 -32.5t86.5 -27q76 -21 124 -41.5t82.5 -64.5t34.5 -118q0 -81 -57.5 -133z" />
    <glyph glyph-name="Euro" unicode="&#x20ac;" horiz-adv-x="788" 
d="M593.5 114q51.5 40 69.5 113l91 -19q-27 -100 -104 -158t-188 -58q-72 0 -137 27t-113 81.5t-69 132.5h-102v71h89q-2 30 -2 46q0 27 3 52h-90v71h103q33 114 120.5 174.5t197.5 60.5q114 0 192.5 -59.5t99.5 -161.5l-90 -20q-16 76 -69 118t-133 42q-78 0 -136 -39.5
t-85 -114.5h320l-24 -71h-312q-3 -24 -3 -52q0 -16 2 -46h279l-23 -71h-241q26 -78 84.5 -118.5t138.5 -40.5t131.5 40z" />
    <glyph glyph-name="florin" unicode="&#x192;" horiz-adv-x="472" 
d="M301 504h138v-73h-150l-42 -269q-27 -170 -149 -170q-37 0 -68 9l4 75q26 -10 53 -10q32 0 50.5 22t25.5 68l42 275h-104v73h116l7 47q27 170 150 170q40 0 68 -8l-4 -76q-26 10 -53 10q-32 0 -50.5 -22t-25.5 -68z" />
    <glyph glyph-name="uni20B9" unicode="&#x20b9;" horiz-adv-x="578" 
d="M537 629h-176q43 -41 52 -104h124v-71h-125q-8 -58 -41.5 -100t-85.5 -61l163 -293h-104l-153 279h-173v82h163q56 0 91.5 24.5t45.5 68.5h-300v71h300q-10 45 -45.5 69.5t-91.5 24.5h-163v81h519v-71z" />
    <glyph glyph-name="sterling" unicode="&#xa3;" horiz-adv-x="569" 
d="M551 111q-30 -55 -67 -83t-90 -28h-329v79q46 53 67 94.5t21 92.5q0 21 -7 47h-110v78h80q-28 65 -28 113q0 62 27 108.5t75 71t110 24.5q79 0 135.5 -41.5t73.5 -109.5l-84 -27q-15 49 -45.5 73t-79.5 24q-53 0 -86 -32.5t-33 -93.5q0 -28 7.5 -52t21.5 -58h211v-78
h-181q6 -22 6 -48q0 -47 -24.5 -101t-58.5 -82h220q34 0 54 17.5t41 53.5z" />
    <glyph glyph-name="yen" unicode="&#xa5;" horiz-adv-x="593" 
d="M486 700h103l-206 -339h147v-71h-188v-98h188v-70h-188v-122h-92v122h-186v70h186v98h-186v71h145l-205 339h103l189 -320z" />
    <glyph glyph-name="plus" unicode="+" horiz-adv-x="553" 
d="M313 371h206v-75h-205v-205h-74v205h-206v75h205v205h74v-205z" />
    <glyph glyph-name="minus" unicode="&#x2212;" horiz-adv-x="537" 
d="M503 296h-469v74h469v-74z" />
    <glyph glyph-name="multiply" unicode="&#xd7;" horiz-adv-x="538" 
d="M437 557l56 -56l-168 -167l168 -168l-56 -56l-168 168l-168 -168l-56 56l168 168l-168 167l56 56l168 -168z" />
    <glyph glyph-name="divide" unicode="&#xf7;" horiz-adv-x="537" 
d="M503 296h-469v74h469v-74zM228 482q-17 17 -17 43t17 43t44 17q26 0 43.5 -17.5t17.5 -42.5q0 -26 -17.5 -43t-43.5 -17q-27 0 -44 17zM228 98q-17 17 -17 43t17 43t44 17q26 0 43.5 -17.5t17.5 -42.5q0 -26 -17.5 -43t-43.5 -17q-27 0 -44 17z" />
    <glyph glyph-name="equal" unicode="=" horiz-adv-x="537" 
d="M503 199h-469v74h469v-74zM503 394h-469v74h469v-74z" />
    <glyph glyph-name="notequal" unicode="&#x2260;" horiz-adv-x="537" 
d="M503 468v-74h-151l-72 -121h223v-74h-267l-90 -151l-64 35l69 116h-117v74h161l73 121h-234v74h278l79 133l64 -35l-58 -98h106z" />
    <glyph glyph-name="greater" unicode="&#x3e;" horiz-adv-x="537" 
d="M503 248l-469 -193v87l373 149l-373 149v87l469 -194v-85z" />
    <glyph glyph-name="less" unicode="&#x3c;" horiz-adv-x="537" 
d="M503 142v-87l-469 193v85l469 194v-87l-373 -149z" />
    <glyph glyph-name="greaterequal" unicode="&#x2265;" horiz-adv-x="541" 
d="M507 274l-469 -193v87l373 149l-373 149v87l469 -194v-85zM507 0h-469v74h469v-74z" />
    <glyph glyph-name="lessequal" unicode="&#x2264;" horiz-adv-x="541" 
d="M502 168v-87l-469 194v85l469 193v-87l-373 -149zM503 74v-74h-469v74h469z" />
    <glyph glyph-name="plusminus" unicode="&#xb1;" horiz-adv-x="553" 
d="M313 402h206v-75h-205v-205h-74v205h-206v75h205v205h74v-205zM511 74v-74h-468v74h468z" />
    <glyph glyph-name="approxequal" unicode="&#x2248;" horiz-adv-x="575" 
d="M323 374q-23 9 -50 26q-5 3 -22.5 15.5t-33.5 18.5t-33 6q-26 0 -44.5 -17.5t-22.5 -50.5l-71 11q4 60 41.5 96.5t96.5 36.5q28 0 51 -9t50 -26q5 -3 22.5 -15.5t33.5 -18.5t32 -6q27 0 45.5 17.5t22.5 50.5l71 -11q-4 -60 -42 -96.5t-97 -36.5q-27 0 -50 9zM323 164
q-23 9 -50 26q-5 3 -22.5 15.5t-33.5 18.5t-33 6q-26 0 -44.5 -17.5t-22.5 -50.5l-71 11q4 60 41.5 96.5t96.5 36.5q28 0 51 -9t50 -26q5 -3 22.5 -15.5t33.5 -18.5t32 -6q27 0 45.5 17.5t22.5 50.5l71 -11q-4 -60 -42 -96.5t-97 -36.5q-27 0 -50 9z" />
    <glyph glyph-name="asciitilde" unicode="~" horiz-adv-x="558" 
d="M323 264q-23 9 -50 26q-5 3 -22.5 15.5t-33.5 18.5t-33 6q-26 0 -44.5 -17.5t-22.5 -50.5l-71 11q4 60 41.5 96.5t96.5 36.5q28 0 51 -9t50 -26q5 -3 22.5 -15.5t33.5 -18.5t32 -6q27 0 45.5 17.5t22.5 50.5l71 -11q-4 -60 -42 -96.5t-97 -36.5q-27 0 -50 9z" />
    <glyph glyph-name="logicalnot" unicode="&#xac;" horiz-adv-x="579" 
d="M522 145h-85v176h-387v76h472v-252z" />
    <glyph glyph-name="asciicircum" unicode="^" horiz-adv-x="546" 
d="M128 423h-90l201 277h68l201 -277h-90l-145 202z" />
    <glyph glyph-name="infinity" unicode="&#x221e;" horiz-adv-x="914" 
d="M773.5 534.5q47.5 -25.5 74 -71t26.5 -104.5t-26.5 -104.5t-74 -71t-109.5 -25.5q-59 0 -112 31.5t-95 91.5q-42 -60 -95 -91.5t-112 -31.5q-62 0 -109.5 25.5t-74 71t-26.5 104.5t26.5 104.5t74 71t109.5 25.5q59 0 112 -31.5t95 -91.5q42 60 95 91.5t112 31.5
q62 0 109.5 -25.5zM338 269q42 31 75 90q-33 59 -75 90t-88 31q-60 0 -93.5 -32t-33.5 -89t33.5 -89t93.5 -32q46 0 88 31zM757.5 270q33.5 32 33.5 89t-33.5 89t-93.5 32q-45 0 -86.5 -31t-75.5 -90q34 -59 75.5 -90t86.5 -31q60 0 93.5 32z" />
    <glyph glyph-name="integral" unicode="&#x222b;" horiz-adv-x="284" 
d="M12 -189l-2 76q4 -1 13 -1q37 0 55.5 24.5t18.5 69.5v569q0 70 40.5 114.5t108.5 44.5l20 -1l3 -76q-5 1 -14 1q-37 0 -55 -24.5t-18 -69.5v-569q0 -70 -41 -114.5t-109 -44.5z" />
    <glyph glyph-name="uni2126" unicode="&#x2126;" horiz-adv-x="735" 
d="M650.5 208.5q-43.5 -78.5 -116.5 -126.5h148v-82h-241v82h1v22q75 41 118 114t43 155q0 74 -30.5 132.5t-84 91.5t-121.5 33q-67 0 -120.5 -33t-84 -91.5t-30.5 -132.5q0 -82 43.5 -154.5t117.5 -114.5v-22h1v-82h-241v82h148q-73 48 -116.5 126.5t-43.5 167.5
q0 94 42.5 170t117 119t166.5 43t167 -43t117.5 -119t42.5 -170q0 -89 -43.5 -167.5z" />
    <glyph glyph-name="uni2206" unicode="&#x2206;" horiz-adv-x="656" 
d="M286 700h83l278 -700h-638zM328 580l-194 -499h388z" />
    <glyph glyph-name="product" unicode="&#x220f;" horiz-adv-x="647" 
d="M167 0h-94v700h502v-700h-96v619h-312v-619z" />
    <glyph glyph-name="summation" unicode="&#x2211;" horiz-adv-x="548" 
d="M500 0h-457v79l238 271l-238 271v79h457v-81h-346l208 -233v-72l-208 -232h346v-82z" />
    <glyph glyph-name="radical" unicode="&#x221a;" horiz-adv-x="553" 
d="M325 0h-92l-101 310h-104v82h162l87 -281l182 589h89z" />
    <glyph glyph-name="uni00B5" unicode="&#xb5;" horiz-adv-x="569" 
d="M417 504h85v-504h-85v95q-25 -47 -68 -75t-96 -28q-58 0 -104 46v-228h-85v694h85v-318q0 -52 31 -84.5t83 -32.5q71 0 112.5 57.5t41.5 156.5v221z" />
    <glyph glyph-name="partialdiff" unicode="&#x2202;" horiz-adv-x="594" 
d="M209 708h21q95 0 168 -46t114.5 -135t41.5 -215q0 -96 -32.5 -168.5t-91.5 -112t-136 -39.5q-73 0 -131 30.5t-90.5 85t-32.5 123.5q0 68 31.5 122.5t88 85t127.5 30.5q59 0 110.5 -31t72.5 -80q-1 78 -32 139.5t-85 95.5t-122 34q-16 0 -31 -3zM408.5 119
q45.5 45 45.5 115q0 69 -45.5 113.5t-115.5 44.5t-115.5 -44.5t-45.5 -113.5q1 -70 46 -115t115 -45t115.5 45z" />
    <glyph glyph-name="percent" unicode="%" horiz-adv-x="815" 
d="M211 0h-76l468 700h76zM535 15q-37 23 -58 63t-21 90t21 90t58 63t85 23q47 0 84 -23t58 -63t21 -90t-21 -90t-58 -63t-84 -23q-48 0 -85 23zM685.5 86.5q24.5 30.5 24.5 81.5t-24.5 81.5t-65.5 30.5q-42 0 -67 -30.5t-25 -81.5t25 -81.5t67 -30.5q41 0 65.5 30.5z
M112 379q-37 23 -58 63t-21 90t21 90t58 63t85 23q47 0 84 -23t58 -63t21 -90t-21 -90t-58 -63t-84 -23q-48 0 -85 23zM262.5 450.5q24.5 30.5 24.5 81.5t-24.5 81.5t-65.5 30.5q-42 0 -67 -30.5t-25 -81.5t25 -81.5t67 -30.5q41 0 65.5 30.5z" />
    <glyph glyph-name="perthousand" unicode="&#x2030;" horiz-adv-x="1069" 
d="M339 442q-21 -40 -58 -63t-84 -23q-48 0 -85 23t-58 63t-21 90t21 90t58 63t85 23q47 0 84 -23t58 -63t21 -90t-21 -90zM135 0l468 700h75l-468 -700h-75zM130 450.5q25 -30.5 67 -30.5q41 0 65.5 30.5t24.5 81.5t-24.5 81.5t-65.5 30.5q-42 0 -67 -30.5t-25 -81.5
t25 -81.5zM958 321q37 -23 58 -63t21 -90t-21 -90t-58 -63t-84 -23q-40 0 -72.5 16t-54.5 45q-22 -29 -55 -45t-72 -16q-48 0 -85 23t-58 63t-21 90t21 90t58 63t85 23q39 0 72 -16t55 -45q22 29 54.5 45t72.5 16q47 0 84 -23zM685.5 86.5q24.5 30.5 24.5 81.5t-24.5 81.5
t-65.5 30.5q-42 0 -67 -30.5t-25 -81.5t25 -81.5t67 -30.5q41 0 65.5 30.5zM939.5 86.5q24.5 30.5 24.5 81.5t-24.5 81.5t-65.5 30.5q-42 0 -66.5 -30.5t-24.5 -81.5t24.5 -81.5t66.5 -30.5q41 0 65.5 30.5z" />
    <glyph glyph-name="percent.part" horiz-adv-x="392" 
d="M112 379q-37 23 -58 63t-21 90t21 90t58 63t85 23q47 0 84 -23t58 -63t21 -90t-21 -90t-58 -63t-84 -23q-48 0 -85 23zM262.5 450.5q24.5 30.5 24.5 81.5t-24.5 81.5t-65.5 30.5q-42 0 -67 -30.5t-25 -81.5t25 -81.5t67 -30.5q41 0 65.5 30.5z" />
    <glyph glyph-name="arrowup" unicode="&#x2191;" horiz-adv-x="628" 
d="M314 643l276 -276l-48 -48l-190 190v-502h-75v503l-190 -192l-49 48z" />
    <glyph glyph-name="uni2197" unicode="&#x2197;" horiz-adv-x="577" 
d="M117 421v68h391v-389h-68v269l-355 -355l-53 52l355 355h-270z" />
    <glyph glyph-name="arrowright" unicode="&#x2192;" horiz-adv-x="711" 
d="M349 487l48 49l276 -276l-275 -276l-48 48l190 191h-502v74h502z" />
    <glyph glyph-name="uni2198" unicode="&#x2198;" horiz-adv-x="583" 
d="M445 124v270l69 1v-391l-390 -1v69h269l-355 355l52 52z" />
    <glyph glyph-name="arrowdown" unicode="&#x2193;" horiz-adv-x="628" 
d="M351 132l190 192l49 -48l-276 -277l-276 276l48 48l191 -191v503h74v-503z" />
    <glyph glyph-name="uni2199" unicode="&#x2199;" horiz-adv-x="583" 
d="M492 479l52 -52l-355 -355h269v-69l-390 1v391l69 -1v-270z" />
    <glyph glyph-name="arrowleft" unicode="&#x2190;" horiz-adv-x="711" 
d="M171 297h502v-74h-502l191 -191l-49 -48l-275 276l276 276l49 -49z" />
    <glyph glyph-name="uni2196" unicode="&#x2196;" horiz-adv-x="582" 
d="M190 421l355 -355l-53 -52l-355 355v-269h-68v389h391v-68h-270z" />
    <glyph glyph-name="arrowboth" unicode="&#x2194;" horiz-adv-x="1032" 
d="M670 487l48 49l276 -276l-275 -276l-48 48l190 191h-690l191 -191l-49 -48l-275 276l276 276l49 -49l-192 -190h690z" />
    <glyph glyph-name="arrowupdn" unicode="&#x2195;" horiz-adv-x="628" 
d="M351 -36l190 191l49 -48l-276 -277l-276 276l48 48l191 -190v689l-191 -190l-48 48l276 276l276 -277l-49 -48l-190 191v-689z" />
    <glyph glyph-name="uni25CF" unicode="&#x25cf;" horiz-adv-x="799" 
d="M216.5 38.5q-82.5 46.5 -129 128t-46.5 183.5t46.5 183.5t129 128t184.5 46.5q101 0 182.5 -46.5t128 -128t46.5 -183.5t-46.5 -183.5t-128 -128t-182.5 -46.5q-102 0 -184.5 46.5z" />
    <glyph glyph-name="circle" unicode="&#x25cb;" horiz-adv-x="799" 
d="M215.5 38.5q-81.5 46.5 -128 128t-46.5 183.5t46.5 183.5t128 128t183.5 46.5t184 -46.5t128.5 -128t46.5 -183.5t-46.5 -183.5t-128.5 -128t-184 -46.5t-183.5 46.5zM553 85.5q69 39.5 108.5 109t39.5 155.5t-39.5 155.5t-108.5 109t-154 39.5t-154 -39.5t-108 -109
t-39 -155.5t39 -155.5t108 -109t154 -39.5t154 39.5z" />
    <glyph glyph-name="lozenge" unicode="&#x25ca;" horiz-adv-x="569" 
d="M325 0h-81l-195 350l195 350h81l195 -350zM134 350l150 -270l151 270l-151 270z" />
    <glyph glyph-name="uniF8FF" unicode="&#xf8ff;" horiz-adv-x="782" 
d="M612 266q36 0 67.5 -19t50.5 -50.5t19 -68.5q0 -36 -18.5 -67.5t-50 -50t-68.5 -18.5t-69 18.5t-50.5 50t-18.5 67.5v85h-167v-85q0 -36 -18.5 -67.5t-50.5 -50t-69 -18.5t-68 18.5t-49.5 49.5t-18.5 68t18.5 69t50 50.5t67.5 18.5h85v167h-85q-36 0 -67.5 18.5t-50 50.5
t-18.5 69t18.5 68.5t50 50t67.5 18.5q37 0 68.5 -19t50.5 -50.5t19 -67.5v-85h167v85q0 36 19 67.5t50.5 50.5t68.5 19t68.5 -18.5t50 -50t18.5 -68.5t-19 -68.5t-50.5 -50.5t-67.5 -19h-85v-167h85zM254 486v85q0 35 -25 59.5t-60 24.5q-34 0 -58.5 -24.5t-24.5 -59.5
t24.5 -60t58.5 -25h85zM527 486h85q35 0 59.5 25t24.5 60t-24.5 59.5t-59.5 24.5t-60 -24.5t-25 -59.5v-85zM307 433v-167h167v167h-167zM254 213h-85q-34 0 -58.5 -25t-24.5 -60q0 -34 24.5 -58.5t58.5 -24.5q35 0 60 24.5t25 58.5v85zM671.5 69.5q24.5 24.5 24.5 58.5
q0 35 -24.5 60t-59.5 25h-85v-85q0 -34 25 -58.5t60 -24.5t59.5 24.5z" />
    <glyph glyph-name="at" unicode="@" horiz-adv-x="911" 
d="M567 489h72v-275q0 -28 17 -46t40 -18q44 0 71 47.5t27 126.5q0 85 -43 152.5t-118.5 106t-169.5 38.5q-98 0 -177 -44t-124 -121t-45 -173q0 -101 44 -179t123 -121.5t182 -43.5q71 0 132.5 18.5t133.5 57.5l30 -71q-82 -40 -151 -57.5t-146 -17.5q-124 0 -219.5 52
t-149 146t-53.5 216q0 115 54.5 208t150.5 146t215 53q115 0 207.5 -47.5t145.5 -131t53 -187.5q0 -74 -22 -129.5t-61.5 -86t-91.5 -30.5q-38 0 -68 17.5t-44 48.5q-19 -33 -57 -52t-88 -19q-90 0 -144 57t-54 154q0 60 25.5 108.5t71 75.5t103.5 27q37 0 72 -16.5
t56 -42.5v53zM537 177q36 40 36 107t-35.5 107t-94.5 40t-94.5 -40t-35.5 -107t35 -107t93 -40q60 0 96 40z" />
    <glyph glyph-name="ampersand" unicode="&#x26;" horiz-adv-x="660" 
d="M647 0h-109l-66 75q-89 -83 -199 -83q-102 0 -163 55t-61 151q0 71 39 113.5t108 77.5q-42 51 -58.5 84.5t-16.5 70.5q0 74 47 119t124 45t123.5 -45t46.5 -119q0 -64 -36 -103.5t-100 -73.5l142 -163l93 105l65 -59l-98 -114zM220.5 494q16.5 -26 53.5 -68q52 26 79 52
t27 66q0 38 -25 62t-63 24t-63 -24t-25 -62q0 -24 16.5 -50zM345 90.5q33 17.5 68 51.5l-163 186q-54 -27 -82.5 -56.5t-28.5 -73.5q0 -55 38.5 -90t98.5 -35q36 0 69 17.5z" />
    <glyph glyph-name="paragraph" unicode="&#xb6;" horiz-adv-x="683" 
d="M243 324q-55 0 -100.5 25t-72 68.5t-26.5 94.5t26.5 94.5t72 68.5t100.5 25h391v-79h-67v-803h-83v803h-158v-803h-83v506z" />
    <glyph glyph-name="section" unicode="&#xa7;" horiz-adv-x="584" 
d="M532 -10q0 -53 -29 -94t-82 -63.5t-122 -22.5q-62 0 -114.5 25t-87 69.5t-45.5 101.5l74 25q11 -66 59 -106.5t114 -40.5q68 0 109 29t41 77q0 34 -21 55.5t-52 34t-86 28.5q-68 20 -109.5 38t-71 54t-29.5 94q0 68 72 112q-35 23 -53.5 54.5t-18.5 77.5q0 49 28 87.5
t77 60.5t111 22q88 0 150.5 -44t73.5 -118l-73 -22q-8 51 -48.5 80.5t-102.5 29.5q-61 0 -98 -26.5t-37 -69.5q0 -34 20.5 -55t51.5 -33t86 -27q68 -18 110.5 -36t72.5 -55t30 -98q0 -68 -64 -114q64 -45 64 -130zM181.5 239.5q20.5 -21.5 51.5 -33.5t85 -27q52 -13 85 -26
q46 32 46 81q0 34 -21 55.5t-52 34t-85 28.5q-13 4 -36 11t-39 13q-55 -28 -55 -82q0 -33 20.5 -54.5z" />
    <glyph glyph-name="copyright" unicode="&#xa9;" horiz-adv-x="799" 
d="M215.5 38.5q-81.5 46.5 -128 128t-46.5 183.5t46.5 183.5t128 128t183.5 46.5t184 -46.5t128.5 -128t46.5 -183.5t-46.5 -183.5t-128.5 -128t-184 -46.5t-183.5 46.5zM553 85.5q69 39.5 108.5 109t39.5 155.5t-39.5 155.5t-108.5 109t-154 39.5t-154 -39.5t-108 -109
t-39 -155.5t39 -155.5t108 -109t154 -39.5t154 39.5zM266 207q-53 55 -53 145q0 59 24 105t68 71t100 25q65 0 111 -35.5t57 -95.5l-60 -13q-8 42 -36.5 65.5t-71.5 23.5q-60 0 -95 -39.5t-35 -106.5q0 -68 34.5 -106.5t95.5 -38.5q43 0 70.5 22t36.5 63l61 -12
q-14 -60 -59 -94t-109 -34q-86 0 -139 55z" />
    <glyph glyph-name="registered" unicode="&#xae;" horiz-adv-x="799" 
d="M215.5 38.5q-81.5 46.5 -128 128t-46.5 183.5t46.5 183.5t128 128t183.5 46.5t184 -46.5t128.5 -128t46.5 -183.5t-46.5 -183.5t-128.5 -128t-184 -46.5t-183.5 46.5zM553 85.5q69 39.5 108.5 109t39.5 155.5t-39.5 155.5t-108.5 109t-154 39.5t-154 -39.5t-108 -109
t-39 -155.5t39 -155.5t108 -109t154 -39.5t154 39.5zM574 164h-66l-107 170h-78v-170h-58v391h141q56 0 90.5 -30.5t34.5 -80.5q0 -35 -18 -61t-51 -38zM323 501v-113h78q34 0 52.5 15t18.5 41q0 28 -18 42.5t-53 14.5h-78z" />
    <glyph glyph-name="uni2117" unicode="&#x2117;" horiz-adv-x="799" 
d="M215.5 38.5q-81.5 46.5 -128 128t-46.5 183.5t46.5 183.5t128 128t183.5 46.5t184 -46.5t128.5 -128t46.5 -183.5t-46.5 -183.5t-128.5 -128t-184 -46.5t-183.5 46.5zM553 85.5q69 39.5 108.5 109t39.5 155.5t-39.5 155.5t-108.5 109t-154 39.5t-154 -39.5t-108 -109
t-39 -155.5t39 -155.5t108 -109t154 -39.5t154 39.5zM343 323v-159h-58v391h139q56 0 91.5 -32t35.5 -84t-35.5 -84t-91.5 -32h-81zM343 501v-124h79q33 0 52 16.5t19 45.5t-19 45.5t-52 16.5h-79z" />
    <glyph glyph-name="trademark" unicode="&#x2122;" horiz-adv-x="714" 
d="M174 350h-61v297h-107v53h276v-53h-108v-297zM377 350h-58v350h70l110 -263l111 263h69v-350h-57v237l-99 -237h-47l-99 237v-237z" />
    <glyph glyph-name="degree" unicode="&#xb0;" horiz-adv-x="341" 
d="M78.5 493.5q-37.5 37.5 -37.5 89.5q0 55 37.5 92t90.5 37q55 0 93 -37t38 -92q0 -34 -17.5 -63.5t-47.5 -47t-66 -17.5q-53 1 -90.5 38.5zM216.5 536q18.5 19 18.5 47q0 29 -18.5 47.5t-47.5 18.5q-28 0 -46 -18.5t-18 -47.5t18 -47.5t46 -18.5q29 0 47.5 19z" />
    <glyph glyph-name="bar" unicode="|" horiz-adv-x="237" 
d="M164 -50h-91v800h91v-800z" />
    <glyph glyph-name="brokenbar" unicode="&#xa6;" horiz-adv-x="237" 
d="M164 401h-91v349h91v-349zM164 -50h-91v349h91v-349z" />
    <glyph glyph-name="dagger" unicode="&#x2020;" horiz-adv-x="354" 
d="M217 207h-80v285h-126v69h126v139h80v-139h125v-69h-125v-285z" />
    <glyph glyph-name="daggerdbl" unicode="&#x2021;" horiz-adv-x="354" 
d="M342 561v-69h-125v-284h125v-69h-125v-139h-80v139h-126v69h126v284h-126v69h126v139h80v-139h125z" />
    <glyph glyph-name="uni2116" unicode="&#x2116;" horiz-adv-x="1245" 
d="M162 0h-89v700h101l353 -557v557h89v-700h-101l-353 555v-555zM813.5 228.5q-58.5 33.5 -91 92.5t-32.5 134t32.5 134t91 92.5t132.5 33.5t132.5 -33.5t91.5 -92.5t33 -134t-33 -134t-91.5 -92.5t-132.5 -33.5t-132.5 33.5zM1068 322.5q47 51.5 47 132.5t-47 132.5
t-122 51.5t-122 -51.5t-47 -132.5t47 -132.5t122 -51.5t122 51.5zM1173 7h-452v75h452v-75z" />
    <glyph glyph-name="at.case" horiz-adv-x="911" 
d="M567 509h72v-275q0 -28 17 -46t40 -18q44 0 71 47.5t27 126.5q0 85 -43 152.5t-118.5 106t-169.5 38.5q-98 0 -177 -44t-124 -121t-45 -173q0 -101 44 -179t123 -121.5t182 -43.5q71 0 132.5 18.5t133.5 57.5l30 -71q-82 -40 -151 -57.5t-146 -17.5q-124 0 -219.5 52
t-149 146t-53.5 216q0 115 54.5 208t150.5 146t215 53q115 0 207.5 -47.5t145.5 -131t53 -187.5q0 -74 -22 -129.5t-61.5 -86t-91.5 -30.5q-38 0 -68 17.5t-44 48.5q-19 -33 -57 -52t-88 -19q-90 0 -144 57t-54 154q0 60 25.5 108.5t71 75.5t103.5 27q37 0 72 -16.5
t56 -42.5v53zM537 197q36 40 36 107t-35.5 107t-94.5 40t-94.5 -40t-35.5 -107t35 -107t93 -40q60 0 96 40z" />
    <glyph glyph-name="uni02BC" unicode="&#x2bc;" horiz-adv-x="220" 
d="M101 560h-51l32 174h88z" />
    <glyph glyph-name="uni0308" unicode="&#x308;" 
d="M-325.5 612.5q-16.5 16.5 -16.5 40.5q0 25 16.5 41.5t40.5 16.5q26 0 43 -16.5t17 -41.5q0 -24 -17.5 -40.5t-42.5 -16.5q-24 0 -40.5 16.5zM-148.5 612.5q-16.5 16.5 -16.5 40.5q0 25 16.5 41.5t41.5 16.5t42 -16.5t17 -41.5q0 -24 -17 -40.5t-42 -16.5t-41.5 16.5z" />
    <glyph glyph-name="uni0307" unicode="&#x307;" 
d="M-153 616q-17 17 -17 42q0 26 17 43t42 17q26 0 43.5 -17t17.5 -43q0 -25 -17.5 -42t-43.5 -17q-25 0 -42 17z" />
    <glyph glyph-name="gravecomb" unicode="&#x300;" 
d="M-145 708l72 -148h-62l-117 148h107z" />
    <glyph glyph-name="acutecomb" unicode="&#x301;" 
d="M-167 560h-62l72 148h107z" />
    <glyph glyph-name="uni030B" unicode="&#x30b;" 
d="M-269 560h-73l72 148h82zM-132 560h-73l72 148h83z" />
    <glyph glyph-name="uni030C.alt" 
d="M-119 560h-51l32 174h88z" />
    <glyph glyph-name="uni0302" unicode="&#x302;" 
d="M-351 560l116 148h69l116 -148h-68l-82 90l-83 -90h-68z" />
    <glyph glyph-name="uni030C" unicode="&#x30c;" 
d="M-166 560h-69l-116 148h68l83 -89l82 89h68z" />
    <glyph glyph-name="uni0306" unicode="&#x306;" 
d="M-271.5 593q-36.5 36 -36.5 91h68q0 -28 17 -46t43 -18q27 0 44.5 18t17.5 46h68q0 -55 -37 -91t-93 -36q-55 0 -91.5 36z" />
    <glyph glyph-name="uni030A" unicode="&#x30a;" 
d="M-237 572.5q-31 29.5 -31 73.5t31.5 73t77.5 29q47 0 78 -29t31 -73t-31 -73.5t-78 -29.5t-78 29.5zM-120.5 608.5q15.5 14.5 15.5 37.5q0 22 -15.5 36.5t-38.5 14.5t-38 -14.5t-15 -36.5q0 -23 15 -37.5t38 -14.5t38.5 14.5z" />
    <glyph glyph-name="tildecomb" unicode="&#x303;" 
d="M-401 595q1 46 30.5 75t76.5 29q38 0 75 -27q23 -15 34.5 -21t27.5 -6q40 0 45 50l62 -11q-2 -47 -31.5 -75.5t-75.5 -28.5q-34 0 -75 26q-5 3 -17.5 12t-23 13t-21.5 4q-19 0 -31.5 -13t-14.5 -37z" />
    <glyph glyph-name="uni0304" unicode="&#x304;" 
d="M-50 591h-267v70h267v-70z" />
    <glyph glyph-name="uni0312" unicode="&#x312;" 
d="M-114 708h64l-29 -148h-95z" />
    <glyph glyph-name="uni0326" unicode="&#x326;" 
d="M-130 -190h-62l44 148h98z" />
    <glyph glyph-name="uni0327" unicode="&#x327;" 
d="M-92 29l42 -28l-72 -148h-107z" />
    <glyph glyph-name="uni0328" unicode="&#x328;" 
d="M-180.5 -162.5q-31.5 27.5 -31.5 71.5q0 23 14.5 51.5t35.5 47.5l72 -8q-19 -20 -31 -40.5t-12 -36.5q0 -19 11.5 -29.5t30.5 -10.5q21 0 31 2l10 -70q-28 -5 -49 -5q-50 0 -81.5 27.5z" />
    <glyph glyph-name="uni0335" unicode="&#x335;" 
d="M-50 574h-302v64h302v-64z" />
    <glyph glyph-name="uni0336" unicode="&#x336;" 
d="M-50 524h-683v73h683v-73z" />
    <glyph glyph-name="dieresis" unicode="&#xa8;" horiz-adv-x="392" 
d="M66.5 612.5q-16.5 16.5 -16.5 40.5q0 25 16.5 41.5t40.5 16.5q26 0 43 -16.5t17 -41.5q0 -24 -17.5 -40.5t-42.5 -16.5q-24 0 -40.5 16.5zM243.5 612.5q-16.5 16.5 -16.5 40.5q0 25 16.5 41.5t41.5 16.5t42 -16.5t17 -41.5q0 -24 -17 -40.5t-42 -16.5t-41.5 16.5z" />
    <glyph glyph-name="dotaccent" unicode="&#x2d9;" horiz-adv-x="220" 
d="M67 616q-17 17 -17 42q0 26 17 43t42 17q26 0 43.5 -17t17.5 -43q0 -25 -17.5 -42t-43.5 -17q-25 0 -42 17z" />
    <glyph glyph-name="grave" unicode="`" horiz-adv-x="279" 
d="M134 708l72 -148h-62l-117 148h107z" />
    <glyph glyph-name="acute" unicode="&#xb4;" horiz-adv-x="279" 
d="M112 560h-62l72 148h107z" />
    <glyph glyph-name="hungarumlaut" unicode="&#x2dd;" horiz-adv-x="392" 
d="M123 560h-73l72 148h82zM260 560h-73l72 148h83z" />
    <glyph glyph-name="circumflex" unicode="&#x2c6;" horiz-adv-x="401" 
d="M50 560l116 148h69l116 -148h-68l-82 90l-83 -90h-68z" />
    <glyph glyph-name="caron" unicode="&#x2c7;" horiz-adv-x="401" 
d="M235 560h-69l-116 148h68l83 -89l82 89h68z" />
    <glyph glyph-name="breve" unicode="&#x2d8;" horiz-adv-x="358" 
d="M86.5 593q-36.5 36 -36.5 91h68q0 -28 17 -46t43 -18q27 0 44.5 18t17.5 46h68q0 -55 -37 -91t-93 -36q-55 0 -91.5 36z" />
    <glyph glyph-name="ring" unicode="&#x2da;" horiz-adv-x="318" 
d="M81 572.5q-31 29.5 -31 73.5t31.5 73t77.5 29q47 0 78 -29t31 -73t-31 -73.5t-78 -29.5t-78 29.5zM197.5 608.5q15.5 14.5 15.5 37.5q0 22 -15.5 36.5t-38.5 14.5t-38 -14.5t-15 -36.5q0 -23 15 -37.5t38 -14.5t38.5 14.5z" />
    <glyph glyph-name="tilde" unicode="&#x2dc;" horiz-adv-x="451" 
d="M50 595q1 46 30.5 75t76.5 29q38 0 75 -27q23 -15 34.5 -21t27.5 -6q40 0 45 50l62 -11q-2 -47 -31.5 -75.5t-75.5 -28.5q-34 0 -75 26q-5 3 -17.5 12t-23 13t-21.5 4q-19 0 -31.5 -13t-14.5 -37z" />
    <glyph glyph-name="macron" unicode="&#xaf;" horiz-adv-x="367" 
d="M317 591h-267v70h267v-70z" />
    <glyph glyph-name="cedilla" unicode="&#xb8;" horiz-adv-x="279" 
d="M187 29l42 -28l-72 -148h-107z" />
    <glyph glyph-name="ogonek" unicode="&#x2db;" horiz-adv-x="262" 
d="M81.5 -162.5q-31.5 27.5 -31.5 71.5q0 23 14.5 51.5t35.5 47.5l72 -8q-19 -20 -31 -40.5t-12 -36.5q0 -19 11.5 -29.5t30.5 -10.5q21 0 31 2l10 -70q-28 -5 -49 -5q-50 0 -81.5 27.5z" />
    </font>
</defs>
</svg>
