<svg xmlns="http://www.w3.org/2000/svg" width="202" height="31.71" viewBox="0 0 202 31.71">
    <g>
        <path d="M0 1.1h11.614c5.914 0 9.762 3.491 9.762 8.907s-3.848 8.835-9.762 8.835H3.99v12.825H0zm11.472 14.179c3.634 0 5.771-2 5.771-5.273s-2.138-5.344-5.771-5.344H3.99v10.617z" transform="translate(0 .001) translate(0 -.317)"/>
        <path d="M52.4 35.117h-3.71v-4.133a8.764 8.764 0 0 1-7.553 4.489 7.463 7.463 0 0 1-7.837-7.766V13.1h3.705v13.894c0 2.993 1.853 5.13 4.988 5.13s6.7-3.563 6.7-9.334V13.1H52.4z" transform="translate(0 .001) translate(-9.573 -3.766)"/>
        <path d="M76.147 16.091c-3.491 0-6.341 3.349-6.341 10.474v8.408H66.1V12.956h3.705v4.489c1.283-2.779 4.133-4.845 6.84-4.845a7.482 7.482 0 0 1 2.565.428l-.285 3.563a7.125 7.125 0 0 0-2.778-.5z" transform="translate(0 .001) translate(-19.002 -3.623)"/>
        <path d="M167.547 16.091c-3.491 0-6.341 3.349-6.341 10.474v8.408H157.5V12.956h3.705v4.489c1.283-2.779 4.133-4.845 6.84-4.845a6.769 6.769 0 0 1 2.494.428l-.214 3.563a7.125 7.125 0 0 0-2.779-.5z" transform="translate(0 .001) translate(-45.278 -3.622)"/>
        <path d="M105.591 24.642H88.205c.285 4.489 3.064 7.41 7.054 7.41s5.629-1.568 6.341-4.346l3.42.855c-1.069 4.275-4.7 6.769-9.762 6.769-6.626 0-10.759-5.13-10.759-11.4S88.49 12.6 95.188 12.6s10.474 4.7 10.474 10.332c0 .568-.071 1.353-.071 1.71zm-3.848-3.064a6.2 6.2 0 0 0-6.555-5.843c-3.491 0-5.985 2.138-6.769 5.843z" transform="translate(0 .001) translate(-24.292 -3.623)"/>
        <path d="M114.6 13.1h3.776l6.124 17.671 6.128-17.67h3.848l-8.052 22.017h-3.844z" transform="translate(0 .001) translate(-32.945 -3.766)"/>
        <path d="M146.3 13.1h3.705v22.017H146.3z" transform="translate(0 .001) translate(-42.058 -3.766)"/>
        <path d="M186.784 32.8c-3.776 0-6.484-2.138-6.484-6.983V13.7h3.705v-3.274H180.3V3.8h3.705v6.626h5.843V13.7h-5.843v12.259c0 2.351 1.283 3.491 3.206 3.491a6.7 6.7 0 0 0 2.779-.57l.214 3.349a9.334 9.334 0 0 1-3.42.571z" transform="translate(0 .001) translate(-51.833 -1.093)"/>
        <path d="M217.267 35.117h-3.705v-4.133a8.835 8.835 0 0 1-7.553 4.489c-4.631 0-7.909-3.135-7.909-7.766V13.1h3.776v13.894c0 2.993 1.853 5.13 4.916 5.13s6.769-3.563 6.769-9.334V13.1h3.705z" transform="translate(0 .001) translate(-56.95 -3.766)"/>
        <path d="M248.283 20.865v14.108h-3.634V31.2a8.026 8.026 0 0 1-7.339 4.133c-4.418 0-7.41-2.708-7.41-6.555s3.491-6.484 10.474-7.2l4.275-.5v-.428c0-2.993-2.138-4.916-5.344-4.916s-5.13 1.781-5.486 4.774L230.4 19.8c.641-4.346 4.275-7.2 8.907-7.2s8.976 3.135 8.976 8.265zM244.649 25v-1.071l-4.275.5c-4.418.5-6.769 2-6.769 4.346s1.781 3.491 4.275 3.491c4.275 0 6.769-2.851 6.769-7.266z" transform="translate(0 .001) translate(-66.092 -3.623)"/>
        <path d="M261.7.6h3.705v30.923H261.7z" transform="translate(0 .001) translate(-75.234 -.173)"/>
        <path d="M145.3 2.636A2.494 2.494 0 0 1 147.863 0a2.565 2.565 0 0 1 2.637 2.636 2.565 2.565 0 0 1-2.637 2.564 2.494 2.494 0 0 1-2.563-2.564z" transform="translate(0 .001) translate(-41.769)"/>
        <g>
            <path d="M277.593 8.385l-1.211-2.138h-.926v2.138h-.856V3.4h1.853a1.425 1.425 0 0 1 1.568 1.425 1.282 1.282 0 0 1-.855 1.283l1.354 2.28zm-2.138-2.85h.855c.57 0 .855-.214.855-.713s-.285-.641-.855-.641h-.855z" transform="translate(0 .001) translate(192.737 .498) translate(-271.679 -1.473)"/>
            <path d="M275.132 1.484a3.848 3.848 0 1 1-3.848 3.776 3.776 3.776 0 0 1 3.848-3.776m0-.784a4.631 4.631 0 1 0 4.631 4.56A4.631 4.631 0 0 0 275.132.7z" transform="translate(0 .001) translate(192.737 .498) translate(-270.501 -.7)"/>
        </g>
    </g>
</svg>
