<svg xmlns="http://www.w3.org/2000/svg" width="195.722" height="42.814" viewBox="0 0 195.722 42.814">
  <g id="g10" transform="translate(-33.123 -207.246)">
    <g id="g12" transform="translate(33.123 207.246)">
      <path id="path14" d="M56.167,244.761c.065-.411.082-30.153.02-30.8L41.02,217.572v20.966l-7.806,3.049c-.017-.01-.031-.014-.045-.024s-.026-.021-.027-.032a2.243,2.243,0,0,1-.019-.237q0-12.707,0-25.395a.753.753,0,0,1,.4-.209q11.141-4.172,22.283-8.341a1.144,1.144,0,0,1,.776-.06q6.113,1.774,12.233,3.525c.059.018.119.039.2.066v35.707c-1.171.326-2.332.651-3.493.971q-4.436,1.224-8.872,2.447a1.263,1.263,0,0,1-.827-.03q-10.957-4.049-21.919-8.083a.991.991,0,0,1-.407-.242l22.671,3.111Z" transform="translate(-33.123 -207.246)" fill="#414141"/>
      <path id="path16" d="M207.49,234.239h-3.106V231.75h2.978c.175-.16.126-.312.126-.447,0-.887,0-1.777,0-2.665a6.391,6.391,0,0,1,.677-3.034,5.48,5.48,0,0,1,4.813-3.087,6.5,6.5,0,0,1,2.132.183c.12.033.238.081.37.127V225.4c-.141.07-.238-.043-.347-.086a4.14,4.14,0,0,0-2.436-.223,2.5,2.5,0,0,0-1.764,1.331,3.838,3.838,0,0,0-.425,1.453c-.113,1.265-.034,2.532-.053,3.828h7.112a.524.524,0,0,0,.062-.382c0-.953-.011-1.905.005-2.857a6.015,6.015,0,0,1,1.778-4.379,5.429,5.429,0,0,1,3.448-1.558,6.913,6.913,0,0,1,2.277.14,1.016,1.016,0,0,1,.491.194v2.591a6.136,6.136,0,0,0-1.429-.418,4.026,4.026,0,0,0-1.469.081,2.488,2.488,0,0,0-1.727,1.447,4.209,4.209,0,0,0-.388,1.658c-.024,1.11-.015,2.221-.018,3.332a.94.94,0,0,0,.046.178h4.242v2.493H220.6v15.859h-2.955c-.022-.741-.007-1.495-.01-2.247s0-1.492,0-2.237V234.255H210.46v15.829H207.5c-.024-.562-.007-1.141-.011-1.719s0-1.173,0-1.76V234.239Z" transform="translate(-129.187 -215.8)" fill="#414141"/>
      <path id="path18" d="M144.346,239.368a16.308,16.308,0,0,1,1.482-7.075,11.042,11.042,0,0,1,8.1-6.249,13.065,13.065,0,0,1,6.611.224,10.971,10.971,0,0,1,7.265,6.895,17.649,17.649,0,0,1,.02,11.435,11.069,11.069,0,0,1-9.109,7.588,12.822,12.822,0,0,1-7.348-.819,11.117,11.117,0,0,1-6.1-6.6,15.679,15.679,0,0,1-.925-5.4Zm21.256-.424c-.019-.359-.031-.883-.074-1.4a12.206,12.206,0,0,0-1.151-4.487,7.778,7.778,0,0,0-4.322-4.022,9.152,9.152,0,0,0-3.036-.547,8.412,8.412,0,0,0-7.928,4.351,11.217,11.217,0,0,0-1.487,4.823,13.769,13.769,0,0,0,.82,6.4,8.461,8.461,0,0,0,4.607,4.893,9.071,9.071,0,0,0,4.442.623,8.079,8.079,0,0,0,7.1-4.995A13.691,13.691,0,0,0,165.6,238.945Z" transform="translate(-95.51 -217.612)" fill="#414141"/>
      <path id="path20" d="M416.715,226.52v2.68c-.122.083-.214,0-.31-.046a9.406,9.406,0,0,0-3.308-.848,6.207,6.207,0,0,0-5.207,1.974,9.8,9.8,0,0,0-2.133,3.732,17.6,17.6,0,0,0-.781,5.368c.215-.04.228-.224.3-.346a6.055,6.055,0,0,1,2.757-2.61,6.3,6.3,0,0,1,2.209-.547,8.369,8.369,0,0,1,3.208.334,6.6,6.6,0,0,1,4.32,4.255,9.619,9.619,0,0,1-.13,6.934,7.759,7.759,0,0,1-7.855,4.984,6.972,6.972,0,0,1-5.651-3.063,11.3,11.3,0,0,1-1.824-4.407,23.362,23.362,0,0,1-.3-6.632,19.109,19.109,0,0,1,1.439-6.032,11.292,11.292,0,0,1,3.394-4.582,8.793,8.793,0,0,1,5.441-1.882,12.5,12.5,0,0,1,3.452.378A5.438,5.438,0,0,1,416.715,226.52ZM405.164,244a6.672,6.672,0,0,0,1.658,4.284,4.7,4.7,0,0,0,5.48,1.192,4.753,4.753,0,0,0,2.691-3.215,7.734,7.734,0,0,0-.092-4.635,4.411,4.411,0,0,0-2.7-2.949,5.344,5.344,0,0,0-3.236-.166C406.685,239.092,405.151,241.154,405.164,244Z" transform="translate(-239.98 -217.645)" fill="#414141"/>
      <path id="path22" d="M446.312,239.626q.434-6.347.874-12.792h11.92V229.4a.111.111,0,0,1-.021.026.11.11,0,0,1-.041.024.308.308,0,0,1-.092.02h-9.183c-.194,2.5-.361,4.99-.519,7.469a.874.874,0,0,0,.511.044,21.807,21.807,0,0,1,3.717.057,8.622,8.622,0,0,1,4.319,1.753,6.472,6.472,0,0,1,2.353,4.021,9.282,9.282,0,0,1-.3,4.837,7.638,7.638,0,0,1-4.838,4.731,11.921,11.921,0,0,1-4.514.591,12.5,12.5,0,0,1-3.389-.49,6.5,6.5,0,0,1-1.055-.436c-.133-.069-.236-.141-.235-.319.006-.948,0-1.9,0-2.872a.561.561,0,0,1,.362.141,9.948,9.948,0,0,0,4.209,1.428,7.222,7.222,0,0,0,3.737-.53,5.048,5.048,0,0,0,3.11-4.29,6.165,6.165,0,0,0-.151-2.313,4.668,4.668,0,0,0-2.891-3.2,7.8,7.8,0,0,0-2.742-.569,33.537,33.537,0,0,0-4.816.159.369.369,0,0,1-.329-.055Z" transform="translate(-264.612 -218.233)" fill="#414141"/>
      <path id="path24" d="M323.275,252.843H310.31a6.4,6.4,0,0,0,.18,1.858,5.827,5.827,0,0,0,1.089,2.458,5.156,5.156,0,0,0,3.532,1.959,8.871,8.871,0,0,0,6.418-1.59c.117-.08.238-.155.358-.23.011-.008.029,0,.048,0,.088.128.044.274.047.412,0,.6-.019,1.207.009,1.808a.713.713,0,0,1-.4.722,9.31,9.31,0,0,1-3.045,1.2,12.688,12.688,0,0,1-4.932.109A7.286,7.286,0,0,1,308,256.829a10.556,10.556,0,0,1-.719-3.092,12.517,12.517,0,0,1,.532-5.355,8.518,8.518,0,0,1,4.3-5.11,8.146,8.146,0,0,1,6.625-.29,6.551,6.551,0,0,1,3.882,4.079,10.744,10.744,0,0,1,.651,3.395c.034.772.007,1.547.007,2.386Zm-3.034-2.528a6.24,6.24,0,0,0-.994-3.638,3.471,3.471,0,0,0-1.642-1.333,4.876,4.876,0,0,0-4.731.494,6.38,6.38,0,0,0-2.555,4.478Z" transform="translate(-186.86 -226.974)" fill="#414141"/>
      <path id="path26" d="M363.495,239.816v-2.389a1.153,1.153,0,0,1,.539-.05c.986-.01,1.974.023,2.958-.084a7.933,7.933,0,0,0,2.4-.59,3.94,3.94,0,0,0,2.469-3.553,6.145,6.145,0,0,0-.128-1.939,3.575,3.575,0,0,0-3-2.776,8.023,8.023,0,0,0-6.157,1.19c-.107.068-.212.141-.317.212-.09.061-.181.122-.345.234,0-.525-.008-.988-.011-1.45s0-.918,0-1.387a9.161,9.161,0,0,1,2.782-1.125,11.5,11.5,0,0,1,5.529-.054,6.078,6.078,0,0,1,4.15,3.232,6.471,6.471,0,0,1,.5,3.626,6.4,6.4,0,0,1-.575,2.1,5.931,5.931,0,0,1-2.923,2.823c-.386.184-.794.321-1.194.479-.1.039-.224.027-.295.176a10.133,10.133,0,0,1,1.784.42,5.74,5.74,0,0,1,3.96,4.052,6.936,6.936,0,0,1-2.122,7.149,8.334,8.334,0,0,1-4.386,2.056,14.126,14.126,0,0,1-6.239-.306,7.837,7.837,0,0,1-1.707-.725.42.42,0,0,1-.269-.4c.011-.919.008-1.839.012-2.76,0-.025.029-.05.062-.1l.42.285a9.427,9.427,0,0,0,7.737,1.408,5.066,5.066,0,0,0,2.031-1.016,4.318,4.318,0,0,0,1.631-3.114,5.7,5.7,0,0,0-.154-1.982,4.04,4.04,0,0,0-1.87-2.484,7.463,7.463,0,0,0-2.737-.926,24.881,24.881,0,0,0-3.953-.181,1.358,1.358,0,0,1-.587-.048Z" transform="translate(-216.98 -217.622)" fill="#414141"/>
      <path id="path28" d="M284.723,243.427v2.933c-.2,0-.322-.141-.466-.226a7.456,7.456,0,0,0-4.322-1.11,5.935,5.935,0,0,0-5.076,3.214,7.17,7.17,0,0,0-.881,2.843,9.647,9.647,0,0,0,.338,4.047,5.8,5.8,0,0,0,5.6,4.112,7.478,7.478,0,0,0,4.326-1.262,1.149,1.149,0,0,1,.44-.243v2.722a.751.751,0,0,1-.322.211,9.83,9.83,0,0,1-8.706.21,7.688,7.688,0,0,1-4.189-4.769,11.129,11.129,0,0,1,.554-8.741,8.488,8.488,0,0,1,7-4.8,10.5,10.5,0,0,1,4.893.485A4.149,4.149,0,0,1,284.723,243.427Z" transform="translate(-166.453 -227.009)" fill="#414141"/>
      <path id="path30" d="M260.179,261.907h-2.832c-.107-.359-.148-17.359-.052-18.31a17.1,17.1,0,0,1,2.883-.036C260.244,243.929,260.252,261.4,260.179,261.907Z" transform="translate(-158.836 -227.591)" fill="#414141"/>
      <path id="path32" d="M256.364,226.07a1.944,1.944,0,0,1,3.887.092,1.933,1.933,0,0,1-2,1.872A1.871,1.871,0,0,1,256.364,226.07Z" transform="translate(-158.343 -216.757)" fill="#414141"/>
    </g>
  </g>
</svg>
