<?xml version="1.0" encoding="utf-8"?>
<!-- Generator: Adobe Illustrator 22.0.0, SVG Export Plug-In . SVG Version: 6.00 Build 0)  -->
<svg version="1.1" id="Layer_1" xmlns="http://www.w3.org/2000/svg" xmlns:xlink="http://www.w3.org/1999/xlink" x="0px" y="0px"
	 viewBox="0 0 680 695" style="enable-background:new 0 0 680 695;" xml:space="preserve">
<style type="text/css">
	.st0{fill:#F7F7F7;}
	.st1{fill:#95A5A5;}
	.st2{opacity:0.18;enable-background:new    ;}
	.st3{fill:#EEF0F0;}
	.st4{enable-background:new    ;}
	.st5{fill:#FFFFFF;}
	.st6{fill:#182B39;}
</style>
<g id="about-diagram" transform="translate(-861 -6722)">
	<g id="Ellipse_134" transform="translate(1101 6722)">
		<g>
			<circle class="st0" cx="99" cy="99" r="99"/>
		</g>
		<g>
			<path class="st1" d="M99,198c-54.6,0-99-44.4-99-99S44.4,0,99,0s99,44.4,99,99S153.6,198,99,198z M99,1C45,1,1,45,1,99
				s44,98,98,98c54,0,98-44,98-98S153,1,99,1z"/>
		</g>
	</g>
	<g id="Ellipse_73" class="st2">
		<circle class="st1" cx="1201.5" cy="6999.5" r="28.5"/>
	</g>
	<g id="Rectangle_167" transform="translate(1297 6960)">
		<g>
			<path class="st3" d="M5,0h234c2.8,0,5,2.2,5,5v68c0,2.8-2.2,5-5,5H5c-2.8,0-5-2.2-5-5V5C0,2.2,2.2,0,5,0z"/>
		</g>
		<g>
			<path class="st1" d="M239,78H5c-2.8,0-5-2.2-5-5V5c0-2.8,2.2-5,5-5h234c2.8,0,5,2.2,5,5v68C244,75.8,241.8,78,239,78z M5,1
				C2.8,1,1,2.8,1,5v68c0,2.2,1.8,4,4,4h234c2.2,0,4-1.8,4-4V5c0-2.2-1.8-4-4-4H5z"/>
		</g>
	</g>
	<g id="Line_304">
		<rect x="1201" y="7019.5" class="st1" width="1" height="98"/>
	</g>
	<g id="Line_307">
		<rect x="1201" y="7183.5" class="st1" width="1" height="41"/>
	</g>
	<g id="Line_309">
		<rect x="1201" y="7299.5" class="st1" width="1" height="41"/>
	</g>
	<g class="st4">
		<path d="M1320.4,7005v-12.6h1.6v12.6H1320.4z"/>
		<path d="M1327.7,7005v-11.1h-4v-1.5h9.7v1.5h-4v11.1H1327.7z"/>
		<path d="M1339.3,7005v-12.6h2l4.3,10.2l4.2-10.2h2v12.6h-1.6v-9.5l-3.9,9.5h-1.4l-3.9-9.5v9.5H1339.3z"/>
		<path d="M1353.8,7000.5c0-2.7,1.9-4.7,4.6-4.7c2.7,0,4.6,2,4.6,4.7s-1.9,4.7-4.6,4.7C1355.7,7005.1,1353.8,7003.2,1353.8,7000.5z
			 M1361.4,7000.5c0-1.9-1.2-3.3-3-3.3s-3,1.4-3,3.3c0,1.9,1.2,3.3,3,3.3S1361.4,7002.4,1361.4,7000.5z"/>
		<path d="M1365,7005v-9.1h1.5v1.7c0.6-1.1,1.7-1.9,3.1-1.9c1.9,0,3.2,1.3,3.2,3.2v6h-1.5v-5.7c0-1.2-0.8-2.1-2.1-2.1
			c-1.7,0-2.8,1.5-2.8,3.9v4H1365z"/>
		<path d="M1375,6993.2c0-0.6,0.5-1.1,1.1-1.1c0.6,0,1.1,0.5,1.1,1.1c0,0.6-0.5,1.1-1.1,1.1C1375.5,6994.2,1375,6993.7,1375,6993.2z
			 M1375.3,7005v-9.1h1.5v9.1H1375.3z"/>
		<path d="M1384.2,7004.9c-0.5,0.2-0.9,0.2-1.4,0.2c-1.5,0-2.7-0.9-2.7-2.9v-5h-1.7v-1.3h1.7v-2.8h1.5v2.8h2.4v1.3h-2.4v5.1
			c0,1,0.5,1.4,1.3,1.4c0.4,0,0.8-0.1,1.1-0.2L1384.2,7004.9z"/>
		<path d="M1385.2,7000.5c0-2.7,1.9-4.7,4.6-4.7c2.7,0,4.6,2,4.6,4.7s-1.9,4.7-4.6,4.7C1387.1,7005.1,1385.2,7003.2,1385.2,7000.5z
			 M1392.8,7000.5c0-1.9-1.2-3.3-3-3.3s-3,1.4-3,3.3c0,1.9,1.2,3.3,3,3.3S1392.8,7002.4,1392.8,7000.5z"/>
		<path d="M1401.7,6997.4c-0.3-0.1-0.8-0.2-1.2-0.2c-1.4,0-2.6,1.4-2.6,4.3v3.5h-1.5v-9.1h1.5v1.8c0.5-1.2,1.7-2,2.8-2
			c0.4,0,0.7,0.1,1,0.2L1401.7,6997.4z"/>
		<path d="M1403,6993.2c0-0.6,0.4-1.1,1.1-1.1c0.6,0,1.1,0.5,1.1,1.1c0,0.6-0.5,1.1-1.1,1.1C1403.4,6994.2,1403,6993.7,1403,6993.2z
			 M1403.3,7005v-9.1h1.5v9.1H1403.3z"/>
		<path d="M1407.3,7005v-9.1h1.5v1.7c0.6-1.1,1.7-1.9,3.1-1.9c1.9,0,3.2,1.3,3.2,3.2v6h-1.5v-5.7c0-1.2-0.8-2.1-2.1-2.1
			c-1.7,0-2.8,1.5-2.8,3.9v4H1407.3z"/>
		<path d="M1424.4,6995.9h1.5v8.6c0,2.3-1.7,3.9-4.2,3.9c-2.1,0-3.7-1.1-4-2.8l1.5-0.3c0.1,1,1.2,1.7,2.5,1.7c1.6,0,2.7-1,2.7-2.4
			v-1.3c-0.4,0.8-1.6,1.3-2.9,1.3c-2.8,0-4.3-1.9-4.3-4.5c0-2.6,1.5-4.5,4.3-4.5c1.2,0,2.4,0.6,2.9,1.4V6995.9z M1424.5,7000.3
			c0-1.9-1.1-3.1-2.9-3.1c-1.8,0-2.9,1.2-2.9,3.1c0,1.9,1.1,3.1,2.9,3.1C1423.3,7003.4,1424.5,7002.2,1424.5,7000.3z"/>
		<path d="M1443.1,7005h-2l-1.2-1.4c-1,0.9-2.2,1.5-3.6,1.5c-2.4,0-4-1.4-4-3.7c0-1.9,1.3-2.8,2.6-3.4c-1-1.2-1.4-1.9-1.4-2.8
			c0-1.8,1.2-3,3.1-3c1.9,0,3.1,1.2,3.1,3c0,1.7-1.2,2.5-2.4,3.2l2.6,2.9l1.7-1.9l1.2,1.1l-1.8,2.1L1443.1,7005z M1438.9,7002.4
			l-2.9-3.3c-1.1,0.6-2,1.2-2,2.3c0,1.3,1,2.3,2.5,2.3C1437.3,7003.7,1438.1,7003.2,1438.9,7002.4z M1436.4,6997.3
			c1.1-0.5,1.9-1.1,1.9-2.1c0-0.9-0.7-1.5-1.6-1.5c-0.9,0-1.6,0.6-1.6,1.5C1435.1,6995.8,1435.6,6996.4,1436.4,6997.3z"/>
		<path d="M1448.2,7001.3l1.5-0.5c0.3,1.8,1.6,2.9,3.3,2.9c1.7,0,2.8-0.8,2.8-2.1c0-3.4-7.2-1.6-7.2-6.1c0-2,1.8-3.3,4.2-3.3
			c2.3,0,4.1,1.2,4.4,3.1l-1.5,0.6c-0.3-1.4-1.3-2.2-2.9-2.2c-1.6,0-2.6,0.7-2.6,1.8c0,2.9,7.2,1,7.2,6c0,2.1-1.8,3.5-4.6,3.5
			C1450.5,7005.1,1448.6,7003.6,1448.2,7001.3z"/>
		<path d="M1467.3,6995.9v9.1h-1.5v-1.7c-0.6,1.1-1.7,1.9-3.1,1.9c-1.9,0-3.2-1.3-3.2-3.2v-6h1.5v5.7c0,1.2,0.8,2.1,2.1,2.1
			c1.7,0,2.8-1.5,2.8-3.9v-4H1467.3z"/>
		<path d="M1469.8,7008.3v-12.4h1.5v1.3c0.5-0.8,1.7-1.5,3-1.5c2.8,0,4.3,2,4.3,4.7c0,2.7-1.6,4.7-4.4,4.7c-1.2,0-2.3-0.6-3-1.4v4.5
			H1469.8z M1477.1,7000.5c0-2-1.2-3.3-3-3.3c-1.8,0-2.9,1.3-2.9,3.3c0,2,1.2,3.3,2.9,3.3C1476,7003.8,1477.1,7002.5,1477.1,7000.5z
			"/>
		<path d="M1480.6,7008.3v-12.4h1.5v1.3c0.5-0.8,1.7-1.5,3-1.5c2.8,0,4.3,2,4.3,4.7c0,2.7-1.6,4.7-4.4,4.7c-1.2,0-2.3-0.6-3-1.4v4.5
			H1480.6z M1487.9,7000.5c0-2-1.2-3.3-3-3.3c-1.8,0-2.9,1.3-2.9,3.3c0,2,1.2,3.3,2.9,3.3
			C1486.8,7003.8,1487.9,7002.5,1487.9,7000.5z"/>
		<path d="M1490.9,7000.5c0-2.7,1.9-4.7,4.6-4.7c2.7,0,4.6,2,4.6,4.7s-1.9,4.7-4.6,4.7C1492.8,7005.1,1490.9,7003.2,1490.9,7000.5z
			 M1498.6,7000.5c0-1.9-1.2-3.3-3-3.3s-3,1.4-3,3.3c0,1.9,1.2,3.3,3,3.3S1498.6,7002.4,1498.6,7000.5z"/>
		<path d="M1507.4,6997.4c-0.3-0.1-0.8-0.2-1.2-0.2c-1.4,0-2.6,1.4-2.6,4.3v3.5h-1.5v-9.1h1.5v1.8c0.5-1.2,1.7-2,2.8-2
			c0.4,0,0.7,0.1,1,0.2L1507.4,6997.4z"/>
		<path d="M1514.1,7004.9c-0.5,0.2-0.9,0.2-1.4,0.2c-1.5,0-2.7-0.9-2.7-2.9v-5h-1.7v-1.3h1.7v-2.8h1.5v2.8h2.4v1.3h-2.4v5.1
			c0,1,0.5,1.4,1.3,1.4c0.4,0,0.8-0.1,1.1-0.2L1514.1,7004.9z"/>
		<path d="M1515.9,7004.1c0-0.6,0.5-1.1,1.1-1.1c0.6,0,1.1,0.5,1.1,1.1c0,0.6-0.5,1.1-1.1,1.1
			C1516.4,7005.1,1515.9,7004.7,1515.9,7004.1z"/>
	</g>
	<g id="Line_300">
		<rect x="1099.5" y="6999" class="st1" width="81" height="1"/>
	</g>
	<g id="Line_301">
		<rect x="1219.5" y="6999" class="st1" width="78" height="1"/>
	</g>
	<g id="Ellipse_63" transform="translate(1180 6978)">
		<g>
			<circle class="st0" cx="21.5" cy="21.5" r="21.5"/>
		</g>
		<g>
			<path class="st1" d="M21.5,43C9.6,43,0,33.4,0,21.5S9.6,0,21.5,0C33.4,0,43,9.6,43,21.5S33.4,43,21.5,43z M21.5,1
				C10.2,1,1,10.2,1,21.5S10.2,42,21.5,42S42,32.8,42,21.5S32.8,1,21.5,1z"/>
		</g>
	</g>
	<g id="Rectangle_97" transform="translate(861 6960)">
		<g>
			<path class="st3" d="M5,0h234c2.8,0,5,2.2,5,5v68c0,2.8-2.2,5-5,5H5c-2.8,0-5-2.2-5-5V5C0,2.2,2.2,0,5,0z"/>
		</g>
		<g>
			<path class="st1" d="M239,78H5c-2.8,0-5-2.2-5-5V5c0-2.8,2.2-5,5-5h234c2.8,0,5,2.2,5,5v68C244,75.8,241.8,78,239,78z M5,1
				C2.8,1,1,2.8,1,5v68c0,2.2,1.8,4,4,4h234c2.2,0,4-1.8,4-4V5c0-2.2-1.8-4-4-4H5z"/>
		</g>
	</g>
	<g id="Rectangle_169" transform="translate(1079 7118)">
		<g>
			<path class="st0" d="M5,0h234c2.8,0,5,2.2,5,5v60c0,2.8-2.2,5-5,5H5c-2.8,0-5-2.2-5-5V5C0,2.2,2.2,0,5,0z"/>
		</g>
		<g>
			<path class="st1" d="M239,70H5c-2.8,0-5-2.2-5-5V5c0-2.8,2.2-5,5-5h234c2.8,0,5,2.2,5,5v60C244,67.8,241.8,70,239,70z M5,1
				C2.8,1,1,2.8,1,5v60c0,2.2,1.8,4,4,4h234c2.2,0,4-1.8,4-4V5c0-2.2-1.8-4-4-4H5z"/>
		</g>
	</g>
	<g id="Rectangle_170" transform="translate(1079 7231)">
		<g>
			<path class="st0" d="M5,0h234c2.8,0,5,2.2,5,5v60c0,2.8-2.2,5-5,5H5c-2.8,0-5-2.2-5-5V5C0,2.2,2.2,0,5,0z"/>
		</g>
		<g>
			<path class="st1" d="M239,70H5c-2.8,0-5-2.2-5-5V5c0-2.8,2.2-5,5-5h234c2.8,0,5,2.2,5,5v60C244,67.8,241.8,70,239,70z M5,1
				C2.8,1,1,2.8,1,5v60c0,2.2,1.8,4,4,4h234c2.2,0,4-1.8,4-4V5c0-2.2-1.8-4-4-4H5z"/>
		</g>
	</g>
	<g id="Rectangle_171" transform="translate(1079 7347)">
		<g>
			<path class="st0" d="M5,0h234c2.8,0,5,2.2,5,5v60c0,2.8-2.2,5-5,5H5c-2.8,0-5-2.2-5-5V5C0,2.2,2.2,0,5,0z"/>
		</g>
		<g>
			<path class="st1" d="M239,70H5c-2.8,0-5-2.2-5-5V5c0-2.8,2.2-5,5-5h234c2.8,0,5,2.2,5,5v60C244,67.8,241.8,70,239,70z M5,1
				C2.8,1,1,2.8,1,5v60c0,2.2,1.8,4,4,4h234c2.2,0,4-1.8,4-4V5c0-2.2-1.8-4-4-4H5z"/>
		</g>
	</g>
	<g id="Ellipse_65" transform="translate(1101 6996)">
		<g>
			<circle class="st5" cx="3.5" cy="3.5" r="3.5"/>
		</g>
		<g>
			<path class="st1" d="M3.5,7C1.6,7,0,5.4,0,3.5S1.6,0,3.5,0S7,1.6,7,3.5S5.4,7,3.5,7z M3.5,1C2.1,1,1,2.1,1,3.5S2.1,6,3.5,6
				S6,4.9,6,3.5S4.9,1,3.5,1z"/>
		</g>
	</g>
	<g id="Ellipse_80" transform="translate(1198 7185)">
		<g>
			<circle class="st5" cx="3.5" cy="3.5" r="3.5"/>
		</g>
		<g>
			<path class="st1" d="M3.5,7C1.6,7,0,5.4,0,3.5S1.6,0,3.5,0S7,1.6,7,3.5S5.4,7,3.5,7z M3.5,1C2.1,1,1,2.1,1,3.5S2.1,6,3.5,6
				C4.9,6,6,4.9,6,3.5S4.9,1,3.5,1z"/>
		</g>
	</g>
	<g id="Ellipse_81" transform="translate(1198 7297)">
		<g>
			<circle class="st5" cx="3.5" cy="3.5" r="3.5"/>
		</g>
		<g>
			<path class="st1" d="M3.5,7C1.6,7,0,5.4,0,3.5S1.6,0,3.5,0S7,1.6,7,3.5S5.4,7,3.5,7z M3.5,1C2.1,1,1,2.1,1,3.5S2.1,6,3.5,6
				C4.9,6,6,4.9,6,3.5S4.9,1,3.5,1z"/>
		</g>
	</g>
	<g id="Ellipse_66" transform="translate(1294 6996)">
		<g>
			<circle class="st5" cx="3.5" cy="3.5" r="3.5"/>
		</g>
		<g>
			<path class="st1" d="M3.5,7C1.6,7,0,5.4,0,3.5S1.6,0,3.5,0S7,1.6,7,3.5S5.4,7,3.5,7z M3.5,1C2.1,1,1,2.1,1,3.5S2.1,6,3.5,6
				S6,4.9,6,3.5S4.9,1,3.5,1z"/>
		</g>
	</g>
	<g id="Ellipse_74" class="st2">
		<circle class="st1" cx="1201.5" cy="7231.5" r="13.5"/>
	</g>
	<g id="Ellipse_78" class="st2">
		<circle class="st1" cx="1201.5" cy="7347.5" r="13.5"/>
	</g>
	<g id="Ellipse_72" class="st2">
		<circle class="st1" cx="1201.5" cy="7118.5" r="13.5"/>
	</g>
	<g class="st4">
		<path d="M913.7,6995v-12.6h1.6v12.6H913.7z"/>
		<path d="M920.9,6995v-11.1h-4v-1.5h9.7v1.5h-4v11.1H920.9z"/>
		<path d="M932,6988.7c0-4.3,3-6.4,6.1-6.4c2.8,0,4.8,1.5,5.3,4l-1.6,0.4c-0.4-1.8-1.7-2.9-3.7-2.9c-2.6,0-4.4,1.8-4.4,5
			s1.9,5,4.4,5c2,0,3.2-1,3.7-2.8l1.6,0.3c-0.6,2.4-2.6,3.9-5.3,3.9C934.9,6995.1,932,6993,932,6988.7z"/>
		<path d="M944.8,6990.5c0-2.7,1.9-4.7,4.6-4.7c2.7,0,4.6,2,4.6,4.7s-1.9,4.7-4.6,4.7C946.7,6995.1,944.8,6993.2,944.8,6990.5z
			 M952.5,6990.5c0-1.9-1.2-3.3-3-3.3s-3,1.4-3,3.3c0,1.9,1.2,3.3,3,3.3S952.5,6992.4,952.5,6990.5z"/>
		<path d="M956,6995v-9.1h1.5v1.7c0.6-1.1,1.7-1.9,3.1-1.9c1.9,0,3.2,1.3,3.2,3.2v6h-1.5v-5.7c0-1.2-0.8-2.1-2.1-2.1
			c-1.7,0-2.8,1.5-2.8,3.9v4H956z"/>
		<path d="M965.7,6992.5l1.3-0.6c0.3,1.1,1.1,1.9,2.5,1.9c1.1,0,1.8-0.6,1.8-1.4c0-2.3-5.2-0.8-5.2-4.3c0-1.4,1.2-2.4,3.2-2.4
			c1.6,0,3,0.9,3.4,2.2l-1.3,0.6c-0.3-0.9-1.2-1.5-2.1-1.5c-1,0-1.7,0.4-1.7,1.1c0,1.9,5.3,0.5,5.2,4.3c0,1.6-1.3,2.7-3.3,2.7
			C967.2,6995.1,966,6993.8,965.7,6992.5z"/>
		<path d="M982.6,6985.9v9.1h-1.5v-1.7c-0.6,1.1-1.7,1.9-3.1,1.9c-1.9,0-3.2-1.3-3.2-3.2v-6h1.5v5.7c0,1.2,0.8,2.1,2.1,2.1
			c1.7,0,2.8-1.5,2.8-3.9v-4H982.6z"/>
		<path d="M985.1,6995v-12.7h1.5v12.7H985.1z"/>
		<path d="M993.9,6994.9c-0.5,0.2-0.9,0.2-1.4,0.2c-1.5,0-2.7-0.9-2.7-2.9v-5h-1.7v-1.3h1.7v-2.8h1.5v2.8h2.4v1.3h-2.4v5.1
			c0,1,0.5,1.4,1.3,1.4c0.4,0,0.8-0.1,1.1-0.2L993.9,6994.9z"/>
		<path d="M995.4,6983.2c0-0.6,0.4-1.1,1.1-1.1c0.6,0,1.1,0.5,1.1,1.1c0,0.6-0.5,1.1-1.1,1.1
			C995.8,6984.2,995.4,6983.7,995.4,6983.2z M995.7,6995v-9.1h1.5v9.1H995.7z"/>
		<path d="M999.7,6995v-9.1h1.5v1.7c0.6-1.1,1.7-1.9,3.1-1.9c1.9,0,3.2,1.3,3.2,3.2v6h-1.5v-5.7c0-1.2-0.8-2.1-2.1-2.1
			c-1.7,0-2.8,1.5-2.8,3.9v4H999.7z"/>
		<path d="M1016.8,6985.9h1.5v8.6c0,2.3-1.7,3.9-4.2,3.9c-2.1,0-3.7-1.1-4-2.8l1.5-0.3c0.1,1,1.2,1.7,2.5,1.7c1.6,0,2.7-1,2.7-2.4
			v-1.3c-0.4,0.8-1.6,1.3-2.9,1.3c-2.8,0-4.3-1.9-4.3-4.5c0-2.6,1.5-4.5,4.3-4.5c1.2,0,2.4,0.6,2.9,1.4V6985.9z M1016.9,6990.3
			c0-1.9-1.1-3.1-2.9-3.1c-1.8,0-2.9,1.2-2.9,3.1c0,1.9,1.1,3.1,2.9,3.1C1015.8,6993.4,1016.9,6992.2,1016.9,6990.3z"/>
		<path d="M1032.2,6989.2v5.8h-1.5v-1.5c-0.5,1-1.7,1.7-3,1.7c-1.8,0-3.1-1.1-3.1-2.7c0-1.7,1.4-2.7,4.3-3l1.8-0.2v-0.2
			c0-1.2-0.9-2-2.2-2c-1.2,0-2.1,0.7-2.3,2l-1.4-0.3c0.3-1.8,1.8-3,3.7-3C1030.7,6985.8,1032.2,6987.1,1032.2,6989.2z
			 M1030.7,6990.9v-0.4l-1.8,0.2c-1.8,0.2-2.8,0.8-2.8,1.8c0,0.8,0.7,1.4,1.8,1.4C1029.7,6993.9,1030.7,6992.7,1030.7,6990.9z"/>
		<path d="M1034.7,6995v-9.1h1.5v1.7c0.6-1.1,1.7-1.9,3.1-1.9c1.9,0,3.2,1.3,3.2,3.2v6h-1.5v-5.7c0-1.2-0.8-2.1-2.1-2.1
			c-1.7,0-2.8,1.5-2.8,3.9v4H1034.7z"/>
		<path d="M1044.5,6990.5c0-2.7,1.5-4.7,4.4-4.7c1.2,0,2.4,0.6,3,1.4v-5h1.5v12.7h-1.5v-1.3c-0.4,0.8-1.6,1.5-3,1.5
			C1046.1,6995.1,1044.5,6993.1,1044.5,6990.5z M1052,6990.5c0-2-1.2-3.3-3-3.3c-1.8,0-3,1.3-3,3.3c0,2,1.2,3.3,3,3.3
			C1050.8,6993.8,1052,6992.5,1052,6990.5z"/>
	</g>
	<g class="st4">
		<path d="M947.5,7011.3l1.5-0.5c0.3,1.8,1.6,2.9,3.3,2.9c1.7,0,2.8-0.8,2.8-2.1c0-3.4-7.2-1.6-7.2-6.1c0-2,1.8-3.3,4.2-3.3
			c2.3,0,4.1,1.2,4.4,3.1l-1.5,0.6c-0.3-1.4-1.3-2.2-2.9-2.2c-1.6,0-2.6,0.7-2.6,1.8c0,2.9,7.2,1,7.2,6c0,2.1-1.8,3.5-4.6,3.5
			C949.9,7015.1,947.9,7013.6,947.5,7011.3z"/>
		<path d="M963.6,7014.9c-0.5,0.2-0.9,0.2-1.4,0.2c-1.5,0-2.7-0.9-2.7-2.9v-5h-1.7v-1.3h1.7v-2.8h1.5v2.8h2.4v1.3H961v5.1
			c0,1,0.5,1.4,1.3,1.4c0.4,0,0.8-0.1,1.1-0.2L963.6,7014.9z"/>
		<path d="M970.7,7007.4c-0.3-0.1-0.8-0.2-1.2-0.2c-1.4,0-2.6,1.4-2.6,4.3v3.5h-1.5v-9.1h1.5v1.8c0.5-1.2,1.7-2,2.8-2
			c0.4,0,0.7,0.1,1,0.2L970.7,7007.4z"/>
		<path d="M979,7009.2v5.8h-1.5v-1.5c-0.5,1-1.7,1.7-3,1.7c-1.8,0-3.1-1.1-3.1-2.7c0-1.7,1.4-2.7,4.3-3l1.8-0.2v-0.2
			c0-1.2-0.9-2-2.2-2c-1.2,0-2.1,0.7-2.3,2l-1.4-0.3c0.3-1.8,1.8-3,3.7-3C977.5,7005.8,979,7007.1,979,7009.2z M977.5,7010.9v-0.4
			l-1.8,0.2c-1.8,0.2-2.8,0.8-2.8,1.8c0,0.8,0.7,1.4,1.8,1.4C976.5,7013.9,977.5,7012.7,977.5,7010.9z"/>
		<path d="M986.3,7014.9c-0.5,0.2-0.9,0.2-1.4,0.2c-1.5,0-2.7-0.9-2.7-2.9v-5h-1.7v-1.3h1.7v-2.8h1.5v2.8h2.4v1.3h-2.4v5.1
			c0,1,0.5,1.4,1.3,1.4c0.4,0,0.8-0.1,1.1-0.2L986.3,7014.9z"/>
		<path d="M996,7010.8h-7.2c0.1,1.8,1.3,3,2.9,3c1.4,0,2.3-0.6,2.6-1.8l1.4,0.3c-0.5,1.8-2,2.8-4.1,2.8c-2.7,0-4.4-2.1-4.4-4.7
			c0-2.6,1.7-4.7,4.4-4.7c2.7,0,4.3,1.9,4.3,4.3C996,7010.3,996,7010.6,996,7010.8z M994.4,7009.5c-0.1-1.4-1.1-2.4-2.7-2.4
			c-1.4,0-2.5,0.9-2.8,2.4H994.4z"/>
		<path d="M1004.7,7005.9h1.5v8.6c0,2.3-1.7,3.9-4.2,3.9c-2.1,0-3.7-1.1-4-2.8l1.5-0.3c0.1,1,1.2,1.7,2.5,1.7c1.6,0,2.7-1,2.7-2.4
			v-1.3c-0.4,0.8-1.6,1.3-2.9,1.3c-2.8,0-4.3-1.9-4.3-4.5c0-2.6,1.5-4.5,4.3-4.5c1.2,0,2.4,0.6,2.9,1.4V7005.9z M1004.8,7010.3
			c0-1.9-1.1-3.1-2.9-3.1c-1.8,0-2.9,1.2-2.9,3.1c0,1.9,1.1,3.1,2.9,3.1C1003.7,7013.4,1004.8,7012.2,1004.8,7010.3z"/>
		<path d="M1014.7,7005.9h1.6l-4.8,12.4h-1.6l1.3-3.4l-3.5-8.9h1.7l2.7,6.9L1014.7,7005.9z"/>
		<path d="M1016.6,7014.1c0-0.6,0.5-1.1,1.1-1.1c0.6,0,1.1,0.5,1.1,1.1c0,0.6-0.5,1.1-1.1,1.1
			C1017.1,7015.1,1016.6,7014.7,1016.6,7014.1z"/>
	</g>
	<g class="st4">
		<path d="M1121.6,7146.1l1.2-0.4c0.2,1.4,1.2,2.3,2.5,2.3c1.3,0,2.2-0.6,2.2-1.6c0-2.6-5.6-1.2-5.6-4.7c0-1.5,1.4-2.6,3.3-2.6
			c1.8,0,3.2,1,3.4,2.4l-1.2,0.4c-0.2-1.1-1-1.7-2.3-1.7c-1.3,0-2,0.5-2,1.4c0,2.2,5.6,0.8,5.6,4.7c0,1.7-1.4,2.8-3.6,2.8
			C1123.5,7149.1,1122,7147.9,1121.6,7146.1z"/>
		<path d="M1135.9,7144.5v4.5h-1.2v-1.2c-0.4,0.8-1.3,1.3-2.4,1.3c-1.4,0-2.4-0.9-2.4-2.1c0-1.4,1.1-2.1,3.4-2.3l1.4-0.2v-0.1
			c0-1-0.7-1.6-1.7-1.6c-1,0-1.7,0.6-1.8,1.5l-1.1-0.2c0.2-1.4,1.4-2.3,2.9-2.3C1134.7,7141.8,1135.9,7142.8,1135.9,7144.5z
			 M1134.8,7145.8v-0.3l-1.4,0.2c-1.4,0.2-2.2,0.6-2.2,1.4c0,0.7,0.6,1.1,1.4,1.1C1134,7148.1,1134.8,7147.2,1134.8,7145.8z"/>
		<path d="M1139.4,7149l-2.6-7.1h1.2l2,5.7l2-5.7h1.2l-2.6,7.1H1139.4z"/>
		<path d="M1150.5,7145.7h-5.6c0.1,1.4,1,2.4,2.3,2.4c1.1,0,1.8-0.5,2-1.4l1.1,0.3c-0.4,1.4-1.5,2.2-3.2,2.2c-2.1,0-3.4-1.6-3.4-3.6
			c0-2,1.3-3.6,3.4-3.6c2.1,0,3.4,1.5,3.4,3.3C1150.5,7145.3,1150.5,7145.6,1150.5,7145.7z M1149.3,7144.7c-0.1-1.1-0.9-1.9-2.1-1.9
			c-1.1,0-1.9,0.7-2.2,1.9H1149.3z"/>
		<path d="M1159.5,7143.1c-0.3-0.1-0.6-0.2-0.9-0.2c-1.1,0-2,1.1-2,3.4v2.7h-1.2v-7.1h1.2v1.4c0.4-0.9,1.3-1.5,2.2-1.5
			c0.3,0,0.6,0,0.8,0.1L1159.5,7143.1z"/>
		<path d="M1166.8,7145.7h-5.6c0.1,1.4,1,2.4,2.3,2.4c1.1,0,1.8-0.5,2-1.4l1.1,0.3c-0.4,1.4-1.5,2.2-3.2,2.2c-2.1,0-3.4-1.6-3.4-3.6
			c0-2,1.3-3.6,3.4-3.6c2.1,0,3.4,1.5,3.4,3.3C1166.8,7145.3,1166.8,7145.6,1166.8,7145.7z M1165.6,7144.7c-0.1-1.1-0.9-1.9-2.1-1.9
			c-1.1,0-1.9,0.7-2.2,1.9H1165.6z"/>
		<path d="M1167.7,7147.1l1-0.4c0.3,0.8,0.8,1.5,1.9,1.5c0.9,0,1.4-0.5,1.4-1.1c0-1.8-4.1-0.6-4.1-3.3c0-1.1,1-1.9,2.5-1.9
			c1.2,0,2.3,0.7,2.6,1.7l-1,0.4c-0.2-0.7-0.9-1.2-1.7-1.2c-0.8,0-1.3,0.3-1.3,0.9c0,1.5,4.1,0.4,4.1,3.3c0,1.2-1,2.1-2.6,2.1
			C1169,7149.1,1168,7148,1167.7,7147.1z"/>
		<path d="M1174.3,7145.5c0-2.1,1.5-3.6,3.6-3.6c2.1,0,3.6,1.5,3.6,3.6s-1.5,3.6-3.6,3.6C1175.8,7149.1,1174.3,7147.6,1174.3,7145.5
			z M1180.3,7145.5c0-1.5-1-2.6-2.4-2.6c-1.4,0-2.4,1.1-2.4,2.6s1,2.6,2.4,2.6C1179.3,7148,1180.3,7147,1180.3,7145.5z"/>
		<path d="M1189.1,7141.9v7.1h-1.2v-1.3c-0.5,0.8-1.3,1.4-2.4,1.4c-1.5,0-2.5-1-2.5-2.5v-4.7h1.2v4.5c0,1,0.6,1.6,1.6,1.6
			c1.3,0,2.2-1.1,2.2-3v-3.1H1189.1z"/>
		<path d="M1195.2,7143.1c-0.3-0.1-0.6-0.2-0.9-0.2c-1.1,0-2,1.1-2,3.4v2.7h-1.2v-7.1h1.2v1.4c0.4-0.9,1.3-1.5,2.2-1.5
			c0.3,0,0.6,0,0.8,0.1L1195.2,7143.1z"/>
		<path d="M1195.7,7145.5c0-2.2,1.4-3.6,3.5-3.6c1.6,0,2.8,0.9,3.1,2.3l-1.2,0.2c-0.2-0.9-0.9-1.5-1.9-1.5c-1.4,0-2.3,1-2.3,2.6
			c0,1.6,0.9,2.6,2.3,2.6c1,0,1.7-0.5,1.9-1.5l1.2,0.2c-0.3,1.5-1.5,2.3-3.1,2.3C1197.1,7149.1,1195.7,7147.7,1195.7,7145.5z"/>
		<path d="M1210.2,7145.7h-5.6c0.1,1.4,1,2.4,2.3,2.4c1.1,0,1.8-0.5,2-1.4l1.1,0.3c-0.4,1.4-1.5,2.2-3.2,2.2c-2.1,0-3.4-1.6-3.4-3.6
			c0-2,1.3-3.6,3.4-3.6c2.1,0,3.4,1.5,3.4,3.3C1210.2,7145.3,1210.2,7145.6,1210.2,7145.7z M1208.9,7144.7c-0.1-1.1-0.9-1.9-2.1-1.9
			c-1.1,0-1.9,0.7-2.2,1.9H1208.9z"/>
		<path d="M1211.1,7147.1l1-0.4c0.3,0.8,0.8,1.5,1.9,1.5c0.9,0,1.4-0.5,1.4-1.1c0-1.8-4.1-0.6-4.1-3.3c0-1.1,1-1.9,2.5-1.9
			c1.2,0,2.3,0.7,2.6,1.7l-1,0.4c-0.2-0.7-0.9-1.2-1.7-1.2c-0.8,0-1.3,0.3-1.3,0.9c0,1.5,4.1,0.4,4.1,3.3c0,1.2-1,2.1-2.6,2.1
			C1212.3,7149.1,1211.4,7148,1211.1,7147.1z"/>
		<path d="M1222.7,7148v1h-1.2v-9.9h1.2v3.9c0.4-0.7,1.4-1.1,2.3-1.1c2.2,0,3.4,1.6,3.4,3.6s-1.2,3.6-3.4,3.6
			C1223.9,7149.1,1223,7148.6,1222.7,7148z M1227.2,7145.5c0-1.6-0.9-2.6-2.3-2.6s-2.3,1-2.3,2.6c0,1.6,0.9,2.6,2.3,2.6
			S1227.2,7147,1227.2,7145.5z"/>
		<path d="M1234.3,7141.9h1.2l-3.7,9.6h-1.2l1-2.6l-2.8-7h1.3l2.1,5.4L1234.3,7141.9z"/>
		<path d="M1240,7149v-7.1h1.2v1.3c0.4-0.8,1.1-1.4,2.1-1.4c1.1,0,2,0.5,2.3,1.5c0.4-0.8,1.2-1.5,2.3-1.5c1.5,0,2.5,1,2.5,2.4v4.7
			h-1.2v-4.5c0-1-0.5-1.6-1.5-1.6c-1.2,0-1.9,1.1-1.9,2.6v3.5h-1.2v-4.5c0-1-0.5-1.6-1.5-1.6c-1.2,0-1.9,1.1-1.9,2.6v3.5H1240z"/>
		<path d="M1257.9,7144.5v4.5h-1.2v-1.2c-0.4,0.8-1.3,1.3-2.4,1.3c-1.4,0-2.4-0.9-2.4-2.1c0-1.4,1.1-2.1,3.4-2.3l1.4-0.2v-0.1
			c0-1-0.7-1.6-1.7-1.6c-1,0-1.7,0.6-1.8,1.5l-1.1-0.2c0.2-1.4,1.4-2.3,2.9-2.3C1256.7,7141.8,1257.9,7142.8,1257.9,7144.5z
			 M1256.7,7145.8v-0.3l-1.4,0.2c-1.4,0.2-2.2,0.6-2.2,1.4c0,0.7,0.6,1.1,1.4,1.1C1255.9,7148.1,1256.7,7147.2,1256.7,7145.8z"/>
		<path d="M1264.6,7149l-2.7-3.5l-0.9,0.9v2.6h-1.2v-9.9h1.2v5.7l3.3-2.9h1.6l-3,2.8l3.3,4.3H1264.6z"/>
		<path d="M1267,7139.8c0-0.5,0.3-0.8,0.8-0.8c0.5,0,0.9,0.4,0.9,0.8c0,0.5-0.4,0.8-0.9,0.8C1267.3,7140.6,1267,7140.2,1267,7139.8z
			 M1267.2,7149v-7.1h1.2v7.1H1267.2z"/>
		<path d="M1270.4,7149v-7.1h1.2v1.3c0.5-0.8,1.3-1.4,2.4-1.4c1.5,0,2.5,1,2.5,2.5v4.7h-1.2v-4.5c0-1-0.6-1.6-1.6-1.6
			c-1.3,0-2.2,1.1-2.2,3v3.1H1270.4z"/>
		<path d="M1283.6,7141.9h1.2v6.7c0,1.8-1.3,3-3.3,3c-1.6,0-2.9-0.9-3.1-2.1l1.1-0.2c0.1,0.8,0.9,1.3,2,1.3c1.2,0,2.1-0.8,2.1-1.9
			v-1c-0.3,0.6-1.2,1-2.3,1c-2.2,0-3.4-1.5-3.4-3.5c0-2,1.2-3.5,3.3-3.5c0.9,0,1.9,0.4,2.3,1.1V7141.9z M1283.7,7145.3
			c0-1.5-0.9-2.4-2.2-2.4c-1.4,0-2.3,1-2.3,2.4c0,1.5,0.9,2.4,2.3,2.4C1282.8,7147.8,1283.7,7146.8,1283.7,7145.3z"/>
	</g>
	<g class="st4">
		<path d="M1144.4,7163.5c0-2.2,1.4-3.6,3.5-3.6c1.6,0,2.8,0.9,3.1,2.3l-1.2,0.2c-0.2-0.9-0.9-1.5-1.9-1.5c-1.4,0-2.3,1-2.3,2.6
			c0,1.6,0.9,2.6,2.3,2.6c1,0,1.7-0.5,1.9-1.5l1.2,0.2c-0.3,1.5-1.5,2.3-3.1,2.3C1145.8,7167.1,1144.4,7165.7,1144.4,7163.5z"/>
		<path d="M1152.5,7167v-9.9h1.2v9.9H1152.5z"/>
		<path d="M1162,7163.7h-5.6c0.1,1.4,1,2.4,2.3,2.4c1.1,0,1.8-0.5,2-1.4l1.1,0.3c-0.4,1.4-1.5,2.2-3.2,2.2c-2.1,0-3.4-1.6-3.4-3.6
			c0-2,1.3-3.6,3.4-3.6c2.1,0,3.4,1.5,3.4,3.3C1162,7163.3,1162,7163.6,1162,7163.7z M1160.8,7162.7c-0.1-1.1-0.9-1.9-2.1-1.9
			c-1.1,0-1.9,0.7-2.2,1.9H1160.8z"/>
		<path d="M1165.1,7167l-2.6-7.1h1.2l2,5.7l2-5.7h1.2l-2.6,7.1H1165.1z"/>
		<path d="M1176.2,7163.7h-5.6c0.1,1.4,1,2.4,2.3,2.4c1.1,0,1.8-0.5,2-1.4l1.1,0.3c-0.4,1.4-1.5,2.2-3.2,2.2c-2.1,0-3.4-1.6-3.4-3.6
			c0-2,1.3-3.6,3.4-3.6c2.1,0,3.4,1.5,3.4,3.3C1176.2,7163.3,1176.2,7163.6,1176.2,7163.7z M1175,7162.7c-0.1-1.1-0.9-1.9-2.1-1.9
			c-1.1,0-1.9,0.7-2.2,1.9H1175z"/>
		<path d="M1181.9,7161.1c-0.3-0.1-0.6-0.2-0.9-0.2c-1.1,0-2,1.1-2,3.4v2.7h-1.2v-7.1h1.2v1.4c0.4-0.9,1.3-1.5,2.2-1.5
			c0.3,0,0.6,0,0.8,0.1L1181.9,7161.1z"/>
		<path d="M1186.5,7167v-9.8h1.3v9.8H1186.5z"/>
		<path d="M1192.2,7167v-8.7h-3.1v-1.1h7.5v1.1h-3.1v8.7H1192.2z"/>
		<path d="M1200.8,7163.5c0-2.1,1.2-3.6,3.4-3.6c0.9,0,1.9,0.5,2.3,1.1v-3.9h1.2v9.9h-1.2v-1c-0.3,0.6-1.3,1.1-2.3,1.1
			C1202,7167.1,1200.8,7165.5,1200.8,7163.5z M1206.6,7163.5c0-1.6-0.9-2.6-2.3-2.6s-2.3,1-2.3,2.6c0,1.6,0.9,2.6,2.3,2.6
			S1206.6,7165,1206.6,7163.5z"/>
		<path d="M1216,7163.7h-5.6c0.1,1.4,1,2.4,2.3,2.4c1.1,0,1.8-0.5,2-1.4l1.1,0.3c-0.4,1.4-1.5,2.2-3.2,2.2c-2.1,0-3.4-1.6-3.4-3.6
			c0-2,1.3-3.6,3.4-3.6c2.1,0,3.4,1.5,3.4,3.3C1216,7163.3,1216,7163.6,1216,7163.7z M1214.7,7162.7c-0.1-1.1-0.9-1.9-2.1-1.9
			c-1.1,0-1.9,0.7-2.2,1.9H1214.7z"/>
		<path d="M1217.1,7163.5c0-2.2,1.4-3.6,3.5-3.6c1.6,0,2.8,0.9,3.1,2.3l-1.2,0.2c-0.2-0.9-0.9-1.5-1.9-1.5c-1.4,0-2.3,1-2.3,2.6
			c0,1.6,0.9,2.6,2.3,2.6c1,0,1.7-0.5,1.9-1.5l1.2,0.2c-0.3,1.5-1.5,2.3-3.1,2.3C1218.5,7167.1,1217.1,7165.7,1217.1,7163.5z"/>
		<path d="M1225,7157.8c0-0.5,0.4-0.8,0.8-0.8c0.5,0,0.9,0.4,0.9,0.8c0,0.5-0.4,0.8-0.9,0.8C1225.3,7158.6,1225,7158.2,1225,7157.8z
			 M1225.2,7167v-7.1h1.2v7.1H1225.2z"/>
		<path d="M1227.7,7165.1l1-0.4c0.3,0.8,0.8,1.5,1.9,1.5c0.9,0,1.4-0.5,1.4-1.1c0-1.8-4.1-0.6-4.1-3.3c0-1.1,1-1.9,2.5-1.9
			c1.2,0,2.3,0.7,2.6,1.7l-1,0.4c-0.2-0.7-0.9-1.2-1.7-1.2c-0.8,0-1.3,0.3-1.3,0.9c0,1.5,4.1,0.4,4.1,3.3c0,1.2-1,2.1-2.6,2.1
			C1229,7167.1,1228,7166,1227.7,7165.1z"/>
		<path d="M1234.5,7157.8c0-0.5,0.4-0.8,0.8-0.8c0.5,0,0.9,0.4,0.9,0.8c0,0.5-0.4,0.8-0.9,0.8
			C1234.9,7158.6,1234.5,7158.2,1234.5,7157.8z M1234.8,7167v-7.1h1.2v7.1H1234.8z"/>
		<path d="M1237.5,7163.5c0-2.1,1.5-3.6,3.6-3.6c2.1,0,3.6,1.5,3.6,3.6s-1.5,3.6-3.6,3.6C1239,7167.1,1237.5,7165.6,1237.5,7163.5z
			 M1243.5,7163.5c0-1.5-1-2.6-2.4-2.6s-2.4,1.1-2.4,2.6s1,2.6,2.4,2.6S1243.5,7165,1243.5,7163.5z"/>
		<path d="M1246.2,7167v-7.1h1.2v1.3c0.5-0.8,1.3-1.4,2.4-1.4c1.5,0,2.5,1,2.5,2.5v4.7h-1.2v-4.5c0-1-0.6-1.6-1.6-1.6
			c-1.3,0-2.2,1.1-2.2,3v3.1H1246.2z"/>
		<path d="M1253.7,7165.1l1-0.4c0.3,0.8,0.8,1.5,1.9,1.5c0.9,0,1.4-0.5,1.4-1.1c0-1.8-4.1-0.6-4.1-3.3c0-1.1,1-1.9,2.5-1.9
			c1.2,0,2.3,0.7,2.6,1.7l-1,0.4c-0.2-0.7-0.9-1.2-1.7-1.2c-0.8,0-1.3,0.3-1.3,0.9c0,1.5,4.1,0.4,4.1,3.3c0,1.2-1,2.1-2.6,2.1
			C1254.9,7167.1,1254,7166,1253.7,7165.1z"/>
		<path d="M1260.5,7166.3c0-0.5,0.4-0.8,0.9-0.8c0.5,0,0.9,0.4,0.9,0.8c0,0.5-0.4,0.8-0.9,0.8
			C1260.8,7167.1,1260.5,7166.8,1260.5,7166.3z"/>
	</g>
	<g class="st4">
		<path d="M1104.6,7259.1l1.2-0.4c0.2,1.4,1.2,2.3,2.5,2.3c1.3,0,2.2-0.6,2.2-1.6c0-2.6-5.6-1.2-5.6-4.7c0-1.5,1.4-2.6,3.3-2.6
			c1.8,0,3.2,1,3.4,2.4l-1.2,0.4c-0.2-1.1-1-1.7-2.3-1.7c-1.3,0-2,0.5-2,1.4c0,2.2,5.6,0.8,5.6,4.7c0,1.7-1.4,2.8-3.6,2.8
			C1106.4,7262.1,1104.9,7260.9,1104.6,7259.1z"/>
		<path d="M1119.7,7258.7h-5.6c0.1,1.4,1,2.4,2.3,2.4c1.1,0,1.8-0.5,2-1.4l1.1,0.3c-0.4,1.4-1.5,2.2-3.2,2.2c-2.1,0-3.4-1.6-3.4-3.6
			c0-2,1.3-3.6,3.4-3.6c2.1,0,3.4,1.5,3.4,3.3C1119.8,7258.3,1119.7,7258.6,1119.7,7258.7z M1118.5,7257.7c-0.1-1.1-0.9-1.9-2.1-1.9
			c-1.1,0-1.9,0.7-2.2,1.9H1118.5z"/>
		<path d="M1120.9,7258.5c0-2.2,1.4-3.6,3.5-3.6c1.6,0,2.8,0.9,3.1,2.3l-1.2,0.2c-0.2-0.9-0.9-1.5-1.9-1.5c-1.4,0-2.3,1-2.3,2.6
			c0,1.6,0.9,2.6,2.3,2.6c1,0,1.7-0.5,1.9-1.5l1.2,0.2c-0.3,1.5-1.5,2.3-3.1,2.3C1122.3,7262.1,1120.9,7260.7,1120.9,7258.5z"/>
		<path d="M1135.1,7254.9v7.1h-1.2v-1.3c-0.5,0.8-1.3,1.4-2.4,1.4c-1.5,0-2.5-1-2.5-2.5v-4.7h1.2v4.5c0,1,0.6,1.6,1.6,1.6
			c1.3,0,2.2-1.1,2.2-3v-3.1H1135.1z"/>
		<path d="M1141.2,7256.1c-0.3-0.1-0.6-0.2-0.9-0.2c-1.1,0-2,1.1-2,3.4v2.7h-1.2v-7.1h1.2v1.4c0.4-0.9,1.3-1.5,2.2-1.5
			c0.3,0,0.6,0,0.8,0.1L1141.2,7256.1z"/>
		<path d="M1148.4,7258.7h-5.6c0.1,1.4,1,2.4,2.3,2.4c1.1,0,1.8-0.5,2-1.4l1.1,0.3c-0.4,1.4-1.5,2.2-3.2,2.2c-2.1,0-3.4-1.6-3.4-3.6
			c0-2,1.3-3.6,3.4-3.6c2.1,0,3.4,1.5,3.4,3.3C1148.5,7258.3,1148.4,7258.6,1148.4,7258.7z M1147.2,7257.7c-0.1-1.1-0.9-1.9-2.1-1.9
			c-1.1,0-1.9,0.7-2.2,1.9H1147.2z"/>
		<path d="M1158,7254.9h1.2l-3.7,9.6h-1.2l1-2.6l-2.8-7h1.3l2.1,5.4L1158,7254.9z"/>
		<path d="M1159.7,7258.5c0-2.1,1.5-3.6,3.6-3.6c2.1,0,3.6,1.5,3.6,3.6s-1.5,3.6-3.6,3.6C1161.2,7262.1,1159.7,7260.6,1159.7,7258.5
			z M1165.7,7258.5c0-1.5-1-2.6-2.4-2.6c-1.4,0-2.4,1.1-2.4,2.6s1,2.6,2.4,2.6C1164.7,7261,1165.7,7260,1165.7,7258.5z"/>
		<path d="M1174.6,7254.9v7.1h-1.2v-1.3c-0.5,0.8-1.3,1.4-2.4,1.4c-1.5,0-2.5-1-2.5-2.5v-4.7h1.2v4.5c0,1,0.6,1.6,1.6,1.6
			c1.3,0,2.2-1.1,2.2-3v-3.1H1174.6z"/>
		<path d="M1180.6,7256.1c-0.3-0.1-0.6-0.2-0.9-0.2c-1.1,0-2,1.1-2,3.4v2.7h-1.2v-7.1h1.2v1.4c0.4-0.9,1.3-1.5,2.2-1.5
			c0.3,0,0.6,0,0.8,0.1L1180.6,7256.1z"/>
		<path d="M1185.2,7262v-7.1h1.2v1.3c0.5-0.8,1.3-1.4,2.4-1.4c1.5,0,2.5,1,2.5,2.5v4.7h-1.2v-4.5c0-1-0.6-1.6-1.6-1.6
			c-1.3,0-2.2,1.1-2.2,3v3.1H1185.2z"/>
		<path d="M1199.7,7258.7h-5.6c0.1,1.4,1,2.4,2.3,2.4c1.1,0,1.8-0.5,2-1.4l1.1,0.3c-0.4,1.4-1.5,2.2-3.2,2.2c-2.1,0-3.4-1.6-3.4-3.6
			c0-2,1.3-3.6,3.4-3.6c2.1,0,3.4,1.5,3.4,3.3C1199.7,7258.3,1199.7,7258.6,1199.7,7258.7z M1198.4,7257.7c-0.1-1.1-0.9-1.9-2.1-1.9
			c-1.1,0-1.9,0.7-2.2,1.9H1198.4z"/>
		<path d="M1204.9,7261.9c-0.4,0.1-0.7,0.2-1.1,0.2c-1.2,0-2.1-0.7-2.1-2.2v-3.9h-1.3v-1.1h1.3v-2.1h1.2v2.1h1.9v1.1h-1.9v3.9
			c0,0.7,0.4,1.1,1,1.1c0.3,0,0.6,0,0.9-0.2L1204.9,7261.9z"/>
		<path d="M1207.8,7262l-2.2-7.1h1.2l1.5,5.4l1.7-5.4h1.1l1.7,5.4l1.5-5.4h1.2l-2.2,7.1h-1.2l-1.7-5.4l-1.7,5.4H1207.8z"/>
		<path d="M1216.4,7258.5c0-2.1,1.5-3.6,3.6-3.6c2.1,0,3.6,1.5,3.6,3.6s-1.5,3.6-3.6,3.6C1217.8,7262.1,1216.4,7260.6,1216.4,7258.5
			z M1222.3,7258.5c0-1.5-1-2.6-2.4-2.6c-1.4,0-2.4,1.1-2.4,2.6s1,2.6,2.4,2.6C1221.4,7261,1222.3,7260,1222.3,7258.5z"/>
		<path d="M1229.2,7256.1c-0.3-0.1-0.6-0.2-0.9-0.2c-1.1,0-2,1.1-2,3.4v2.7h-1.2v-7.1h1.2v1.4c0.4-0.9,1.3-1.5,2.2-1.5
			c0.3,0,0.6,0,0.8,0.1L1229.2,7256.1z"/>
		<path d="M1235.2,7262l-2.7-3.5l-0.9,0.9v2.6h-1.2v-9.9h1.2v5.7l3.3-2.9h1.6l-3,2.8l3.3,4.3H1235.2z"/>
		<path d="M1237.3,7263.5l0.8-2.9h1.6l-1.6,2.9H1237.3z"/>
		<path d="M1244.4,7258.5c0-2.2,1.4-3.6,3.5-3.6c1.6,0,2.8,0.9,3.1,2.3l-1.2,0.2c-0.2-0.9-0.9-1.5-1.9-1.5c-1.4,0-2.3,1-2.3,2.6
			c0,1.6,0.9,2.6,2.3,2.6c1,0,1.7-0.5,1.9-1.5l1.2,0.2c-0.3,1.5-1.5,2.3-3.1,2.3C1245.8,7262.1,1244.4,7260.7,1244.4,7258.5z"/>
		<path d="M1252.1,7258.5c0-2.1,1.5-3.6,3.6-3.6c2.1,0,3.6,1.5,3.6,3.6s-1.5,3.6-3.6,3.6C1253.6,7262.1,1252.1,7260.6,1252.1,7258.5
			z M1258.1,7258.5c0-1.5-1-2.6-2.4-2.6s-2.4,1.1-2.4,2.6s1,2.6,2.4,2.6S1258.1,7260,1258.1,7258.5z"/>
		<path d="M1260.8,7262v-7.1h1.2v1.3c0.4-0.8,1.1-1.4,2.1-1.4c1.1,0,2,0.5,2.3,1.5c0.4-0.8,1.2-1.5,2.3-1.5c1.5,0,2.5,1,2.5,2.4v4.7
			h-1.2v-4.5c0-1-0.5-1.6-1.5-1.6c-1.2,0-1.9,1.1-1.9,2.6v3.5h-1.2v-4.5c0-1-0.5-1.6-1.5-1.6c-1.2,0-1.9,1.1-1.9,2.6v3.5H1260.8z"/>
		<path d="M1273.1,7264.5v-9.6h1.2v1c0.4-0.6,1.3-1.1,2.3-1.1c2.2,0,3.4,1.6,3.4,3.6s-1.2,3.6-3.4,3.6c-0.9,0-1.8-0.4-2.3-1.1v3.5
			H1273.1z M1278.8,7258.5c0-1.6-0.9-2.6-2.3-2.6c-1.4,0-2.3,1-2.3,2.6c0,1.6,0.9,2.6,2.3,2.6
			C1277.9,7261,1278.8,7260,1278.8,7258.5z"/>
		<path d="M1287,7257.5v4.5h-1.2v-1.2c-0.4,0.8-1.3,1.3-2.4,1.3c-1.4,0-2.4-0.9-2.4-2.1c0-1.4,1.1-2.1,3.4-2.3l1.4-0.2v-0.1
			c0-1-0.7-1.6-1.7-1.6c-1,0-1.7,0.6-1.8,1.5l-1.1-0.2c0.2-1.4,1.4-2.3,2.9-2.3C1285.8,7254.8,1287,7255.8,1287,7257.5z
			 M1285.8,7258.8v-0.3l-1.4,0.2c-1.4,0.2-2.2,0.6-2.2,1.4c0,0.7,0.6,1.1,1.4,1.1C1285,7261.1,1285.8,7260.2,1285.8,7258.8z"/>
		<path d="M1288.9,7262v-7.1h1.2v1.3c0.5-0.8,1.3-1.4,2.4-1.4c1.5,0,2.5,1,2.5,2.5v4.7h-1.2v-4.5c0-1-0.6-1.6-1.6-1.6
			c-1.3,0-2.2,1.1-2.2,3v3.1H1288.9z"/>
		<path d="M1301.4,7254.9h1.2l-3.7,9.6h-1.2l1-2.6l-2.8-7h1.3l2.1,5.4L1301.4,7254.9z"/>
	</g>
	<g class="st4">
		<path d="M1122,7276.5c0-2.1,1.2-3.6,3.4-3.6c0.9,0,1.9,0.5,2.3,1.1v-3.9h1.2v9.9h-1.2v-1c-0.3,0.6-1.3,1.1-2.3,1.1
			C1123.2,7280.1,1122,7278.5,1122,7276.5z M1127.8,7276.5c0-1.6-0.9-2.6-2.3-2.6s-2.3,1-2.3,2.6c0,1.6,0.9,2.6,2.3,2.6
			S1127.8,7278,1127.8,7276.5z"/>
		<path d="M1136.4,7275.5v4.5h-1.2v-1.2c-0.4,0.8-1.3,1.3-2.4,1.3c-1.4,0-2.4-0.9-2.4-2.1c0-1.4,1.1-2.1,3.4-2.3l1.4-0.2v-0.1
			c0-1-0.7-1.6-1.7-1.6c-1,0-1.7,0.6-1.8,1.5l-1.1-0.2c0.2-1.4,1.4-2.3,2.9-2.3C1135.2,7272.8,1136.4,7273.8,1136.4,7275.5z
			 M1135.2,7276.8v-0.3l-1.4,0.2c-1.4,0.2-2.2,0.6-2.2,1.4c0,0.7,0.6,1.1,1.4,1.1C1134.4,7279.1,1135.2,7278.2,1135.2,7276.8z"/>
		<path d="M1142,7279.9c-0.4,0.1-0.7,0.2-1.1,0.2c-1.2,0-2.1-0.7-2.1-2.2v-3.9h-1.3v-1.1h1.3v-2.1h1.2v2.1h1.9v1.1h-1.9v3.9
			c0,0.7,0.4,1.1,1,1.1c0.3,0,0.6,0,0.9-0.2L1142,7279.9z"/>
		<path d="M1148.8,7275.5v4.5h-1.2v-1.2c-0.4,0.8-1.3,1.3-2.4,1.3c-1.4,0-2.4-0.9-2.4-2.1c0-1.4,1.1-2.1,3.4-2.3l1.4-0.2v-0.1
			c0-1-0.7-1.6-1.7-1.6c-1,0-1.7,0.6-1.8,1.5l-1.1-0.2c0.2-1.4,1.4-2.3,2.9-2.3C1147.6,7272.8,1148.8,7273.8,1148.8,7275.5z
			 M1147.6,7276.8v-0.3l-1.4,0.2c-1.4,0.2-2.2,0.6-2.2,1.4c0,0.7,0.6,1.1,1.4,1.1C1146.8,7279.1,1147.6,7278.2,1147.6,7276.8z"/>
		<path d="M1159.6,7275.5v4.5h-1.2v-1.2c-0.4,0.8-1.3,1.3-2.4,1.3c-1.4,0-2.4-0.9-2.4-2.1c0-1.4,1.1-2.1,3.4-2.3l1.4-0.2v-0.1
			c0-1-0.7-1.6-1.7-1.6c-1,0-1.7,0.6-1.8,1.5l-1.1-0.2c0.2-1.4,1.4-2.3,2.9-2.3C1158.4,7272.8,1159.6,7273.8,1159.6,7275.5z
			 M1158.4,7276.8v-0.3l-1.4,0.2c-1.4,0.2-2.2,0.6-2.2,1.4c0,0.7,0.6,1.1,1.4,1.1C1157.6,7279.1,1158.4,7278.2,1158.4,7276.8z"/>
		<path d="M1161.5,7280v-7.1h1.2v1.3c0.5-0.8,1.3-1.4,2.4-1.4c1.5,0,2.5,1,2.5,2.5v4.7h-1.2v-4.5c0-1-0.6-1.6-1.6-1.6
			c-1.3,0-2.2,1.1-2.2,3v3.1H1161.5z"/>
		<path d="M1169.2,7276.5c0-2.1,1.2-3.6,3.4-3.6c0.9,0,1.9,0.5,2.3,1.1v-3.9h1.2v9.9h-1.2v-1c-0.3,0.6-1.3,1.1-2.3,1.1
			C1170.4,7280.1,1169.2,7278.5,1169.2,7276.5z M1175,7276.5c0-1.6-0.9-2.6-2.3-2.6s-2.3,1-2.3,2.6c0,1.6,0.9,2.6,2.3,2.6
			S1175,7278,1175,7276.5z"/>
		<path d="M1181.5,7280v-9.8h1.3v9.8H1181.5z"/>
		<path d="M1187.1,7280v-8.7h-3.1v-1.1h7.5v1.1h-3.1v8.7H1187.1z"/>
		<path d="M1195.9,7270.8c0-0.5,0.4-0.8,0.8-0.8c0.5,0,0.9,0.4,0.9,0.8c0,0.5-0.4,0.8-0.9,0.8
			C1196.2,7271.6,1195.9,7271.2,1195.9,7270.8z M1196.1,7280v-7.1h1.2v7.1H1196.1z"/>
		<path d="M1199.2,7280v-7.1h1.2v1.3c0.5-0.8,1.3-1.4,2.4-1.4c1.5,0,2.5,1,2.5,2.5v4.7h-1.2v-4.5c0-1-0.6-1.6-1.6-1.6
			c-1.3,0-2.2,1.1-2.2,3v3.1H1199.2z"/>
		<path d="M1207.8,7280v-6h-1.2v-1.1h1.2v-0.7c0-1.6,0.9-2.4,2.1-2.4c0.3,0,0.7,0,1,0.1l-0.1,1.1c-0.3-0.1-0.5-0.1-0.7-0.1
			c-0.6,0-1.1,0.5-1.1,1.2v0.8h1.8v1.1h-1.8v6H1207.8z"/>
		<path d="M1216.3,7274.1c-0.3-0.1-0.6-0.2-0.9-0.2c-1.1,0-2,1.1-2,3.4v2.7h-1.2v-7.1h1.2v1.4c0.4-0.9,1.3-1.5,2.2-1.5
			c0.3,0,0.6,0,0.8,0.1L1216.3,7274.1z"/>
		<path d="M1222.8,7275.5v4.5h-1.2v-1.2c-0.4,0.8-1.3,1.3-2.4,1.3c-1.4,0-2.4-0.9-2.4-2.1c0-1.4,1.1-2.1,3.4-2.3l1.4-0.2v-0.1
			c0-1-0.7-1.6-1.7-1.6c-1,0-1.7,0.6-1.8,1.5l-1.1-0.2c0.2-1.4,1.4-2.3,2.9-2.3C1221.7,7272.8,1222.8,7273.8,1222.8,7275.5z
			 M1221.7,7276.8v-0.3l-1.4,0.2c-1.4,0.2-2.2,0.6-2.2,1.4c0,0.7,0.6,1.1,1.4,1.1C1220.9,7279.1,1221.7,7278.2,1221.7,7276.8z"/>
		<path d="M1224.2,7278.1l1-0.4c0.3,0.8,0.8,1.5,1.9,1.5c0.9,0,1.4-0.5,1.4-1.1c0-1.8-4.1-0.6-4.1-3.3c0-1.1,1-1.9,2.5-1.9
			c1.2,0,2.3,0.7,2.6,1.7l-1,0.4c-0.2-0.7-0.9-1.2-1.7-1.2c-0.8,0-1.3,0.3-1.3,0.9c0,1.5,4.1,0.4,4.1,3.3c0,1.2-1,2.1-2.6,2.1
			C1225.4,7280.1,1224.5,7279,1224.2,7278.1z"/>
		<path d="M1234.9,7279.9c-0.3,0.1-0.7,0.2-1.1,0.2c-1.2,0-2.1-0.7-2.1-2.2v-3.9h-1.3v-1.1h1.3v-2.1h1.2v2.1h1.9v1.1h-1.9v3.9
			c0,0.7,0.4,1.1,1,1.1c0.3,0,0.6,0,0.9-0.2L1234.9,7279.9z"/>
		<path d="M1240.4,7274.1c-0.3-0.1-0.6-0.2-0.9-0.2c-1.1,0-2,1.1-2,3.4v2.7h-1.2v-7.1h1.2v1.4c0.4-0.9,1.3-1.5,2.2-1.5
			c0.3,0,0.6,0,0.8,0.1L1240.4,7274.1z"/>
		<path d="M1247.7,7272.9v7.1h-1.2v-1.3c-0.5,0.8-1.3,1.4-2.4,1.4c-1.5,0-2.5-1-2.5-2.5v-4.7h1.2v4.5c0,1,0.6,1.6,1.6,1.6
			c1.3,0,2.2-1.1,2.2-3v-3.1H1247.7z"/>
		<path d="M1249.2,7276.5c0-2.2,1.4-3.6,3.5-3.6c1.6,0,2.8,0.9,3.1,2.3l-1.2,0.2c-0.2-0.9-0.9-1.5-1.9-1.5c-1.4,0-2.3,1-2.3,2.6
			c0,1.6,0.9,2.6,2.3,2.6c1,0,1.7-0.5,1.9-1.5l1.2,0.2c-0.3,1.5-1.5,2.3-3.1,2.3C1250.6,7280.1,1249.2,7278.7,1249.2,7276.5z"/>
		<path d="M1261,7279.9c-0.3,0.1-0.7,0.2-1.1,0.2c-1.2,0-2.1-0.7-2.1-2.2v-3.9h-1.3v-1.1h1.3v-2.1h1.2v2.1h1.9v1.1h-1.9v3.9
			c0,0.7,0.4,1.1,1,1.1c0.3,0,0.6,0,0.9-0.2L1261,7279.9z"/>
		<path d="M1268.4,7272.9v7.1h-1.2v-1.3c-0.5,0.8-1.3,1.4-2.4,1.4c-1.5,0-2.5-1-2.5-2.5v-4.7h1.2v4.5c0,1,0.6,1.6,1.6,1.6
			c1.3,0,2.2-1.1,2.2-3v-3.1H1268.4z"/>
		<path d="M1274.5,7274.1c-0.3-0.1-0.6-0.2-0.9-0.2c-1.1,0-2,1.1-2,3.4v2.7h-1.2v-7.1h1.2v1.4c0.4-0.9,1.3-1.5,2.2-1.5
			c0.3,0,0.6,0,0.8,0.1L1274.5,7274.1z"/>
		<path d="M1281.8,7276.7h-5.6c0.1,1.4,1,2.4,2.3,2.4c1.1,0,1.8-0.5,2-1.4l1.1,0.3c-0.4,1.4-1.5,2.2-3.2,2.2c-2.1,0-3.4-1.6-3.4-3.6
			c0-2,1.3-3.6,3.4-3.6c2.1,0,3.4,1.5,3.4,3.3C1281.8,7276.3,1281.8,7276.6,1281.8,7276.7z M1280.5,7275.7c-0.1-1.1-0.9-1.9-2.1-1.9
			c-1.1,0-1.9,0.7-2.2,1.9H1280.5z"/>
		<path d="M1282.9,7279.3c0-0.5,0.4-0.8,0.9-0.8c0.5,0,0.9,0.4,0.9,0.8c0,0.5-0.4,0.8-0.9,0.8
			C1283.3,7280.1,1282.9,7279.8,1282.9,7279.3z"/>
	</g>
	<g class="st4">
		<path d="M1118.6,7378v-9.8h1.3v9.8H1118.6z"/>
		<path d="M1121.9,7378v-7.1h1.2v1.3c0.5-0.8,1.3-1.4,2.4-1.4c1.5,0,2.5,1,2.5,2.5v4.7h-1.2v-4.5c0-1-0.6-1.6-1.6-1.6
			c-1.3,0-2.2,1.1-2.2,3v3.1H1121.9z"/>
		<path d="M1129.5,7374.5c0-2.2,1.4-3.6,3.5-3.6c1.6,0,2.8,0.9,3.1,2.3l-1.2,0.2c-0.2-0.9-0.9-1.5-1.9-1.5c-1.4,0-2.3,1-2.3,2.6
			c0,1.6,0.9,2.6,2.3,2.6c1,0,1.7-0.5,1.9-1.5l1.2,0.2c-0.3,1.5-1.5,2.3-3.1,2.3C1130.9,7378.1,1129.5,7376.7,1129.5,7374.5z"/>
		<path d="M1141.8,7372.1c-0.3-0.1-0.6-0.2-0.9-0.2c-1.1,0-2,1.1-2,3.4v2.7h-1.2v-7.1h1.2v1.4c0.4-0.9,1.3-1.5,2.2-1.5
			c0.3,0,0.6,0,0.8,0.1L1141.8,7372.1z"/>
		<path d="M1149,7374.7h-5.6c0.1,1.4,1,2.4,2.3,2.4c1.1,0,1.8-0.5,2-1.4l1.1,0.3c-0.4,1.4-1.5,2.2-3.2,2.2c-2.1,0-3.4-1.6-3.4-3.6
			c0-2,1.3-3.6,3.4-3.6c2.1,0,3.4,1.5,3.4,3.3C1149,7374.3,1149,7374.6,1149,7374.7z M1147.8,7373.7c-0.1-1.1-0.9-1.9-2.1-1.9
			c-1.1,0-1.9,0.7-2.2,1.9H1147.8z"/>
		<path d="M1156,7373.5v4.5h-1.2v-1.2c-0.4,0.8-1.3,1.3-2.4,1.3c-1.4,0-2.4-0.9-2.4-2.1c0-1.4,1.1-2.1,3.4-2.3l1.4-0.2v-0.1
			c0-1-0.7-1.6-1.7-1.6c-1,0-1.7,0.6-1.8,1.5l-1.1-0.2c0.2-1.4,1.4-2.3,2.9-2.3C1154.8,7370.8,1156,7371.8,1156,7373.5z
			 M1154.9,7374.8v-0.3l-1.4,0.2c-1.4,0.2-2.2,0.6-2.2,1.4c0,0.7,0.6,1.1,1.4,1.1C1154.1,7377.1,1154.9,7376.2,1154.9,7374.8z"/>
		<path d="M1157.4,7376.1l1-0.4c0.3,0.8,0.8,1.5,1.9,1.5c0.9,0,1.4-0.5,1.4-1.1c0-1.8-4.1-0.6-4.1-3.3c0-1.1,1-1.9,2.5-1.9
			c1.2,0,2.3,0.7,2.6,1.7l-1,0.4c-0.2-0.7-0.9-1.2-1.7-1.2c-0.8,0-1.3,0.3-1.3,0.9c0,1.5,4.1,0.4,4.1,3.3c0,1.2-1,2.1-2.6,2.1
			C1158.6,7378.1,1157.7,7377,1157.4,7376.1z"/>
		<path d="M1170.7,7374.7h-5.6c0.1,1.4,1,2.4,2.3,2.4c1.1,0,1.8-0.5,2-1.4l1.1,0.3c-0.4,1.4-1.5,2.2-3.2,2.2c-2.1,0-3.4-1.6-3.4-3.6
			c0-2,1.3-3.6,3.4-3.6c2.1,0,3.4,1.5,3.4,3.3C1170.8,7374.3,1170.7,7374.6,1170.7,7374.7z M1169.5,7373.7c-0.1-1.1-0.9-1.9-2.1-1.9
			c-1.1,0-1.9,0.7-2.2,1.9H1169.5z"/>
		<path d="M1180.3,7370.9h1.2l-3.7,9.6h-1.2l1-2.6l-2.8-7h1.3l2.1,5.4L1180.3,7370.9z"/>
		<path d="M1182,7374.5c0-2.1,1.5-3.6,3.6-3.6c2.1,0,3.6,1.5,3.6,3.6s-1.5,3.6-3.6,3.6C1183.5,7378.1,1182,7376.6,1182,7374.5z
			 M1188,7374.5c0-1.5-1-2.6-2.4-2.6c-1.4,0-2.4,1.1-2.4,2.6s1,2.6,2.4,2.6C1187,7377,1188,7376,1188,7374.5z"/>
		<path d="M1196.9,7370.9v7.1h-1.2v-1.3c-0.5,0.8-1.3,1.4-2.4,1.4c-1.5,0-2.5-1-2.5-2.5v-4.7h1.2v4.5c0,1,0.6,1.6,1.6,1.6
			c1.3,0,2.2-1.1,2.2-3v-3.1H1196.9z"/>
		<path d="M1202.9,7372.1c-0.3-0.1-0.6-0.2-0.9-0.2c-1.1,0-2,1.1-2,3.4v2.7h-1.2v-7.1h1.2v1.4c0.4-0.9,1.3-1.5,2.2-1.5
			c0.3,0,0.6,0,0.8,0.1L1202.9,7372.1z"/>
		<path d="M1207.5,7380.5v-9.6h1.2v1c0.4-0.6,1.3-1.1,2.3-1.1c2.2,0,3.4,1.6,3.4,3.6s-1.2,3.6-3.4,3.6c-0.9,0-1.8-0.4-2.3-1.1v3.5
			H1207.5z M1213.2,7374.5c0-1.6-0.9-2.6-2.3-2.6c-1.4,0-2.3,1-2.3,2.6c0,1.6,0.9,2.6,2.3,2.6
			C1212.3,7377,1213.2,7376,1213.2,7374.5z"/>
		<path d="M1220.1,7372.1c-0.3-0.1-0.6-0.2-0.9-0.2c-1.1,0-2,1.1-2,3.4v2.7h-1.2v-7.1h1.2v1.4c0.4-0.9,1.3-1.5,2.2-1.5
			c0.3,0,0.6,0,0.8,0.1L1220.1,7372.1z"/>
		<path d="M1220.6,7374.5c0-2.1,1.5-3.6,3.6-3.6c2.1,0,3.6,1.5,3.6,3.6s-1.5,3.6-3.6,3.6C1222.1,7378.1,1220.6,7376.6,1220.6,7374.5
			z M1226.5,7374.5c0-1.5-1-2.6-2.4-2.6s-2.4,1.1-2.4,2.6s1,2.6,2.4,2.6S1226.5,7376,1226.5,7374.5z"/>
		<path d="M1228.9,7374.5c0-2.1,1.2-3.6,3.4-3.6c0.9,0,1.9,0.5,2.3,1.1v-3.9h1.2v9.9h-1.2v-1c-0.3,0.6-1.3,1.1-2.3,1.1
			C1230.1,7378.1,1228.9,7376.5,1228.9,7374.5z M1234.7,7374.5c0-1.6-0.9-2.6-2.3-2.6s-2.3,1-2.3,2.6c0,1.6,0.9,2.6,2.3,2.6
			S1234.7,7376,1234.7,7374.5z"/>
		<path d="M1243.8,7370.9v7.1h-1.2v-1.3c-0.5,0.8-1.3,1.4-2.4,1.4c-1.5,0-2.5-1-2.5-2.5v-4.7h1.2v4.5c0,1,0.6,1.6,1.6,1.6
			c1.3,0,2.2-1.1,2.2-3v-3.1H1243.8z"/>
		<path d="M1245.4,7374.5c0-2.2,1.4-3.6,3.5-3.6c1.6,0,2.8,0.9,3.1,2.3l-1.2,0.2c-0.2-0.9-0.9-1.5-1.9-1.5c-1.4,0-2.3,1-2.3,2.6
			c0,1.6,0.9,2.6,2.3,2.6c1,0,1.7-0.5,1.9-1.5l1.2,0.2c-0.3,1.5-1.5,2.3-3.1,2.3C1246.8,7378.1,1245.4,7376.7,1245.4,7374.5z"/>
		<path d="M1257.1,7377.9c-0.4,0.1-0.7,0.2-1.1,0.2c-1.2,0-2.1-0.7-2.1-2.2v-3.9h-1.3v-1.1h1.3v-2.1h1.2v2.1h1.9v1.1h-1.9v3.9
			c0,0.7,0.4,1.1,1,1.1c0.3,0,0.6,0,0.9-0.2L1257.1,7377.9z"/>
		<path d="M1258.3,7368.8c0-0.5,0.3-0.8,0.8-0.8c0.5,0,0.9,0.4,0.9,0.8c0,0.5-0.4,0.8-0.9,0.8
			C1258.6,7369.6,1258.3,7369.2,1258.3,7368.8z M1258.5,7378v-7.1h1.2v7.1H1258.5z"/>
		<path d="M1263.4,7378l-2.6-7.1h1.2l2,5.7l2-5.7h1.2l-2.6,7.1H1263.4z"/>
		<path d="M1268.1,7368.8c0-0.5,0.4-0.8,0.8-0.8c0.5,0,0.9,0.4,0.9,0.8c0,0.5-0.4,0.8-0.9,0.8
			C1268.5,7369.6,1268.1,7369.2,1268.1,7368.8z M1268.4,7378v-7.1h1.2v7.1H1268.4z"/>
		<path d="M1275.2,7377.9c-0.4,0.1-0.7,0.2-1.1,0.2c-1.2,0-2.1-0.7-2.1-2.2v-3.9h-1.3v-1.1h1.3v-2.1h1.2v2.1h1.9v1.1h-1.9v3.9
			c0,0.7,0.4,1.1,1,1.1c0.3,0,0.6,0,0.9-0.2L1275.2,7377.9z"/>
		<path d="M1281.3,7370.9h1.2l-3.7,9.6h-1.2l1-2.6l-2.8-7h1.3l2.1,5.4L1281.3,7370.9z"/>
		<path d="M1282.2,7379.5l0.8-2.9h1.6l-1.6,2.9H1282.2z"/>
	</g>
	<g class="st4">
		<path d="M1092.4,7392.5c0-2.2,1.4-3.6,3.5-3.6c1.6,0,2.8,0.9,3.1,2.3l-1.2,0.2c-0.2-0.9-0.9-1.5-1.9-1.5c-1.4,0-2.3,1-2.3,2.6
			c0,1.6,0.9,2.6,2.3,2.6c1,0,1.7-0.5,1.9-1.5l1.2,0.2c-0.3,1.5-1.5,2.3-3.1,2.3C1093.8,7396.1,1092.4,7394.7,1092.4,7392.5z"/>
		<path d="M1106.7,7388.9v7.1h-1.2v-1.3c-0.5,0.8-1.3,1.4-2.4,1.4c-1.5,0-2.5-1-2.5-2.5v-4.7h1.2v4.5c0,1,0.6,1.6,1.6,1.6
			c1.3,0,2.2-1.1,2.2-3v-3.1H1106.7z"/>
		<path d="M1108,7394.1l1-0.4c0.3,0.8,0.8,1.5,1.9,1.5c0.9,0,1.4-0.5,1.4-1.1c0-1.8-4.1-0.6-4.1-3.3c0-1.1,1-1.9,2.5-1.9
			c1.2,0,2.3,0.7,2.6,1.7l-1,0.4c-0.2-0.7-0.9-1.2-1.7-1.2c-0.8,0-1.3,0.3-1.3,0.9c0,1.5,4.1,0.4,4.1,3.3c0,1.2-1,2.1-2.6,2.1
			C1109.2,7396.1,1108.3,7395,1108,7394.1z"/>
		<path d="M1118.7,7395.9c-0.3,0.1-0.7,0.2-1.1,0.2c-1.2,0-2.1-0.7-2.1-2.2v-3.9h-1.3v-1.1h1.3v-2.1h1.2v2.1h1.9v1.1h-1.9v3.9
			c0,0.7,0.4,1.1,1,1.1c0.3,0,0.6,0,0.9-0.2L1118.7,7395.9z"/>
		<path d="M1119.5,7392.5c0-2.1,1.5-3.6,3.6-3.6c2.1,0,3.6,1.5,3.6,3.6s-1.5,3.6-3.6,3.6C1121,7396.1,1119.5,7394.6,1119.5,7392.5z
			 M1125.5,7392.5c0-1.5-1-2.6-2.4-2.6s-2.4,1.1-2.4,2.6s1,2.6,2.4,2.6S1125.5,7394,1125.5,7392.5z"/>
		<path d="M1128.2,7396v-7.1h1.2v1.3c0.3-0.8,1-1.4,2.1-1.4c1.1,0,2,0.5,2.3,1.5c0.4-0.8,1.2-1.5,2.3-1.5c1.5,0,2.5,1,2.5,2.4v4.7
			h-1.2v-4.5c0-1-0.5-1.6-1.5-1.6c-1.2,0-1.9,1.1-1.9,2.6v3.5h-1.2v-4.5c0-1-0.5-1.6-1.5-1.6c-1.2,0-1.9,1.1-1.9,2.6v3.5H1128.2z"/>
		<path d="M1146.9,7392.7h-5.6c0.1,1.4,1,2.4,2.3,2.4c1.1,0,1.8-0.5,2-1.4l1.1,0.3c-0.4,1.4-1.5,2.2-3.2,2.2c-2.1,0-3.4-1.6-3.4-3.6
			c0-2,1.3-3.6,3.4-3.6c2.1,0,3.4,1.5,3.4,3.3C1146.9,7392.3,1146.9,7392.6,1146.9,7392.7z M1145.6,7391.7c-0.1-1.1-0.9-1.9-2.1-1.9
			c-1.1,0-1.9,0.7-2.2,1.9H1145.6z"/>
		<path d="M1152.5,7390.1c-0.3-0.1-0.6-0.2-0.9-0.2c-1.1,0-2,1.1-2,3.4v2.7h-1.2v-7.1h1.2v1.4c0.4-0.9,1.3-1.5,2.2-1.5
			c0.3,0,0.6,0,0.8,0.1L1152.5,7390.1z"/>
		<path d="M1165.2,7396h-1.5l-0.9-1.1c-0.8,0.7-1.7,1.2-2.8,1.2c-1.9,0-3.1-1.1-3.1-2.9c0-1.5,1-2.1,2.1-2.7
			c-0.8-0.9-1.1-1.5-1.1-2.2c0-1.4,1-2.3,2.4-2.3c1.4,0,2.4,0.9,2.4,2.3c0,1.3-0.9,2-1.9,2.5l2,2.3l1.3-1.5l0.9,0.8l-1.4,1.6
			L1165.2,7396z M1162,7394l-2.3-2.6c-0.9,0.4-1.6,0.9-1.6,1.8c0,1,0.8,1.8,1.9,1.8C1160.7,7395,1161.3,7394.6,1162,7394z
			 M1160,7390c0.8-0.4,1.5-0.8,1.5-1.7c0-0.7-0.5-1.2-1.2-1.2c-0.7,0-1.2,0.5-1.2,1.2C1159,7388.9,1159.4,7389.3,1160,7390z"/>
		<path d="M1176.1,7392.7h-5.6c0.1,1.4,1,2.4,2.3,2.4c1.1,0,1.8-0.5,2-1.4l1.1,0.3c-0.4,1.4-1.5,2.2-3.2,2.2c-2.1,0-3.4-1.6-3.4-3.6
			c0-2,1.3-3.6,3.4-3.6c2.1,0,3.4,1.5,3.4,3.3C1176.1,7392.3,1176.1,7392.6,1176.1,7392.7z M1174.9,7391.7c-0.1-1.1-0.9-1.9-2.1-1.9
			c-1.1,0-1.9,0.7-2.2,1.9H1174.9z"/>
		<path d="M1177.7,7396v-7.1h1.2v1.3c0.3-0.8,1-1.4,2.1-1.4c1.1,0,2,0.5,2.3,1.5c0.4-0.8,1.2-1.5,2.3-1.5c1.5,0,2.5,1,2.5,2.4v4.7
			h-1.2v-4.5c0-1-0.5-1.6-1.5-1.6c-1.2,0-1.9,1.1-1.9,2.6v3.5h-1.2v-4.5c0-1-0.5-1.6-1.5-1.6c-1.2,0-1.9,1.1-1.9,2.6v3.5H1177.7z"/>
		<path d="M1190,7398.5v-9.6h1.2v1c0.4-0.6,1.3-1.1,2.3-1.1c2.2,0,3.4,1.6,3.4,3.6s-1.2,3.6-3.4,3.6c-0.9,0-1.8-0.4-2.3-1.1v3.5
			H1190z M1195.7,7392.5c0-1.6-0.9-2.6-2.3-2.6c-1.4,0-2.3,1-2.3,2.6c0,1.6,0.9,2.6,2.3,2.6C1194.7,7395,1195.7,7394,1195.7,7392.5z
			"/>
		<path d="M1198.4,7396v-9.9h1.2v9.9H1198.4z"/>
		<path d="M1201.1,7392.5c0-2.1,1.5-3.6,3.6-3.6c2.1,0,3.6,1.5,3.6,3.6s-1.5,3.6-3.6,3.6C1202.6,7396.1,1201.1,7394.6,1201.1,7392.5
			z M1207,7392.5c0-1.5-1-2.6-2.4-2.6s-2.4,1.1-2.4,2.6s1,2.6,2.4,2.6S1207,7394,1207,7392.5z"/>
		<path d="M1214.2,7388.9h1.2l-3.7,9.6h-1.2l1-2.6l-2.8-7h1.3l2.1,5.4L1214.2,7388.9z"/>
		<path d="M1222.7,7392.7h-5.6c0.1,1.4,1,2.4,2.3,2.4c1.1,0,1.8-0.5,2-1.4l1.1,0.3c-0.4,1.4-1.5,2.2-3.2,2.2c-2.1,0-3.4-1.6-3.4-3.6
			c0-2,1.3-3.6,3.4-3.6c2.1,0,3.4,1.5,3.4,3.3C1222.7,7392.3,1222.7,7392.6,1222.7,7392.7z M1221.5,7391.7c-0.1-1.1-0.9-1.9-2.1-1.9
			c-1.1,0-1.9,0.7-2.2,1.9H1221.5z"/>
		<path d="M1230.6,7392.7h-5.6c0.1,1.4,1,2.4,2.3,2.4c1.1,0,1.8-0.5,2-1.4l1.1,0.3c-0.3,1.4-1.5,2.2-3.2,2.2c-2.1,0-3.4-1.6-3.4-3.6
			c0-2,1.3-3.6,3.4-3.6c2.1,0,3.4,1.5,3.4,3.3C1230.6,7392.3,1230.6,7392.6,1230.6,7392.7z M1229.4,7391.7c-0.1-1.1-0.9-1.9-2.1-1.9
			c-1.1,0-1.9,0.7-2.2,1.9H1229.4z"/>
		<path d="M1235,7394.1l1-0.4c0.3,0.8,0.8,1.5,1.9,1.5c0.9,0,1.4-0.5,1.4-1.1c0-1.8-4.1-0.6-4.1-3.3c0-1.1,1-1.9,2.5-1.9
			c1.2,0,2.3,0.7,2.6,1.7l-1,0.4c-0.2-0.7-0.9-1.2-1.7-1.2c-0.8,0-1.3,0.3-1.3,0.9c0,1.5,4.1,0.4,4.1,3.3c0,1.2-1,2.1-2.6,2.1
			C1236.2,7396.1,1235.3,7395,1235,7394.1z"/>
		<path d="M1247.5,7391.5v4.5h-1.2v-1.2c-0.4,0.8-1.3,1.3-2.4,1.3c-1.4,0-2.4-0.9-2.4-2.1c0-1.4,1.1-2.1,3.4-2.3l1.4-0.2v-0.1
			c0-1-0.7-1.6-1.7-1.6c-1,0-1.7,0.6-1.8,1.5l-1.1-0.2c0.2-1.4,1.4-2.3,2.9-2.3C1246.3,7388.8,1247.5,7389.8,1247.5,7391.5z
			 M1246.4,7392.8v-0.3l-1.4,0.2c-1.4,0.2-2.2,0.6-2.2,1.4c0,0.7,0.6,1.1,1.4,1.1C1245.6,7395.1,1246.4,7394.2,1246.4,7392.8z"/>
		<path d="M1253.2,7395.9c-0.4,0.1-0.7,0.2-1.1,0.2c-1.2,0-2.1-0.7-2.1-2.2v-3.9h-1.3v-1.1h1.3v-2.1h1.2v2.1h1.9v1.1h-1.9v3.9
			c0,0.7,0.4,1.1,1,1.1c0.3,0,0.6,0,0.9-0.2L1253.2,7395.9z"/>
		<path d="M1254.3,7386.8c0-0.5,0.3-0.8,0.8-0.8c0.5,0,0.9,0.4,0.9,0.8c0,0.5-0.4,0.8-0.9,0.8
			C1254.7,7387.6,1254.3,7387.2,1254.3,7386.8z M1254.6,7396v-7.1h1.2v7.1H1254.6z"/>
		<path d="M1257.1,7394.1l1-0.4c0.3,0.8,0.8,1.5,1.9,1.5c0.9,0,1.4-0.5,1.4-1.1c0-1.8-4.1-0.6-4.1-3.3c0-1.1,1-1.9,2.5-1.9
			c1.2,0,2.3,0.7,2.6,1.7l-1,0.4c-0.2-0.7-0.9-1.2-1.7-1.2c-0.8,0-1.3,0.3-1.3,0.9c0,1.5,4.1,0.4,4.1,3.3c0,1.2-1,2.1-2.6,2.1
			C1258.3,7396.1,1257.4,7395,1257.1,7394.1z"/>
		<path d="M1264.7,7396v-6h-1.2v-1.1h1.2v-0.7c0-1.6,0.9-2.4,2.1-2.4c0.3,0,0.7,0,1,0.1l-0.1,1.1c-0.3-0.1-0.5-0.1-0.7-0.1
			c-0.6,0-1.1,0.5-1.1,1.2v0.8h1.8v1.1h-1.8v6H1264.7z"/>
		<path d="M1274.3,7391.5v4.5h-1.2v-1.2c-0.4,0.8-1.3,1.3-2.4,1.3c-1.4,0-2.4-0.9-2.4-2.1c0-1.4,1.1-2.1,3.4-2.3l1.4-0.2v-0.1
			c0-1-0.7-1.6-1.7-1.6c-1,0-1.7,0.6-1.8,1.5l-1.1-0.2c0.2-1.4,1.4-2.3,2.9-2.3C1273.1,7388.8,1274.3,7389.8,1274.3,7391.5z
			 M1273.2,7392.8v-0.3l-1.4,0.2c-1.4,0.2-2.2,0.6-2.2,1.4c0,0.7,0.6,1.1,1.4,1.1C1272.4,7395.1,1273.2,7394.2,1273.2,7392.8z"/>
		<path d="M1275.9,7392.5c0-2.2,1.4-3.6,3.5-3.6c1.6,0,2.8,0.9,3.1,2.3l-1.2,0.2c-0.2-0.9-0.9-1.5-1.9-1.5c-1.4,0-2.3,1-2.3,2.6
			c0,1.6,0.9,2.6,2.3,2.6c1,0,1.7-0.5,1.9-1.5l1.2,0.2c-0.3,1.5-1.5,2.3-3.1,2.3C1277.3,7396.1,1275.9,7394.7,1275.9,7392.5z"/>
		<path d="M1287.6,7395.9c-0.4,0.1-0.7,0.2-1.1,0.2c-1.2,0-2.1-0.7-2.1-2.2v-3.9h-1.3v-1.1h1.3v-2.1h1.2v2.1h1.9v1.1h-1.9v3.9
			c0,0.7,0.4,1.1,1,1.1c0.3,0,0.6,0,0.9-0.2L1287.6,7395.9z"/>
		<path d="M1288.7,7386.8c0-0.5,0.3-0.8,0.8-0.8c0.5,0,0.9,0.4,0.9,0.8c0,0.5-0.4,0.8-0.9,0.8
			C1289.1,7387.6,1288.7,7387.2,1288.7,7386.8z M1289,7396v-7.1h1.2v7.1H1289z"/>
		<path d="M1291.7,7392.5c0-2.1,1.5-3.6,3.6-3.6c2.1,0,3.6,1.5,3.6,3.6s-1.5,3.6-3.6,3.6C1293.2,7396.1,1291.7,7394.6,1291.7,7392.5
			z M1297.7,7392.5c0-1.5-1-2.6-2.4-2.6c-1.4,0-2.4,1.1-2.4,2.6s1,2.6,2.4,2.6C1296.7,7395,1297.7,7394,1297.7,7392.5z"/>
		<path d="M1300.4,7396v-7.1h1.2v1.3c0.5-0.8,1.3-1.4,2.4-1.4c1.5,0,2.5,1,2.5,2.5v4.7h-1.2v-4.5c0-1-0.6-1.6-1.6-1.6
			c-1.3,0-2.2,1.1-2.2,3v3.1H1300.4z"/>
		<path d="M1308.5,7395.3c0-0.5,0.4-0.8,0.9-0.8c0.5,0,0.9,0.4,0.9,0.8c0,0.5-0.4,0.8-0.9,0.8
			C1308.8,7396.1,1308.5,7395.8,1308.5,7395.3z"/>
	</g>
	<g id="Group_445" transform="translate(834.965 -850.035)">
		<g id="Line_302">
			<rect x="365.8" y="7840.5" class="st6" width="1.5" height="18.1"/>
		</g>
		<g id="Line_303">
			<rect x="357.5" y="7848.8" class="st6" width="18.1" height="1.5"/>
		</g>
	</g>
	<g id="Line_308">
		<rect x="1201" y="6919.5" class="st1" width="1" height="59"/>
	</g>
	<g id="Group_446" transform="translate(801 -903)">
		<g id="Ellipse_64" transform="translate(391 8012)">
			<g>
				<circle class="st5" cx="9.5" cy="9.5" r="9.5"/>
			</g>
			<g>
				<path class="st1" d="M9.5,19C4.3,19,0,14.7,0,9.5S4.3,0,9.5,0S19,4.3,19,9.5S14.7,19,9.5,19z M9.5,1C4.8,1,1,4.8,1,9.5
					S4.8,18,9.5,18c4.7,0,8.5-3.8,8.5-8.5S14.2,1,9.5,1z"/>
			</g>
		</g>
		<g id="Path_495">
			<polygon class="st6" points="399.3,8024.8 396.9,8022.4 397.6,8021.6 399.3,8023.3 404,8018.7 404.7,8019.4 			"/>
		</g>
	</g>
	<g id="Ellipse_75" transform="translate(1192 7222)">
		<g>
			<circle class="st5" cx="9.5" cy="9.5" r="9.5"/>
		</g>
		<g>
			<path class="st1" d="M9.5,19C4.3,19,0,14.7,0,9.5S4.3,0,9.5,0S19,4.3,19,9.5S14.7,19,9.5,19z M9.5,1C4.8,1,1,4.8,1,9.5
				S4.8,18,9.5,18c4.7,0,8.5-3.8,8.5-8.5S14.2,1,9.5,1z"/>
		</g>
	</g>
	<g id="Ellipse_79" transform="translate(1192 7338)">
		<g>
			<circle class="st5" cx="9.5" cy="9.5" r="9.5"/>
		</g>
		<g>
			<path class="st1" d="M9.5,19C4.3,19,0,14.7,0,9.5S4.3,0,9.5,0S19,4.3,19,9.5S14.7,19,9.5,19z M9.5,1C4.8,1,1,4.8,1,9.5
				S4.8,18,9.5,18c4.7,0,8.5-3.8,8.5-8.5S14.2,1,9.5,1z"/>
		</g>
	</g>
	<g id="Path_497">
		<polygon class="st6" points="1200.3,7234.8 1197.9,7232.4 1198.6,7231.6 1200.3,7233.3 1205,7228.7 1205.7,7229.4 		"/>
	</g>
	<g id="Path_498">
		<polygon class="st6" points="1200.3,7350.8 1197.9,7348.4 1198.6,7347.6 1200.3,7349.3 1205,7344.7 1205.7,7345.4 		"/>
	</g>
	<g class="st4">
		<path d="M1134.1,6821v-5.8l-4.9-8.2h2.6l3.5,6l3.5-6h2.6l-4.9,8.2v5.8H1134.1z"/>
		<path d="M1139.8,6816c0-3,2.2-5.2,5.2-5.2c3,0,5.2,2.2,5.2,5.2s-2.2,5.2-5.2,5.2C1141.9,6821.2,1139.8,6819,1139.8,6816z
			 M1148,6816c0-1.9-1.2-3.3-3-3.3c-1.8,0-3,1.4-3,3.3s1.2,3.3,3,3.3C1146.7,6819.3,1148,6817.9,1148,6816z"/>
		<path d="M1160.9,6810.9v10.1h-2.2v-1.7c-0.7,1.1-1.8,1.8-3.3,1.8c-2.2,0-3.7-1.4-3.7-3.6v-6.6h2.2v6.1c0,1.3,0.8,2.1,2.1,2.1
			c1.7,0,2.7-1.4,2.7-3.9v-4.4H1160.9z"/>
		<path d="M1169.4,6813c-0.4-0.2-0.8-0.2-1.3-0.2c-1.5,0-2.8,1.3-2.8,4.4v3.8h-2.2v-10.1h2.2v1.9c0.5-1.2,1.9-2.1,3.1-2.1
			c0.4,0,0.8,0.1,1.1,0.2L1169.4,6813z"/>
		<path d="M1175.2,6821v-14h2.3v14H1175.2z"/>
		<path d="M1183.2,6821v-12h-4.3v-2h11v2h-4.3v12H1183.2z"/>
		<path d="M1194.8,6816.8l2.1-0.7c0.2,1.8,1.6,3,3.3,3c1.7,0,2.7-0.8,2.7-2c0-3.3-7.7-1.5-7.7-6.5c0-2.2,2.1-3.8,4.8-3.8
			c2.6,0,4.7,1.4,5.1,3.5l-2.1,0.9c-0.3-1.4-1.4-2.3-3-2.3c-1.5,0-2.4,0.6-2.4,1.7c0,2.8,7.7,0.9,7.7,6.5c0,2.4-2.1,4.1-5.2,4.1
			C1197.4,6821.2,1195.2,6819.4,1194.8,6816.8z"/>
		<path d="M1212.6,6820.9c-0.5,0.2-1,0.2-1.6,0.2c-1.9,0-3.3-1-3.3-3.3v-5h-1.8v-1.9h1.8v-3h2.2v3h2.6v1.9h-2.6v4.9
			c0,1,0.6,1.5,1.4,1.5c0.4,0,0.8-0.1,1.2-0.2L1212.6,6820.9z"/>
		<path d="M1220.3,6813c-0.4-0.2-0.8-0.2-1.3-0.2c-1.5,0-2.8,1.3-2.8,4.4v3.8h-2.2v-10.1h2.2v1.9c0.5-1.2,1.9-2.1,3.1-2.1
			c0.4,0,0.8,0.1,1.1,0.2L1220.3,6813z"/>
		<path d="M1229.4,6814.7v6.3h-2.1v-1.5c-0.6,1-1.8,1.7-3.2,1.7c-2,0-3.4-1.3-3.4-3c0-2,1.5-3,4.6-3.4l1.9-0.2v-0.1
			c0-1.2-0.9-2-2.2-2c-1.2,0-2.1,0.7-2.2,1.9l-2-0.4c0.3-2,2-3.3,4.2-3.3C1227.7,6810.8,1229.4,6812.2,1229.4,6814.7z
			 M1227.3,6816.7v-0.4l-1.9,0.2c-1.6,0.2-2.5,0.8-2.5,1.7c0,0.8,0.7,1.4,1.7,1.4C1226.3,6819.5,1227.3,6818.3,1227.3,6816.7z"/>
		<path d="M1237.2,6820.9c-0.5,0.2-1,0.2-1.6,0.2c-1.9,0-3.3-1-3.3-3.3v-5h-1.8v-1.9h1.8v-3h2.2v3h2.6v1.9h-2.6v4.9
			c0,1,0.6,1.5,1.4,1.5c0.4,0,0.8-0.1,1.2-0.2L1237.2,6820.9z"/>
		<path d="M1247.7,6816.5h-7.7c0.2,1.7,1.3,2.8,2.9,2.8c1.3,0,2.3-0.6,2.5-1.7l2.1,0.5c-0.5,1.9-2.3,3.1-4.6,3.1c-3.2,0-5-2.5-5-5.2
			s1.7-5.2,4.9-5.2c3.2,0,5,2.4,5,4.8C1247.8,6815.9,1247.7,6816.3,1247.7,6816.5z M1245.4,6814.8c-0.1-1.4-1-2.3-2.6-2.3
			c-1.4,0-2.4,0.8-2.7,2.3H1245.4z"/>
		<path d="M1256.6,6810.9h2.2v9.5c0,2.6-2,4.4-4.9,4.4c-2.4,0-4.2-1.3-4.5-3.1l2-0.3c0.1,1,1.2,1.7,2.5,1.7c1.6,0,2.7-1,2.7-2.4
			v-1.2c-0.5,0.8-1.7,1.3-3,1.3c-3,0-4.7-2.1-4.7-5c0-2.9,1.7-5,4.7-5c1.3,0,2.4,0.5,3,1.3V6810.9z M1256.7,6815.7
			c0-1.9-1.1-3.1-2.8-3.1c-1.7,0-2.8,1.2-2.8,3.1s1.1,3.1,2.8,3.1C1255.6,6818.8,1256.7,6817.6,1256.7,6815.7z"/>
		<path d="M1260.6,6807.8c0-0.8,0.6-1.4,1.4-1.4c0.8,0,1.4,0.6,1.4,1.4c0,0.8-0.6,1.4-1.4,1.4
			C1261.2,6809.2,1260.6,6808.6,1260.6,6807.8z M1260.9,6821v-10.1h2.2v10.1H1260.9z"/>
		<path d="M1264.7,6816c0-3.1,2-5.2,5.1-5.2c2.5,0,4.3,1.3,4.6,3.4l-2.1,0.4c-0.2-1.1-1.1-1.9-2.4-1.9c-1.7,0-2.9,1.3-2.9,3.3
			s1.1,3.3,2.9,3.3c1.3,0,2.2-0.7,2.4-1.9l2.1,0.4c-0.4,2.1-2.2,3.4-4.6,3.4C1266.8,6821.2,1264.7,6819.1,1264.7,6816z"/>
	</g>
	<g class="st4">
		<path d="M1170.3,6845v-14h5.5c2.8,0,4.6,1.6,4.6,4.2c0,2.5-1.8,4.2-4.6,4.2h-3.2v5.6H1170.3z M1172.6,6837.3h3
			c1.5,0,2.4-0.8,2.4-2.1c0-1.3-0.9-2.1-2.4-2.1h-3V6837.3z"/>
		<path d="M1189.4,6838.7v6.3h-2.1v-1.5c-0.6,1-1.8,1.7-3.2,1.7c-2,0-3.4-1.3-3.4-3c0-2,1.5-3,4.6-3.4l1.9-0.2v-0.1
			c0-1.2-0.9-2-2.2-2c-1.2,0-2.1,0.7-2.2,1.9l-2-0.4c0.3-2,2-3.3,4.2-3.3C1187.7,6834.8,1189.4,6836.2,1189.4,6838.7z
			 M1187.3,6840.7v-0.4l-1.9,0.2c-1.6,0.2-2.5,0.8-2.5,1.7c0,0.8,0.7,1.4,1.7,1.4C1186.3,6843.5,1187.3,6842.3,1187.3,6840.7z"/>
		<path d="M1197.9,6837c-0.4-0.2-0.8-0.2-1.3-0.2c-1.5,0-2.8,1.3-2.8,4.4v3.8h-2.2v-10.1h2.2v1.9c0.5-1.2,1.9-2.1,3.1-2.1
			c0.4,0,0.8,0.1,1.1,0.2L1197.9,6837z"/>
		<path d="M1205.2,6844.9c-0.5,0.2-1,0.2-1.6,0.2c-1.9,0-3.3-1-3.3-3.3v-5h-1.8v-1.9h1.8v-3h2.2v3h2.6v1.9h-2.6v4.9
			c0,1,0.6,1.5,1.4,1.5c0.4,0,0.8-0.1,1.2-0.2L1205.2,6844.9z"/>
		<path d="M1206.7,6845v-10.1h2.2v1.7c0.7-1.1,1.8-1.8,3.3-1.8c2.1,0,3.6,1.4,3.6,3.6v6.6h-2.2v-6.1c0-1.3-0.8-2.1-2.1-2.1
			c-1.7,0-2.7,1.4-2.7,3.9v4.4H1206.7z"/>
		<path d="M1227.3,6840.5h-7.7c0.2,1.7,1.3,2.8,2.9,2.8c1.3,0,2.3-0.6,2.5-1.7l2.1,0.5c-0.5,1.9-2.3,3.1-4.6,3.1c-3.2,0-5-2.5-5-5.2
			s1.7-5.2,4.9-5.2c3.2,0,5,2.4,5,4.8C1227.3,6839.9,1227.3,6840.3,1227.3,6840.5z M1225,6838.8c-0.1-1.4-1-2.3-2.6-2.3
			c-1.4,0-2.4,0.8-2.7,2.3H1225z"/>
		<path d="M1235.2,6837c-0.4-0.2-0.8-0.2-1.3-0.2c-1.5,0-2.8,1.3-2.8,4.4v3.8h-2.2v-10.1h2.2v1.9c0.5-1.2,1.9-2.1,3.1-2.1
			c0.4,0,0.8,0.1,1.1,0.2L1235.2,6837z"/>
	</g>
	<g id="Ellipse_76" transform="translate(1198 6916)">
		<g>
			<circle class="st5" cx="3.5" cy="3.5" r="3.5"/>
		</g>
		<g>
			<path class="st1" d="M3.5,7C1.6,7,0,5.4,0,3.5S1.6,0,3.5,0S7,1.6,7,3.5S5.4,7,3.5,7z M3.5,1C2.1,1,1,2.1,1,3.5S2.1,6,3.5,6
				C4.9,6,6,4.9,6,3.5S4.9,1,3.5,1z"/>
		</g>
	</g>
</g>
</svg>
