<svg xmlns="http://www.w3.org/2000/svg" width="680" height="819" viewBox="0 0 680 819">
  <g id="Group_642" data-name="Group 642" transform="translate(-860 -2507)">
    <g id="Rectangle_180" data-name="Rectangle 180" transform="translate(1056 3085)" fill="#eef0f0" stroke="#95a5a5" stroke-width="1">
      <rect width="289" height="67" rx="5" stroke="none"/>
      <rect x="0.5" y="0.5" width="288" height="66" rx="4.5" fill="none"/>
    </g>
    <g id="Rectangle_263" data-name="Rectangle 263" transform="translate(1056 3174)" fill="#eef0f0" stroke="#95a5a5" stroke-width="1">
      <rect width="289" height="67" rx="5" stroke="none"/>
      <rect x="0.5" y="0.5" width="288" height="66" rx="4.5" fill="none"/>
    </g>
    <g id="Rectangle_264" data-name="Rectangle 264" transform="translate(1056 3259)" fill="#eef0f0" stroke="#95a5a5" stroke-width="1">
      <rect width="289" height="67" rx="5" stroke="none"/>
      <rect x="0.5" y="0.5" width="288" height="66" rx="4.5" fill="none"/>
    </g>
    <g id="Rectangle_174" data-name="Rectangle 174" transform="translate(1056 2967)" fill="#f7f7f7" stroke="#95a5a5" stroke-width="1">
      <rect width="289" height="95" rx="5" stroke="none"/>
      <rect x="0.5" y="0.5" width="288" height="94" rx="4.5" fill="none"/>
    </g>
    <g id="Rectangle_265" data-name="Rectangle 265" transform="translate(860 2818)" fill="#f7f7f7" stroke="#95a5a5" stroke-width="1">
      <rect width="272" height="80" rx="5" stroke="none"/>
      <rect x="0.5" y="0.5" width="271" height="79" rx="4.5" fill="none"/>
    </g>
    <g id="Rectangle_266" data-name="Rectangle 266" transform="translate(1268 2818)" fill="#f7f7f7" stroke="#95a5a5" stroke-width="1">
      <rect width="272" height="80" rx="5" stroke="none"/>
      <rect x="0.5" y="0.5" width="271" height="79" rx="4.5" fill="none"/>
    </g>
    <g id="Ellipse_83" data-name="Ellipse 83" transform="translate(1102 2507)" fill="#e5e9e9" stroke="#95a5a5" stroke-width="1">
      <circle cx="99" cy="99" r="99" stroke="none"/>
      <circle cx="99" cy="99" r="98.5" fill="none"/>
    </g>
    <text id="Public_Cloud_Infrastructure_Consulting" data-name="Public Cloud
Infrastructure
Consulting" transform="translate(1201 2594)" font-size="20" font-family="Matter-Medium, Matter" font-weight="500" letter-spacing="-0.03em"><tspan x="-54.63" y="0">Public Cloud</tspan><tspan x="-59.89" y="20">Infrastructure</tspan><tspan x="-47.13" y="40">Consulting</tspan></text>
    <text id="Cost-efficient_use_of_highly_secure_infrastructure_of_Microsoft_Azure_Microsoft_365_Citrix_Cloud." data-name="Cost-efficient use of highly secure infrastructure of Microsoft Azure, Microsoft 365 &amp; Citrix Cloud." transform="translate(1078 2987)" font-size="14" font-family="Matter-Regular, Matter"><tspan x="13.762" y="14">Cost-efficient use of highly secure </tspan><tspan x="15.799" y="32">infrastructure of </tspan><tspan y="32" font-family="Matter-Medium, Matter" font-weight="500">Microsoft Azure</tspan><tspan y="32">, </tspan><tspan x="29.477" y="50" font-family="Matter-Medium, Matter" font-weight="500">Microsoft 365 &amp; Citrix Cloud.</tspan></text>
    <text id="In_depth_business_and_company_overview." data-name="In depth business and company overview." transform="translate(874 2841)" font-size="14" font-family="Matter-Regular, Matter"><tspan x="22.141" y="14">In depth business and company </tspan><tspan x="92.967" y="32">overview.</tspan></text>
    <text id="Evaluation_of_performance_and_security_needs." data-name="Evaluation of performance and security needs." transform="translate(1282 2841)" font-size="14" font-family="Matter-Regular, Matter"><tspan x="24.689" y="14">Evaluation of performance and </tspan><tspan x="74.403" y="32">security needs.</tspan></text>
    <text id="Increase_agility_and_scalability." data-name="Increase agility and scalability." transform="translate(1074 3110)" font-size="14" font-family="Matter-Regular, Matter"><tspan x="32.08" y="14">Increase agility and scalability.</tspan></text>
    <text id="Increase_speed_while_reducing_cost." data-name="Increase speed while reducing cost." transform="translate(1074 3199)" font-size="14" font-family="Matter-Regular, Matter"><tspan x="13.488" y="14">Increase speed while reducing cost.</tspan></text>
    <text id="Build_in_advanced_data_security." data-name="Build in advanced data security." transform="translate(1074 3284)" font-size="14" font-family="Matter-Regular, Matter"><tspan x="27.152" y="14">Build in advanced data security.</tspan></text>
    <line id="Line_410" data-name="Line 410" y2="22" transform="translate(1201 3061.5)" fill="none" stroke="#95a5a5" stroke-width="1"/>
    <line id="Line_411" data-name="Line 411" y2="22" transform="translate(1201 3150.5)" fill="none" stroke="#95a5a5" stroke-width="1"/>
    <line id="Line_412" data-name="Line 412" y2="22" transform="translate(1201 3240.5)" fill="none" stroke="#95a5a5" stroke-width="1"/>
    <line id="Line_406" data-name="Line 406" y2="49" transform="translate(996.5 2766.5)" fill="none" stroke="#95a5a5" stroke-width="1"/>
    <line id="Line_407" data-name="Line 407" y2="49" transform="translate(1404.5 2766.5)" fill="none" stroke="#95a5a5" stroke-width="1"/>
    <g id="Ellipse_98" data-name="Ellipse 98" transform="translate(1197.5 2700)" fill="#fff" stroke="#95a5a5" stroke-width="1">
      <circle cx="3.5" cy="3.5" r="3.5" stroke="none"/>
      <circle cx="3.5" cy="3.5" r="3" fill="none"/>
    </g>
    <path id="Path_515" data-name="Path 515" d="M0,183.022V73.949" transform="translate(1201 2784.051)" fill="none" stroke="#95a5a5" stroke-width="1"/>
    <line id="Line_402" data-name="Line 402" x2="408" transform="translate(996.5 2766.5)" fill="none" stroke="#95a5a5" stroke-width="1"/>
    <line id="Line_408" data-name="Line 408" x2="69" transform="translate(1132.5 2858.5)" fill="none" stroke="#95a5a5" stroke-width="1"/>
    <line id="Line_409" data-name="Line 409" x2="69" transform="translate(1199.5 2858.5)" fill="none" stroke="#95a5a5" stroke-width="1"/>
    <g id="Ellipse_161" data-name="Ellipse 161" transform="translate(1204.5 2862) rotate(180)" fill="#fff" stroke="#95a5a5" stroke-width="1">
      <circle cx="3.5" cy="3.5" r="3.5" stroke="none"/>
      <circle cx="3.5" cy="3.5" r="3" fill="none"/>
    </g>
    <g id="Ellipse_168" data-name="Ellipse 168" transform="translate(1204.5 2971) rotate(180)" fill="#fff" stroke="#95a5a5" stroke-width="1">
      <circle cx="3.5" cy="3.5" r="3.5" stroke="none"/>
      <circle cx="3.5" cy="3.5" r="3" fill="none"/>
    </g>
    <g id="Ellipse_169" data-name="Ellipse 169" transform="translate(1204.5 3065) rotate(180)" fill="#fff" stroke="#95a5a5" stroke-width="1">
      <circle cx="3.5" cy="3.5" r="3.5" stroke="none"/>
      <circle cx="3.5" cy="3.5" r="3" fill="none"/>
    </g>
    <g id="Ellipse_170" data-name="Ellipse 170" transform="translate(1204.5 3155) rotate(180)" fill="#fff" stroke="#95a5a5" stroke-width="1">
      <circle cx="3.5" cy="3.5" r="3.5" stroke="none"/>
      <circle cx="3.5" cy="3.5" r="3" fill="none"/>
    </g>
    <g id="Ellipse_171" data-name="Ellipse 171" transform="translate(1204.5 3244) rotate(180)" fill="#fff" stroke="#95a5a5" stroke-width="1">
      <circle cx="3.5" cy="3.5" r="3.5" stroke="none"/>
      <circle cx="3.5" cy="3.5" r="3" fill="none"/>
    </g>
    <g id="Ellipse_162" data-name="Ellipse 162" transform="translate(1135 2862) rotate(180)" fill="#fff" stroke="#95a5a5" stroke-width="1">
      <circle cx="3.5" cy="3.5" r="3.5" stroke="none"/>
      <circle cx="3.5" cy="3.5" r="3" fill="none"/>
    </g>
    <g id="Ellipse_163" data-name="Ellipse 163" transform="translate(1272 2862) rotate(180)" fill="#fff" stroke="#95a5a5" stroke-width="1">
      <circle cx="3.5" cy="3.5" r="3.5" stroke="none"/>
      <circle cx="3.5" cy="3.5" r="3" fill="none"/>
    </g>
    <g id="Ellipse_157" data-name="Ellipse 157" transform="translate(1000 2822) rotate(180)" fill="#fff" stroke="#95a5a5" stroke-width="1">
      <circle cx="3.5" cy="3.5" r="3.5" stroke="none"/>
      <circle cx="3.5" cy="3.5" r="3" fill="none"/>
    </g>
    <g id="Ellipse_159" data-name="Ellipse 159" transform="translate(1000 2770) rotate(180)" fill="#fff" stroke="#95a5a5" stroke-width="1">
      <circle cx="3.5" cy="3.5" r="3.5" stroke="none"/>
      <circle cx="3.5" cy="3.5" r="3" fill="none"/>
    </g>
    <g id="Ellipse_160" data-name="Ellipse 160" transform="translate(1408 2770) rotate(180)" fill="#fff" stroke="#95a5a5" stroke-width="1">
      <circle cx="3.5" cy="3.5" r="3.5" stroke="none"/>
      <circle cx="3.5" cy="3.5" r="3" fill="none"/>
    </g>
    <g id="Ellipse_158" data-name="Ellipse 158" transform="translate(1408 2822) rotate(180)" fill="#fff" stroke="#95a5a5" stroke-width="1">
      <circle cx="3.5" cy="3.5" r="3.5" stroke="none"/>
      <circle cx="3.5" cy="3.5" r="3" fill="none"/>
    </g>
    <circle id="Ellipse_72" data-name="Ellipse 72" cx="13.5" cy="13.5" r="13.5" transform="translate(1188 3072)" fill="#95a5a5" opacity="0.18"/>
    <circle id="Ellipse_164" data-name="Ellipse 164" cx="13.5" cy="13.5" r="13.5" transform="translate(1188 3161)" fill="#95a5a5" opacity="0.18"/>
    <circle id="Ellipse_165" data-name="Ellipse 165" cx="13.5" cy="13.5" r="13.5" transform="translate(1188 3246)" fill="#95a5a5" opacity="0.18"/>
    <g id="Group_446" data-name="Group 446" transform="translate(801 -4936)">
      <g id="Ellipse_64" data-name="Ellipse 64" transform="translate(391 8012)" fill="#fff" stroke="#95a5a5" stroke-width="1">
        <circle cx="9.5" cy="9.5" r="9.5" stroke="none"/>
        <circle cx="9.5" cy="9.5" r="9" fill="none"/>
      </g>
      <path id="Path_495" data-name="Path 495" d="M2509.962,3508.709l2.047,2.047,5.029-5.029" transform="translate(-2112.731 4513.29)" fill="none" stroke="#182b39" stroke-width="1"/>
    </g>
    <g id="Group_564" data-name="Group 564" transform="translate(801 -4847)">
      <g id="Ellipse_64-2" data-name="Ellipse 64" transform="translate(391 8012)" fill="#fff" stroke="#95a5a5" stroke-width="1">
        <circle cx="9.5" cy="9.5" r="9.5" stroke="none"/>
        <circle cx="9.5" cy="9.5" r="9" fill="none"/>
      </g>
      <path id="Path_495-2" data-name="Path 495" d="M2509.962,3508.709l2.047,2.047,5.029-5.029" transform="translate(-2112.731 4513.29)" fill="none" stroke="#182b39" stroke-width="1"/>
    </g>
    <g id="Group_565" data-name="Group 565" transform="translate(801 -4762)">
      <g id="Ellipse_64-3" data-name="Ellipse 64" transform="translate(391 8012)" fill="#fff" stroke="#95a5a5" stroke-width="1">
        <circle cx="9.5" cy="9.5" r="9.5" stroke="none"/>
        <circle cx="9.5" cy="9.5" r="9" fill="none"/>
      </g>
      <path id="Path_495-3" data-name="Path 495" d="M2509.962,3508.709l2.047,2.047,5.029-5.029" transform="translate(-2112.731 4513.29)" fill="none" stroke="#182b39" stroke-width="1"/>
    </g>
    <line id="Line_422" data-name="Line 422" y2="30" transform="translate(1201 2706.5)" fill="none" stroke="#95a5a5" stroke-width="1"/>
    <g id="Group_596" data-name="Group 596" transform="translate(0 45)">
      <circle id="Ellipse_194" data-name="Ellipse 194" cx="41.5" cy="41.5" r="41.5" transform="translate(1160 2680)" fill="#95a5a5" opacity="0.18"/>
      <g id="Ellipse_195" data-name="Ellipse 195" transform="translate(1169.578 2689.875)" fill="#fff" stroke="#95a5a5" stroke-width="1">
        <circle cx="31.866" cy="31.866" r="31.866" stroke="none"/>
        <circle cx="31.866" cy="31.866" r="31.366" fill="none"/>
      </g>
      <g id="Group_577" data-name="Group 577" transform="translate(301.356 2385.805)">
        <path id="Path_519" data-name="Path 519" d="M890.635,344.2" fill="none" stroke="#182b38" stroke-miterlimit="10" stroke-width="2"/>
        <path id="Path_520" data-name="Path 520" d="M894.636,334.2c0-.317-.032-.629,0-.938a10.194,10.194,0,0,1,10.155-9.062h-.152a10,10,0,0,1,0,20" fill="none" stroke="#182b38" stroke-miterlimit="10" stroke-width="2"/>
        <path id="Path_521" data-name="Path 521" d="M904.711,328.2a6.228,6.228,0,0,0-6.095,5.432l.009.1c.006.155.011.311.011.468" fill="none" stroke="#182b38" stroke-miterlimit="10" stroke-width="2"/>
        <path id="Path_522" data-name="Path 522" d="M891.644,330.2a7,7,0,1,0,0,14h2.994" fill="none" stroke="#182b38" stroke-miterlimit="10" stroke-width="2"/>
        <g id="Group_576" data-name="Group 576">
          <line id="Line_423" data-name="Line 423" y1="8" transform="translate(899.635 340.195)" fill="none" stroke="#182b38" stroke-miterlimit="10" stroke-width="2"/>
        </g>
        <path id="Path_523" data-name="Path 523" d="M896.64,343.195l3-2.828,3,2.828" fill="none" stroke="#182b38" stroke-miterlimit="10" stroke-width="2"/>
      </g>
    </g>
  </g>
</svg>
