<svg xmlns="http://www.w3.org/2000/svg" width="29.772" height="40.598" viewBox="0 0 29.772 40.598">
    <defs>
        <style>
            .cls-1{fill:#182b39}
        </style>
    </defs>
    <g id="cloud-computing" transform="translate(-.5)">
        <path id="Path_493" d="M30.272 12.179a5.419 5.419 0 0 0-5.413-5.413H22.8a7.443 7.443 0 0 0-14.825 0H5.913a5.413 5.413 0 0 0 0 10.826h7.443v-1.353H5.913a4.06 4.06 0 1 1 0-8.12H9.3v-.676a6.09 6.09 0 1 1 12.179 0v.677h3.383a4.06 4.06 0 0 1 0 8.12h-7.446v1.353h7.443a5.419 5.419 0 0 0 5.413-5.414zm0 0" class="cls-1"/>
        <path id="Path_494" d="M27.565 145.386v-11.5a2.032 2.032 0 0 0-2.03-2.03h-1.353v-1.478a2.025 2.025 0 1 0-2.582-2.582h-5.538v-8.516l1.551 1.551.957-.957-3.185-3.185-3.185 3.183.957.957 1.551-1.551v8.516H9.172a2.025 2.025 0 1 0-2.582 2.582v2.155H2.53A2.032 2.032 0 0 0 .5 134.56v8.12a2.032 2.032 0 0 0 2.03 2.03h4.06v1.353H4.56v1.353h5.413v-1.353h-2.03v-1.353H12a2.032 2.032 0 0 0 2.03-2.03v-8.12a2.032 2.032 0 0 0-2.03-2.03H7.943v-2.154a2.028 2.028 0 0 0 1.229-1.229H21.6a2.027 2.027 0 0 0 1.229 1.228v1.478h-4.06a2.032 2.032 0 0 0-2.03 2.03v11.5a2.032 2.032 0 0 0 2.03 2.03h6.766a2.032 2.032 0 0 0 2.03-2.03zm-14.886-2.707a.677.677 0 0 1-.677.677H2.53a.677.677 0 0 1-.677-.677v-1.353h10.826zm-.677-8.8a.677.677 0 0 1 .677.677v5.413H1.853v-5.409a.677.677 0 0 1 .677-.677zm-4.736-4.736a.677.677 0 1 1 .677-.677.677.677 0 0 1-.677.681zm16.239-1.353a.677.677 0 1 1-.677.677.677.677 0 0 1 .677-.674zm-5.413 6.09a.677.677 0 0 1 .677-.677h6.766a.677.677 0 0 1 .677.677v8.8h-8.12zm0 11.5v-1.353h8.12v1.353a.677.677 0 0 1-.677.677h-6.766a.677.677 0 0 1-.677-.671zm0 0" class="cls-1" transform="translate(0 -106.818)"/>
    </g>
</svg>
