<svg xmlns="http://www.w3.org/2000/svg" viewBox="0 0 28.6 29.1">
  <defs>
    <style>
      .a {
        fill: none;
        stroke: #192b38;
        stroke-miterlimit: 10;
        stroke-width: 2px;
      }
    </style>
  </defs>
  <title>competence</title>
  <g>
    <g>
      <path class="a" d="M21.7,18.1a3.6,3.6,0,1,1-3.6-3.6A3.6,3.6,0,0,1,21.7,18.1Z" transform="translate(-3.8 -3.6)"/>
      <path class="a" d="M13.1,25.3" transform="translate(-3.8 -3.6)"/>
    </g>
    <path class="a" d="M15.3,7.3l-.2,1.3a10.2,10.2,0,0,0-3.7,2L7.3,9.4,5.1,13.2l3,3a12.3,12.3,0,0,0-.2,1.9,8.3,8.3,0,0,0,.3,2.2L5.5,23l2.1,3.7,3.9-1a8.9,8.9,0,0,0,3.6,1.9l1,4.1h4.4l1.1-4.4a9.2,9.2,0,0,0,2.7-1.6l4.2,1.1,2.2-3.7L27.6,20a11,11,0,0,0,.2-1.8,7.6,7.6,0,0,0-.1-1.5l3.5-3.4L29,9.5l-4.5,1.2a13.4,13.4,0,0,0-2.8-1.8L20.5,4.6H15.3" transform="translate(-3.8 -3.6)"/>
  </g>
</svg>
