<svg xmlns="http://www.w3.org/2000/svg" width="43.778" height="48.956" viewBox="0 0 43.778 48.956">
  <g id="infrastructure-management-ico" transform="translate(-357.987 -418.242)">
    <g id="Group_634" data-name="Group 634" transform="translate(375.439 419.617)">
      <g id="Group_633" data-name="Group 633" transform="translate(4.433)">
        <line id="Line_453" data-name="Line 453" y1="47.582" fill="none" stroke="#182b38" stroke-miterlimit="10" stroke-width="2"/>
      </g>
      <path id="Path_539" data-name="Path 539" d="M371.008,423.8l4.427-4.179,4.44,4.179" transform="translate(-371.008 -419.617)" fill="none" stroke="#182b38" stroke-miterlimit="10" stroke-width="2"/>
    </g>
    <g id="Group_635" data-name="Group 635" transform="translate(383.059 431.085)">
      <path id="Path_540" data-name="Path 540" d="M376.576,438.99h17.706V428H376.576" transform="translate(-376.576 -427.996)" fill="none" stroke="#182b38" stroke-miterlimit="10" stroke-width="2"/>
      <rect id="Rectangle_292" data-name="Rectangle 292" width="2.199" height="2.199" transform="translate(6.23 2.8)" fill="#182b38"/>
      <rect id="Rectangle_293" data-name="Rectangle 293" width="2.199" height="2.199" transform="translate(9.529 2.8)" fill="#182b38"/>
      <rect id="Rectangle_294" data-name="Rectangle 294" width="2.199" height="2.199" transform="translate(12.827 2.8)" fill="#182b38"/>
      <rect id="Rectangle_295" data-name="Rectangle 295" width="2.199" height="2.199" transform="translate(6.23 5.995)" fill="#182b38"/>
      <rect id="Rectangle_296" data-name="Rectangle 296" width="2.199" height="2.199" transform="translate(9.529 5.995)" fill="#182b38"/>
      <rect id="Rectangle_297" data-name="Rectangle 297" width="2.199" height="2.199" transform="translate(12.827 5.995)" fill="#182b38"/>
    </g>
    <g id="Group_636" data-name="Group 636" transform="translate(358.987 431.085)">
      <path id="Path_541" data-name="Path 541" d="M376.705,428H358.987V438.99h17.718" transform="translate(-358.987 -427.996)" fill="none" stroke="#182b38" stroke-miterlimit="10" stroke-width="2"/>
      <path id="Path_542" data-name="Path 542" d="M366.035,432.605a2.2,2.2,0,1,0-2.2,2.2,2.2,2.2,0,0,0,2.2-2.2" transform="translate(-358.01 -427.108)" fill="none" stroke="#182b38" stroke-miterlimit="10" stroke-width="2"/>
      <line id="Line_454" data-name="Line 454" x2="9.345" transform="translate(8.025 5.497)" fill="none" stroke="#182b38" stroke-miterlimit="10" stroke-width="2"/>
    </g>
    <g id="Group_637" data-name="Group 637" transform="translate(358.987 447.565)">
      <path id="Path_543" data-name="Path 543" d="M376.705,451.032H358.987V440.038h17.718" transform="translate(-358.987 -440.038)" fill="none" stroke="#182b38" stroke-miterlimit="10" stroke-width="2"/>
      <path id="Path_544" data-name="Path 544" d="M376.576,451.032h17.706V440.038H376.576" transform="translate(-352.504 -440.038)" fill="none" stroke="#182b38" stroke-miterlimit="10" stroke-width="2"/>
      <path id="Path_545" data-name="Path 545" d="M366.035,444.646a2.2,2.2,0,1,0-2.2,2.2,2.2,2.2,0,0,0,2.2-2.2" transform="translate(-358.01 -439.149)" fill="none" stroke="#182b38" stroke-miterlimit="10" stroke-width="2"/>
      <rect id="Rectangle_298" data-name="Rectangle 298" width="2.199" height="2.199" transform="translate(30.302 2.8)" fill="#182b38"/>
      <rect id="Rectangle_299" data-name="Rectangle 299" width="2.199" height="2.199" transform="translate(33.601 2.8)" fill="#182b38"/>
      <rect id="Rectangle_300" data-name="Rectangle 300" width="2.199" height="2.199" transform="translate(36.899 2.8)" fill="#182b38"/>
      <rect id="Rectangle_301" data-name="Rectangle 301" width="2.199" height="2.199" transform="translate(30.302 5.995)" fill="#182b38"/>
      <rect id="Rectangle_302" data-name="Rectangle 302" width="2.199" height="2.199" transform="translate(33.601 5.995)" fill="#182b38"/>
      <rect id="Rectangle_303" data-name="Rectangle 303" width="2.199" height="2.199" transform="translate(36.899 5.995)" fill="#182b38"/>
      <line id="Line_455" data-name="Line 455" x2="9.345" transform="translate(8.025 5.497)" fill="none" stroke="#182b38" stroke-miterlimit="10" stroke-width="2"/>
    </g>
  </g>
</svg>
