<svg xmlns="http://www.w3.org/2000/svg" width="680" height="837" viewBox="0 0 680 837">
  <g id="Group_641" data-name="Group 641" transform="translate(-861 -2457)">
    <g id="Rectangle_180" data-name="Rectangle 180" transform="translate(861 2814)" fill="#eef0f0" stroke="#95a5a5" stroke-width="1">
      <rect width="190" height="155" rx="5" stroke="none"/>
      <rect x="0.5" y="0.5" width="189" height="154" rx="4.5" fill="none"/>
    </g>
    <g id="Rectangle_181" data-name="Rectangle 181" transform="translate(1351 2814)" fill="#eef0f0" stroke="#95a5a5" stroke-width="1">
      <rect width="190" height="155" rx="5" stroke="none"/>
      <rect x="0.5" y="0.5" width="189" height="154" rx="4.5" fill="none"/>
    </g>
    <g id="Rectangle_174" data-name="Rectangle 174" transform="translate(861 2690)" fill="#f7f7f7" stroke="#95a5a5" stroke-width="1">
      <rect width="190" height="81" rx="5" stroke="none"/>
      <rect x="0.5" y="0.5" width="189" height="80" rx="4.5" fill="none"/>
    </g>
    <g id="Rectangle_178" data-name="Rectangle 178" transform="translate(1351 2690)" fill="#f7f7f7" stroke="#95a5a5" stroke-width="1">
      <rect width="190" height="81" rx="5" stroke="none"/>
      <rect x="0.5" y="0.5" width="189" height="80" rx="4.5" fill="none"/>
    </g>
    <g id="Ellipse_83" data-name="Ellipse 83" transform="translate(1102 2457)" fill="#e5e9e9" stroke="#95a5a5" stroke-width="1">
      <circle cx="99" cy="99" r="99" stroke="none"/>
      <circle cx="99" cy="99" r="98.5" fill="none"/>
    </g>
    <text id="IT_Infrastructure_Consulting" data-name="IT Infrastructure
Consulting" transform="translate(1201 2554)" font-size="20" font-family="Matter-Medium, Matter" font-weight="500" letter-spacing="-0.03em"><tspan x="-69.76" y="0">IT Infrastructure</tspan><tspan x="-47.13" y="20">Consulting</tspan></text>
    <text id="Infrastructure_on-premise." data-name="Infrastructure
on-premise." transform="translate(951 2729)" font-size="18" font-family="Matter-Medium, Matter" font-weight="500" letter-spacing="-0.03em"><tspan x="-53.901" y="0">Infrastructure</tspan><tspan x="-46.701" y="18">on-premise.</tspan></text>
    <text id="Infrastructure_on_the_public_private_cloud." data-name="Infrastructure 
on the public &amp;
private cloud." transform="translate(1447 2720)" font-size="18" font-family="Matter-Medium, Matter" font-weight="500" letter-spacing="-0.03em"><tspan x="-55.791" y="0">Infrastructure </tspan><tspan x="-58.788" y="18">on the public &amp;</tspan><tspan x="-52.902" y="36">private cloud.</tspan></text>
    <text id="Cost-efficient_use_of_highly_secure_infrastructure_of_Microsoft_Azure_Microsoft_365_Citrix_Cloud_or_in_the_powerful_data_center_FRA15." data-name="Cost-efficient use of highly secure infrastructure of Microsoft Azure, Microsoft 365, Citrix Cloud or in the powerful data center FRA15." transform="translate(1366 2826)" font-size="14" font-family="Matter-Regular, Matter"><tspan x="0" y="14">Cost-efficient use of </tspan><tspan x="0" y="32">highly secure </tspan><tspan x="0" y="50">infrastructure of </tspan><tspan x="0" y="68">Microsoft Azure, </tspan><tspan x="0" y="86">Microsoft 365, Citrix </tspan><tspan x="0" y="104">Cloud or in the powerful </tspan><tspan x="0" y="122">data center FRA15.</tspan></text>
    <text id="Server_structures_in_the_premises_of_the_user_company._Powerful_infrastructure_without_high_investment_costs_in_hardware." data-name="Server structures in the premises of the user company. Powerful infrastructure without high investment costs in hardware." transform="translate(879 2835)" font-size="14" font-family="Matter-Regular, Matter"><tspan x="0" y="14">Server structures in the </tspan><tspan x="0" y="32">premises of the user </tspan><tspan x="0" y="50">company. Powerful </tspan><tspan x="0" y="68">infrastructure without </tspan><tspan x="0" y="86">high investment costs in </tspan><tspan x="0" y="104">hardware.</tspan></text>
    <g id="Rectangle_182" data-name="Rectangle 182" transform="translate(1089 3049)" fill="#eef0f0" stroke="#95a5a5" stroke-width="1">
      <rect width="224" height="63" rx="5" stroke="none"/>
      <rect x="0.5" y="0.5" width="223" height="62" rx="4.5" fill="none"/>
    </g>
    <g id="Rectangle_261" data-name="Rectangle 261" transform="translate(1089 3140)" fill="#eef0f0" stroke="#95a5a5" stroke-width="1">
      <rect width="224" height="63" rx="5" stroke="none"/>
      <rect x="0.5" y="0.5" width="223" height="62" rx="4.5" fill="none"/>
    </g>
    <g id="Rectangle_262" data-name="Rectangle 262" transform="translate(1089 3231)" fill="#eef0f0" stroke="#95a5a5" stroke-width="1">
      <rect width="224" height="63" rx="5" stroke="none"/>
      <rect x="0.5" y="0.5" width="223" height="62" rx="4.5" fill="none"/>
    </g>
    <text id="Secure_scalable_IT_infrastructure." data-name="Secure &amp; scalable IT infrastructure." transform="translate(1109 3064)" font-size="14" font-family="Matter-Regular, Matter"><tspan x="29.989" y="14">Secure &amp; scalable IT </tspan><tspan x="48.287" y="32">infrastructure.</tspan></text>
    <text id="Improved_IT_cost_efficiency." data-name="Improved IT cost efficiency." transform="translate(1109 3163)" font-size="14" font-family="Matter-Regular, Matter"><tspan x="6.539" y="14">Improved IT cost efficiency.</tspan></text>
    <text id="Improved_operational_efficiency." data-name="Improved operational efficiency." transform="translate(1109 3246)" font-size="14" font-family="Matter-Regular, Matter"><tspan x="25.656" y="14">Improved operational </tspan><tspan x="60.95" y="32">efficiency.</tspan></text>
    <line id="Line_310" data-name="Line 310" y2="129" transform="translate(1201 2654.5)" fill="none" stroke="#95a5a5" stroke-width="1"/>
    <line id="Line_312" data-name="Line 312" y2="44" transform="translate(956 2770.5)" fill="none" stroke="#95a5a5" stroke-width="1"/>
    <line id="Line_400" data-name="Line 400" y2="44" transform="translate(956 2968.5)" fill="none" stroke="#95a5a5" stroke-width="1"/>
    <line id="Line_401" data-name="Line 401" y2="44" transform="translate(1451 2968.5)" fill="none" stroke="#95a5a5" stroke-width="1"/>
    <line id="Line_403" data-name="Line 403" y2="28" transform="translate(1201 3112.5)" fill="none" stroke="#95a5a5" stroke-width="1"/>
    <line id="Line_404" data-name="Line 404" y2="28" transform="translate(1201 3203.5)" fill="none" stroke="#95a5a5" stroke-width="1"/>
    <line id="Line_313" data-name="Line 313" y2="44" transform="translate(1451 2770.5)" fill="none" stroke="#95a5a5" stroke-width="1"/>
    <line id="Line_311" data-name="Line 311" y2="278" transform="translate(1201 2770.5)" fill="none" stroke="#95a5a5" stroke-width="1"/>
    <g id="Ellipse_90" data-name="Ellipse 90" transform="translate(952.5 2811)" fill="#fff" stroke="#95a5a5" stroke-width="1">
      <circle cx="3.5" cy="3.5" r="3.5" stroke="none"/>
      <circle cx="3.5" cy="3.5" r="3" fill="none"/>
    </g>
    <g id="Ellipse_148" data-name="Ellipse 148" transform="translate(952.5 3009)" fill="#fff" stroke="#95a5a5" stroke-width="1">
      <circle cx="3.5" cy="3.5" r="3.5" stroke="none"/>
      <circle cx="3.5" cy="3.5" r="3" fill="none"/>
    </g>
    <g id="Ellipse_150" data-name="Ellipse 150" transform="translate(1447.5 3009)" fill="#fff" stroke="#95a5a5" stroke-width="1">
      <circle cx="3.5" cy="3.5" r="3.5" stroke="none"/>
      <circle cx="3.5" cy="3.5" r="3" fill="none"/>
    </g>
    <g id="Ellipse_154" data-name="Ellipse 154" transform="translate(1197.5 3108)" fill="#fff" stroke="#95a5a5" stroke-width="1">
      <circle cx="3.5" cy="3.5" r="3.5" stroke="none"/>
      <circle cx="3.5" cy="3.5" r="3" fill="none"/>
    </g>
    <g id="Ellipse_156" data-name="Ellipse 156" transform="translate(1197.5 3199)" fill="#fff" stroke="#95a5a5" stroke-width="1">
      <circle cx="3.5" cy="3.5" r="3.5" stroke="none"/>
      <circle cx="3.5" cy="3.5" r="3" fill="none"/>
    </g>
    <g id="Ellipse_91" data-name="Ellipse 91" transform="translate(952.5 2767)" fill="#fff" stroke="#95a5a5" stroke-width="1">
      <circle cx="3.5" cy="3.5" r="3.5" stroke="none"/>
      <circle cx="3.5" cy="3.5" r="3" fill="none"/>
    </g>
    <g id="Ellipse_147" data-name="Ellipse 147" transform="translate(952.5 2965)" fill="#fff" stroke="#95a5a5" stroke-width="1">
      <circle cx="3.5" cy="3.5" r="3.5" stroke="none"/>
      <circle cx="3.5" cy="3.5" r="3" fill="none"/>
    </g>
    <g id="Ellipse_149" data-name="Ellipse 149" transform="translate(1447.5 2965)" fill="#fff" stroke="#95a5a5" stroke-width="1">
      <circle cx="3.5" cy="3.5" r="3.5" stroke="none"/>
      <circle cx="3.5" cy="3.5" r="3" fill="none"/>
    </g>
    <line id="Line_314" data-name="Line 314" x1="300.5" transform="translate(1051 2730.5)" fill="none" stroke="#95a5a5" stroke-width="1"/>
    <line id="Line_402" data-name="Line 402" x1="488" transform="translate(959.5 3012.5)" fill="none" stroke="#95a5a5" stroke-width="1"/>
    <g id="Ellipse_84" data-name="Ellipse 84" transform="translate(1047 2727)" fill="#fff" stroke="#95a5a5" stroke-width="1">
      <circle cx="3.5" cy="3.5" r="3.5" stroke="none"/>
      <circle cx="3.5" cy="3.5" r="3" fill="none"/>
    </g>
    <g id="Ellipse_98" data-name="Ellipse 98" transform="translate(1197.5 2651)" fill="#fff" stroke="#95a5a5" stroke-width="1">
      <circle cx="3.5" cy="3.5" r="3.5" stroke="none"/>
      <circle cx="3.5" cy="3.5" r="3" fill="none"/>
    </g>
    <g id="Ellipse_87" data-name="Ellipse 87" transform="translate(1348 2727)" fill="#fff" stroke="#95a5a5" stroke-width="1">
      <circle cx="3.5" cy="3.5" r="3.5" stroke="none"/>
      <circle cx="3.5" cy="3.5" r="3" fill="none"/>
    </g>
    <g id="Ellipse_88" data-name="Ellipse 88" transform="translate(1454.5 2767) rotate(90)" fill="#fff" stroke="#95a5a5" stroke-width="1">
      <circle cx="3.5" cy="3.5" r="3.5" stroke="none"/>
      <circle cx="3.5" cy="3.5" r="3" fill="none"/>
    </g>
    <g id="Ellipse_89" data-name="Ellipse 89" transform="translate(1454.5 2811) rotate(90)" fill="#fff" stroke="#95a5a5" stroke-width="1">
      <circle cx="3.5" cy="3.5" r="3.5" stroke="none"/>
      <circle cx="3.5" cy="3.5" r="3" fill="none"/>
    </g>
    <g id="Rectangle_179" data-name="Rectangle 179" transform="translate(1106 2851)" fill="#f7f7f7" stroke="#95a5a5" stroke-width="1">
      <rect width="190" height="81" rx="5" stroke="none"/>
      <rect x="0.5" y="0.5" width="189" height="80" rx="4.5" fill="none"/>
    </g>
    <text id="Hybrid_Structures" data-name="Hybrid
Structures" transform="translate(1202 2888)" font-size="18" font-family="Matter-Medium, Matter" font-weight="500" letter-spacing="-0.03em"><tspan x="-26.208" y="0">Hybrid</tspan><tspan x="-41.238" y="18">Structures</tspan></text>
    <g id="Group_456" data-name="Group 456" transform="translate(800 -906)">
      <line id="Line_314-2" data-name="Line 314" x1="55.5" transform="translate(251 3797.5)" fill="none" stroke="#95a5a5" stroke-width="1"/>
      <g id="Ellipse_84-2" data-name="Ellipse 84" transform="translate(247 3794)" fill="#fff" stroke="#95a5a5" stroke-width="1">
        <circle cx="3.5" cy="3.5" r="3.5" stroke="none"/>
        <circle cx="3.5" cy="3.5" r="3" fill="none"/>
      </g>
      <g id="Ellipse_85" data-name="Ellipse 85" transform="translate(303 3794)" fill="#fff" stroke="#95a5a5" stroke-width="1">
        <circle cx="3.5" cy="3.5" r="3.5" stroke="none"/>
        <circle cx="3.5" cy="3.5" r="3" fill="none"/>
      </g>
    </g>
    <g id="Group_457" data-name="Group 457" transform="translate(1045 -906)">
      <line id="Line_314-3" data-name="Line 314" x1="55.5" transform="translate(251 3797.5)" fill="none" stroke="#95a5a5" stroke-width="1"/>
      <g id="Ellipse_84-3" data-name="Ellipse 84" transform="translate(247 3794)" fill="#fff" stroke="#95a5a5" stroke-width="1">
        <circle cx="3.5" cy="3.5" r="3.5" stroke="none"/>
        <circle cx="3.5" cy="3.5" r="3" fill="none"/>
      </g>
      <g id="Ellipse_85-2" data-name="Ellipse 85" transform="translate(303 3794)" fill="#fff" stroke="#95a5a5" stroke-width="1">
        <circle cx="3.5" cy="3.5" r="3.5" stroke="none"/>
        <circle cx="3.5" cy="3.5" r="3" fill="none"/>
      </g>
    </g>
    <g id="Ellipse_96" data-name="Ellipse 96" transform="translate(1197.5 2848)" fill="#fff" stroke="#95a5a5" stroke-width="1">
      <circle cx="3.5" cy="3.5" r="3.5" stroke="none"/>
      <circle cx="3.5" cy="3.5" r="3" fill="none"/>
    </g>
    <g id="Ellipse_97" data-name="Ellipse 97" transform="translate(1197.5 2928)" fill="#fff" stroke="#95a5a5" stroke-width="1">
      <circle cx="3.5" cy="3.5" r="3.5" stroke="none"/>
      <circle cx="3.5" cy="3.5" r="3" fill="none"/>
    </g>
    <g id="Ellipse_151" data-name="Ellipse 151" transform="translate(1197.5 3009)" fill="#fff" stroke="#95a5a5" stroke-width="1">
      <circle cx="3.5" cy="3.5" r="3.5" stroke="none"/>
      <circle cx="3.5" cy="3.5" r="3" fill="none"/>
    </g>
    <circle id="Ellipse_72" data-name="Ellipse 72" cx="13.5" cy="13.5" r="13.5" transform="translate(1187.5 3035)" fill="#95a5a5" opacity="0.18"/>
    <circle id="Ellipse_166" data-name="Ellipse 166" cx="13.5" cy="13.5" r="13.5" transform="translate(1187.5 3127)" fill="#95a5a5" opacity="0.18"/>
    <circle id="Ellipse_167" data-name="Ellipse 167" cx="13.5" cy="13.5" r="13.5" transform="translate(1187.5 3218)" fill="#95a5a5" opacity="0.18"/>
    <g id="Group_446" data-name="Group 446" transform="translate(800.5 -4973)">
      <g id="Ellipse_64" data-name="Ellipse 64" transform="translate(391 8012)" fill="#fff" stroke="#95a5a5" stroke-width="1">
        <circle cx="9.5" cy="9.5" r="9.5" stroke="none"/>
        <circle cx="9.5" cy="9.5" r="9" fill="none"/>
      </g>
      <path id="Path_495" data-name="Path 495" d="M2509.962,3508.709l2.047,2.047,5.029-5.029" transform="translate(-2112.731 4513.29)" fill="none" stroke="#182b39" stroke-width="1"/>
    </g>
    <g id="Group_566" data-name="Group 566" transform="translate(800.5 -4881)">
      <g id="Ellipse_64-2" data-name="Ellipse 64" transform="translate(391 8012)" fill="#fff" stroke="#95a5a5" stroke-width="1">
        <circle cx="9.5" cy="9.5" r="9.5" stroke="none"/>
        <circle cx="9.5" cy="9.5" r="9" fill="none"/>
      </g>
      <path id="Path_495-2" data-name="Path 495" d="M2509.962,3508.709l2.047,2.047,5.029-5.029" transform="translate(-2112.731 4513.29)" fill="none" stroke="#182b39" stroke-width="1"/>
    </g>
    <g id="Group_567" data-name="Group 567" transform="translate(800.5 -4790)">
      <g id="Ellipse_64-3" data-name="Ellipse 64" transform="translate(391 8012)" fill="#fff" stroke="#95a5a5" stroke-width="1">
        <circle cx="9.5" cy="9.5" r="9.5" stroke="none"/>
        <circle cx="9.5" cy="9.5" r="9" fill="none"/>
      </g>
      <path id="Path_495-3" data-name="Path 495" d="M2509.962,3508.709l2.047,2.047,5.029-5.029" transform="translate(-2112.731 4513.29)" fill="none" stroke="#182b39" stroke-width="1"/>
    </g>
    <circle id="Ellipse_194" data-name="Ellipse 194" cx="41.5" cy="41.5" r="41.5" transform="translate(1160 2689)" fill="#95a5a5" opacity="0.18"/>
    <g id="Ellipse_195" data-name="Ellipse 195" transform="translate(1169.578 2698.875)" fill="#fff" stroke="#95a5a5" stroke-width="1">
      <circle cx="31.866" cy="31.866" r="31.866" stroke="none"/>
      <circle cx="31.866" cy="31.866" r="31.366" fill="none"/>
    </g>
    <g id="Group_582" data-name="Group 582" transform="translate(398.894 2395.586)">
      <path id="Path_525" data-name="Path 525" d="M788.106,347.251h28.862v-8.922H788.106" fill="none" stroke="#182b38" stroke-miterlimit="10" stroke-width="2"/>
      <g id="Group_578" data-name="Group 578">
        <rect id="Rectangle_276" data-name="Rectangle 276" width="1.564" height="1.564" transform="translate(808.265 340.872)" fill="#182b38"/>
        <rect id="Rectangle_277" data-name="Rectangle 277" width="1.564" height="1.564" transform="translate(810.611 340.872)" fill="#182b38"/>
        <rect id="Rectangle_278" data-name="Rectangle 278" width="1.564" height="1.564" transform="translate(812.956 340.872)" fill="#182b38"/>
        <rect id="Rectangle_279" data-name="Rectangle 279" width="1.564" height="1.564" transform="translate(808.265 343.144)" fill="#182b38"/>
        <rect id="Rectangle_280" data-name="Rectangle 280" width="1.564" height="1.564" transform="translate(810.611 343.144)" fill="#182b38"/>
        <rect id="Rectangle_281" data-name="Rectangle 281" width="1.564" height="1.564" transform="translate(812.956 343.144)" fill="#182b38"/>
      </g>
      <g id="Group_579" data-name="Group 579">
        <circle id="Ellipse_197" data-name="Ellipse 197" cx="1.564" cy="1.564" r="1.564" transform="translate(788.925 341.226)" fill="none" stroke="#182b38" stroke-miterlimit="10" stroke-width="2"/>
        <line id="Line_424" data-name="Line 424" x2="13.292" transform="translate(792.053 342.79)" fill="none" stroke="#182b38" stroke-miterlimit="10" stroke-width="2"/>
      </g>
      <path id="Path_526" data-name="Path 526" d="M788.106,334.336h28.862v-8.922H788.106" fill="none" stroke="#182b38" stroke-miterlimit="10" stroke-width="2"/>
      <g id="Group_580" data-name="Group 580">
        <rect id="Rectangle_282" data-name="Rectangle 282" width="1.564" height="1.564" transform="translate(808.265 327.957)" fill="#182b38"/>
        <rect id="Rectangle_283" data-name="Rectangle 283" width="1.564" height="1.564" transform="translate(810.611 327.957)" fill="#182b38"/>
        <rect id="Rectangle_284" data-name="Rectangle 284" width="1.564" height="1.564" transform="translate(812.956 327.957)" fill="#182b38"/>
        <rect id="Rectangle_285" data-name="Rectangle 285" width="1.564" height="1.564" transform="translate(808.265 330.229)" fill="#182b38"/>
        <rect id="Rectangle_286" data-name="Rectangle 286" width="1.564" height="1.564" transform="translate(810.611 330.229)" fill="#182b38"/>
        <rect id="Rectangle_287" data-name="Rectangle 287" width="1.564" height="1.564" transform="translate(812.956 330.229)" fill="#182b38"/>
      </g>
      <g id="Group_581" data-name="Group 581">
        <circle id="Ellipse_198" data-name="Ellipse 198" cx="1.564" cy="1.564" r="1.564" transform="translate(788.925 328.311)" fill="none" stroke="#182b38" stroke-miterlimit="10" stroke-width="2"/>
        <line id="Line_425" data-name="Line 425" x2="13.292" transform="translate(792.053 329.875)" fill="none" stroke="#182b38" stroke-miterlimit="10" stroke-width="2"/>
      </g>
      <line id="Line_426" data-name="Line 426" y2="4.499" transform="translate(802.537 347.251)" fill="none" stroke="#182b38" stroke-miterlimit="10" stroke-width="2"/>
      <line id="Line_427" data-name="Line 427" x1="6.467" transform="translate(799.303 351.75)" fill="none" stroke="#182b38" stroke-miterlimit="10" stroke-width="2"/>
    </g>
  </g>
</svg>
