<?xml version="1.0" encoding="utf-8"?>
<!-- Generator: Adobe Illustrator 22.0.0, SVG Export Plug-In . SVG Version: 6.00 Build 0)  -->
<svg version="1.1" id="Layer_1" xmlns="http://www.w3.org/2000/svg" xmlns:xlink="http://www.w3.org/1999/xlink" x="0px" y="0px"
	 viewBox="0 0 397.1 540" style="enable-background:new 0 0 397.1 540;" xml:space="preserve">
<style type="text/css">
	.st0{opacity:0.2;fill:#FFFFFF;enable-background:new    ;}
	.st1{fill:#FFFFFF;stroke:#000000;stroke-miterlimit:10;}
</style>
<path id="Path_317" class="st0" d="M344.8,443.2l-1.3,2.7l-0.1,0.6l0.2-0.1l0.5,0.9l0.2,0.2l0.5,0.3l-0.6,0.6l-0.1,0.8l0.2,2.1
	l0,1.1l-0.1,0.9l-0.3,0.9l-0.7,1.6l-0.2,0.3l-0.4,0.4l-0.3,0.1l-0.9,0.1l-0.1,0l-0.4,0.7l-0.4,1.7l-0.1-0.1l-1.8-0.8l-0.7-1
	l-0.7-0.5l-0.8-0.4l-4.5-1.3l-1.5,0.2l-1.4,0.5l-0.4,0.4l-0.2,0.5l0,0.2l0.1,0.3l0.2,1.2l0.4,0.6l0.1,0.6l-0.1,0.6l-0.6,1.2
	l-0.2,0.6l-0.1,0.6l0.1,1.8l-0.1,0.7l-0.2,0.4L328,466l-0.1,0.3l-0.2,1.4l-0.6,1l-4.2,3.7l-1.5,0.8l-6,1l-4.5,1.8l-0.7,0.5l-1.6,1.6
	l-1.4,0.8l-0.7,0.5l0.1,0.2l-2.4,0.5l-0.7,0.4l-0.4,0.4l-0.8,1.3l-0.6,0.7l-1.7,1.2l-0.2,0.2l-0.6,1l-0.3,0.1l-0.3,0l-0.3,0.1
	l-0.3,0.5l-0.1,0.9l0.2,0.9l0.4,0.8l0.4,0.6l3,3.2l0.6,1.4l0.1,0.7l0,0.1l0.2,0.7l0.3,0.5l1,0.6l0.9,0.9l0.3,0.2l0.7,0.7l1.5,3.4
	l0.9,1.4l0.2,0.2l-2.8,4.5l-0.2,0.5l-0.1,0.4l0,0.4l-0.1,0.4l-0.3,0.5l0,0l-0.8,1.2l0.7,0.7l2.4,0.5l0.6-0.1l1.1-0.5l0.7,0.1
	l0.5,0.4l0.5,0.6l0.8,1.5l0.3,0.9l0.1,0.8l0,0.8l-0.1,0.8l-0.1,0.1l-0.5,1.3l0,0.2l-0.7,0.9l-0.1,0l0,1.5l0.1,0l0,0.1l-0.4,1
	l-0.1,0.2v1.1l0,0.4l0.1,0.4l0.1,0.3l0.1,0.4l0,0.5l-1.2,1.5l-0.3,0.3l-0.5,0l-0.3-0.2l-0.2-0.3l-0.4-0.2l-0.5,0l-0.4,0.2l-0.4,0.1
	l-0.5-0.2l-2.1-1.6l-2-2.2l-0.4-0.3l-0.4-0.1l-0.7-0.1l-1.1-0.9l-0.2-1.6l0.5-1.5l1.2-0.6l-0.9-0.8l-1.1-0.7l-0.7-0.8l0.4-1.1
	l-0.7,0.1l-2.4-0.6h-1.5l-1.5,0.4l-0.8,0.4l-1.5,1.4l-0.4,0.4l-0.7,0.3l-0.9,0.2l-0.9,0l-0.6-0.3l-1.3-1l-0.3-0.4l-0.2-0.5l-0.5-1.4
	l-0.2-0.4l-0.7-0.1l-1.7,0.7l-0.7,0.1l-2.5-0.5l-0.9,0.1l-1,0.5l-0.5,0.1l-0.4-0.4l-0.2-0.7l0.1-0.4l0.3-0.4l0.2-0.5l0.1-0.7
	l0.1-0.3l-0.1,0l-0.6,0.3l-0.4,0.2l-1,0.9l-0.7,0.3l0.1,0.5l0.1,0.4l0.3,0.4l0.4,0.4l0.2,0.1l0.1,0.4l0.1,1.7l0,0.6L275,517
	l-1.2,1.6l-0.3,0.1l-9.9-0.4l-3.6,0.7l-0.5,0.3l-0.4,1.1l-0.4,0.1L256,520l-3.5,0l-1.9-0.4l-0.8,0l-0.1,0.2l-1.2,1.1l-0.3,0.7
	l-0.3,1.5l-0.2,0.6l-0.8,0.9l-0.9,0.4l-2,0.3l-1-0.3l-1.1-0.1l-1,0.2l-2,2.4l0.5,0.1l0.5,0.3l0.2,0.5l-0.4,0.6l-0.7,0.3l-1.9,0
	l-0.8,0.3l-0.8,0.8l-0.6,0.8l-0.6,0.7l-0.9,0.4l-1-0.1l0.1-1.7l-0.9-0.4l-1.1,0.3l-2.8,2l-0.8,0.3l-4.5-0.1l-0.6-0.4l-0.4-0.9l0.1,0
	l0.1-0.3l0.1-0.4l0-0.4l-0.1-0.3l-2.2-2.3l-2.2-1l-0.3-0.5l1.4-1l0.4-0.4l-1-0.8l-0.5-0.3l-0.6,0l-0.6,0.2l-1.7,0.8l-1.3,0.2
	l-0.4-0.1l-0.2-0.3l-0.1-0.3l-0.2-0.2l-5.7-2.2l-1,0l-0.6,0.4l-0.9,1.2l-0.5,0.4l-0.5,0.1l-1.8-0.3l-0.7-0.3l-0.4-0.3l-0.2-0.3
	l-0.1-0.5l0.2-0.4l0.2-0.3l0.1-0.3l-0.2-0.6l-0.2-0.1l-0.3,0.1l-0.7,0.1l-0.6,0.3l0.1,0.6l0.4,0.7l0.3,0.7l-0.1,0.6l-0.4,2.6
	l0.6,0.3l0.4,0.4l0.2,0.6l0.2,0.8l0,1.4l-0.4,1.4l-0.6,1.3l-0.7,1l-0.4,0.3l-0.9,0.3l-0.4,0.3l-0.3,0.4l-1,1.9l-0.8,1l-0.8,0.8
	l-1.9,1.2l-0.9,0.4l-2.8,0.3l-0.7,0.1l-0.2-0.1l0.2-0.4l0.4-0.7l0.2-0.1l0.6-0.2l0.2-0.2l0.1-0.4l0-0.4l-0.1-0.4l0.8-2.4l0-1.2
	l-0.8-0.4l-1.9,0.3l-0.5,0.6l-0.2,0.1H185l-0.4-0.3l-0.2,0l-0.6,0.3l-0.3,0.2l-0.3,0l-0.4-0.4l-0.2-0.6l0-0.7l-0.1-0.7l-0.5-0.6
	l1-0.8l0.2-0.7l-0.4-0.8l-2.1-3.1l-0.5,0.2l-0.4,0.3l-0.4,0.2l-0.5-0.3l-0.1-0.4l0-0.2v-0.2l-0.4-0.9l-0.5-0.5l-0.5-0.6l-0.1-1.1
	l-0.5,0.4l-0.7,0.1l-1.3-0.1l-1.3-0.5l-0.2,0.1l-0.5,0.3l-0.3,0l-0.9-0.5l-0.2-0.7l0.1-0.8l-0.1-0.8l-0.5-0.6l-0.6-0.2l-0.6,0.1
	l-0.6,0.3l-0.9,1.1l-0.5,1.2l-0.6,1l-1.2,0.6l-2.8,0l-2.5-0.7l-0.2,0l-0.1-0.1l-11.9-7.4l-1.7-0.4h-1.6l-0.6-0.9h-2.4l-4.8-0.5
	l-0.8,0.3l-0.7,0.8l-1.6,0.5l-1.7,0.2l-1.1-0.3l-1.3-0.9l0,0l-0.6-0.6l0-0.4l0.8-0.2L129,512l-1.4-0.8l-1.2-0.1l-0.4,1.3l0.4,0.4
	l-2.3,0l-0.1-0.4l-0.1-0.5l-0.3-0.4l-0.2-0.5l0.1-0.4l0.6-0.9l0.1-0.2l-0.3-0.7l-0.4-0.1l-0.5,0.1l-0.4-0.1l-0.3-0.5l-0.3-0.7
	l-0.4-0.6l-0.6-0.2l-0.4,0.4l-0.2,1.4l-0.5,0.4l-0.4-0.3l-0.2-0.8l0-0.8l-0.1-0.5l-0.8-0.4l-1.1-0.1l-0.7,0.4l0.4,1l-0.7,0.3
	l-2.3,0.5l-0.5,0l-0.3,0.2l-0.6,0.9l-0.2,0.5L112,511l-0.5,0.4l-1.1,0.6l-0.4,0.5l0,0.5l0.2,0.5l0.1,0.5l-0.3,0.7l0.7,0.3l0.2,0
	l1.1,0.8l0.9,0.5l0.8,0l0.6-0.3l0.6-0.4l0.6-0.3l2.1-0.4l0.6,0.1l0.5,0.2l0.2,0.1l0.4,0l-0.2,1.5l-0.3-0.1l0-0.4l0-0.1l-0.2,0
	l-0.2,0.1l-0.2,0.1l-0.1,0.4l0.1,0.3l0.1,0.3l0,0.2l-0.1,0.4l0,0.5l0,0.5l-0.2,0.3l-0.1,0.2l-0.6,0.2l-0.4-0.5l-0.1-0.1l-0.5-0.9
	l-0.7-0.6l-1.3,0.1l-1.3,0.9l-0.5,1.1l-0.1,0.3l-1.2,0.2l-0.1,0l-2.8,0l-1.6-0.4l-0.4-0.3l-0.3-0.6l-0.2-0.6l-0.2-0.3l-0.5-0.1
	l-1.1-0.3h-0.8l-2.3,0.4l-0.2,0.1l-0.2,0.3l-0.3,0.3l-0.8,0.2l-0.9,0.5l-0.4,0.3l-0.4,0.4l-0.2,0.3l-0.2,0.3l-0.4,0.3l-1.9,0.4h-5.6
	l-0.1-0.3l-0.1-0.6l-0.1-0.6l-0.3-0.3l-2.8-0.2l-0.6-0.3l-0.8,1.2l-0.7,0.8l-0.8,0.5l-1.7,0.4l-1.9,0.4l-1-0.1l-0.6-0.3l-1.6-0.9
	h0.1l1,0l0.5-0.4l0.6-1.6l-1,0.1l-2.2,0.7l0.2-0.7l0.1-0.2l-0.1-0.6l-0.2-0.3l-0.3-0.2l-0.3-0.3l-1-2l-0.6-0.8l-0.6-0.3l-0.2-0.3
	l-0.1-0.7l-0.1-1.4l0.2-0.4l0.7-0.8l0.3-0.4l0-1.1l-0.5-2.3l0.1-0.9l0.6-2.1l0.2-0.3l0.6-0.3l0.1-0.7l-0.2-1.2l0-0.3l0-0.2l0-0.2
	l0-0.3l0.1-0.3l0.3-0.3l0.2-0.3l0.3-0.6l0.1-0.3l-0.1-1L75,497l1.2-1.2l0.4-0.8l-0.1-2l-1.9-3.3l-0.1-2.7l0.3-1.3l0.3-1l0.3-0.6
	l0.3-0.4l0.2-0.5l0.1-0.9l0.3-0.8l2.7-3.8l0.5-0.9l0.3-1.1l0.1-1.3l0.3-1.4l0.7-0.6l0.8-0.4l0.6-1l0.1-0.9l-0.2-0.9l-0.3-0.8
	l-0.1-0.8l0-0.9L82,465l0.2-0.7l0.3-0.6l0.3-0.4l0.2-0.6l0.1-1.2l0.2-0.6l0.5-0.5l1.1-0.9v-0.4l-0.5-1.4v-2.3l0.4-2.1l1.8-2.9
	l0.5-0.4l0.7-0.2l0.7-0.6l1.2-1.4l0.5-0.3l0.6-0.6l0.5-0.6l0.2-0.5l0.1-1.3l0.2-0.6l0.5-0.2l1.2,0l0.3-0.1l0.2-0.2l0.1-0.4l0.1-0.6
	l0.2-0.4l0.2-0.2l0.1-0.2l0.4,0l1.6-0.9l0.3-0.2l0.5-0.9l2-5.4l1.4-2.6l0.9-1l0,0l-0.5-0.5l-4.3-0.9l-6.9-3.7l-0.8-0.1l-2.5,0.3
	l-3.6-1l-0.5,0.1l-1,0.6l-0.5,0.1l-0.4-0.1l-0.9-0.3l-0.5-0.1l-0.5,0.1l-0.5,0.2l-0.5,0.1l-0.2,0l-0.4-0.1l-0.4-0.3l-0.4-0.9
	l-0.3-0.4l-1-0.5l-1.9-0.3l-0.9-0.6l-0.6-0.7l-1-1.6l-0.6-0.6l0.1-0.2l0.1-0.2l0.3-0.2l-0.3-1l-0.8-0.3l-1.9-0.1l-0.2-0.7l-0.8-0.1
	l-0.8,0.3l-0.2,0.1l-0.7,0.4l-0.2,0.3l-0.3,1l-0.2,0.4l-0.3,0.2l-0.9,0.1l-0.4,0.1l-0.3,0.3l-0.5,0.9l-0.3,0.3l-0.3,0l-1.2-0.5
	l-3.7,0l-0.7-0.2l-0.7-0.4l-1.7-1.2l-0.2,0l-0.4,0.4l0,0.4l0.1,0.3l-0.1,0.3l-1.3,0.8l-1-0.8l-0.5-1.8l0-2.3l-0.9,0l-2.7-1.5
	l-0.5-0.1l-1.3,0.1l-1.8-0.4l-0.4,0.1l-0.3,0.9l0.3,1.1l0.2,1.1l-0.7,1l-0.6,0.1l-1.7-0.6l-1.9,0l-0.5-0.2l-0.6-0.9l0.1-0.8l0.2-0.8
	l-0.3-1.1h-0.2l-0.6,0.4l-0.2,0l-0.1-0.2l-0.1-0.5l0-0.1l-0.1-0.3l-0.3-1.2l-0.2-0.2l-0.6-0.2l-0.2-0.2l0-0.3l0.1-0.7l-0.1-0.3
	l-2.9-2.8l-0.7-0.9l-0.3-0.8l0.2-0.6l0.8,0l0.2-0.5l-0.1-0.4l-2.1-2.2l-0.3-0.4l0.1,0l0-0.4l-0.1-0.5l-0.3-0.6l-0.7-0.7l-4-2
	l-0.5-0.1L23,397l-0.8,0.6l-0.5,0.1l-0.4,0v-0.5l-0.1-2l0.3-2.2l0.1-0.6v-2.1l0.2-0.7l0.7-1l1.1-1.4l0.4-0.9l0.3-0.5l0.1-0.3l0-0.4
	l-0.3-0.3l-0.3-0.2l-0.1-0.2l0.7-0.9l3.2-2.1l-0.1-0.1l-0.3-0.3l0.1-0.3l0.2-0.1l0.4,0.1l-0.3-0.4l-0.2-0.5l-0.1-0.5l0-0.6l0.4-0.4
	l0-0.3l-0.1-0.3V377l0.2-1.5l0.1,0v-0.6l0.1-0.1l0,0l-0.2-0.3l-0.2,0l-1.3-0.4h-2.1l-0.8-0.2l-0.7-0.5l-1.2-1.2l-0.7-0.5l-0.4,0
	l-0.6,0.4l-0.3,0l0-0.2l-0.3-0.7l-0.2-0.5l-0.2-0.4l-0.6-0.4l-1.5-0.7l-0.7-0.7l-1.4-3.4l-0.7-1.2l-0.5,0.9l-0.3-0.6l-0.7-1.9
	l-0.7-1.1l-0.2-0.5l0.1-0.7l-0.3-1.4l-0.3-0.6l-0.5-0.3L11,357l0.2-0.2l-0.1,0l-0.3,0l-0.1,0l0.3-1.9l0.2-0.9l0.3-1l0.4-0.5l0.1-0.5
	l-0.2-0.4l-0.4-0.4l0.1-0.3l0.1-0.8l0.1-0.2l0.4-0.2l0.9-0.1l0.3-0.2l0.3-0.6l0-0.8l-0.2-0.8l-0.6-0.6l0.4-0.6l1-0.7l0.4-0.7
	l0.9-0.4l1.9-0.5l0.8-0.7l-0.2-0.6l0.1-0.7l0.3-0.7l0.4-0.5l0.6-0.3l0.5,0l0.5,0.2l0.6,0.1l1.2-0.2l0.5-0.6l0-0.5l0-0.4l-1.5-2.6
	l-0.1-0.8l0.3-0.9l0.3-1.6l0-1.1l-0.2-0.2l-0.3-0.1l-0.4-0.6l-0.2-0.7l-0.1-0.6l0.1-0.5l0.5-0.5l-0.8,0l-1.9-0.4l-0.7-0.3l-0.1-0.1
	l-0.1,0l-0.1,0l-0.1,0.1l-1.5,0.5l-0.4,0l-0.3-0.3l-0.4-0.8l-0.3-0.3l0.3-0.6l-0.5,0l-0.4-0.1l-0.1-0.3l0.3-0.5l-0.7-0.9l0.8-1.3
	l1.4-1.1l1-0.6v-0.2l0.5-0.6l0.3-0.6l-0.1-0.4l-3-0.1l-0.9-0.5l-0.5-1l0.6-0.4l-2.6-4l-0.8-0.8l-0.7-0.1l-1.7,0.5L6.9,313l-0.2-0.6
	l0.2-0.7l0-0.7l-0.7-0.4l-0.1-0.1l0-0.1l0-0.1l0.1-0.1l0.1-0.9L6,308.9l-0.4-0.3L5.2,308L5,307.1l0.7,0.2l0.6-0.6l0.2-0.8l-0.1-0.6
	l0-0.6l0.4-0.7l0.6-0.3l1,0.1l0.5-0.6l0.3-0.7l0-0.5l-0.4-1.4l0.1-0.5l0.2-0.4l0.1-0.3l-1.4-0.5l-1-0.6l-0.3-0.4l-0.1-0.5l-0.1-1
	l0.2-0.6l0.3-0.6l-0.1-0.4L5,295l-1.1-0.4l-0.6-0.1l-0.6,0.2l-1.1,0.6L1,295.4l0-1.7l-0.7-2L0,290.1l1.2-0.6l0.6,0.3l0.5,0.7
	l0.6,0.5l0.8-0.1l0.5-0.6l0.8-1.8l0.6-0.7l4-3.1l2.5-1.3l0.6-0.9l-0.9-0.9l1-0.8l0.3-0.2l-1-0.3l-2.2,1.5l-1-0.6L8.7,280l0.1-1.5
	l0.4-1.4l0.4-0.8l0.9-1.1l2.2-4.1l0.5-0.4l1.1-0.8l0.4-0.6l0.2-0.9l0.1-1.5l0.3-0.6l-0.7-0.8l0.1-1.3l0.3-1.5l0.2-1.4l-0.2-1.3
	l-0.3-2.3l-1.7-2l-2.9-4l-0.2-0.9l0.2-1l0.5-1.6l-2.9-1.3l-1-1.3l0.6-2l-0.4-0.4l-1-0.7l-0.5-0.2l-1.3,0l-0.4-0.2l0-0.8l0.3-0.3
	l0.7-0.7l0.1-1.4l-0.6-1.4l-1-0.8l0.1-0.6l0.7-0.5l1.8-0.3l0.8-0.4l0.9-0.7l0.6-0.3l1.8-0.5l1.4,0.4l1,0.3l0.7,0.2l-0.6-0.9
	l-1.6-1.7l-0.5-0.4l1.5-0.8l1.4,0.7l1.4,1.1l1.5,0.6l1.4-0.3l0.4,0l0.3,0.3l0.5,0.9l0.2,0.2l1.7,0.3l0.7,0.4l0.1,1.1l1.6-0.5
	l0.2-0.7l-0.4-1.6l2.8,0.8h0.9l0.7-0.3l2.1-1.6l4.3-1.5l3.8-0.1l1.2-0.6l1-1.2l1-1.8l0.4-0.4l0.3-0.1l0.2-0.2l0-0.9l-0.1-0.5
	l-0.2-0.3l-1.1-1.2l-2.8-1.6l-0.9-0.3l-0.7-0.5l-0.1-1.1l0.3-0.7l0.4-0.2l0.5,0l0.5-0.3l0.3-0.4l0.4-0.9l0.2-0.4l0.7-0.8l0.7-0.4
	l0.2,0l2.6-0.3l0.5-0.5l1-2l0.8-0.9l1.9-0.8l0.9-0.8l1-1.7l0.5-0.5l1.9-1.2l0.1-0.4l-0.1-0.2l-0.3-0.5l-0.4-1.5l0-1.3l0.3-1.1l0.9-2
	l0.4-2.6l-0.6-1.8l-2.6-4.3l-0.3,0.1l-0.3,0.5l-0.4,0.4l-1.1,0.3l-1.1,0.1l-1.2-0.2l-2.2-0.9l-3.4-0.5l-1.1-0.6l-0.9-1l-0.3-1.1
	l-0.1-1.3l-0.2-1.3l-0.5-1.1l0.7-0.1l2.4-1.2l-1.4-1.2l-0.3-0.5l0-0.6l0.2-0.6l0.1-0.6l-0.4-0.7l0.7-0.5l0.8-0.6l1.4-0.5l4.1-0.1
	l2.3,0.7l2.1-0.3l0.7,0.3l1.5,0.5l0.8-1.5l0.3-2.5l0.4-7.7l0.4-2.4l0.4-1.2l0.3-0.9l3.6-5.6l0.9-2.4l0.4-2.3l0.1-2.6l-0.4-5.2
	l-0.2-0.6l-0.2-0.4l-0.2-0.5l0-0.9l0.1-0.6l0.6-1.6l0.3-1.2l0.1-1.1l0-1.2l-0.1-2.1l0.4-0.2l0.5-0.5l0.4-0.5l0.4-0.8l0.1-0.9
	l-0.3-0.8l1.1-1.7l0.6-0.3l1,0l0.9,0.2l1.5,1l0.8,0.3l-1-1.5l-1.7-0.6l-9.9-0.4l-1.6-0.8l-0.6-2l0-5.4l0.2-1.2l0.8-2.2l0.2-1.1
	l0.4-0.7l0.8,0l1.7,0.4l0.2-0.6l0.4-0.2l0.3-0.7l-0.1-0.9l-0.4-0.5l-1.3-0.6l-0.6-0.6l-0.1-1l0.6-0.8l1.4-1l1.6-1.8l0.8-0.6l1.6-1.7
	l3.4-1.3l6.7-0.8l0.5,0.3l0.5,0.6l1,0.2l6.4-1.3l13-1.8l3.5,1v0.5l-0.3,2.1l1.2,2.6l1.8,2.3l1.5,1v0.4l-0.4,0.9l0.7,0.3l1,0.3
	l0.5,0.8l-0.1,1.3l-0.4,0.7l-0.9,0.7l-0.8,0.4l-1.7,0.2l-0.8,0.5l0.8,2.4l0.4,0.9l0.6,0.6l0.5-0.3l0.5-0.2l0.7,0l0.5,0.3l0.8,1
	l0.3,0.2l0.4,0.3l0.4,0.7l0.5,0.7l0.6,0.3l0.7,0l0.5-0.1l0.5-0.3l0.5-0.5l0.9-1.5l1-2.5l0.2-2.5l-1.3-1.5l-1.7,0.5l-0.9-0.2l0.1-1.1
	l0.4-1.2l0.3-2.5l0.4-1l0.6-0.6l0.7-0.3l1.8-0.1l0.8,0.4l0.6,0.9l0.5,1l0.5,0.7l1.7,0.9l3.7,0.7l1.7,0.8v0.5l-1,0.9l-1,1.2l-0.7,1.6
	l-0.3,2.1l0,4.1l0.3,1.8l0.6,1.3l0.1-1.8l-0.5-4.5l0-2.1l0.7-1.6l1-0.7l0.9-0.9l0.4-2.1l-0.2-0.4l-1.1-2.8l-0.3-0.4l-0.5-1L115,107
	l-0.3-1.4l-0.6-1.7l-0.1-1.2l0.1-1.2l0.3-1.1l1.6-4.1l1.1-4.4l0.7-2l0.6-0.9l0.8-0.8l1-0.6l1-0.2l0.9,0.1l0.5,0.2l1.1,1.2l1.5,1.3
	l1.6,0.9l3.4,0.8l1.9-0.1l3.1-0.8l1.7,0.1l0.8-1l3.4-0.8l3.4,0l0.7-0.5l0.6,0.4l0.7,0.1l1.5-0.1l0.4,0.3l1,1.3l4.2,7.5l1.7,2.1
	l1.2,1l0.6,0.8l0.6,2.2l3,4.4l0.7,0.6l0.8,0.4l1,0.1l0.5,0.3l2.6,1.8l2.9,0.7l2.4,0.5l0.6-0.2l-0.5-0.9l-1.6-1l-3.9-0.5l-1.6-0.6
	l-3.1-2l-1.4-1.6l-0.5-2.3l-0.1-2l-0.2-1.3l-0.4-0.4l-2-1.1l-0.7-0.2l-1.1-1l-1-2.2l-0.7-2.4l-0.1-1.5l-1.6-0.6l-2.7-2.4l-1.6-1
	l-1.6-0.4l-5.5-0.1l-1.6-0.8l-1.1-0.3l-0.5,0.3l-0.5,0.8l-1-0.3l-1.5-1.2l-1.4-1.8l-3.6-7.3l1.7-0.8l0.8-0.1l1,0.3l1.7,1.1l0.9,0.3
	l0.9-0.5l0.3-0.8l0.4-1.5l0.2-1.6l0-1.1l-0.5-0.8l-0.8-0.7l-0.6-0.8l0.1-0.8v-0.5l-1.1-0.3l-1.5,0.3l-1.4,0.7l-0.8,0.9h-0.3
	l-1.2-2.1l-0.8-1.7l-0.1-0.4l0.4-1.5l0.7-1.3l0.5-1.2l-0.3-1.1v-0.5l0.5-0.4l1.8-0.5l0.7-0.1l0.5-0.4l0.7-0.9l0.7-1.2l0.4-1.1
	l-1,0.2l-1.6,1.4l-0.9,0.4l0.1-0.2l0.1-0.5l0.1-0.2l-1.3,0.2l-2.3,0.7l-1.3,0.2l-1.5-0.3l-0.7,0.3l-1.4,1.4l-0.5,0.2l-1.2-0.4
	l-1.2-1.1l-0.9-1.6l-0.1-1.9l0.6-0.8l1.2-0.5l1.3-0.3l1,0.1v-0.5l-0.8-0.2l-0.6-0.6l-0.6-0.2l-0.7,0.9l-0.4-0.8l0.1-0.8l0.4-0.8
	l0.4-0.6l0.9,0.4l3.5-1h4.8l1.1-0.3l0.9-0.6l1.8-1.6l1.7-0.8l0.7-0.6l0.3-1.2V42l-1.1-1.7l-3.5-3.8l-0.5-0.8l-0.2-0.8l-0.4-0.3
	l-0.9,0l-0.9,0.3l-0.5,0.3l-0.3-0.6l1.5-1l-1.5-4.1l-0.6-1l-1.2-0.8l-2.3-2.1l-1.5-0.7v-0.5l0.2-1.4l-0.6-1.5l-0.8-1.5l-0.6-1.3
	l-0.2-2l0.2-1.7l0.6-2.2l1.5,0.5l1.6,0.1l2.9-1.1l1-0.2l3.5,0.6l3.4,1.4l9.2,2.2l0.7,0.6l0.2,0.8l0.1,1l0.3,0.9l0.8,0.3l3.2,0
	l0.6-0.1l0.4-0.4l0.6-0.2l0.5-0.4l0.8-0.2l0.9,0.8l0.7,0.1l0.6-0.2l0,0h0.6l2.6-1.3l0.8-1l1.1-0.4l0.5-1l0.6-0.5l0.1,2.7l2.1,0.8
	l2.7,0.1l1.8,0.8l0.8,0.6l1.1,0.5l1,0.7l0.5,1.3l0.5,0.7l1.1-0.2l2-0.8l-0.2-1.6l1-0.1l1.4,0.9l1,1.3l0.6,2.6l0.3,0.6l0.4,0.6
	l0.8,0.9l-0.6,0.4l-0.6-0.1l-0.5-0.2l-0.4-0.1l0,0.2l-1.1,0.9l-0.1,0l-0.3,0.2l-0.2,0l-0.1,0.2l0,0.7l0.6,0l1.1-0.3l1.1-0.1l0.7,0.9
	l0.5-0.4l0.5,0l0.2,0.5L181,31l0.2,1l0,1.5l-0.2,3.1l-0.2,1.3l-0.3,1.1l-0.4,0.9l-0.5,0.8l-1.4,1.3l-1.7,1l-1.9,0.6l-1.8,0.2v0.5
	l1.9,1l10.5-2.5l0.8,0.3l2.6,2.3l-0.9,0.9V47l0.3,0.9l0.2,1.2l-0.3,1l-0.6,0.9l-0.8,0.7l-0.7,0.2l0.1,0.2l0.1,0.1l0,0.2l-0.3,0.5
	l0.5,0.5l0.1,0.6l-0.2,0.7l-0.4,0.7l1-0.4l0.7-0.9l1-2.3l0.6-2.5l0.3-0.6l0.4-0.3l1.6-0.2l0.6-0.3l0.3-0.4l0.2-0.4l0.4-0.4l0.5-0.2
	l1.8,0.2l1,0.5l2.6,2.1l6.8,3l3.9,3.7l1.8,0.4l2-0.4l1.5-0.9l2.5-2.3l1.4-0.9l1.5-0.6l3.6-0.5v0.5l-0.8,0l-1.1,0l0.8,0.3l0.8-0.2
	l1,0.7l3-1.9l1.4,0.5l-1.6,1.8l-0.5,0.7l-0.3-0.2l-0.7-0.3l0.5,1.2l0.4,3l0.3,1.4l-0.3,0.9l0,1.3l0.3,2.1l-0.2,1.3l-0.4,0.7
	l-0.4,0.5l-0.2,0.6l-5,3.3l-1.7,2.2l-0.8,0.5l-1.8,0.6l-0.3,0l-0.4,0.3l-0.3-0.2l-0.3-0.3l-0.4,0l-0.3,0.2l-0.2,0.2l-1.7,2.6
	l-0.4,0.5v0.5l0.6,1.4l0.6,1.1l0.8,0.7l1.2,0.4l1.7-0.2l0.4,0.2l0.3,0.8l0,0.9l0.2,0.7l0.6,0.2l0.2,0l0.5,0l0.2,0l0.6-0.4l1.3-1.3
	l0.7-0.3l0.8-0.2l2.3-1.2l5.3-0.7l0.4,0.1l0.3,0.4l0.3,1l0.3,0.5l1.5,0.4l0.2,0.4l-0.2,1.7l0.1,0.8l0.5,0.3l1.3,0.1l0.4-0.1l1.8-1.5
	l0.3,0.2l0.4,1l0.3,0.2h1.8l0,0.2l1.7,2.1l0.3,0.2h0.5l0.1-0.8l0.4-1.2l0.3-1.5l-0.2-1.2l0.3-0.5l0.4-0.3l0.4-0.1l-0.1-0.3l-0.1-0.8
	l-0.1-0.3l1.5-1.5v-0.5h-0.3v-0.5l1.1,0.5h0.4l0.9-0.7l0.8-2l0.6-0.4l0.3-0.1l0.3-0.3l0.2-0.5l0.2-0.5l0-0.4l-0.3-0.3v-0.4l0.1-0.4
	l0.2-0.3l0.2-0.2l1.1-1.9l1.4-1l1.7-0.2l3.6,0.6l10.3-2.2l1.6-1l0.2,2.1l-0.2,2.1l0.1,1.7l1,1.2l-0.4-0.9l-0.2-1.9l-0.2-0.7l0.5-0.9
	l1.2-0.7l0.4-1l-0.5,0l-0.5,0.1l-0.4,0.2l-0.4,0.3l0.3-0.7l1.5-1.9l0.9-0.8l1-1.7l0.6-0.4l0.6-0.2l3.3-1.8l1.6-1.4L281,57l1.6-3
	l2.6-3.8l0.3-0.7l1.8-3.1l0.7-2l0.5-0.6l0.9-0.4v0.5H289l0.9,1.5l1.9,0.8h9.9l1.6,0.8l1-0.6l1.2,0.3l0.6,0.8l-1.1,1l-1.1,0.2
	l-4.6-0.4l-1.8-0.7l-1.1-0.2l-0.3,0.2l-0.5,0.7l-0.2,0.2h-0.9l-1.1-0.2l-0.4,0.2l-0.3,1l-0.3-0.6l-0.2,0.1l-0.4,0.3l-0.3,0.1
	l0.1,0.6l0.2,0.3l0.3,0.1l0.4,0.1l-0.2,0H292l-0.1,0.1l0,0.3l-0.8-0.5l-0.9,0.1l-0.8,0.5L289,52l-0.7-0.9l-0.9-0.4l-1.6-0.1
	l-0.7,0.3l-0.6,0.9l-0.3,1.1l0.2,1.2l-0.6-0.1l-0.3-0.1l-0.3-0.3l-0.3,0.5l0.3,0.9l-0.2,0.9l-0.5,0.6l-0.7,0.2l0.3,1l0.4,0.8
	l0.1,0.7l-0.5,0.6l1.9,1.3l1.1,0.3l0.9-0.6l-0.7,0l-0.5-0.3l-0.9-0.8l0.3-0.9l0.4-0.6l1.1-1.1l0.3-0.2l0.5-0.2l0.2-0.1l0.1-0.4
	l0-0.9L287,55l0.7-0.6l2.8-1.4l-0.6-0.4l-0.3-0.1V52l0.8-0.3l0.3,0l0.4,0.3v-0.5l0.8,0.7l1.3-0.3l2.4-1.4l-0.1-0.2l-0.1-0.6
	l-0.1-0.3l0.5-0.3l0.5-0.2l0.5-0.1l0.5,0.1v0.6l-0.7,0.2l-0.4,0.6l-0.3,0.8l-0.1,0.9l0.5-0.9l0.2-0.5l0.1-0.6l0.4,0.7l0.4,0.7
	l0.5,0.2l0.5-0.6l0.5,0.5l0.5,0l0.4-0.3l0.4-0.5l0.1,0.6l0.2,0.5l0.3,0.5l0.7,0.9l0.2,0.1l0.2-0.1l0.4-0.1l0.8,0.1l0.4-0.1l0.5-0.4
	l0.4-0.6l0.4-1.2l0.4-0.7l1.1-1.1l1.7-1.1l1.7-0.6l1.1,0.3l-0.5,0.5l0,0.9l0.3,0.9l0.5,0.7l1.9,1l0.5,0.5l-0.8,1.5l0.2,1.1l1.2,2
	l0.1,0.8v0.8l0.1,0.6l0.5,0.3h1.9v0.5l-0.4,0l-0.3,0.1l-0.5,0.3l1.4-0.1l2.3,1.3l1.5,0.4l1.1,0.6l1.4,2.9l1.2,1l-0.7,0.5l-0.5,0.5
	l1.1,0l1.6-0.8l0.9,0.3l-0.3,0.9l-0.2,0.3l-0.3,0.3l0.5,0.3l0.3-0.2l0.3-0.2l0.4,0.1l0.2,0.4l0.6,1.7l0.5,1.1l0.6,0.9l0.8,0.5l1,0
	v-0.5l-0.4-0.3l-0.5-0.8l-0.4-0.3v-0.5l5.3-1.1l1.3-0.6l2.2-1.5l1.2-0.4l0.2,0.4l-0.1,0.3l-0.3,0.2l-0.4,0.1v0.5l1.3,0.7l3.4,2.9
	v0.5l-0.6,1.1l-0.4,1.4l-0.5,1.3l-1.2,0.7l0.5,0.4l1.3,1.6l0.5,0.8l0.3,0.2l1.2,0.5l0.3,0.2L346,81l0.1,0.5l0.1,0.3l0,0.3l-0.1,0.3
	l0,0.3l0.2,0.1l0.6-0.1l0.1,0.1l0.2,0.2l0.3,0.2l0.3,0.1l0.2,0l0.5,0.3l0.1,0.7l-0.3,0.8l-0.5,0.7l-3.1,2.6l-0.5,0.9l0.4,0.9
	l0.8,0.4l0.8,0.2l0.4,0.3l0.3,0.8l0.6,0.9l0.7,0.6l0.5-0.1l3.2,2.7l1.4,0.3l0.7,0.9l0.2,0.2l1-0.1l0.3,0.1l1.1,0.7l0.5,0.2l3.5,0.3
	l1.2-0.4l0.5-1L363,97l0.7,0.1l0.6,0.6l0.1,1.2l-0.3,0.5l-2,1.5l0.5,0.3l0.6,0.2l0.7,0.1l0.3,0v0l0.1,2.1l-0.2,1.1l0.7,1.4l0.9,2.8
	l0.1,0.7l-0.1,2.7l0,1.6l0.3,1.5l1.1,1.6l0.5,1.5l0.9,1.5l0.5,3.8l0.9,4.2l0.3,1.4l0.1,0.6l0,1.3l0.1,0.7l0.3,0.5l0.7,0.6l0.2,0.4
	l0.6,0.5l-1.1,2.2l-0.3,0.5l-0.5,0.2l-0.4,0.6l-0.3,0.9l-0.1,1l0.2,1.2l0.3,1l0.1,1l-1.3,4.1l-0.1,0.6l-0.6,1.3l-1.3,1.4l-2.6,2
	l-2.6,1.4l-2.1,1.6v0.4l0.3,0.7l0.5,2.5l0.1,0.9l-0.2,1.4l-0.4,0.9l-1.2,1l0.5,1l0.8,0.6l0.9,0.3l1,0.1l0.9,0.4l1.4,1.7l1.2,0.6
	l4.6,3.4l0.7,0.8l1.5,2.9l0.5,0.4l0.8,0.4l1.2,1.7l2.6,1l2.5,2.8l0.2,0.3l1.3,1.1l-1.2,2.6l-0.3,1.7l0.8,0.7l0.2,0.8l-0.7,1.7
	l-1,1.7l-2.2,2l0.2,2.8l1,3.1l0.9,2.1l-0.3,1.3l1,1.1l1.5,0.8l1.2,0.3l1.2,0.5l0.7,1.2l0,1.4l-0.8,1.1v0.4l0.6,1l-0.2,1l-0.5,1.3
	l-0.3,1.8l0.4,1l2.8,2.1l-0.8,1l-0.3,0.6l-0.1,0.6l-0.1,0.6l-0.2,0.7l-0.9,1.7l-0.2,0.7l-0.2,4.3l-0.4,1.4l-0.7,1.3l-0.8,1.1
	l-2.5,2.5l-0.6,1.2l0.1,1.5l0.7,1.1l0.8,0.5l0.6,0.8l0.2,1.8l0.4,1.8l1,1.1l2.1,1.8l0.6,1.2l0.4,1.8l0.1,1.8l-0.5,1.4l-0.8,1.3
	l-0.4,1.4l0.1,0.5l0.1,0.7l1,1l2.8,1l0.9,0.7v0l1,0.6l2,0.6l1,0.5l0.7,0.5l0.8,0.8l0.4,1l-0.4,0.9l0.2,1.8l0.3,2.9v0.1l0.2,1.2
	l0.1,0.5l0.8,1.4l1,1.2l0.6,1.4l-0.2,2l0.2,0.2l0.2,0.2l-0.7,1.5l-0.6,1.8l-0.4,1.9l0,1.7l-0.1,0.9L395,285l-0.3,0.3l-0.2,0.5
	l-0.1,0.7l0,1.3l-0.1,0.8l-1.9,4.9l-2.2,5.2l-1.5,1.7l-0.6,1l0,1.3l-0.7,1.8l-0.4,0.8l-0.4,0.5l-0.7,0.2l-0.9,0l-1.6-0.4l-1.7-1.3
	l-0.6-0.3l-1.5-0.4l-0.2-0.5l0.2-1.2l0.7-1.7l0.3-0.9l-0.2-0.8l-0.5,0l-2.4,1l-0.5-0.4l0.2-0.8l0.5-1l0.3-0.8l0.1-1l-0.1-0.7
	l-0.3-0.5l-0.5-0.6l-0.5-0.4l-1.2-0.3l-0.5-0.4l-0.4-0.6l-0.1-0.4l-0.1-0.4l-0.3-0.6l-0.4,1l-0.5,0.3l-1.6-0.1l-1.2,0.5l-0.5,0
	l-0.5-0.3l-0.3-0.4l-0.2-0.4l-0.3-0.3l-1.6-0.5l-1.4,0.2l-1,1.1l-0.6,2l-0.5,0.7l0.5,0.3l1.5,0.2l0.9,0.4l-0.1,0.1l-0.4,0.3l0,0.7
	l1.1,1.1l1.6,0.5l1.2,0.7l-0.3,1.7l-1.3,1.1l-3.4-0.3l-1.6,0.3l-0.5,0.5l-0.8,1.2l-0.5,0.5l-6.8,3.1l-0.8,0.1l-1.6-0.2l-0.8,0.2
	l-0.5,0.3l-0.7,0.8l-0.4,0.3l-0.5,0.1l-0.4-0.1l-0.4,0l-0.4,0.5l-0.2,0.7l0.1,0.6l0.1,0.5l0,0.4l-0.3,0.4l-0.3,0.1l-0.3,0l-1.3,0.8
	l-0.8,0.2l-2-0.2L342,312l-1.6,0.6l-0.8,0.2l-3.9,0l-2,0.4l-1.8,1.1l0.5,1l-0.2,0.9l-0.6,0.7l-0.7,0.5l0.3,0.5l0,0.4l-0.3,0.3
	l-0.4,0.2l-0.8,0.9l-0.7,0.7l-0.8,0.2l-1-0.5l-0.3-0.4l-0.6-1l-0.2-0.3l-0.5-0.2l-0.1,0.1l0,0.2l-0.3,0.3l-1.6,1.2l-0.2,0.4
	l-0.5,1.4l-0.9,0.5l-0.7-0.3l-0.7-0.5l-0.8-0.1l-1.4,3.9l-0.6,1.1l-1.1,0.8l-2.3-0.1l-1.2,0.4l0,0l0,0l-0.4,0.1l-0.4,0l-0.4,0
	l-0.4-0.1l-0.3-0.3l-0.4-0.1l-0.4,0.1l-0.4,0.3l-0.3,2.8l-0.3,1.2l-0.6,0.7l-0.9,0.9l-0.3,0.3l-1.5-0.1l-4-2.4l-0.4-0.1l-0.4,0.1
	l-0.6,0.4l-0.3,0.1l-0.8-0.1l-0.7,0l-0.7,0.3l-0.6,0.6l-1,1.5l-0.5,0.5l-0.6,0.1l-2.3-0.4l-3.2,0.2l-1.7,0.5l-1.2,1l-0.3,0.3
	l-0.2,0.3l-0.1,0.3l-0.1,0.3l0,0.1l0.1,0.2l0,0.3l-0.1,0.2l-0.2,0.1l-0.4,0l-0.2,0.1l-0.5,0.5l-1.3,0.7l-0.5,0.5l-1.3,2.4l-0.5,0.5
	l-0.5,0.3l-0.4,0.5l-0.1,1.1l-0.9,1.1l-0.2,0.6l-0.1,1.2l0.1,0.8l0.3,0.7v0.6l-0.6,0.4l-0.7-0.1l-0.4-0.7l-0.5-1.9l0-0.3l-0.1-0.4
	l-0.2-0.4l-0.2-0.3l-0.8-0.8l-0.1-0.2l0-0.1l0-0.1l0.1-0.1l0.1,0l0.1,0l0.1,0l0.1,0l0.2-0.4l0-0.3l-0.1-0.2l-0.3-0.2l-1.2,0
	l-0.6-0.2l-0.5-0.4l-0.2-0.5l0-1.2l-0.3-0.6l-0.8-0.6l-2.1-0.2l-1.1-0.1l1,1l0.3,0.6l0.2,1l-0.1,0.9l-0.3,0.3l-0.4,0.3l-0.5,0.8
	l0.4,0.8l2.1,1.3l1.1,1.2l0.5,0.8l0.3,0.8l0.1,1l-0.3,1.5l0,1l0.4,1l0.6,0.6l0.7,0.4l0.6,0.5l0.4,0.7l0.1,0.7l0,0.6l0.1,0.4l6.6,3.5
	h0l0.7,0.7l1.6,0.2l0.7,0.7l0.1,1l-0.3,0.9l0,0.7l1.8,1l0.6,0.2l0.3,0.5l-0.1,1.3l-0.3,1l-1,1.9l-0.3,1l-0.9-0.3l-0.3,0.9l0,1.4
	l-0.1,1.1l-0.7,0.7l-1.8,0.8l-0.5,1l0.2,0.7l0.4,0.9l0.9,1.3l0.6,0.6l0.7,0.5l1.4,0.7l0.6,0.3l0.4,0.7l0,0.9l-0.4,0.8l0.1,0.1
	l0.3,0.2l-0.2,0.5l0,0.2l0.4,0.5l1,0.6l0.5,0.5l0.3,0.7l0.2,1.5l0.2,0.8l0.3,0.8l0.3,0.6l0.3,0.5l0.5,0.5l0.5,0.1l0.5-0.1l0.3,0.3
	l0.1,1.1l0.1,2.2l0.2,1.1l0.5,1l0.8,0.7l2,0.9l0.9,0.9l1.4,3.2l0.7,0.7l0.9,0.3l2.6,0.4l0.8-0.1l-0.2-0.9l0.6-0.2l1.7,0.5l0.7,0.4
	l0.6,0.5l1.2,1.3l0.8,0.3l0.2,0.5l0.1,0.6l0.2,0.6l1.4,1.6l0,0l0.5,0.3l4.1,5.5l0.6,1.3l0.7,1.1l1.2,0.7l2.6,0.1l0.9,0.3l0.5,0.5
	l1.3,1.8l1.8,1.9l0.5,1.1l0,1.9l0.6,1l1.2,1.2l1.4,1l1,0.5l0.4-1.1l0.4-0.7l0.6-0.3l0.3,0.1l0.7,0.2l0.8,0.5l0.7,0.6l0.7,0.4
	l0.8-0.1l0.1,1.2l0.5,1.2l0.7,1l0.7,0.7l0.8,0.4l1.6,0.3l0.6,0.3l1,1.6l2.1,4.2L344.8,443.2z M361.9,84l-0.7,2l-0.4,0.2l-0.4,0.1
	l0.8,0.9l0.3,1.1l-4.9,0.6l-1-0.1l-0.7-0.5l-1,1.1l-1.3,0.7l-2.5,0.7l-2.7,0l-1.5-0.5l-0.8-1.1l0.6-0.2l0.9-0.7l1.4-0.3l1.5-0.9
	l0.4-0.4l0.3-2.1l-1.6-3.1l0.1-1.9l2.2,0.1l0.8,0.3l-0.3,0.5l0.1,0.4l-0.3,1.4l-0.1,1.2l0.7-1.2l0.6-0.3h1.7l-0.2,0.2l-0.2,0.2
	l-0.1,0.3l-0.1,0.4l1.5,0.5l-0.3-1l0.6-1.8l-0.1-2l-0.6-1.2l-1,0.4l-0.4-1.2l-0.5-1l-0.6-0.8l-0.7-0.5l-0.9-0.2l-0.9,0.2l-0.4,0.6
	l0.4,0.9v0.5l-0.4,0.2l-0.4,0.5l-0.3,0.6l-0.1,0.5l-0.3,0.2l-1.5,0.6l0.1-1l0.3-0.6l0.3-0.4l0.1-0.5l-0.2-0.9l-0.3-0.1l-0.4,0.3
	l-1.4,0.6l-0.6,0.9l-0.6,0.6l-0.9-0.3l0.3-1.4l1.2-2.4l0.2-1.9l-0.4-1.1l-1.8-1.9l-0.5-0.8l0.4-0.8l0.7-0.7l0.8-0.3l0.8,0.3l0.4,0.7
	l0.9,2.4l0.5,1l1.1,1.2l2.9,1.7l1.6,0.6l1.3,0.8l7.6,8.4L361.9,84L361.9,84z M40.9,108.5l-1,0.1l-1.5,0.7l-0.8,0.2v0.4l0.5,0.2
	l0.4,0.3l0.3,0.4l0.3,0.7l-0.4-0.2l-0.6-0.7l-0.4-0.1l-0.4,0.1l-0.6,0.3l-0.3,0.1l-0.8-0.4l-0.6-0.9l-0.2-0.9l0.5-0.4l3.3-1l1.6-0.1
	L40.9,108.5z M44.2,103.5l1.6-0.8l5.9-0.8l1.7,0.5L44.2,103.5z M55.5,100.9l2-1.2l2.3-0.4l4.9,0.1l0,0.3l-0.1,0.1h-0.1l-2,0.8
	l-5.3,0.7L55.5,100.9z M65.6,99.5l0.7-0.5l0.9-0.1L68,99l0.6,0.5l-0.1,0.3l-0.1,0.1l-0.3,0.1l-1.7-0.5L65.6,99.5z M98.2,100l0.5-0.9
	l0.9-0.4l1,0.2l0.9,0.7h-0.6l-0.4,0.2l-0.7,0.7l-0.2,0.2l-0.4-0.1l-0.2-0.2l-0.3,0l-0.5,0.3L98.2,100z M72.1,97l3.9,0l0.9,0.5l0,0.3
	l-0.1,0.1h-0.1l-0.1,0.1l-3.2-0.1l-1.5,0.4l-0.1,1.3l-1.3,0.1l-0.4-0.3l-0.1-1l0.2-0.8l0.5-0.3L72.1,97z M78.3,97l1.1-1.4l1.8-0.4
	l3.7,0.3V96h-0.6l-1,0.6l-1.2,0.5l-1.2,0.1l-1.1-0.7L79.4,97L79,97.3l-0.4,0L78.3,97z M87.5,95.9l-0.8-0.6l0.2-0.5l0.8-0.3l0.9-0.1
	l0.7,0.1l0.6,0.2l1.2,0.7l-0.4-0.1l-0.5,0.1L88.4,95l-0.8,0L87.5,95.9z M239.2,80.8l0.6-1.7l1.6-1.4l1.8-0.6l1.3,0.6l-1.3,3.8
	l-0.5,0.7l-0.5,0l0-0.5l0.3-1.3l-0.2-0.9l-0.4,0l-0.2,0.6l0.2,1l-0.6,0.5l-0.7,0l-0.7-0.4L239.2,80.8z M245.8,74v-0.2l0.2-0.5
	l2.9-1.4l0.6-0.6l-0.7,1l-2,1.8l-0.6,1.2H246L245.8,74z M134.7,40.7l-0.2,0.1l-0.1,0.2l0,0.3l0,0.4l-0.8,0.8l-0.5,0.9l-0.6,0.8
	l-1,0.5l-1.9,0.1l-0.9-0.3l-0.5-0.8l0.5-0.3l0.1-0.4l-0.2-0.5l-0.4-0.3l1.4-1.3l1.5-0.7l1.7-0.1L134.7,40.7z M234,44l2.5,4.8
	l-5.4-0.9l-0.8,0.5l0.2,0.3l0.2,0.1l-1.7,0.1l-1.1-0.2l-0.5-0.6l0.1-1.5l-0.2-0.6l-0.6-0.2l-1.1,0l-0.5,0.1l-0.3,0.4h-0.3l-0.1-0.5
	l-0.1-0.3l-0.2,0l-0.5,0.3l-0.1-1l1.2-3l1.7-1.7l2.1-0.4l3.7,1.6l1.1,1l0.3,0.5L234,44z M315.7,35.1l-1.1,0.9l-0.3,1.2l0,1.4
	l-0.4,1.5l-0.3,0.4l-0.6,0.5l-0.3,0.6l-0.2,0.7l-0.1,0.7l-0.1,1.6h-0.3v-1l0.1-1.7l1.4-4.9l0.3-1.9l0.3-0.5l0.7-0.2l0.6,0l0.5,0.1
	l0.3,0.4l0,0.8l0-0.1l-0.1-0.2l-0.2,0v1h-0.3L315.7,35.1z M339.8,50.5l1.2,2.1l0.7,1l1.1,0.4l-0.6,0.4l-0.6,0.7l-0.4,1l-0.2,1.2v1.2
	l-0.1,0.5l-0.5,0l-0.9-0.3h0.5l0.4-0.2l0.2-0.5l-0.2-0.8h-0.3l-0.4,0.5l-0.7,0.3l-0.7,0l-0.5-0.2V57l1.6-0.7l0.7-0.5l0.4-0.8
	l-2.3,0.2l-1,0.3l-0.9,0.6l2.4-1.7l0.8-0.3v-0.5l-1.2-0.1l-0.6,0.1l-0.4,0.3l-0.6,0.7l-0.4-0.2l-0.3-0.5l-0.5-0.3l-4.3,0.5l-0.8,0.5
	l-2.3,2l-0.5,0.8l-0.5,1.1l-1.1,0.2l-1,0.5l-0.2,2l0.6-0.5l0-0.4l-0.1-0.1l-0.1,0l-0.1-0.1l2.1-0.4l0.3,0.1l0.3,1.7l-0.1,0.8
	l-0.7,0.3l-1.2-0.2l-1.4-0.5l-1.5-1l0.3-0.4l0.2-0.9l0.4-1.1l-0.6,0.4l-0.3,0.3l-0.3,0.4l0.2,0.2l0.1,0.3l-0.9-0.1l-0.5,0.1
	l-0.3,0.3l-0.4,0.2l-0.4-0.3l-0.4-0.4l-0.3-0.2l-0.6-0.1l-0.8-0.4l-0.5-0.6l0.2-0.9l-0.6-0.2l-1.3,0.6l-0.4,0.1l-0.3-0.6L316,57
	l0.6-0.2l0.7,0.3v-0.5l-2.7-2.1l0.6-1.6l0.9-1.3l1.1-0.5l1.3,0.9l0.3-0.5l0.5,0.5l0.6-0.1l1.3-0.9l-0.7-0.1l-0.5-0.5l-0.2-0.7
	l0.2-0.8v-0.5l-0.6-0.1L319,48l-0.3-0.4l-0.4-0.2l-1.9,0.5l0.8-1.6l0.3-0.4l1.2-0.3l1.3-0.7l0.9-0.2v-0.5l0.1,0l0.3-0.1l0.3-0.3
	l-1.2-0.5l-0.5-0.4l-0.3-0.7l0.1-0.2l0.1-0.1l0.1-0.2l0-0.5l-1.3,0.5l-0.8,0.1l-0.3-0.3l-0.1-0.2l-0.2-0.1l-0.2-0.2l-0.1-0.6
	l-0.1-0.6l-0.2-0.4l-0.3-0.2h-0.4l1-0.5l3.3-0.5l0.7,0.2l0.2,0.4l0.5,0.2l0.5,0.4l0.2,1l0.2,0.5l0.3-0.3l0.2-0.9l-0.4-1.2l0.6-0.9
	L324,37l0.8-0.6l0.7-0.3l-0.5,1.5l-0.3,0.7l-0.4,0.4l0.3,0l0.2,0l0.2,0.2l0.2,0.3l-0.2,0.4l-0.4,1.1l0.6,0l0.5-0.2l0.4-0.5l0.3-0.8
	l-0.4-0.1l-0.4-0.3l-0.4-0.1v-0.5l0.6-0.6l0.5,1l0.8,1l0.5,1l-0.3,1.1l0.9,1.2l1.1,0.4l2.2-0.1l-0.3-0.6l0.4-1l0.2-0.3l0.3-0.2v-0.6
	l-0.3-1l-0.2-0.5l-0.3-0.4v-0.5l0.3-0.2l0.1-0.2l0.2-0.1l0.3-0.1v-0.5l-0.5,0l-0.3,0.3l-0.3,0.4l-0.3,0.3l-0.5,0.1l-1.5-0.1
	l-0.2-0.2l-0.2-0.5l-0.3-0.5l-0.4-0.2l-0.7-0.1l-0.3-0.4l-0.1-0.5l-0.3-0.5l-0.5-0.7l-0.1-0.3l-0.6,0.5l-0.3,0.4l-0.7,1l-1,0.6
	l-0.7,0.8l-0.8,0.6l-0.9-0.3l-0.2-0.9l0.3-1.4l0.6-1.3l0.6-0.6l0.1-0.3l0.2-0.7l0.1-0.7l-0.1-0.3l-1.9,0.5l-0.6,0.4l-0.3-0.1l0-0.9
	l0.2-0.5l0.5-0.5l0.5-0.4l5.9-1.7l1.2,0l1.1,0.6v0.5l-0.7,0.5l-0.9,0.5l-0.8,0.7l-0.3,1.1l0.1,1.3l0.4,1.1l0.6,0.8l0.7,0.6l1.8,0.6
	l5.6-1.1l1.9,0.4l1.3,1.5l0.3,1.9l-1.1,1.8l-1.9,1.3l-1,0.9l-0.4,1.1l0.2,1.3l0.4,1.3l0.5,1.1l0.5,0.7l0.9,0.5l2.1,0.5L339.8,50.5z
	 M107.4,28l2.2,4.1l0.8,0.5l-0.6,0.5l-1.5,0.5l-1-0.9l-0.8-1.5l-0.9-1.2l1.3-2.4l0.8-0.9l1-0.4l0,0.4l-0.1,0.1l-0.1,0l-0.1,0.1
	l-0.5,0.5L107.4,28z M114.5,23.3l2.4,0.1l1,0.6l0.8,1.3v0.5l-0.4,0.6l-0.5,1.4l-0.4,0.5l-0.6,0.2l-0.7-0.1l-0.7-0.3l-0.4-0.3
	l-1.1,0.4l-1.4-0.4l-2.5-1.6l0.9-1.6l1-1l1.2-0.5L114.5,23.3z M108.6,8.8l-0.3,2.7l1.5,1.4l2.1,0.5l9.4-0.5l-1.1,0.9l-5.4-0.3
	l-0.7,0.4l-1.2,0.9l-0.7,0.2h-3l-0.3-0.1l-0.4-0.7l-0.4-0.2l-0.4,0l-0.3,0.1l-1.3,0.9l-0.2,0.2l-0.1,0.6l-0.1,1.5l-0.1,0.3l0.1,4.1
	l-0.1,1.3l-0.2,1l-0.3,0.2l-0.3-1.1l0-2l0.5-8.2l0.4-1.6l3.3-9.2L111,0l2.1,1.1l-2.6,0.1l-0.3,0.4l1.2,0.1l0.4,0.9l-0.4,1l-1.8,1
	l-0.8,1.2l-0.5,1.5L108.6,8.8z M120.5,39.3l2.8-1.2l0.1,0.8l-0.3,1.8l-1,1.6l-1.2,0.7l-1,0l-0.5-0.5l-0.4-1.1l0.3-1.2l0.8-0.6
	l0.3-0.2L120.5,39.3z M88.8,66.2l-0.2,0.2l-0.1-0.3L88.4,66l-0.1-0.3l-0.2-0.2l-0.3-0.2l0.6-0.1l0.3,0.3L88.8,66.2z M89.2,65.3
	l0.8-0.2l0.2,0.4l-0.7,0.2L89.2,65.3z"/>
<ellipse class="st1" cx="196" cy="258.5" rx="52" ry="55.5"/>
</svg>
