<svg xmlns="http://www.w3.org/2000/svg" width="304.481" height="42.398" viewBox="0 0 304.481 42.398">
  <g id="Livello_1" transform="translate(-68.091 -388.981)">
    <g id="g3000" transform="translate(68.091 388.981)">
      <path id="path13" d="M68.091,394.815l17.386-2.39V409.2H68.092ZM85.477,411.35v16.588l-17.384-2.386v-14.2H85.477ZM87.4,392.161l23.135-3.18V409.2H87.4Zm23.135,19.189v20.029L87.4,428.2V411.35Z" transform="translate(-68.091 -388.981)" fill="#414141"/>
      <g id="flowRoot2989" transform="translate(55.497 7.961)">
        <path id="path3031" d="M177.993,427.648h-4.018v-15.54q0-1.911.238-4.673h-.067a16.332,16.332,0,0,1-.664,2.262l-7.289,17.951H163.4l-7.306-17.817a16.625,16.625,0,0,1-.647-2.394h-.067q.137,1.44.137,4.7v15.506H151.77V403.635h5.7l6.421,15.992a23.426,23.426,0,0,1,.953,2.746h.084q.631-1.892,1.022-2.814l6.54-15.924h5.5Z" transform="translate(-151.77 -401.877)" fill="#414141"/>
        <path id="path3033" d="M201.491,406.313a2.393,2.393,0,0,1-1.659-.62,2.024,2.024,0,0,1-.69-1.574,2.077,2.077,0,0,1,.69-1.592,2.366,2.366,0,0,1,1.659-.636,2.445,2.445,0,0,1,1.7.636,2.066,2.066,0,0,1,.7,1.592,2.039,2.039,0,0,1-.7,1.549A2.42,2.42,0,0,1,201.491,406.313Zm1.958,20.748H199.5V409.912h3.949Z" transform="translate(-167.724 -401.289)" fill="#414141"/>
        <path id="path3035" d="M225.355,430.143a9.872,9.872,0,0,1-4.956,1.188,8.472,8.472,0,0,1-6.267-2.386,8.374,8.374,0,0,1-2.384-6.188,8.831,8.831,0,0,1,9.417-9.378,10.132,10.132,0,0,1,4.205.822v3.617a6.443,6.443,0,0,0-3.882-1.34,5.443,5.443,0,0,0-4.1,1.666,6.036,6.036,0,0,0-1.6,4.362,5.753,5.753,0,0,0,1.506,4.2,5.4,5.4,0,0,0,4.044,1.541,6.387,6.387,0,0,0,4.019-1.49Z" transform="translate(-171.97 -405.159)" fill="#414141"/>
        <path id="path3037" d="M248.308,417.534a3.316,3.316,0,0,0-2.061-.552,3.543,3.543,0,0,0-2.929,1.557,6.877,6.877,0,0,0-1.176,4.236v8.206H238.19V413.832h3.951v3.534h.068a5.942,5.942,0,0,1,1.779-2.821,4.057,4.057,0,0,1,2.682-1.013,3.4,3.4,0,0,1,1.635.318Z" transform="translate(-180.875 -405.21)" fill="#414141"/>
        <path id="path3039" d="M264.868,431.331a8.73,8.73,0,0,1-6.447-2.4,8.6,8.6,0,0,1-2.411-6.372,8.942,8.942,0,0,1,2.513-6.749,9.327,9.327,0,0,1,6.77-2.429,8.438,8.438,0,0,1,6.368,2.362,9.023,9.023,0,0,1,2.281,6.547,8.488,8.488,0,0,1-9.075,9.042Zm.187-14.853a4.543,4.543,0,0,0-3.661,1.59,6.585,6.585,0,0,0-1.345,4.387,6.2,6.2,0,0,0,1.362,4.244,4.612,4.612,0,0,0,3.645,1.549,4.375,4.375,0,0,0,3.585-1.523,6.675,6.675,0,0,0,1.252-4.338,6.76,6.76,0,0,0-1.252-4.37,4.359,4.359,0,0,0-3.586-1.539Z" transform="translate(-186.877 -405.159)" fill="#414141"/>
        <path id="path3041" d="M287.495,430.4v-3.6a7.97,7.97,0,0,0,4.887,1.658q3.577,0,3.576-2.076a1.616,1.616,0,0,0-.306-1,2.861,2.861,0,0,0-.826-.728,6.753,6.753,0,0,0-1.226-.57c-.472-.168-1-.357-1.576-.569a16.808,16.808,0,0,1-1.933-.888,5.831,5.831,0,0,1-1.43-1.062,3.988,3.988,0,0,1-.86-1.348,4.873,4.873,0,0,1-.288-1.758,4.011,4.011,0,0,1,.6-2.185,5.128,5.128,0,0,1,1.6-1.59,7.727,7.727,0,0,1,2.283-.971,10.573,10.573,0,0,1,2.638-.327,12.189,12.189,0,0,1,4.325.72v3.4a7.376,7.376,0,0,0-4.223-1.24,5.69,5.69,0,0,0-1.354.15,3.517,3.517,0,0,0-1.031.418,2.081,2.081,0,0,0-.664.645,1.519,1.519,0,0,0-.239.828,1.748,1.748,0,0,0,.239.938,2.147,2.147,0,0,0,.707.678,6.1,6.1,0,0,0,1.124.536c.438.161.939.338,1.508.527a22.1,22.1,0,0,1,2.018.922,6.838,6.838,0,0,1,1.525,1.063,4.144,4.144,0,0,1,.97,1.374,4.6,4.6,0,0,1,.341,1.85,4.172,4.172,0,0,1-.613,2.277,5.074,5.074,0,0,1-1.634,1.607,7.693,7.693,0,0,1-2.359.945,12.4,12.4,0,0,1-2.819.31A12.017,12.017,0,0,1,287.495,430.4Z" transform="translate(-197.48 -405.16)" fill="#414141"/>
        <path id="path3043" d="M319,431.331a8.727,8.727,0,0,1-6.446-2.4,8.6,8.6,0,0,1-2.409-6.372,8.944,8.944,0,0,1,2.512-6.749,9.324,9.324,0,0,1,6.768-2.429,8.441,8.441,0,0,1,6.369,2.362,9.027,9.027,0,0,1,2.282,6.547A8.488,8.488,0,0,1,319,431.331Zm.186-14.853a4.549,4.549,0,0,0-3.662,1.59,6.581,6.581,0,0,0-1.346,4.387,6.2,6.2,0,0,0,1.363,4.244,4.612,4.612,0,0,0,3.645,1.549,4.379,4.379,0,0,0,3.585-1.523,6.667,6.667,0,0,0,1.252-4.338,6.764,6.764,0,0,0-1.252-4.37A4.358,4.358,0,0,0,319.184,416.479Z" transform="translate(-205.107 -405.159)" fill="#414141"/>
        <path id="path3045" d="M352.234,404.534a3.642,3.642,0,0,0-1.823-.452q-2.879,0-2.877,3.2v2.328h4.053v3.047h-4.036v14.1H343.6v-14.1h-2.979v-3.047H343.6v-2.78a5.369,5.369,0,0,1,1.805-4.278,6.642,6.642,0,0,1,4.513-1.566,6.794,6.794,0,0,1,2.315.318Z" transform="translate(-215.372 -400.984)" fill="#414141"/>
        <path id="path3047" d="M369.7,428.375a6.948,6.948,0,0,1-3.048.57q-5.074,0-5.074-4.788v-9.7h-2.912v-3.047h2.912v-3.969l3.951-1.1v5.074h4.172v3.047h-4.172v8.573a3.332,3.332,0,0,0,.562,2.177,2.357,2.357,0,0,0,1.873.653,2.74,2.74,0,0,0,1.736-.57v3.081Z" transform="translate(-221.451 -402.788)" fill="#414141"/>
        <path id="path3049" d="M414.27,427.648h-4.444l-2.2-6.113h-9.6l-2.111,6.113h-4.428l9.144-24.013h4.564Zm-7.714-9.361-3.387-9.578a11.082,11.082,0,0,1-.324-1.507h-.068a9.662,9.662,0,0,1-.34,1.507l-3.355,9.578Z" transform="translate(-232.503 -401.877)" fill="#414141"/>
        <path id="path3051" d="M442.075,415.611,432.658,428.1h9.383v3.032H427.123v-1.457l9.621-12.659h-8.7v-3.032h14.032Z" transform="translate(-244.505 -405.363)" fill="#414141"/>
        <path id="path3053" d="M469.735,431.134h-3.949V428.42h-.068a5.7,5.7,0,0,1-5.347,3.115q-6.181,0-6.182-7.3V413.985h3.951v9.847q0,4.622,3.628,4.622a3.693,3.693,0,0,0,2.886-1.272,4.825,4.825,0,0,0,1.133-3.333v-9.865h3.951Z" transform="translate(-253.62 -405.363)" fill="#414141"/>
        <path id="path3055" d="M495.525,417.534a3.316,3.316,0,0,0-2.061-.552,3.543,3.543,0,0,0-2.929,1.557,6.877,6.877,0,0,0-1.176,4.236v8.206h-3.949V413.832h3.949v3.534h.068a5.943,5.943,0,0,1,1.779-2.821,4.057,4.057,0,0,1,2.682-1.013,3.388,3.388,0,0,1,1.633.318Z" transform="translate(-264.134 -405.21)" fill="#414141"/>
        <path id="path3057" d="M519.118,423.411H507.231a4.9,4.9,0,0,0,1.491,3.668,5.6,5.6,0,0,0,3.908,1.289,8.715,8.715,0,0,0,5.125-1.641v3.13a11.865,11.865,0,0,1-6.3,1.474A7.869,7.869,0,0,1,505.417,429a9.244,9.244,0,0,1-2.187-6.572,9.042,9.042,0,0,1,2.411-6.523,7.947,7.947,0,0,1,5.986-2.52,6.925,6.925,0,0,1,5.533,2.26,9.276,9.276,0,0,1,1.96,6.279Zm-3.815-2.746a4.974,4.974,0,0,0-1-3.256,3.384,3.384,0,0,0-2.725-1.163,3.866,3.866,0,0,0-2.886,1.223,5.544,5.544,0,0,0-1.456,3.2H515.3Z" transform="translate(-270.136 -405.159)" fill="#414141"/>
      </g>
    </g>
  </g>
</svg>
