<svg xmlns="http://www.w3.org/2000/svg" viewBox="0 0 32 24">
  <defs>
    <style>
      .a {
        fill: none;
        stroke: #192b38;
        stroke-miterlimit: 10;
        stroke-width: 2px;
      }
    </style>
  </defs>
  <title>potential-risk-analysis</title>
  <g>
    <path class="a" d="M3.1,17.1c.7-5.6,7.1-9.9,14.9-10s14.4,4.4,15.1,10" transform="translate(-2.1 -6.1)"/>
    <path class="a" d="M3.1,19.1c.7,5.6,7.3,10.1,15.1,10s14.3-4.4,14.9-10" transform="translate(-2.1 -6.1)"/>
    <path class="a" d="M25.1,18.1a6.9,6.9,0,0,1-6.9,7,7,7,0,0,1-7.1-6.9,7.1,7.1,0,0,1,7-7.1A7,7,0,0,1,25.1,18.1Z" transform="translate(-2.1 -6.1)"/>
    <path class="a" d="M15.1,18.1a3,3,0,0,1,3-3" transform="translate(-2.1 -6.1)"/>
  </g>
</svg>
