<svg xmlns="http://www.w3.org/2000/svg" width="210.585" height="33.058" viewBox="0 0 210.585 33.058">
    <g>
        <path d="M0 1.1h12.108c6.165 0 10.176 3.64 10.176 9.285S18.273 19.6 12.108 19.6H4.16v13.37H0zm11.959 14.782c3.788 0 6.017-2.08 6.017-5.5s-2.228-5.571-6.017-5.571H4.16v11.071z" transform="translate(0 .002) translate(0 -.283)"/>
        <path d="M53.207 36.053h-3.862v-4.309a9.136 9.136 0 0 1-7.874 4.68 7.78 7.78 0 0 1-8.171-8.1V13.1h3.863v14.485c0 3.12 1.931 5.348 5.2 5.348s6.982-3.714 6.982-9.731V13.1h3.863z" transform="translate(0 .002) translate(-8.565 -3.37)"/>
        <path d="M76.574 16.24c-3.64 0-6.611 3.491-6.611 10.919v8.765H66.1V12.971h3.863v4.68c1.337-2.9 4.308-5.051 7.131-5.051a7.8 7.8 0 0 1 2.674.446l-.3 3.714a7.428 7.428 0 0 0-2.894-.52z" transform="translate(0 .002) translate(-17.001 -3.241)"/>
        <path d="M167.974 16.239c-3.64 0-6.611 3.491-6.611 10.919v8.765H157.5V12.971h3.863v4.68c1.337-2.9 4.308-5.051 7.131-5.051a7.057 7.057 0 0 1 2.6.446l-.223 3.714a7.428 7.428 0 0 0-2.9-.52z" transform="translate(0 .002) translate(-40.509 -3.241)"/>
        <path d="M106.487 25.153H88.363c.3 4.68 3.194 7.725 7.354 7.725s5.868-1.634 6.611-4.531l3.565.891c-1.114 4.457-4.9 7.057-10.176 7.057C88.808 36.3 84.5 30.947 84.5 24.411S88.66 12.6 95.642 12.6s10.919 4.9 10.919 10.771c0 .594-.074 1.411-.074 1.782zm-4.011-3.194a6.462 6.462 0 0 0-6.834-6.091c-3.64 0-6.24 2.228-7.057 6.091z" transform="translate(0 .002) translate(-21.733 -3.241)"/>
        <path d="M114.6 13.1h3.937l6.388 18.421 6.388-18.421h4.011l-8.394 22.953h-4.011z" transform="translate(0 .002) translate(-29.475 -3.37)"/>
        <path d="M146.3 13.1h3.863v22.953H146.3z" transform="translate(0 .002) translate(-37.628 -3.37)"/>
        <path d="M187.059 34.032c-3.937 0-6.759-2.228-6.759-7.279V14.125h3.863v-3.417H180.3V3.8h3.863v6.908h6.091v3.417h-6.091V26.9c0 2.451 1.337 3.64 3.343 3.64a6.982 6.982 0 0 0 2.9-.594l.223 3.491a9.731 9.731 0 0 1-3.565.594z" transform="translate(0 .002) translate(-46.373 -.978)"/>
        <path d="M218.081 36.053h-3.863v-4.309a9.211 9.211 0 0 1-7.874 4.68c-4.828 0-8.245-3.268-8.245-8.1V13.1h3.937v14.485c0 3.12 1.931 5.348 5.125 5.348s7.057-3.714 7.057-9.731V13.1h3.863z" transform="translate(0 .002) translate(-50.951 -3.37)"/>
        <path d="M249.064 21.216v14.708h-3.788v-3.937a8.367 8.367 0 0 1-7.651 4.308c-4.605 0-7.725-2.823-7.725-6.834s3.64-6.759 10.919-7.5l4.457-.52v-.446c0-3.12-2.228-5.125-5.571-5.125s-5.348 1.857-5.72 4.977l-3.565-.747c.669-4.531 4.457-7.5 9.285-7.5s9.359 3.268 9.359 8.616zm-3.788 4.308v-1.113l-4.457.52c-4.605.52-7.057 2.08-7.057 4.531s1.857 3.64 4.457 3.64c4.457-.002 7.057-2.972 7.057-7.577z" transform="translate(0 .002) translate(-59.13 -3.241)"/>
        <path d="M261.7.6h3.863v32.238H261.7z" transform="translate(0 .002) translate(-67.309 -.155)"/>
        <path d="M145.3 2.748A2.6 2.6 0 0 1 147.973 0a2.674 2.674 0 0 1 2.748 2.748 2.674 2.674 0 0 1-2.748 2.674 2.6 2.6 0 0 1-2.673-2.674z" transform="translate(0 .002) translate(-37.369)"/>
        <g>
            <path d="M277.72 8.6l-1.263-2.228h-.966V8.6h-.891V3.4h1.931a1.486 1.486 0 0 1 1.634 1.486 1.337 1.337 0 0 1-.891 1.337l1.411 2.377zm-2.228-2.971h.891c.594 0 .891-.223.891-.743s-.3-.669-.891-.669h-.891z" transform="translate(0 .002) translate(200.928 .52) translate(-271.555 -1.392)"/>
            <path d="M275.328 1.517a4.011 4.011 0 1 1-4.011 3.937 3.937 3.937 0 0 1 4.011-3.937m0-.817a4.828 4.828 0 1 0 4.828 4.754A4.828 4.828 0 0 0 275.328.7z" transform="translate(0 .002) translate(200.928 .52) translate(-270.501 -.7)"/>
        </g>
    </g>
</svg>
