<?xml version="1.0" encoding="utf-8"?>
<!-- Generator: Adobe Illustrator 22.0.0, SVG Export Plug-In . SVG Version: 6.00 Build 0)  -->
<svg version="1.1" id="Logo" xmlns="http://www.w3.org/2000/svg" xmlns:xlink="http://www.w3.org/1999/xlink" x="0px" y="0px"
	 viewBox="0 0 200 30.9" style="enable-background:new 0 0 200 30.9;" xml:space="preserve">
<style type="text/css">
	.st0{fill:#010101;}
</style>
<g id="Logo_2_">
	<path class="st0" d="M0,0h11.6c5.9,0,9.8,3.5,9.8,8.9c0,5.4-3.8,8.9-9.8,8.9H4v12.8H0V0z M11.5,14.2c3.6,0,5.8-2,5.8-5.3
		s-2.2-5.3-5.8-5.3H4v10.6H11.5z"/>
	<path class="st0" d="M42.4,30.6h-3.7v-4.1c-1.5,2.6-4.1,4.4-7.5,4.4c-4.5,0-7.8-3.1-7.8-7.7V8.8h3.7v13.7c0,2.9,1.9,5.1,4.9,5.1
		c4.1,0,6.7-3.5,6.7-9.2V8.8h3.7V30.6z"/>
	<path class="st0" d="M56.6,11.9c-3.5,0-6.3,3.3-6.3,10.4v8.3h-3.7V8.8h3.7v4.4c1.3-2.8,4.1-4.8,6.8-4.8c0.9,0,1.8,0.1,2.5,0.4
		l-0.2,3.5C58.6,12,57.5,11.9,56.6,11.9z"/>
	<path class="st0" d="M121,11.9c-3.5,0-6.3,3.3-6.3,10.4v8.3h-3.7V8.8h3.7v4.4c1.3-2.8,4.1-4.8,6.8-4.8c0.9,0,1.8,0.1,2.5,0.4
		l-0.2,3.5C123,12,122,11.9,121,11.9z"/>
	<path class="st0" d="M80.5,20.4H63.3c0.3,4.4,3,7.3,7,7.3c3.3,0,5.6-1.6,6.3-4.3l3.5,0.8c-1.1,4.2-4.7,6.7-9.7,6.7
		c-6.5,0-10.6-5.1-10.6-11.2s4-11.2,10.5-11.2c6.4,0,10.4,4.6,10.4,10.2C80.6,19.2,80.5,20,80.5,20.4z M76.7,17.3
		c-0.3-3.3-2.7-5.8-6.5-5.8c-3.4,0-5.9,2.2-6.7,5.8H76.7z"/>
	<path class="st0" d="M80.8,8.8h3.8l6,17.5l6.1-17.5h3.8l-8,21.8h-3.8L80.8,8.8z"/>
	<path class="st0" d="M103.2,8.8h3.7v21.8h-3.7V8.8z"/>
	<path class="st0" d="M133.6,30.9c-3.7,0-6.4-2.1-6.4-6.9V12h3.7V8.8h-3.7V2.2h3.7v6.6h5.8V12h-5.8v12.1c0,2.3,1.3,3.4,3.2,3.4
		c0.9,0,1.9-0.1,2.7-0.6l0.3,3.4C136,30.8,134.8,30.9,133.6,30.9z"/>
	<path class="st0" d="M158.7,30.6h-3.7v-4.1c-1.5,2.6-4.1,4.4-7.5,4.4c-4.5,0-7.8-3.1-7.8-7.7V8.8h3.7v13.7c0,2.9,1.9,5.1,4.9,5.1
		c4.1,0,6.7-3.5,6.7-9.2V8.8h3.7V30.6z"/>
	<path class="st0" d="M180.4,16.6v13.9h-3.6v-3.7c-1.3,2.5-4.1,4.1-7.3,4.1c-4.4,0-7.3-2.7-7.3-6.4c0-4.2,3.4-6.5,10.4-7.2l4.2-0.5
		v-0.4c0-3-2.1-4.9-5.3-4.9c-3,0-5.1,1.8-5.4,4.7l-3.4-0.6c0.6-4.3,4.2-7.1,8.8-7.1C176.8,8.5,180.4,11.6,180.4,16.6z M176.8,20.7
		v-1l-4.2,0.5c-4.4,0.5-6.7,2-6.7,4.3c0,2,1.7,3.5,4.2,3.5C174.4,27.9,176.8,25.1,176.8,20.7z"/>
	<path class="st0" d="M184.7,0h3.7v30.6h-3.7V0z"/>
	<path class="st0" d="M102.5,2.6c0-1.5,1.1-2.6,2.5-2.6c1.5,0,2.6,1.1,2.6,2.6c0,1.4-1.1,2.5-2.6,2.5C103.6,5.1,102.5,4,102.5,2.6z"
		/>
	<g>
		<g>
			<path class="st0" d="M196.7,6.9l-1.2-2.1h-0.9v2.1h-0.8l0-4.9h1.8c0.9,0,1.6,0.6,1.6,1.4c0,0.6-0.3,1-0.8,1.3l1.3,2.2H196.7z
				 M194.6,4.1h0.9c0.5,0,0.8-0.3,0.8-0.7c0-0.4-0.3-0.7-0.8-0.7h-0.9V4.1z"/>
		</g>
		<path class="st0" d="M195.4,0.8c2.1,0,3.8,1.7,3.8,3.8s-1.7,3.8-3.8,3.8c-2.1,0-3.8-1.7-3.8-3.8S193.3,0.8,195.4,0.8 M195.4,0
			c-2.5,0-4.6,2-4.6,4.6c0,2.5,2,4.6,4.6,4.6c2.5,0,4.6-2,4.6-4.6C200,2.1,198,0,195.4,0L195.4,0z"/>
	</g>
</g>
</svg>
