<svg xmlns="http://www.w3.org/2000/svg" width="680" height="835" viewBox="0 0 680 835">
  <g id="purevirtual-about-diagram" transform="translate(-861 -6659)">
    <g id="Ellipse_134" data-name="Ellipse 134" transform="translate(1101 6659)" fill="#f7f7f7" stroke="#95a5a5" stroke-width="1">
      <circle cx="99" cy="99" r="99" stroke="none"/>
      <circle cx="99" cy="99" r="98.5" fill="none"/>
    </g>
    <circle id="Ellipse_73" data-name="Ellipse 73" cx="28.5" cy="28.5" r="28.5" transform="translate(1173 6908)" fill="#95a5a5" opacity="0.18"/>
    <g id="Rectangle_167" data-name="Rectangle 167" transform="translate(1297 6897)" fill="#eef0f0" stroke="#95a5a5" stroke-width="1">
      <rect width="244" height="78" rx="5" stroke="none"/>
      <rect x="0.5" y="0.5" width="243" height="77" rx="4.5" fill="none"/>
    </g>
    <line id="Line_304" data-name="Line 304" y2="98" transform="translate(1201.5 6956.5)" fill="none" stroke="#95a5a5" stroke-width="1"/>
    <line id="Line_306" data-name="Line 306" y2="41" transform="translate(1201.5 7147.5)" fill="none" stroke="#95a5a5" stroke-width="1"/>
    <line id="Line_307" data-name="Line 307" y2="41" transform="translate(1201.5 7260.5)" fill="none" stroke="#95a5a5" stroke-width="1"/>
    <line id="Line_309" data-name="Line 309" y2="41" transform="translate(1201.5 7376.5)" fill="none" stroke="#95a5a5" stroke-width="1"/>
    <text id="Purevirtual_as_your_outsourced_IT_department." data-name="Purevirtual as your outsourced IT department." transform="translate(1309 6915)" font-size="18" font-family="Matter-Medium, Matter" font-weight="500"><tspan x="33.806" y="18">Purevirtual </tspan><tspan y="18" font-family="Matter-Regular, Matter" font-weight="400">as your </tspan><tspan x="0.2" y="36" font-family="Matter-Regular, Matter" font-weight="400">outsourced IT department.</tspan></text>
    <line id="Line_300" data-name="Line 300" x1="81" transform="translate(1099.5 6936.5)" fill="none" stroke="#95a5a5" stroke-width="1"/>
    <line id="Line_301" data-name="Line 301" x1="78" transform="translate(1219.5 6936.5)" fill="none" stroke="#95a5a5" stroke-width="1"/>
    <g id="Ellipse_63" data-name="Ellipse 63" transform="translate(1180 6915)" fill="#f7f7f7" stroke="#95a5a5" stroke-width="1">
      <circle cx="21.5" cy="21.5" r="21.5" stroke="none"/>
      <circle cx="21.5" cy="21.5" r="21" fill="none"/>
    </g>
    <g id="Rectangle_97" data-name="Rectangle 97" transform="translate(861 6897)" fill="#eef0f0" stroke="#95a5a5" stroke-width="1">
      <rect width="244" height="78" rx="5" stroke="none"/>
      <rect x="0.5" y="0.5" width="243" height="77" rx="4.5" fill="none"/>
    </g>
    <g id="Rectangle_168" data-name="Rectangle 168" transform="translate(1079 7055)" fill="#f7f7f7" stroke="#95a5a5" stroke-width="1">
      <rect width="244" height="92" rx="5" stroke="none"/>
      <rect x="0.5" y="0.5" width="243" height="91" rx="4.5" fill="none"/>
    </g>
    <g id="Rectangle_169" data-name="Rectangle 169" transform="translate(1079 7195)" fill="#f7f7f7" stroke="#95a5a5" stroke-width="1">
      <rect width="244" height="70" rx="5" stroke="none"/>
      <rect x="0.5" y="0.5" width="243" height="69" rx="4.5" fill="none"/>
    </g>
    <g id="Rectangle_170" data-name="Rectangle 170" transform="translate(1079 7308)" fill="#f7f7f7" stroke="#95a5a5" stroke-width="1">
      <rect width="244" height="70" rx="5" stroke="none"/>
      <rect x="0.5" y="0.5" width="243" height="69" rx="4.5" fill="none"/>
    </g>
    <g id="Rectangle_171" data-name="Rectangle 171" transform="translate(1079 7424)" fill="#f7f7f7" stroke="#95a5a5" stroke-width="1">
      <rect width="244" height="70" rx="5" stroke="none"/>
      <rect x="0.5" y="0.5" width="243" height="69" rx="4.5" fill="none"/>
    </g>
    <g id="Ellipse_65" data-name="Ellipse 65" transform="translate(1101 6933)" fill="#fff" stroke="#95a5a5" stroke-width="1">
      <circle cx="3.5" cy="3.5" r="3.5" stroke="none"/>
      <circle cx="3.5" cy="3.5" r="3" fill="none"/>
    </g>
    <g id="Ellipse_70" data-name="Ellipse 70" transform="translate(1198 7143)" fill="#fff" stroke="#95a5a5" stroke-width="1">
      <circle cx="3.5" cy="3.5" r="3.5" stroke="none"/>
      <circle cx="3.5" cy="3.5" r="3" fill="none"/>
    </g>
    <g id="Ellipse_80" data-name="Ellipse 80" transform="translate(1198 7262)" fill="#fff" stroke="#95a5a5" stroke-width="1">
      <circle cx="3.5" cy="3.5" r="3.5" stroke="none"/>
      <circle cx="3.5" cy="3.5" r="3" fill="none"/>
    </g>
    <g id="Ellipse_81" data-name="Ellipse 81" transform="translate(1198 7374)" fill="#fff" stroke="#95a5a5" stroke-width="1">
      <circle cx="3.5" cy="3.5" r="3.5" stroke="none"/>
      <circle cx="3.5" cy="3.5" r="3" fill="none"/>
    </g>
    <g id="Ellipse_66" data-name="Ellipse 66" transform="translate(1294 6933)" fill="#fff" stroke="#95a5a5" stroke-width="1">
      <circle cx="3.5" cy="3.5" r="3.5" stroke="none"/>
      <circle cx="3.5" cy="3.5" r="3" fill="none"/>
    </g>
    <circle id="Ellipse_69" data-name="Ellipse 69" cx="13.5" cy="13.5" r="13.5" transform="translate(1188 7182)" fill="#95a5a5" opacity="0.18"/>
    <circle id="Ellipse_74" data-name="Ellipse 74" cx="13.5" cy="13.5" r="13.5" transform="translate(1188 7295)" fill="#95a5a5" opacity="0.18"/>
    <circle id="Ellipse_78" data-name="Ellipse 78" cx="13.5" cy="13.5" r="13.5" transform="translate(1188 7411)" fill="#95a5a5" opacity="0.18"/>
    <circle id="Ellipse_72" data-name="Ellipse 72" cx="13.5" cy="13.5" r="13.5" transform="translate(1188 7042)" fill="#95a5a5" opacity="0.18"/>
    <text id="Your_Internal_staff_operations." data-name="Your Internal staff &amp; operations." transform="translate(880 6914)" font-size="18" font-family="Matter-Regular, Matter"><tspan x="23.211" y="18">Your Internal staff &amp; </tspan><tspan x="57.474" y="38">operations.</tspan></text>
    <text id="Enjoy_your_own_IT_department_without_having_to_hire_more_employees." data-name="Enjoy your own IT department without having to hire more employees." transform="translate(1100 7072)" font-size="14" font-family="Matter-Regular, Matter"><tspan x="8.454" y="14">Enjoy your own IT department </tspan><tspan x="16.021" y="32">without having to hire more </tspan><tspan x="67.429" y="50">employees.</tspan></text>
    <text id="Save_resources_by_making_clever_IT_decisions." data-name="Save resources by making clever IT decisions." transform="translate(1103 7212)" font-size="14" font-family="Matter-Regular, Matter"><tspan x="18.229" y="14">Save resources by making </tspan><tspan x="40.881" y="32">clever IT decisions.</tspan></text>
    <text id="Secure_your_network_company_data_and_IT_infrastructure." data-name="Secure your network, company data and IT infrastructure." transform="translate(1100 7325)" font-size="14" font-family="Matter-Regular, Matter"><tspan x="4.205" y="14">Secure your network, company </tspan><tspan x="21.439" y="32">data and IT infrastructure.</tspan></text>
    <text id="Increase_your_productivity_customer_employee_satisfaction." data-name="Increase your productivity, customer &amp; employee satisfaction." transform="translate(1091 7441)" font-size="14" font-family="Matter-Regular, Matter"><tspan x="26.598" y="14">Increase your productivity, </tspan><tspan x="0.866" y="32">customer &amp; employee satisfaction.</tspan></text>
    <g id="Group_445" data-name="Group 445" transform="translate(834.965 -913.035)">
      <line id="Line_302" data-name="Line 302" y2="18.069" transform="translate(366.535 7840.5)" fill="none" stroke="#182b39" stroke-width="1.5"/>
      <line id="Line_303" data-name="Line 303" x1="18.069" transform="translate(357.5 7849.535)" fill="none" stroke="#182b39" stroke-width="1.5"/>
    </g>
    <line id="Line_308" data-name="Line 308" y2="59" transform="translate(1201.5 6856.5)" fill="none" stroke="#95a5a5" stroke-width="1"/>
    <g id="Group_446" data-name="Group 446" transform="translate(801 -966)">
      <g id="Ellipse_64" data-name="Ellipse 64" transform="translate(391 8012)" fill="#fff" stroke="#95a5a5" stroke-width="1">
        <circle cx="9.5" cy="9.5" r="9.5" stroke="none"/>
        <circle cx="9.5" cy="9.5" r="9" fill="none"/>
      </g>
      <path id="Path_495" data-name="Path 495" d="M2509.962,3508.709l2.047,2.047,5.029-5.029" transform="translate(-2112.731 4513.29)" fill="none" stroke="#182b39" stroke-width="1"/>
    </g>
    <g id="Ellipse_71" data-name="Ellipse 71" transform="translate(1192 7186)" fill="#fff" stroke="#95a5a5" stroke-width="1">
      <circle cx="9.5" cy="9.5" r="9.5" stroke="none"/>
      <circle cx="9.5" cy="9.5" r="9" fill="none"/>
    </g>
    <g id="Ellipse_75" data-name="Ellipse 75" transform="translate(1192 7299)" fill="#fff" stroke="#95a5a5" stroke-width="1">
      <circle cx="9.5" cy="9.5" r="9.5" stroke="none"/>
      <circle cx="9.5" cy="9.5" r="9" fill="none"/>
    </g>
    <g id="Ellipse_79" data-name="Ellipse 79" transform="translate(1192 7415)" fill="#fff" stroke="#95a5a5" stroke-width="1">
      <circle cx="9.5" cy="9.5" r="9.5" stroke="none"/>
      <circle cx="9.5" cy="9.5" r="9" fill="none"/>
    </g>
    <path id="Path_496" data-name="Path 496" d="M2509.962,3508.709l2.047,2.047,5.029-5.029" transform="translate(-1311.731 3687.29)" fill="none" stroke="#182b39" stroke-width="1"/>
    <path id="Path_497" data-name="Path 497" d="M2509.962,3508.709l2.047,2.047,5.029-5.029" transform="translate(-1311.731 3800.29)" fill="none" stroke="#182b39" stroke-width="1"/>
    <path id="Path_498" data-name="Path 498" d="M2509.962,3508.709l2.047,2.047,5.029-5.029" transform="translate(-1311.731 3916.29)" fill="none" stroke="#182b39" stroke-width="1"/>
    <text id="Your_Company" data-name="Your Company" transform="translate(1202 6766)" font-size="20" font-family="Matter-Medium, Matter" font-weight="500" letter-spacing="-0.02em"><tspan x="-65.31" y="0">Your Company</tspan></text>
    <g id="Ellipse_76" data-name="Ellipse 76" transform="translate(1198 6853)" fill="#fff" stroke="#95a5a5" stroke-width="1">
      <circle cx="3.5" cy="3.5" r="3.5" stroke="none"/>
      <circle cx="3.5" cy="3.5" r="3" fill="none"/>
    </g>
  </g>
</svg>
