<svg id="et46dd4zt221" xmlns="http://www.w3.org/2000/svg" xmlns:xlink="http://www.w3.org/1999/xlink" viewBox="0 0 718 718" shape-rendering="geometricPrecision" text-rendering="geometricPrecision"><style><![CDATA[#et46dd4zt2211_ts {animation: et46dd4zt2211_ts__ts 5000ms linear infinite normal forwards}@keyframes et46dd4zt2211_ts__ts { 0% {transform: translate(-799.600006px,-3060.599976px) scale(1,1);animation-timing-function: cubic-bezier(0.420000,0,0.580000,1)} 30% {transform: translate(-799.600006px,-3060.599976px) scale(1.500000,1.500000);animation-iteration-count:infinite;animation-timing-function: cubic-bezier(0.420000,0,0.580000,1)} 60% {transform: translate(-799.600006px,-3060.599976px) scale(1,1)} 100% {transform: translate(-799.600006px,-3060.599976px) scale(1,1)} }]]></style><circle id="et46dd4zt222" r="359" transform="matrix(1 0 0 1 359 359)" opacity="0.03" fill="rgb(24,43,57)" stroke="none" stroke-width="1"/><circle id="et46dd4zt223" r="301.100000" transform="matrix(1 0 0 1 400.89999999999998 322.60000000000002)" fill="rgb(242,242,242)" stroke="rgb(149,165,165)" stroke-width="1"/><circle id="et46dd4zt224" r="300.600000" transform="matrix(1 0 0 1 400.89999999999998 322.60000000000002)" fill="none" stroke="rgb(149,165,165)" stroke-width="1"/><ellipse id="et46dd4zt225" rx="247.900000" ry="248.400000" transform="matrix(1 0 0 1 435.50000000000000 282.30000000000001)" fill="none" stroke="none" stroke-width="1"/><ellipse id="et46dd4zt226" rx="247.500000" ry="247.900000" transform="matrix(1 0 0 1 435.50000000000000 282.30000000000001)" fill="none" stroke="rgb(149,165,165)" stroke-width="1" stroke-linecap="round" stroke-linejoin="round" stroke-dasharray="3,6"/><circle id="et46dd4zt227" r="184.600000" transform="matrix(1 0 0 1 482.89999999999998 239.80000000000001)" fill="none" stroke="none" stroke-width="1"/><circle id="et46dd4zt228" r="184.200000" transform="matrix(1 0 0 1 482.89999999999998 239.80000000000001)" fill="rgb(225,229,229)" stroke="rgb(149,165,165)" stroke-width="1"/><circle id="et46dd4zt229" r="117.100000" transform="matrix(1 0 0 1 532.60000000000002 194.59999999999999)" fill="rgb(242,242,242)" stroke="rgb(149,165,165)" stroke-width="1" stroke-linecap="round" stroke-linejoin="round" stroke-dasharray="3,6"/><g id="et46dd4zt2210" transform="matrix(1 0 0 1 1411.77999999999997 3172)"><g id="et46dd4zt2211_ts" transform="translate(-799.600006,-3060.599976) scale(1,1)"><circle id="et46dd4zt2211" r="39.093021" transform="translate(0.000006,-0.000024)" opacity="0.3" fill="rgb(149,165,165)" stroke="none" stroke-width="1"/></g><circle id="et46dd4zt2212" r="12.500000" transform="matrix(1 0 0 1 -799.60000000000002 -3060.59999999999991)" fill="rgb(24,43,57)" stroke="none" stroke-width="1"/></g><g id="et46dd4zt2213"><path id="et46dd4zt2214" d="M53.800000,526.800000C53.800000,523.700000,55.900000,522.100000,58.200000,522.100000C60.200000,522.100000,61.700000,523.200000,62,525L60.800000,525.300000C60.500000,524,59.500000,523.200000,58.100000,523.200000C56.300000,523.200000,54.900000,524.500000,54.900000,526.800000C54.900000,529.100000,56.200000,530.400000,58.100000,530.400000C59.500000,530.400000,60.400000,529.700000,60.800000,528.400000L62,528.600000C61.500000,530.300000,60.100000,531.400000,58.200000,531.400000C55.900000,531.400000,53.800000,529.900000,53.800000,526.800000Z" fill="rgb(0,0,0)" stroke="none" stroke-width="1"/><path id="et46dd4zt2215" d="M63.300000,531.300000L63.300000,522.200000L64.500000,522.200000L64.500000,530.200000L69,530.200000L69,531.300000L63.300000,531.300000Z" fill="rgb(0,0,0)" stroke="none" stroke-width="1"/><path id="et46dd4zt2216" d="M70.200000,531.300000L70.200000,522.200000L71.400000,522.200000L71.400000,531.300000L70.200000,531.300000Z" fill="rgb(0,0,0)" stroke="none" stroke-width="1"/><path id="et46dd4zt2217" d="M73.200000,531.300000L73.200000,522.200000L79,522.200000L79,523.300000L74.400000,523.300000L74.400000,526L78.100000,526L78.100000,527.100000L74.400000,527.100000L74.400000,530.300000L79.100000,530.300000L79.100000,531.400000L73.200000,531.400000Z" fill="rgb(0,0,0)" stroke="none" stroke-width="1"/><path id="et46dd4zt2218" d="M80.600000,531.300000L80.600000,522.200000L81.900000,522.200000L86.500000,529.400000L86.500000,522.200000L87.700000,522.200000L87.700000,531.300000L86.400000,531.300000L81.800000,524.100000L81.800000,531.300000L80.600000,531.300000Z" fill="rgb(0,0,0)" stroke="none" stroke-width="1"/><path id="et46dd4zt2219" d="M91.800000,531.300000L91.800000,523.300000L88.900000,523.300000L88.900000,522.200000L95.900000,522.200000L95.900000,523.300000L93,523.300000L93,531.300000L91.800000,531.300000Z" fill="rgb(0,0,0)" stroke="none" stroke-width="1"/></g><g id="et46dd4zt2220"><path id="et46dd4zt2221" d="M294.400000,588.600000C294.400000,586,295.500000,584.300000,297.600000,584.300000C299.700000,584.300000,300.800000,586,300.800000,588.600000C300.800000,591.200000,299.700000,592.900000,297.600000,592.900000C295.500000,592.900000,294.400000,591.200000,294.400000,588.600000ZM299.700000,588.600000C299.700000,586.600000,299,585.300000,297.600000,585.300000C296.200000,585.300000,295.500000,586.600000,295.500000,588.600000C295.500000,590.600000,296.200000,591.900000,297.600000,591.900000C299,591.900000,299.700000,590.600000,299.700000,588.600000Z" fill="rgb(0,0,0)" stroke="none" stroke-width="1"/><path id="et46dd4zt2222" d="M303.500000,592.800000L303.500000,585.800000C302.900000,586.300000,302.300000,586.600000,301.500000,586.700000L301.500000,585.700000C302.300000,585.500000,303.100000,585.100000,303.700000,584.400000L304.600000,584.400000L304.600000,592.800000L303.500000,592.800000Z" fill="rgb(0,0,0)" stroke="none" stroke-width="1"/><path id="et46dd4zt2223" d="M306.300000,592.200000C306.300000,591.800000,306.600000,591.500000,307,591.500000C307.400000,591.500000,307.700000,591.800000,307.700000,592.200000C307.700000,592.600000,307.400000,592.900000,307,592.900000C306.600000,592.900000,306.300000,592.600000,306.300000,592.200000Z" fill="rgb(0,0,0)" stroke="none" stroke-width="1"/><path id="et46dd4zt2224" d="M311.800000,590.300000L312.800000,590C313,591.200000,313.900000,591.900000,315,591.900000C316.200000,591.900000,316.900000,591.400000,316.900000,590.500000C316.900000,588.300000,312.100000,589.400000,312.100000,586.500000C312.100000,585.200000,313.300000,584.300000,314.900000,584.300000C316.400000,584.300000,317.600000,585.100000,317.800000,586.400000L316.800000,586.800000C316.600000,585.900000,315.900000,585.300000,314.900000,585.300000C313.800000,585.300000,313.200000,585.800000,313.200000,586.500000C313.200000,588.400000,318,587.200000,318,590.500000C318,591.900000,316.800000,592.900000,315,592.900000C313.400000,592.900000,312.100000,591.900000,311.800000,590.300000Z" fill="rgb(0,0,0)" stroke="none" stroke-width="1"/><path id="et46dd4zt2225" d="M319.400000,592.800000L319.400000,584.400000L320.500000,584.400000L320.500000,592.800000L319.400000,592.800000Z" fill="rgb(0,0,0)" stroke="none" stroke-width="1"/><path id="et46dd4zt2226" d="M324.200000,592.800000L324.200000,585.400000L321.500000,585.400000L321.500000,584.400000L327.900000,584.400000L327.900000,585.400000L325.200000,585.400000L325.200000,592.800000L324.200000,592.800000Z" fill="rgb(0,0,0)" stroke="none" stroke-width="1"/><path id="et46dd4zt2227" d="M329.100000,589.900000L329.100000,584.400000L330.200000,584.400000L330.200000,590C330.200000,591.200000,331,592,332.300000,592C333.600000,592,334.400000,591.300000,334.400000,590L334.400000,584.400000L335.500000,584.400000L335.500000,589.900000C335.500000,591.800000,334.200000,592.900000,332.300000,592.900000C330.300000,592.900000,329.100000,591.800000,329.100000,589.900000Z" fill="rgb(0,0,0)" stroke="none" stroke-width="1"/><path id="et46dd4zt2228" d="M342.500000,592.800000L341.700000,590.700000L338,590.700000L337.200000,592.800000L336,592.800000L339.300000,584.400000L340.300000,584.400000L343.600000,592.800000L342.500000,592.800000ZM338.300000,589.700000L341.300000,589.700000L339.800000,585.900000L338.300000,589.700000Z" fill="rgb(0,0,0)" stroke="none" stroke-width="1"/><path id="et46dd4zt2229" d="M345.500000,592.800000L345.500000,585.400000L342.800000,585.400000L342.800000,584.400000L349.200000,584.400000L349.200000,585.400000L346.500000,585.400000L346.500000,592.800000L345.500000,592.800000Z" fill="rgb(0,0,0)" stroke="none" stroke-width="1"/><path id="et46dd4zt2230" d="M350.300000,592.800000L350.300000,584.400000L351.400000,584.400000L351.400000,592.800000L350.300000,592.800000Z" fill="rgb(0,0,0)" stroke="none" stroke-width="1"/><path id="et46dd4zt2231" d="M352.800000,588.600000C352.800000,586.100000,354.500000,584.300000,356.900000,584.300000C359.300000,584.300000,361,586.100000,361,588.600000C361,591.100000,359.300000,592.900000,356.900000,592.900000C354.500000,592.900000,352.800000,591.100000,352.800000,588.600000ZM359.900000,588.600000C359.900000,586.700000,358.600000,585.300000,356.900000,585.300000C355.200000,585.300000,353.900000,586.700000,353.900000,588.600000C353.900000,590.500000,355.200000,591.900000,356.900000,591.900000C358.700000,591.900000,359.900000,590.500000,359.900000,588.600000Z" fill="rgb(0,0,0)" stroke="none" stroke-width="1"/><path id="et46dd4zt2232" d="M362.400000,592.800000L362.400000,584.400000L363.600000,584.400000L367.800000,591.100000L367.800000,584.400000L368.900000,584.400000L368.900000,592.800000L367.700000,592.800000L363.500000,586.100000L363.500000,592.800000L362.400000,592.800000Z" fill="rgb(0,0,0)" stroke="none" stroke-width="1"/><path id="et46dd4zt2233" d="M379.300000,592.800000L378.500000,590.700000L374.800000,590.700000L374,592.800000L372.900000,592.800000L376.200000,584.400000L377.200000,584.400000L380.500000,592.800000L379.300000,592.800000ZM375.100000,589.700000L378.100000,589.700000L376.600000,585.900000L375.100000,589.700000Z" fill="rgb(0,0,0)" stroke="none" stroke-width="1"/><path id="et46dd4zt2234" d="M381.400000,592.800000L381.400000,584.400000L382.600000,584.400000L386.800000,591.100000L386.800000,584.400000L387.900000,584.400000L387.900000,592.800000L386.700000,592.800000L382.500000,586.100000L382.500000,592.800000L381.400000,592.800000Z" fill="rgb(0,0,0)" stroke="none" stroke-width="1"/><path id="et46dd4zt2235" d="M395.400000,592.800000L394.600000,590.700000L390.900000,590.700000L390.100000,592.800000L389,592.800000L392.300000,584.400000L393.300000,584.400000L396.600000,592.800000L395.400000,592.800000ZM391.200000,589.700000L394.200000,589.700000L392.700000,585.900000L391.200000,589.700000Z" fill="rgb(0,0,0)" stroke="none" stroke-width="1"/><path id="et46dd4zt2236" d="M397.500000,592.800000L397.500000,584.400000L398.600000,584.400000L398.600000,591.800000L402.800000,591.800000L402.800000,592.800000L397.500000,592.800000Z" fill="rgb(0,0,0)" stroke="none" stroke-width="1"/><path id="et46dd4zt2237" d="M404.700000,592.800000L404.700000,589.300000L401.700000,584.400000L402.900000,584.400000L405.200000,588.200000L407.500000,584.400000L408.700000,584.400000L405.700000,589.300000L405.700000,592.800000L404.700000,592.800000Z" fill="rgb(0,0,0)" stroke="none" stroke-width="1"/><path id="et46dd4zt2238" d="M408.900000,590.300000L409.900000,590C410.100000,591.200000,411,591.900000,412.100000,591.900000C413.300000,591.900000,414,591.400000,414,590.500000C414,588.300000,409.200000,589.400000,409.200000,586.500000C409.200000,585.200000,410.400000,584.300000,412,584.300000C413.500000,584.300000,414.700000,585.100000,414.900000,586.400000L413.900000,586.800000C413.700000,585.900000,413,585.300000,412,585.300000C410.900000,585.300000,410.300000,585.800000,410.300000,586.500000C410.300000,588.400000,415.100000,587.200000,415.100000,590.500000C415.100000,591.900000,413.900000,592.900000,412.100000,592.900000C410.500000,592.900000,409.200000,591.900000,408.900000,590.300000Z" fill="rgb(0,0,0)" stroke="none" stroke-width="1"/><path id="et46dd4zt2239" d="M416.500000,592.800000L416.500000,584.400000L417.600000,584.400000L417.600000,592.800000L416.500000,592.800000Z" fill="rgb(0,0,0)" stroke="none" stroke-width="1"/><path id="et46dd4zt2240" d="M418.800000,590.300000L419.800000,590C420,591.200000,420.900000,591.900000,422,591.900000C423.200000,591.900000,423.900000,591.400000,423.900000,590.500000C423.900000,588.300000,419.100000,589.400000,419.100000,586.500000C419.100000,585.200000,420.300000,584.300000,421.900000,584.300000C423.400000,584.300000,424.600000,585.100000,424.800000,586.400000L423.800000,586.800000C423.600000,585.900000,422.900000,585.300000,421.900000,585.300000C420.800000,585.300000,420.200000,585.800000,420.200000,586.500000C420.200000,588.400000,425,587.200000,425,590.500000C425,591.900000,423.800000,592.900000,422,592.900000C420.300000,592.900000,419,591.900000,418.800000,590.300000Z" fill="rgb(0,0,0)" stroke="none" stroke-width="1"/></g><circle id="et46dd4zt2241" r="4" transform="matrix(1 0 0 1 282.39999999999998 598.89999999999998)" fill="rgb(24,43,57)" stroke="none" stroke-width="1"/><g id="et46dd4zt2242" transform="matrix(1 0 0 1 1023.82000000000005 3420.82999999999993)"><g id="et46dd4zt2243"><path id="et46dd4zt2244" d="M-820.100000,-3088.200000C-820.100000,-3090.800000,-819,-3092.500000,-816.900000,-3092.500000C-814.800000,-3092.500000,-813.700000,-3090.800000,-813.700000,-3088.200000C-813.700000,-3085.600000,-814.800000,-3083.900000,-816.900000,-3083.900000C-819,-3083.900000,-820.100000,-3085.600000,-820.100000,-3088.200000ZM-814.800000,-3088.200000C-814.800000,-3090.200000,-815.500000,-3091.500000,-816.900000,-3091.500000C-818.300000,-3091.500000,-819,-3090.200000,-819,-3088.200000C-819,-3086.200000,-818.300000,-3084.900000,-816.900000,-3084.900000C-815.500000,-3084.900000,-814.800000,-3086.200000,-814.800000,-3088.200000Z" fill="rgb(0,0,0)" stroke="none" stroke-width="1"/><path id="et46dd4zt2245" d="M-812.800000,-3084L-812.800000,-3084.900000L-809.600000,-3087.600000C-808.600000,-3088.500000,-808.200000,-3089.100000,-808.200000,-3089.900000C-808.200000,-3090.800000,-808.800000,-3091.400000,-809.800000,-3091.400000C-811,-3091.400000,-811.600000,-3090.600000,-811.500000,-3089.300000L-812.600000,-3089.400000C-812.700000,-3091.200000,-811.600000,-3092.400000,-809.800000,-3092.400000C-808.100000,-3092.400000,-807.100000,-3091.400000,-807.100000,-3089.900000C-807.100000,-3088.900000,-807.700000,-3087.900000,-809,-3086.900000L-811.300000,-3085L-807.200000,-3085L-807.200000,-3084L-812.800000,-3084Z" fill="rgb(0,0,0)" stroke="none" stroke-width="1"/><path id="et46dd4zt2246" d="M-805.600000,-3084.600000C-805.600000,-3085,-805.300000,-3085.300000,-804.900000,-3085.300000C-804.500000,-3085.300000,-804.200000,-3085,-804.200000,-3084.600000C-804.200000,-3084.200000,-804.500000,-3083.900000,-804.900000,-3083.900000C-805.300000,-3083.900000,-805.600000,-3084.200000,-805.600000,-3084.600000Z" fill="rgb(0,0,0)" stroke="none" stroke-width="1"/><path id="et46dd4zt2247" d="M-799.600000,-3084L-799.600000,-3092.400000L-794.300000,-3092.400000L-794.300000,-3091.400000L-798.500000,-3091.400000L-798.500000,-3088.900000L-795.100000,-3088.900000L-795.100000,-3087.900000L-798.500000,-3087.900000L-798.500000,-3084.900000L-794.200000,-3084.900000L-794.200000,-3083.900000L-799.600000,-3083.900000Z" fill="rgb(0,0,0)" stroke="none" stroke-width="1"/><path id="et46dd4zt2248" d="M-790.400000,-3084L-793.600000,-3092.400000L-792.500000,-3092.400000L-789.900000,-3085.300000L-787.300000,-3092.400000L-786.200000,-3092.400000L-789.400000,-3084L-790.400000,-3084Z" fill="rgb(0,0,0)" stroke="none" stroke-width="1"/><path id="et46dd4zt2249" d="M-780.300000,-3084L-781.100000,-3086.100000L-784.800000,-3086.100000L-785.600000,-3084L-786.700000,-3084L-783.400000,-3092.400000L-782.400000,-3092.400000L-779.100000,-3084L-780.300000,-3084ZM-784.400000,-3087.100000L-781.400000,-3087.100000L-782.900000,-3090.900000L-784.400000,-3087.100000Z" fill="rgb(0,0,0)" stroke="none" stroke-width="1"/><path id="et46dd4zt2250" d="M-778.200000,-3084L-778.200000,-3092.400000L-777.100000,-3092.400000L-777.100000,-3085L-772.900000,-3085L-772.900000,-3084L-778.200000,-3084Z" fill="rgb(0,0,0)" stroke="none" stroke-width="1"/><path id="et46dd4zt2251" d="M-772.200000,-3086.900000L-772.200000,-3092.400000L-771.100000,-3092.400000L-771.100000,-3086.800000C-771.100000,-3085.600000,-770.300000,-3084.800000,-769,-3084.800000C-767.700000,-3084.800000,-766.900000,-3085.500000,-766.900000,-3086.800000L-766.900000,-3092.400000L-765.800000,-3092.400000L-765.800000,-3086.900000C-765.800000,-3085,-767.100000,-3083.900000,-769,-3083.900000C-770.900000,-3083.900000,-772.200000,-3085,-772.200000,-3086.900000Z" fill="rgb(0,0,0)" stroke="none" stroke-width="1"/><path id="et46dd4zt2252" d="M-758.800000,-3084L-759.600000,-3086.100000L-763.300000,-3086.100000L-764.100000,-3084L-765.200000,-3084L-761.900000,-3092.400000L-760.900000,-3092.400000L-757.600000,-3084L-758.800000,-3084ZM-763,-3087.100000L-760,-3087.100000L-761.500000,-3090.900000L-763,-3087.100000Z" fill="rgb(0,0,0)" stroke="none" stroke-width="1"/><path id="et46dd4zt2253" d="M-755.800000,-3084L-755.800000,-3091.400000L-758.500000,-3091.400000L-758.500000,-3092.400000L-752.100000,-3092.400000L-752.100000,-3091.400000L-754.800000,-3091.400000L-754.800000,-3084L-755.800000,-3084Z" fill="rgb(0,0,0)" stroke="none" stroke-width="1"/><path id="et46dd4zt2254" d="M-751,-3084L-751,-3092.400000L-749.900000,-3092.400000L-749.900000,-3084L-751,-3084Z" fill="rgb(0,0,0)" stroke="none" stroke-width="1"/><path id="et46dd4zt2255" d="M-748.500000,-3088.200000C-748.500000,-3090.700000,-746.800000,-3092.500000,-744.400000,-3092.500000C-742,-3092.500000,-740.300000,-3090.700000,-740.300000,-3088.200000C-740.300000,-3085.700000,-742,-3083.900000,-744.400000,-3083.900000C-746.800000,-3083.900000,-748.500000,-3085.700000,-748.500000,-3088.200000ZM-741.400000,-3088.200000C-741.400000,-3090.100000,-742.700000,-3091.500000,-744.400000,-3091.500000C-746.100000,-3091.500000,-747.400000,-3090.100000,-747.400000,-3088.200000C-747.400000,-3086.300000,-746.100000,-3084.900000,-744.400000,-3084.900000C-742.600000,-3084.900000,-741.400000,-3086.300000,-741.400000,-3088.200000Z" fill="rgb(0,0,0)" stroke="none" stroke-width="1"/><path id="et46dd4zt2256" d="M-738.900000,-3084L-738.900000,-3092.400000L-737.700000,-3092.400000L-733.500000,-3085.700000L-733.500000,-3092.400000L-732.400000,-3092.400000L-732.400000,-3084L-733.600000,-3084L-737.800000,-3090.700000L-737.800000,-3084L-738.900000,-3084Z" fill="rgb(0,0,0)" stroke="none" stroke-width="1"/></g><circle id="et46dd4zt2257" r="4" transform="matrix(1 0 0 1 -831 -3088.90000000000009)" fill="rgb(24,43,57)" stroke="none" stroke-width="1"/></g><g id="et46dd4zt2258"><path id="et46dd4zt2259" d="M402.700000,390.700000C402.700000,388.100000,403.800000,386.400000,405.900000,386.400000C408,386.400000,409.100000,388.100000,409.100000,390.700000C409.100000,393.300000,408,395,405.900000,395C403.800000,395,402.700000,393.300000,402.700000,390.700000ZM408,390.700000C408,388.700000,407.300000,387.400000,405.900000,387.400000C404.500000,387.400000,403.800000,388.700000,403.800000,390.700000C403.800000,392.700000,404.500000,394,405.900000,394C407.300000,394,408,392.700000,408,390.700000Z" fill="rgb(0,0,0)" stroke="none" stroke-width="1"/><path id="et46dd4zt2260" d="M409.700000,392.600000L410.700000,392.400000C410.800000,393.400000,411.600000,394,412.700000,394C413.900000,394,414.600000,393.300000,414.600000,392.200000C414.600000,391.100000,413.900000,390.500000,412.700000,390.500000C412.400000,390.500000,412,390.600000,411.800000,390.800000L411.300000,390.100000L414,387.500000L409.900000,387.500000L409.900000,386.500000L415.300000,386.500000L415.300000,387.400000L412.900000,389.700000C414.600000,389.500000,415.700000,390.600000,415.700000,392.200000C415.700000,393.800000,414.500000,394.900000,412.700000,394.900000C411,395,409.800000,394,409.700000,392.600000Z" fill="rgb(0,0,0)" stroke="none" stroke-width="1"/><path id="et46dd4zt2261" d="M417,394.300000C417,393.900000,417.300000,393.600000,417.700000,393.600000C418.100000,393.600000,418.400000,393.900000,418.400000,394.300000C418.400000,394.700000,418.100000,395,417.700000,395C417.300000,395,417,394.700000,417,394.300000Z" fill="rgb(0,0,0)" stroke="none" stroke-width="1"/><path id="et46dd4zt2262" d="M423.100000,394.900000L423.100000,386.500000L424.200000,386.500000L424.200000,394.900000L423.100000,394.900000Z" fill="rgb(0,0,0)" stroke="none" stroke-width="1"/><path id="et46dd4zt2263" d="M425.900000,394.900000L425.900000,386.500000L427.200000,386.500000L430,393.300000L432.800000,386.500000L434.100000,386.500000L434.100000,394.900000L433,394.900000L433,388.600000L430.400000,394.900000L429.500000,394.900000L426.900000,388.600000L426.900000,394.900000L425.900000,394.900000Z" fill="rgb(0,0,0)" stroke="none" stroke-width="1"/><path id="et46dd4zt2264" d="M436,394.900000L436,386.500000L439.200000,386.500000C440.800000,386.500000,441.900000,387.500000,441.900000,388.900000C441.900000,390.400000,440.800000,391.300000,439.200000,391.300000L437,391.300000L437,394.800000L436,394.800000ZM437,390.400000L439.100000,390.400000C440.100000,390.400000,440.700000,389.900000,440.700000,388.900000C440.700000,388,440.100000,387.400000,439.100000,387.400000L437,387.400000L437,390.400000Z" fill="rgb(0,0,0)" stroke="none" stroke-width="1"/><path id="et46dd4zt2265" d="M443,394.900000L443,386.500000L444.100000,386.500000L444.100000,393.900000L448.300000,393.900000L448.300000,394.900000L443,394.900000Z" fill="rgb(0,0,0)" stroke="none" stroke-width="1"/><path id="et46dd4zt2266" d="M449.300000,394.900000L449.300000,386.500000L454.600000,386.500000L454.600000,387.500000L450.400000,387.500000L450.400000,390L453.800000,390L453.800000,391L450.400000,391L450.400000,394L454.700000,394L454.700000,395L449.300000,395Z" fill="rgb(0,0,0)" stroke="none" stroke-width="1"/><path id="et46dd4zt2267" d="M456.100000,394.900000L456.100000,386.500000L457.400000,386.500000L460.200000,393.300000L463,386.500000L464.300000,386.500000L464.300000,394.900000L463.200000,394.900000L463.200000,388.600000L460.600000,394.900000L459.700000,394.900000L457.100000,388.600000L457.100000,394.900000L456.100000,394.900000Z" fill="rgb(0,0,0)" stroke="none" stroke-width="1"/><path id="et46dd4zt2268" d="M466.200000,394.900000L466.200000,386.500000L471.500000,386.500000L471.500000,387.500000L467.300000,387.500000L467.300000,390L470.700000,390L470.700000,391L467.300000,391L467.300000,394L471.600000,394L471.600000,395L466.200000,395Z" fill="rgb(0,0,0)" stroke="none" stroke-width="1"/><path id="et46dd4zt2269" d="M473,394.900000L473,386.500000L474.200000,386.500000L478.400000,393.200000L478.400000,386.500000L479.500000,386.500000L479.500000,394.900000L478.300000,394.900000L474.100000,388.200000L474.100000,394.900000L473,394.900000Z" fill="rgb(0,0,0)" stroke="none" stroke-width="1"/><path id="et46dd4zt2270" d="M483.200000,394.900000L483.200000,387.500000L480.500000,387.500000L480.500000,386.500000L486.900000,386.500000L486.900000,387.500000L484.200000,387.500000L484.200000,394.900000L483.200000,394.900000Z" fill="rgb(0,0,0)" stroke="none" stroke-width="1"/><path id="et46dd4zt2271" d="M492.700000,394.900000L491.900000,392.800000L488.200000,392.800000L487.400000,394.900000L486.300000,394.900000L489.600000,386.500000L490.600000,386.500000L493.900000,394.900000L492.700000,394.900000ZM488.500000,391.800000L491.500000,391.800000L490,388L488.500000,391.800000Z" fill="rgb(0,0,0)" stroke="none" stroke-width="1"/><path id="et46dd4zt2272" d="M495.700000,394.900000L495.700000,387.500000L493,387.500000L493,386.500000L499.400000,386.500000L499.400000,387.500000L496.700000,387.500000L496.700000,394.900000L495.700000,394.900000Z" fill="rgb(0,0,0)" stroke="none" stroke-width="1"/><path id="et46dd4zt2273" d="M500.500000,394.900000L500.500000,386.500000L501.600000,386.500000L501.600000,394.900000L500.500000,394.900000Z" fill="rgb(0,0,0)" stroke="none" stroke-width="1"/><path id="et46dd4zt2274" d="M503,390.700000C503,388.200000,504.700000,386.400000,507.100000,386.400000C509.500000,386.400000,511.200000,388.200000,511.200000,390.700000C511.200000,393.200000,509.500000,395,507.100000,395C504.700000,395,503,393.200000,503,390.700000ZM510.100000,390.700000C510.100000,388.800000,508.800000,387.400000,507.100000,387.400000C505.400000,387.400000,504.100000,388.800000,504.100000,390.700000C504.100000,392.600000,505.400000,394,507.100000,394C508.900000,394,510.100000,392.600000,510.100000,390.700000Z" fill="rgb(0,0,0)" stroke="none" stroke-width="1"/><path id="et46dd4zt2275" d="M512.600000,394.900000L512.600000,386.500000L513.800000,386.500000L518,393.200000L518,386.500000L519.100000,386.500000L519.100000,394.900000L517.900000,394.900000L513.700000,388.200000L513.700000,394.900000L512.600000,394.900000Z" fill="rgb(0,0,0)" stroke="none" stroke-width="1"/></g><g id="et46dd4zt2276" transform="matrix(1 0 0 1 1224.76999999999998 3493.71000000000004)"><circle id="et46dd4zt2277" r="4" transform="matrix(1 0 0 1 -831 -3092)" fill="rgb(24,43,57)" stroke="none" stroke-width="1"/></g><g id="et46dd4zt2278" transform="matrix(1 0 0 1 1250.05999999999995 3305.21000000000004)"><g id="et46dd4zt2279"><path id="et46dd4zt2280" d="M-819,-3088.200000C-819,-3090.800000,-817.900000,-3092.500000,-815.800000,-3092.500000C-813.700000,-3092.500000,-812.600000,-3090.800000,-812.600000,-3088.200000C-812.600000,-3085.600000,-813.700000,-3083.900000,-815.800000,-3083.900000C-817.900000,-3083.900000,-819,-3085.600000,-819,-3088.200000ZM-813.700000,-3088.200000C-813.700000,-3090.200000,-814.400000,-3091.500000,-815.800000,-3091.500000C-817.200000,-3091.500000,-817.900000,-3090.200000,-817.900000,-3088.200000C-817.900000,-3086.200000,-817.200000,-3084.900000,-815.800000,-3084.900000C-814.400000,-3084.900000,-813.700000,-3086.200000,-813.700000,-3088.200000Z" fill="rgb(0,0,0)" stroke="none" stroke-width="1"/><path id="et46dd4zt2281" d="M-807.400000,-3084L-807.400000,-3086.100000L-811.800000,-3086.100000L-811.800000,-3087.100000L-807.500000,-3092.500000L-806.200000,-3092.500000L-806.200000,-3087.100000L-805,-3087.100000L-805,-3086.100000L-806.200000,-3086.100000L-806.200000,-3084L-807.400000,-3084ZM-810.600000,-3087L-807.300000,-3087L-807.300000,-3091.100000L-810.600000,-3087Z" fill="rgb(0,0,0)" stroke="none" stroke-width="1"/><path id="et46dd4zt2282" d="M-804.100000,-3084.600000C-804.100000,-3085,-803.800000,-3085.300000,-803.400000,-3085.300000C-803,-3085.300000,-802.700000,-3085,-802.700000,-3084.600000C-802.700000,-3084.200000,-803,-3083.900000,-803.400000,-3083.900000C-803.800000,-3083.900000,-804.100000,-3084.200000,-804.100000,-3084.600000Z" fill="rgb(0,0,0)" stroke="none" stroke-width="1"/><path id="et46dd4zt2283" d="M-798.100000,-3084L-798.100000,-3092.400000L-796.800000,-3092.400000L-794,-3085.600000L-791.200000,-3092.400000L-789.900000,-3092.400000L-789.900000,-3084L-791,-3084L-791,-3090.300000L-793.600000,-3084L-794.500000,-3084L-797.100000,-3090.300000L-797.100000,-3084L-798.100000,-3084Z" fill="rgb(0,0,0)" stroke="none" stroke-width="1"/><path id="et46dd4zt2284" d="M-788.400000,-3088.200000C-788.400000,-3090.700000,-786.700000,-3092.500000,-784.300000,-3092.500000C-781.900000,-3092.500000,-780.200000,-3090.700000,-780.200000,-3088.200000C-780.200000,-3085.700000,-781.900000,-3083.900000,-784.300000,-3083.900000C-786.700000,-3083.900000,-788.400000,-3085.700000,-788.400000,-3088.200000ZM-781.300000,-3088.200000C-781.300000,-3090.100000,-782.600000,-3091.500000,-784.300000,-3091.500000C-786,-3091.500000,-787.300000,-3090.100000,-787.300000,-3088.200000C-787.300000,-3086.300000,-786,-3084.900000,-784.300000,-3084.900000C-782.500000,-3084.900000,-781.300000,-3086.300000,-781.300000,-3088.200000Z" fill="rgb(0,0,0)" stroke="none" stroke-width="1"/><path id="et46dd4zt2285" d="M-778.800000,-3084L-778.800000,-3092.400000L-777.600000,-3092.400000L-773.400000,-3085.700000L-773.400000,-3092.400000L-772.300000,-3092.400000L-772.300000,-3084L-773.500000,-3084L-777.700000,-3090.700000L-777.700000,-3084L-778.800000,-3084Z" fill="rgb(0,0,0)" stroke="none" stroke-width="1"/><path id="et46dd4zt2286" d="M-770.500000,-3084L-770.500000,-3092.400000L-769.400000,-3092.400000L-769.400000,-3084L-770.500000,-3084Z" fill="rgb(0,0,0)" stroke="none" stroke-width="1"/><path id="et46dd4zt2287" d="M-765.700000,-3084L-765.700000,-3091.400000L-768.400000,-3091.400000L-768.400000,-3092.400000L-762,-3092.400000L-762,-3091.400000L-764.700000,-3091.400000L-764.700000,-3084L-765.700000,-3084Z" fill="rgb(0,0,0)" stroke="none" stroke-width="1"/><path id="et46dd4zt2288" d="M-761.800000,-3088.200000C-761.800000,-3090.700000,-760.100000,-3092.500000,-757.700000,-3092.500000C-755.300000,-3092.500000,-753.600000,-3090.700000,-753.600000,-3088.200000C-753.600000,-3085.700000,-755.300000,-3083.900000,-757.700000,-3083.900000C-760,-3083.900000,-761.800000,-3085.700000,-761.800000,-3088.200000ZM-754.600000,-3088.200000C-754.600000,-3090.100000,-755.900000,-3091.500000,-757.600000,-3091.500000C-759.300000,-3091.500000,-760.600000,-3090.100000,-760.600000,-3088.200000C-760.600000,-3086.300000,-759.300000,-3084.900000,-757.600000,-3084.900000C-755.900000,-3084.900000,-754.600000,-3086.300000,-754.600000,-3088.200000Z" fill="rgb(0,0,0)" stroke="none" stroke-width="1"/><path id="et46dd4zt2289" d="M-745.600000,-3084L-746.900000,-3084L-749.200000,-3087.700000L-751.100000,-3087.700000L-751.100000,-3084L-752.200000,-3084L-752.200000,-3092.400000L-749.200000,-3092.400000C-747.600000,-3092.400000,-746.600000,-3091.500000,-746.600000,-3090.100000C-746.600000,-3089.100000,-747.200000,-3088.300000,-748.200000,-3087.900000L-745.600000,-3084ZM-751,-3091.400000L-751,-3088.700000L-749.200000,-3088.700000C-748.200000,-3088.700000,-747.600000,-3089.200000,-747.600000,-3090C-747.600000,-3090.800000,-748.200000,-3091.400000,-749.200000,-3091.400000L-751,-3091.400000Z" fill="rgb(0,0,0)" stroke="none" stroke-width="1"/><path id="et46dd4zt2290" d="M-744.500000,-3084L-744.500000,-3092.400000L-743.400000,-3092.400000L-743.400000,-3084L-744.500000,-3084Z" fill="rgb(0,0,0)" stroke="none" stroke-width="1"/><path id="et46dd4zt2291" d="M-741.700000,-3084L-741.700000,-3092.400000L-740.500000,-3092.400000L-736.300000,-3085.700000L-736.300000,-3092.400000L-735.200000,-3092.400000L-735.200000,-3084L-736.400000,-3084L-740.600000,-3090.700000L-740.600000,-3084L-741.700000,-3084Z" fill="rgb(0,0,0)" stroke="none" stroke-width="1"/><path id="et46dd4zt2292" d="M-733.800000,-3088.200000C-733.800000,-3091.100000,-731.800000,-3092.500000,-729.700000,-3092.500000C-727.800000,-3092.500000,-726.400000,-3091.500000,-726.100000,-3089.800000L-727.200000,-3089.600000C-727.400000,-3090.800000,-728.400000,-3091.500000,-729.700000,-3091.500000C-731.400000,-3091.500000,-732.600000,-3090.300000,-732.600000,-3088.200000C-732.600000,-3086.100000,-731.400000,-3084.900000,-729.700000,-3084.900000C-728.100000,-3084.900000,-727.100000,-3085.900000,-727.100000,-3087.400000L-730,-3087.400000L-730,-3088.300000L-726,-3088.300000L-726,-3084L-727,-3084L-727,-3085.300000C-727.400000,-3084.400000,-728.500000,-3083.900000,-729.700000,-3083.900000C-731.900000,-3083.900000,-733.800000,-3085.300000,-733.800000,-3088.200000Z" fill="rgb(0,0,0)" stroke="none" stroke-width="1"/></g><g id="et46dd4zt2293"><path id="et46dd4zt2294" d="M-716.600000,-3084C-716.800000,-3084.200000,-717,-3084.500000,-717.400000,-3084.800000C-718.100000,-3084.200000,-718.900000,-3083.900000,-719.800000,-3083.900000C-721.400000,-3083.900000,-722.300000,-3085,-722.300000,-3086.200000C-722.300000,-3087.300000,-721.600000,-3088.100000,-720.700000,-3088.600000L-720.700000,-3088.600000C-721.100000,-3089.100000,-721.400000,-3089.700000,-721.400000,-3090.300000C-721.400000,-3091.300000,-720.700000,-3092.300000,-719.300000,-3092.300000C-718.300000,-3092.300000,-717.500000,-3091.600000,-717.500000,-3090.600000C-717.500000,-3089.700000,-718,-3089.100000,-719.300000,-3088.400000L-719.300000,-3088.400000C-718.600000,-3087.600000,-717.800000,-3086.700000,-717.300000,-3086.200000C-716.900000,-3086.800000,-716.700000,-3087.500000,-716.500000,-3088.600000L-715.500000,-3088.600000C-715.700000,-3087.300000,-716.100000,-3086.300000,-716.700000,-3085.600000C-716.300000,-3085.100000,-715.800000,-3084.700000,-715.400000,-3084.200000L-716.600000,-3084.200000ZM-717.800000,-3085.400000C-718.300000,-3085.900000,-719.200000,-3086.900000,-720.100000,-3088C-720.500000,-3087.700000,-721.100000,-3087.200000,-721.100000,-3086.300000C-721.100000,-3085.400000,-720.400000,-3084.700000,-719.400000,-3084.700000C-718.800000,-3084.700000,-718.200000,-3085,-717.800000,-3085.400000ZM-720.300000,-3090.300000C-720.300000,-3089.700000,-720,-3089.300000,-719.700000,-3088.800000C-718.900000,-3089.300000,-718.400000,-3089.700000,-718.400000,-3090.400000C-718.400000,-3090.900000,-718.700000,-3091.400000,-719.300000,-3091.400000C-719.900000,-3091.500000,-720.300000,-3091,-720.300000,-3090.300000Z" fill="rgb(0,0,0)" stroke="none" stroke-width="1"/><path id="et46dd4zt2295" d="M-711.900000,-3085.300000C-711.400000,-3085,-710.800000,-3084.800000,-710,-3084.800000C-708.900000,-3084.800000,-708.300000,-3085.400000,-708.300000,-3086.200000C-708.300000,-3086.900000,-708.700000,-3087.400000,-709.800000,-3087.800000C-711.100000,-3088.300000,-711.900000,-3089,-711.900000,-3090.100000C-711.900000,-3091.400000,-710.900000,-3092.300000,-709.300000,-3092.300000C-708.500000,-3092.300000,-707.900000,-3092.100000,-707.500000,-3091.900000L-707.800000,-3091C-708.100000,-3091.200000,-708.600000,-3091.400000,-709.300000,-3091.400000C-710.400000,-3091.400000,-710.800000,-3090.700000,-710.800000,-3090.200000C-710.800000,-3089.400000,-710.300000,-3089.100000,-709.200000,-3088.600000C-707.800000,-3088.100000,-707.100000,-3087.400000,-707.100000,-3086.200000C-707.100000,-3085,-708,-3083.900000,-709.900000,-3083.900000C-710.700000,-3083.900000,-711.500000,-3084.100000,-712,-3084.400000L-711.900000,-3085.300000Z" fill="rgb(0,0,0)" stroke="none" stroke-width="1"/><path id="et46dd4zt2296" d="M-704.900000,-3092.100000L-704.900000,-3087.300000C-704.900000,-3085.500000,-704.100000,-3084.700000,-703,-3084.700000C-701.800000,-3084.700000,-701,-3085.500000,-701,-3087.300000L-701,-3092.100000L-699.900000,-3092.100000L-699.900000,-3087.400000C-699.900000,-3084.900000,-701.200000,-3083.900000,-703,-3083.900000C-704.700000,-3083.900000,-705.900000,-3084.800000,-705.900000,-3087.400000L-705.900000,-3092.200000L-704.900000,-3092.200000Z" fill="rgb(0,0,0)" stroke="none" stroke-width="1"/><path id="et46dd4zt2297" d="M-698.100000,-3092C-697.600000,-3092.100000,-696.900000,-3092.200000,-696.100000,-3092.200000C-695.100000,-3092.200000,-694.300000,-3092,-693.800000,-3091.500000C-693.400000,-3091.100000,-693.100000,-3090.500000,-693.100000,-3089.800000C-693.100000,-3089.100000,-693.300000,-3088.500000,-693.700000,-3088.100000C-694.300000,-3087.500000,-695.200000,-3087.200000,-696.200000,-3087.200000C-696.500000,-3087.200000,-696.800000,-3087.200000,-697,-3087.300000L-697,-3084.100000L-698,-3084.100000L-698,-3092ZM-697.100000,-3088.100000C-696.900000,-3088,-696.600000,-3088,-696.200000,-3088C-694.900000,-3088,-694.200000,-3088.600000,-694.200000,-3089.700000C-694.200000,-3090.800000,-695,-3091.300000,-696.100000,-3091.300000C-696.600000,-3091.300000,-696.900000,-3091.300000,-697.100000,-3091.200000L-697.100000,-3088.100000Z" fill="rgb(0,0,0)" stroke="none" stroke-width="1"/><path id="et46dd4zt2298" d="M-691.700000,-3092C-691.200000,-3092.100000,-690.500000,-3092.200000,-689.700000,-3092.200000C-688.700000,-3092.200000,-687.900000,-3092,-687.400000,-3091.500000C-687,-3091.100000,-686.700000,-3090.500000,-686.700000,-3089.800000C-686.700000,-3089.100000,-686.900000,-3088.500000,-687.300000,-3088.100000C-687.900000,-3087.500000,-688.800000,-3087.200000,-689.800000,-3087.200000C-690.100000,-3087.200000,-690.400000,-3087.200000,-690.600000,-3087.300000L-690.600000,-3084.100000L-691.600000,-3084.100000L-691.600000,-3092ZM-690.700000,-3088.100000C-690.500000,-3088,-690.200000,-3088,-689.800000,-3088C-688.500000,-3088,-687.800000,-3088.600000,-687.800000,-3089.700000C-687.800000,-3090.800000,-688.600000,-3091.300000,-689.700000,-3091.300000C-690.200000,-3091.300000,-690.500000,-3091.300000,-690.700000,-3091.200000L-690.700000,-3088.100000Z" fill="rgb(0,0,0)" stroke="none" stroke-width="1"/><path id="et46dd4zt2299" d="M-678.500000,-3088.100000C-678.500000,-3085.300000,-680.200000,-3083.800000,-682.300000,-3083.800000C-684.400000,-3083.800000,-685.900000,-3085.500000,-685.900000,-3087.900000C-685.900000,-3090.500000,-684.300000,-3092.100000,-682.200000,-3092.100000C-679.900000,-3092.200000,-678.500000,-3090.500000,-678.500000,-3088.100000ZM-684.700000,-3088C-684.700000,-3086.300000,-683.800000,-3084.700000,-682.100000,-3084.700000C-680.400000,-3084.700000,-679.500000,-3086.200000,-679.500000,-3088.100000C-679.500000,-3089.700000,-680.300000,-3091.400000,-682.100000,-3091.400000C-683.900000,-3091.400000,-684.700000,-3089.800000,-684.700000,-3088Z" fill="rgb(0,0,0)" stroke="none" stroke-width="1"/><path id="et46dd4zt22100" d="M-677.100000,-3092C-676.600000,-3092.100000,-675.800000,-3092.200000,-675.100000,-3092.200000C-674,-3092.200000,-673.300000,-3092,-672.800000,-3091.500000C-672.400000,-3091.100000,-672.200000,-3090.600000,-672.200000,-3090C-672.200000,-3088.900000,-672.900000,-3088.200000,-673.700000,-3087.900000L-673.700000,-3087.900000C-673.100000,-3087.700000,-672.700000,-3087.100000,-672.500000,-3086.300000C-672.200000,-3085.200000,-672,-3084.400000,-671.900000,-3084.100000L-673,-3084.100000C-673.100000,-3084.300000,-673.300000,-3085,-673.500000,-3086C-673.700000,-3087.100000,-674.200000,-3087.500000,-675.100000,-3087.600000L-676.100000,-3087.600000L-676.100000,-3084.100000L-677.100000,-3084.100000L-677.100000,-3092ZM-676.100000,-3088.300000L-675,-3088.300000C-673.900000,-3088.300000,-673.200000,-3088.900000,-673.200000,-3089.800000C-673.200000,-3090.800000,-674,-3091.300000,-675.100000,-3091.300000C-675.600000,-3091.300000,-676,-3091.300000,-676.100000,-3091.200000L-676.100000,-3088.300000Z" fill="rgb(0,0,0)" stroke="none" stroke-width="1"/><path id="et46dd4zt22101" d="M-669,-3091.200000L-671.500000,-3091.200000L-671.500000,-3092.100000L-665.500000,-3092.100000L-665.500000,-3091.200000L-668,-3091.200000L-668,-3084L-669.100000,-3084L-669.100000,-3091.200000Z" fill="rgb(0,0,0)" stroke="none" stroke-width="1"/></g><g id="et46dd4zt22102" transform="matrix(1 0 0 1 0 3.55400000000000)"><circle id="et46dd4zt22103" r="4" transform="matrix(1 0 0 1 -832.50000000000000 -3092)" fill="rgb(24,43,57)" stroke="none" stroke-width="1"/></g></g><g id="et46dd4zt22104" transform="matrix(1 0 0 1 1449.60999999999990 3151)"><path id="et46dd4zt22105" d="M-835,-3095.700000L-830,-3095.700000C-827.500000,-3095.700000,-825.800000,-3094.200000,-825.800000,-3091.900000C-825.800000,-3089.600000,-827.500000,-3088.100000,-830,-3088.100000L-833.300000,-3088.100000L-833.300000,-3082.600000L-835,-3082.600000L-835,-3095.700000ZM-830.100000,-3089.600000C-828.900000,-3089.400000,-827.800000,-3090.300000,-827.600000,-3091.500000C-827.600000,-3091.600000,-827.600000,-3091.800000,-827.600000,-3091.900000C-827.500000,-3093.100000,-828.500000,-3094.200000,-829.700000,-3094.200000C-829.800000,-3094.200000,-830,-3094.200000,-830.100000,-3094.200000L-833.300000,-3094.200000L-833.300000,-3089.600000L-830.100000,-3089.600000Z" fill="rgb(0,0,0)" stroke="none" stroke-width="1"/><path id="et46dd4zt22106" d="M-816.600000,-3082.500000L-818.200000,-3082.500000L-818.200000,-3084.300000C-818.900000,-3083.100000,-820.100000,-3082.400000,-821.500000,-3082.400000C-823.300000,-3082.300000,-824.800000,-3083.700000,-824.900000,-3085.400000C-824.900000,-3085.500000,-824.900000,-3085.600000,-824.900000,-3085.700000L-824.900000,-3092L-823.300000,-3092L-823.300000,-3086C-823.400000,-3084.900000,-822.600000,-3083.900000,-821.400000,-3083.800000C-821.300000,-3083.800000,-821.200000,-3083.800000,-821.100000,-3083.800000C-819.800000,-3083.800000,-818.200000,-3085.300000,-818.200000,-3087.800000L-818.200000,-3092L-816.600000,-3092L-816.600000,-3082.500000Z" fill="rgb(0,0,0)" stroke="none" stroke-width="1"/><path id="et46dd4zt22107" d="M-810.400000,-3090.600000C-811.900000,-3090.600000,-813.100000,-3089.200000,-813.100000,-3086.100000L-813.100000,-3082.500000L-814.700000,-3082.500000L-814.700000,-3092L-813.100000,-3092L-813.100000,-3090.100000C-812.600000,-3091.300000,-811.400000,-3092.100000,-810.200000,-3092.200000C-809.800000,-3092.200000,-809.500000,-3092.100000,-809.100000,-3092L-809.200000,-3090.500000C-809.600000,-3090.600000,-810,-3090.600000,-810.400000,-3090.600000Z" fill="rgb(0,0,0)" stroke="none" stroke-width="1"/><path id="et46dd4zt22108" d="M-782.400000,-3090.600000C-783.900000,-3090.600000,-785.100000,-3089.200000,-785.100000,-3086.100000L-785.100000,-3082.500000L-786.700000,-3082.500000L-786.700000,-3092L-785.100000,-3092L-785.100000,-3090.100000C-784.600000,-3091.300000,-783.400000,-3092.100000,-782.200000,-3092.200000C-781.800000,-3092.200000,-781.500000,-3092.100000,-781.100000,-3092L-781.200000,-3090.500000C-781.500000,-3090.600000,-781.900000,-3090.600000,-782.400000,-3090.600000Z" fill="rgb(0,0,0)" stroke="none" stroke-width="1"/><path id="et46dd4zt22109" d="M-800,-3086.900000L-807.500000,-3086.900000C-807.600000,-3085.200000,-806.300000,-3083.800000,-804.600000,-3083.700000C-804.600000,-3083.700000,-804.500000,-3083.700000,-804.500000,-3083.700000C-802.800000,-3083.700000,-802.100000,-3084.400000,-801.800000,-3085.600000L-800.300000,-3085.200000C-800.800000,-3083.400000,-802.300000,-3082.300000,-804.500000,-3082.300000C-807,-3082.300000,-809.100000,-3084.300000,-809.200000,-3086.800000C-809.200000,-3086.900000,-809.200000,-3087,-809.200000,-3087.200000C-809.200000,-3089.900000,-807.500000,-3092.100000,-804.600000,-3092.100000C-802.200000,-3092.200000,-800.200000,-3090.400000,-800.100000,-3088.100000C-800.100000,-3088,-800.100000,-3087.800000,-800.100000,-3087.700000C-800,-3087.400000,-800,-3087.100000,-800,-3086.900000ZM-801.700000,-3088.300000C-801.800000,-3089.800000,-803,-3090.900000,-804.500000,-3090.800000C-804.500000,-3090.800000,-804.500000,-3090.800000,-804.500000,-3090.800000C-806,-3090.800000,-807.200000,-3089.700000,-807.400000,-3088.300000L-801.700000,-3088.300000Z" fill="rgb(0,0,0)" stroke="none" stroke-width="1"/><path id="et46dd4zt22110" d="M-799.800000,-3092L-798.200000,-3092L-795.600000,-3084.400000L-793,-3092L-791.300000,-3092L-794.800000,-3082.500000L-796.500000,-3082.500000L-799.800000,-3092Z" fill="rgb(0,0,0)" stroke="none" stroke-width="1"/><path id="et46dd4zt22111" d="M-790.100000,-3092L-788.500000,-3092L-788.500000,-3082.500000L-790.100000,-3082.500000L-790.100000,-3092Z" fill="rgb(0,0,0)" stroke="none" stroke-width="1"/><path id="et46dd4zt22112" d="M-776.900000,-3082.300000C-778.500000,-3082.300000,-779.700000,-3083.200000,-779.700000,-3085.300000L-779.700000,-3090.500000L-778.100000,-3090.500000L-778.100000,-3091.900000L-779.700000,-3091.900000L-779.700000,-3094.800000L-778.100000,-3094.800000L-778.100000,-3091.900000L-775.600000,-3091.900000L-775.600000,-3090.500000L-778.100000,-3090.500000L-778.100000,-3085.200000C-778.200000,-3084.500000,-777.700000,-3083.800000,-777,-3083.700000C-776.900000,-3083.700000,-776.800000,-3083.700000,-776.700000,-3083.700000C-776.300000,-3083.700000,-775.900000,-3083.800000,-775.500000,-3083.900000L-775.400000,-3082.500000C-775.900000,-3082.400000,-776.400000,-3082.300000,-776.900000,-3082.300000L-776.900000,-3082.300000Z" fill="rgb(0,0,0)" stroke="none" stroke-width="1"/><path id="et46dd4zt22113" d="M-766,-3082.500000L-767.600000,-3082.500000L-767.600000,-3084.300000C-768.300000,-3083.100000,-769.500000,-3082.400000,-770.900000,-3082.400000C-772.700000,-3082.300000,-774.200000,-3083.700000,-774.300000,-3085.400000C-774.300000,-3085.500000,-774.300000,-3085.600000,-774.300000,-3085.700000L-774.300000,-3092L-772.700000,-3092L-772.700000,-3086C-772.800000,-3084.900000,-772,-3083.900000,-770.800000,-3083.800000C-770.700000,-3083.800000,-770.600000,-3083.800000,-770.500000,-3083.800000C-769.200000,-3083.800000,-767.600000,-3085.300000,-767.600000,-3087.800000L-767.600000,-3092L-766,-3092L-766,-3082.500000Z" fill="rgb(0,0,0)" stroke="none" stroke-width="1"/><path id="et46dd4zt22114" d="M-756.600000,-3088.600000L-756.600000,-3082.500000L-758.200000,-3082.500000L-758.200000,-3084.100000C-758.800000,-3083,-760.100000,-3082.300000,-761.400000,-3082.300000C-763,-3082.100000,-764.400000,-3083.300000,-764.600000,-3084.900000C-764.600000,-3085,-764.600000,-3085.100000,-764.600000,-3085.200000C-764.600000,-3086.900000,-763.100000,-3088,-760.100000,-3088.300000L-758.300000,-3088.500000L-758.300000,-3088.700000C-758.300000,-3089.800000,-759.200000,-3090.800000,-760.300000,-3090.800000C-760.400000,-3090.800000,-760.500000,-3090.800000,-760.600000,-3090.800000C-761.800000,-3090.900000,-762.800000,-3090,-763,-3088.800000C-763,-3088.800000,-763,-3088.700000,-763,-3088.700000L-764.500000,-3089C-764.100000,-3091.100000,-762,-3092.500000,-759.900000,-3092C-758,-3091.700000,-756.700000,-3090.300000,-756.600000,-3088.600000L-756.600000,-3088.600000ZM-758.100000,-3086.800000L-758.100000,-3087.300000L-759.900000,-3087.100000C-761.800000,-3086.900000,-762.800000,-3086.200000,-762.800000,-3085.200000C-762.800000,-3084.200000,-762,-3083.700000,-761,-3083.700000C-759.500000,-3083.600000,-758.100000,-3084.800000,-758.100000,-3086.400000C-758.100000,-3086.500000,-758.100000,-3086.600000,-758.100000,-3086.800000L-758.100000,-3086.800000Z" fill="rgb(0,0,0)" stroke="none" stroke-width="1"/><path id="et46dd4zt22115" d="M-754.700000,-3095.800000L-753.100000,-3095.800000L-753.100000,-3082.500000L-754.700000,-3082.500000L-754.700000,-3095.800000Z" fill="rgb(0,0,0)" stroke="none" stroke-width="1"/><path id="et46dd4zt22116" d="M-790.400000,-3094.900000C-790.400000,-3095.500000,-790,-3096,-789.400000,-3096C-789.400000,-3096,-789.300000,-3096,-789.300000,-3096C-788.700000,-3096,-788.200000,-3095.500000,-788.200000,-3094.900000C-788.200000,-3094.900000,-788.200000,-3094.900000,-788.200000,-3094.800000C-788.200000,-3094.200000,-788.700000,-3093.700000,-789.300000,-3093.700000C-789.300000,-3093.700000,-789.300000,-3093.700000,-789.300000,-3093.700000C-789.900000,-3093.800000,-790.400000,-3094.200000,-790.400000,-3094.900000C-790.400000,-3094.800000,-790.400000,-3094.800000,-790.400000,-3094.900000L-790.400000,-3094.900000Z" fill="rgb(0,0,0)" stroke="none" stroke-width="1"/><g id="et46dd4zt22117" transform="matrix(1 0 0 1 82.98900000000000 0.21400000000000)"><path id="et46dd4zt22118" d="M-832.500000,-3093L-833,-3093.900000L-833.400000,-3093.900000L-833.400000,-3093L-833.800000,-3093L-833.800000,-3095.100000L-833,-3095.100000C-832.700000,-3095.100000,-832.400000,-3094.900000,-832.300000,-3094.500000C-832.300000,-3094.500000,-832.300000,-3094.500000,-832.300000,-3094.400000C-832.300000,-3094.200000,-832.400000,-3093.900000,-832.700000,-3093.800000L-832.100000,-3092.800000L-832.500000,-3092.800000ZM-833.400000,-3094.300000L-833,-3094.300000C-832.800000,-3094.300000,-832.600000,-3094.400000,-832.600000,-3094.600000C-832.600000,-3094.800000,-832.700000,-3094.900000,-833,-3094.900000L-833.400000,-3094.900000L-833.400000,-3094.300000Z" fill="rgb(0,0,0)" stroke="none" stroke-width="1"/><path id="et46dd4zt22119" d="M-833,-3095.700000C-832.100000,-3095.700000,-831.300000,-3095,-831.300000,-3094C-831.300000,-3093.100000,-832,-3092.300000,-833,-3092.300000C-833.900000,-3092.300000,-834.700000,-3093,-834.700000,-3094C-834.700000,-3094,-834.700000,-3094,-834.700000,-3094C-834.700000,-3094.900000,-833.900000,-3095.700000,-833,-3095.700000C-833,-3095.700000,-833,-3095.700000,-833,-3095.700000M-833,-3096C-834.100000,-3096,-835,-3095.100000,-835,-3094C-835,-3092.900000,-834.100000,-3092,-833,-3092C-831.900000,-3092,-831,-3092.900000,-831,-3094C-831,-3094,-831,-3094,-831,-3094C-831,-3095.100000,-831.900000,-3096,-833,-3096Z" fill="rgb(0,0,0)" stroke="none" stroke-width="1"/></g></g><circle id="et46dd4zt22120" r="4" transform="matrix(1 0 0 1 44.80000000000000 527.89999999999998)" fill="rgb(24,43,57)" stroke="none" stroke-width="1"/></svg>
