<svg xmlns="http://www.w3.org/2000/svg" width="718" height="718" viewBox="0 0 718 718">
  <g id="Group_538" data-name="Group 538" transform="translate(-840 -3063)">
    <circle id="Ellipse_146" data-name="Ellipse 146" cx="359" cy="359" r="359" transform="translate(840 3063)" fill="#182b39" opacity="0.03"/>
    <g id="Group_531" data-name="Group 531" transform="translate(5 -33)">
      <circle id="Ellipse_29" data-name="Ellipse 29" cx="301.08" cy="301.08" r="301.08" transform="translate(934.861 3117.482)" fill="#f2f2f2" stroke="#95a5a5" stroke-width="1"/>
      <circle id="Ellipse_30" data-name="Ellipse 30" cx="300.638" cy="300.638" r="300.638" transform="translate(935.304 3117.925)" fill="none" stroke="#95a5a5" stroke-width="1"/>
      <ellipse id="Ellipse_31" data-name="Ellipse 31" cx="247.949" cy="248.391" rx="247.949" ry="248.391" transform="translate(1022.529 3129.879)" fill="none"/>
      <ellipse id="Ellipse_32" data-name="Ellipse 32" cx="247.506" cy="247.949" rx="247.506" ry="247.949" transform="translate(1022.972 3130.322)" fill="none" stroke="#95a5a5" stroke-linecap="round" stroke-linejoin="round" stroke-width="1" stroke-dasharray="3 6"/>
      <circle id="Ellipse_33" data-name="Ellipse 33" cx="184.633" cy="184.633" r="184.633" transform="translate(1133.22 3151.132)" fill="none"/>
      <circle id="Ellipse_34" data-name="Ellipse 34" cx="184.19" cy="184.19" r="184.19" transform="translate(1133.663 3151.575)" fill="#e1e5e5" stroke="#95a5a5" stroke-width="1"/>
      <circle id="Ellipse_35" data-name="Ellipse 35" cx="117.142" cy="117.142" r="117.142" transform="translate(1250.423 3173.433)" fill="#f2f2f2" stroke="#95a5a5" stroke-linecap="round" stroke-linejoin="round" stroke-width="1" stroke-dasharray="3 6"/>
      <g id="Group_275" data-name="Group 275" transform="translate(1411.782 3172.004)">
        <circle id="Ellipse_5" data-name="Ellipse 5" cx="35.359" cy="35.359" r="35.359" transform="translate(0 0)" fill="#95a5a5" opacity="0.3" style="isolation: isolate"/>
        <circle id="Ellipse_3" data-name="Ellipse 3" cx="12.512" cy="12.512" r="12.512" transform="translate(22.847 22.847)" fill="#182b39"/>
      </g>
      <text id="CLIENT" transform="translate(888.27 3627.341)" font-size="13" font-family="Matter-Regular, Matter" style="isolation: isolate"><tspan x="0" y="0">CLIENT</tspan></text>
      <text id="_01._SITUATION_ANALYSIS" data-name="01. SITUATION ANALYSIS" transform="translate(1128.903 3688.813)" font-size="12" font-family="Matter-Regular, Matter" style="isolation: isolate"><tspan x="0" y="0">01. SITUATION ANALYSIS</tspan></text>
      <circle id="Ellipse_6" data-name="Ellipse 6" cx="3.985" cy="3.985" r="3.985" transform="translate(1113.395 3690.897)" fill="#182b39"/>
      <g id="Group_276" data-name="Group 276" transform="translate(1023.818 3420.829)">
        <text id="_02._EVALUATION" data-name="02. EVALUATION" transform="translate(14.426 12)" font-size="12" font-family="Matter-Regular, Matter" style="isolation: isolate"><tspan x="0" y="0">02. EVALUATION</tspan></text>
        <circle id="Ellipse_7" data-name="Ellipse 7" cx="3.985" cy="3.985" r="3.985" transform="translate(0 3.13)" fill="#182b39"/>
      </g>
      <text id="_03._IMPLEMENTATION" data-name="03. IMPLEMENTATION" transform="translate(1237.19 3490.899)" font-size="12" font-family="Matter-Regular, Matter" style="isolation: isolate"><tspan x="0" y="0">03. IMPLEMENTATION</tspan></text>
      <g id="Group_277" data-name="Group 277" transform="translate(1224.77 3493.707)">
        <circle id="Ellipse_8" data-name="Ellipse 8" cx="3.985" cy="3.985" r="3.985" fill="#182b39"/>
      </g>
      <g id="Group_279" data-name="Group 279" transform="translate(1250.056 3305.214)">
        <text id="_04._MONITORING_SUPPORT" data-name="04. MONITORING &amp; SUPPORT" transform="translate(15.551 12)" font-size="12" font-family="Matter-Regular, Matter" style="isolation: isolate"><tspan x="0" y="0">04. MONITORING </tspan><tspan y="0" font-family="MyriadPro-Regular, Myriad Pro">&amp; SUPPORT</tspan></text>
        <g id="Group_278" data-name="Group 278" transform="translate(0 3.554)">
          <circle id="Ellipse_8-2" data-name="Ellipse 8" cx="3.985" cy="3.985" r="3.985" fill="#182b39"/>
        </g>
      </g>
      <g id="purevirtual-logo-white" transform="translate(1449.607 3151.001)">
        <path id="Path_97" data-name="Path 97" d="M0,1.1H5c2.546,0,4.2,1.5,4.2,3.835s-1.657,3.8-4.2,3.8H1.718v5.522H0ZM4.939,7.205a2.192,2.192,0,0,0,2.485-2.27,2.213,2.213,0,0,0-2.485-2.3H1.718V7.205Z" transform="translate(0 -0.764)"/>
        <path id="Path_98" data-name="Path 98" d="M41.522,22.58h-1.6V20.8a3.774,3.774,0,0,1-3.252,1.933A3.213,3.213,0,0,1,33.3,19.389V13.1h1.6v5.983a2.045,2.045,0,0,0,2.148,2.209c1.35,0,2.884-1.534,2.884-4.019V13.1h1.6Z" transform="translate(-23.084 -9.082)"/>
        <path id="Path_99" data-name="Path 99" d="M70.426,14.1c-1.5,0-2.731,1.442-2.731,4.51v3.62H66.1v-9.48h1.6v1.933A3.507,3.507,0,0,1,70.641,12.6a3.222,3.222,0,0,1,1.1.184l-.123,1.534A3.068,3.068,0,0,0,70.426,14.1Z" transform="translate(-45.821 -8.735)"/>
        <path id="Path_100" data-name="Path 100" d="M161.826,14.1c-1.5,0-2.73,1.442-2.73,4.51v3.62h-1.6v-9.48h1.6v1.933a3.507,3.507,0,0,1,2.945-2.086,2.915,2.915,0,0,1,1.074.184l-.092,1.534A3.068,3.068,0,0,0,161.826,14.1Z" transform="translate(-109.179 -8.734)"/>
        <path id="Path_101" data-name="Path 101" d="M93.581,17.785H86.1a3.062,3.062,0,0,0,3.037,3.191c1.718,0,2.424-.675,2.73-1.871l1.473.368c-.46,1.841-2.025,2.915-4.2,2.915A4.6,4.6,0,0,1,84.5,17.478c0-2.7,1.718-4.878,4.6-4.878a4.265,4.265,0,0,1,4.51,4.449C93.612,17.294,93.581,17.631,93.581,17.785Zm-1.657-1.319A2.669,2.669,0,0,0,89.1,13.95a2.876,2.876,0,0,0-2.915,2.516Z" transform="translate(-58.576 -8.735)"/>
        <path id="Path_102" data-name="Path 102" d="M114.6,13.1h1.626l2.638,7.609L121.5,13.1h1.657l-3.467,9.48h-1.657Z" transform="translate(-79.441 -9.082)"/>
        <path id="Path_103" data-name="Path 103" d="M146.3,13.1h1.6v9.48h-1.6Z" transform="translate(-101.415 -9.082)"/>
        <path id="Path_104" data-name="Path 104" d="M183.092,16.287c-1.626,0-2.792-.92-2.792-3.007V8.064h1.6V6.653h-1.6V3.8h1.6V6.653h2.516V8.064H181.9v5.277a1.312,1.312,0,0,0,1.381,1.5,2.884,2.884,0,0,0,1.2-.245l.092,1.442a4.019,4.019,0,0,1-1.473.245Z" transform="translate(-124.984 -2.635)"/>
        <path id="Path_105" data-name="Path 105" d="M206.353,22.58h-1.6V20.8a3.8,3.8,0,0,1-3.252,1.933,3.221,3.221,0,0,1-3.405-3.344V13.1h1.626v5.983a2.038,2.038,0,0,0,2.117,2.209c1.319,0,2.915-1.534,2.915-4.019V13.1h1.6Z" transform="translate(-137.323 -9.082)"/>
        <path id="Path_106" data-name="Path 106" d="M237.815,16.159v6.075h-1.565V20.607a3.456,3.456,0,0,1-3.16,1.779,2.882,2.882,0,0,1-3.191-2.823c0-1.657,1.5-2.792,4.51-3.1l1.841-.215v-.184a2.082,2.082,0,0,0-2.3-2.117,2.172,2.172,0,0,0-2.362,2.056l-1.473-.307a3.9,3.9,0,0,1,7.7.46Zm-1.565,1.779v-.46l-1.841.215c-1.9.215-2.915.859-2.915,1.871s.767,1.5,1.841,1.5A2.8,2.8,0,0,0,236.251,17.938Z" transform="translate(-159.367 -8.735)"/>
        <path id="Path_107" data-name="Path 107" d="M261.7.6h1.6V13.915h-1.6Z" transform="translate(-181.411 -0.417)"/>
        <path id="Path_108" data-name="Path 108" d="M145.3,1.134A1.074,1.074,0,0,1,146.4,0a1.1,1.1,0,0,1,1.135,1.135,1.1,1.1,0,0,1-1.135,1.1,1.074,1.074,0,0,1-1.1-1.1Z" transform="translate(-100.718 0)"/>
        <g id="Group_40" data-name="Group 40" transform="translate(82.989 0.214)">
          <path id="Path_109" data-name="Path 109" d="M275.889,5.541l-.522-.92h-.4v.92H274.6V3.393h.8a.614.614,0,0,1,.675.614.552.552,0,0,1-.368.552l.583.982Zm-.92-1.227h.368c.245,0,.368-.092.368-.307s-.123-.276-.368-.276h-.368Z" transform="translate(-273.342 -2.565)"/>
          <path id="Path_110" data-name="Path 110" d="M272.495,1.037a1.657,1.657,0,1,1-1.657,1.626,1.626,1.626,0,0,1,1.657-1.626m0-.337a1.994,1.994,0,1,0,1.994,1.964A1.994,1.994,0,0,0,272.495.7Z" transform="translate(-270.501 -0.7)"/>
        </g>
      </g>
    </g>
    <circle id="Ellipse_7-2" data-name="Ellipse 7" cx="3.985" cy="3.985" r="3.985" transform="translate(880.818 3586.959)" fill="#182b39"/>
  </g>
</svg>
