<?xml version="1.0" encoding="utf-8"?>
<!-- Generator: Adobe Illustrator 22.0.0, SVG Export Plug-In . SVG Version: 6.00 Build 0)  -->
<svg version="1.1" id="Layer_1" xmlns="http://www.w3.org/2000/svg" xmlns:xlink="http://www.w3.org/1999/xlink" x="0px" y="0px"
	 viewBox="0 0 718 718" style="enable-background:new 0 0 718 718;" xml:space="preserve">
<style type="text/css">
	.st0{opacity:3.000000e-02;fill:#182B39;enable-background:new    ;}
	.st1{fill:#F2F2F2;stroke:#95A5A5;}
	.st2{fill:none;stroke:#95A5A5;}
	.st3{fill:none;}
	.st4{fill:none;stroke:#95A5A5;stroke-linecap:round;stroke-linejoin:round;stroke-dasharray:3,6;}
	.st5{fill:#E1E5E5;stroke:#95A5A5;}
	.st6{fill:#F2F2F2;stroke:#95A5A5;stroke-linecap:round;stroke-linejoin:round;stroke-dasharray:3,6;}
	.st7{opacity:0.3;fill:#95A5A5;enable-background:new;}
	.st8{fill:#182B39;}
	.st9{enable-background:new;}


</style>
<circle id="Ellipse_146" class="st0" cx="359" cy="359" r="359"/>
<circle id="Ellipse_29" class="st1" cx="400.9" cy="322.6" r="301.1"/>
<circle id="Ellipse_30" class="st2" cx="400.9" cy="322.6" r="300.6"/>
<ellipse id="Ellipse_31" class="st3" cx="435.5" cy="282.3" rx="247.9" ry="248.4"/>
<ellipse id="Ellipse_32" class="st4" cx="435.5" cy="282.3" rx="247.5" ry="247.9"/>
<circle id="Ellipse_33" class="st3" cx="482.9" cy="239.8" r="184.6"/>
<circle id="Ellipse_34" class="st5" cx="482.9" cy="239.8" r="184.2"/>
<circle id="Ellipse_35" class="st6" cx="532.6" cy="194.6" r="117.1"/>
<g id="Group_275" transform="translate(1411.782 3172.004)">
	<circle id="Ellipse_5" class="st7" cx="-799.6" cy="-3060.6" r="35.4">    <animateTransform attributeName="transform" type="scale" additive="sum" from="-799.6 -3060.6 35.4" to="-799.6 -3060.6 55.4" begin="0s" dur="2.5s" repeatCount="indefinite"></animateTransform></circle>
	<circle id="Ellipse_3" class="st8" cx="-799.6" cy="-3060.6" r="12.5"/>
</g>
<g class="st9">
	<path d="M53.8,526.8c0-3.1,2.1-4.7,4.4-4.7c2,0,3.5,1.1,3.8,2.9l-1.2,0.3c-0.3-1.3-1.3-2.1-2.7-2.1c-1.8,0-3.2,1.3-3.2,3.6
		s1.3,3.6,3.2,3.6c1.4,0,2.3-0.7,2.7-2l1.2,0.2c-0.5,1.7-1.9,2.8-3.8,2.8C55.9,531.4,53.8,529.9,53.8,526.8z"/>
	<path d="M63.3,531.3v-9.1h1.2v8H69v1.1H63.3z"/>
	<path d="M70.2,531.3v-9.1h1.2v9.1H70.2z"/>
	<path d="M73.2,531.3v-9.1H79v1.1h-4.6v2.7h3.7v1.1h-3.7v3.2h4.7v1.1H73.2z"/>
	<path d="M80.6,531.3v-9.1h1.3l4.6,7.2v-7.2h1.2v9.1h-1.3l-4.6-7.2v7.2H80.6z"/>
	<path d="M91.8,531.3v-8h-2.9v-1.1h7v1.1h-2.9v8H91.8z"/>
</g>
<g class="st9">
	<path d="M294.4,588.6c0-2.6,1.1-4.3,3.2-4.3c2.1,0,3.2,1.7,3.2,4.3c0,2.6-1.1,4.3-3.2,4.3C295.5,592.9,294.4,591.2,294.4,588.6z
		 M299.7,588.6c0-2-0.7-3.3-2.1-3.3c-1.4,0-2.1,1.3-2.1,3.3c0,2,0.7,3.3,2.1,3.3C299,591.9,299.7,590.6,299.7,588.6z"/>
	<path d="M303.5,592.8v-7c-0.6,0.5-1.2,0.8-2,0.9v-1c0.8-0.2,1.6-0.6,2.2-1.3h0.9v8.4H303.5z"/>
	<path d="M306.3,592.2c0-0.4,0.3-0.7,0.7-0.7c0.4,0,0.7,0.3,0.7,0.7c0,0.4-0.3,0.7-0.7,0.7C306.6,592.9,306.3,592.6,306.3,592.2z"/>
	<path d="M311.8,590.3l1-0.3c0.2,1.2,1.1,1.9,2.2,1.9c1.2,0,1.9-0.5,1.9-1.4c0-2.2-4.8-1.1-4.8-4c0-1.3,1.2-2.2,2.8-2.2
		c1.5,0,2.7,0.8,2.9,2.1l-1,0.4c-0.2-0.9-0.9-1.5-1.9-1.5c-1.1,0-1.7,0.5-1.7,1.2c0,1.9,4.8,0.7,4.8,4c0,1.4-1.2,2.4-3,2.4
		C313.4,592.9,312.1,591.9,311.8,590.3z"/>
	<path d="M319.4,592.8v-8.4h1.1v8.4H319.4z"/>
	<path d="M324.2,592.8v-7.4h-2.7v-1h6.4v1h-2.7v7.4H324.2z"/>
	<path d="M329.1,589.9v-5.5h1.1v5.6c0,1.2,0.8,2,2.1,2c1.3,0,2.1-0.7,2.1-2v-5.6h1.1v5.5c0,1.9-1.3,3-3.2,3
		C330.3,592.9,329.1,591.8,329.1,589.9z"/>
	<path d="M342.5,592.8l-0.8-2.1h-3.7l-0.8,2.1H336l3.3-8.4h1l3.3,8.4H342.5z M338.3,589.7h3l-1.5-3.8L338.3,589.7z"/>
	<path d="M345.5,592.8v-7.4h-2.7v-1h6.4v1h-2.7v7.4H345.5z"/>
	<path d="M350.3,592.8v-8.4h1.1v8.4H350.3z"/>
	<path d="M352.8,588.6c0-2.5,1.7-4.3,4.1-4.3c2.4,0,4.1,1.8,4.1,4.3c0,2.5-1.7,4.3-4.1,4.3C354.5,592.9,352.8,591.1,352.8,588.6z
		 M359.9,588.6c0-1.9-1.3-3.3-3-3.3c-1.7,0-3,1.4-3,3.3s1.3,3.3,3,3.3C358.7,591.9,359.9,590.5,359.9,588.6z"/>
	<path d="M362.4,592.8v-8.4h1.2l4.2,6.7v-6.7h1.1v8.4h-1.2l-4.2-6.7v6.7H362.4z"/>
	<path d="M379.3,592.8l-0.8-2.1h-3.7l-0.8,2.1h-1.1l3.3-8.4h1l3.3,8.4H379.3z M375.1,589.7h3l-1.5-3.8L375.1,589.7z"/>
	<path d="M381.4,592.8v-8.4h1.2l4.2,6.7v-6.7h1.1v8.4h-1.2l-4.2-6.7v6.7H381.4z"/>
	<path d="M395.4,592.8l-0.8-2.1h-3.7l-0.8,2.1h-1.1l3.3-8.4h1l3.3,8.4H395.4z M391.2,589.7h3l-1.5-3.8L391.2,589.7z"/>
	<path d="M397.5,592.8v-8.4h1.1v7.4h4.2v1H397.5z"/>
	<path d="M404.7,592.8v-3.5l-3-4.9h1.2l2.3,3.8l2.3-3.8h1.2l-3,4.9v3.5H404.7z"/>
	<path d="M408.9,590.3l1-0.3c0.2,1.2,1.1,1.9,2.2,1.9c1.2,0,1.9-0.5,1.9-1.4c0-2.2-4.8-1.1-4.8-4c0-1.3,1.2-2.2,2.8-2.2
		c1.5,0,2.7,0.8,2.9,2.1l-1,0.4c-0.2-0.9-0.9-1.5-1.9-1.5c-1.1,0-1.7,0.5-1.7,1.2c0,1.9,4.8,0.7,4.8,4c0,1.4-1.2,2.4-3,2.4
		C410.5,592.9,409.2,591.9,408.9,590.3z"/>
	<path d="M416.5,592.8v-8.4h1.1v8.4H416.5z"/>
	<path d="M418.8,590.3l1-0.3c0.2,1.2,1.1,1.9,2.2,1.9c1.2,0,1.9-0.5,1.9-1.4c0-2.2-4.8-1.1-4.8-4c0-1.3,1.2-2.2,2.8-2.2
		c1.5,0,2.7,0.8,2.9,2.1l-1,0.4c-0.2-0.9-0.9-1.5-1.9-1.5c-1.1,0-1.7,0.5-1.7,1.2c0,1.9,4.8,0.7,4.8,4c0,1.4-1.2,2.4-3,2.4
		C420.3,592.9,419,591.9,418.8,590.3z"/>
</g>
<circle data-aos="fade-up" data-aos-delay="500" id="Ellipse_6" class="st8" cx="282.4" cy="598.9" r="4"/>
<g id="Group_276" transform="translate(1023.818 3420.829)">
	<g class="st9">
		<path d="M-820.1-3088.2c0-2.6,1.1-4.3,3.2-4.3c2.1,0,3.2,1.7,3.2,4.3c0,2.6-1.1,4.3-3.2,4.3
			C-819-3083.9-820.1-3085.6-820.1-3088.2z M-814.8-3088.2c0-2-0.7-3.3-2.1-3.3c-1.4,0-2.1,1.3-2.1,3.3c0,2,0.7,3.3,2.1,3.3
			C-815.5-3084.9-814.8-3086.2-814.8-3088.2z"/>
		<path d="M-812.8-3084l0-0.9l3.2-2.7c1-0.9,1.4-1.5,1.4-2.3c0-0.9-0.6-1.5-1.6-1.5c-1.2,0-1.8,0.8-1.7,2.1l-1.1-0.1
			c-0.1-1.8,1-3,2.8-3c1.7,0,2.7,1,2.7,2.5c0,1-0.6,2-1.9,3l-2.3,1.9h4.1v1H-812.8z"/>
		<path d="M-805.6-3084.6c0-0.4,0.3-0.7,0.7-0.7c0.4,0,0.7,0.3,0.7,0.7c0,0.4-0.3,0.7-0.7,0.7
			C-805.3-3083.9-805.6-3084.2-805.6-3084.6z"/>
		<path d="M-799.6-3084v-8.4h5.3v1h-4.2v2.5h3.4v1h-3.4v3h4.3v1H-799.6z"/>
		<path d="M-790.4-3084l-3.2-8.4h1.1l2.6,7.1l2.6-7.1h1.1l-3.2,8.4H-790.4z"/>
		<path d="M-780.3-3084l-0.8-2.1h-3.7l-0.8,2.1h-1.1l3.3-8.4h1l3.3,8.4H-780.3z M-784.4-3087.1h3l-1.5-3.8L-784.4-3087.1z"/>
		<path d="M-778.2-3084v-8.4h1.1v7.4h4.2v1H-778.2z"/>
		<path d="M-772.2-3086.9v-5.5h1.1v5.6c0,1.2,0.8,2,2.1,2c1.3,0,2.1-0.7,2.1-2v-5.6h1.1v5.5c0,1.9-1.3,3-3.2,3
			C-770.9-3083.9-772.2-3085-772.2-3086.9z"/>
		<path d="M-758.8-3084l-0.8-2.1h-3.7l-0.8,2.1h-1.1l3.3-8.4h1l3.3,8.4H-758.8z M-763-3087.1h3l-1.5-3.8L-763-3087.1z"/>
		<path d="M-755.8-3084v-7.4h-2.7v-1h6.4v1h-2.7v7.4H-755.8z"/>
		<path d="M-751-3084v-8.4h1.1v8.4H-751z"/>
		<path d="M-748.5-3088.2c0-2.5,1.7-4.3,4.1-4.3c2.4,0,4.1,1.8,4.1,4.3c0,2.5-1.7,4.3-4.1,4.3
			C-746.8-3083.9-748.5-3085.7-748.5-3088.2z M-741.4-3088.2c0-1.9-1.3-3.3-3-3.3c-1.7,0-3,1.4-3,3.3s1.3,3.3,3,3.3
			C-742.6-3084.9-741.4-3086.3-741.4-3088.2z"/>
		<path d="M-738.9-3084v-8.4h1.2l4.2,6.7v-6.7h1.1v8.4h-1.2l-4.2-6.7v6.7H-738.9z"/>
	</g>
	<circle id="Ellipse_7" class="st8" cx="-831" cy="-3088.9" r="4"/>
</g>
<g class="st9">
	<path d="M402.7,390.7c0-2.6,1.1-4.3,3.2-4.3c2.1,0,3.2,1.7,3.2,4.3c0,2.6-1.1,4.3-3.2,4.3C403.8,395,402.7,393.3,402.7,390.7z
		 M408,390.7c0-2-0.7-3.3-2.1-3.3c-1.4,0-2.1,1.3-2.1,3.3c0,2,0.7,3.3,2.1,3.3C407.3,394,408,392.7,408,390.7z"/>
	<path d="M409.7,392.6l1-0.2c0.1,1,0.9,1.6,2,1.6c1.2,0,1.9-0.7,1.9-1.8c0-1.1-0.7-1.7-1.9-1.7c-0.3,0-0.7,0.1-0.9,0.3l-0.5-0.7
		l2.7-2.6h-4.1v-1h5.4v0.9l-2.4,2.3c1.7-0.2,2.8,0.9,2.8,2.5c0,1.6-1.2,2.7-3,2.7C411,395,409.8,394,409.7,392.6z"/>
	<path d="M417,394.3c0-0.4,0.3-0.7,0.7-0.7c0.4,0,0.7,0.3,0.7,0.7c0,0.4-0.3,0.7-0.7,0.7C417.3,395,417,394.7,417,394.3z"/>
	<path d="M423.1,394.9v-8.4h1.1v8.4H423.1z"/>
	<path d="M425.9,394.9v-8.4h1.3l2.8,6.8l2.8-6.8h1.3v8.4h-1.1v-6.3l-2.6,6.3h-0.9l-2.6-6.3v6.3H425.9z"/>
	<path d="M436,394.9v-8.4h3.2c1.6,0,2.7,1,2.7,2.4c0,1.5-1.1,2.4-2.7,2.4H437v3.5H436z M437,390.4h2.1c1,0,1.6-0.5,1.6-1.5
		c0-0.9-0.6-1.5-1.6-1.5H437V390.4z"/>
	<path d="M443,394.9v-8.4h1.1v7.4h4.2v1H443z"/>
	<path d="M449.3,394.9v-8.4h5.3v1h-4.2v2.5h3.4v1h-3.4v3h4.3v1H449.3z"/>
	<path d="M456.1,394.9v-8.4h1.3l2.8,6.8l2.8-6.8h1.3v8.4h-1.1v-6.3l-2.6,6.3h-0.9l-2.6-6.3v6.3H456.1z"/>
	<path d="M466.2,394.9v-8.4h5.3v1h-4.2v2.5h3.4v1h-3.4v3h4.3v1H466.2z"/>
	<path d="M473,394.9v-8.4h1.2l4.2,6.7v-6.7h1.1v8.4h-1.2l-4.2-6.7v6.7H473z"/>
	<path d="M483.2,394.9v-7.4h-2.7v-1h6.4v1h-2.7v7.4H483.2z"/>
	<path d="M492.7,394.9l-0.8-2.1h-3.7l-0.8,2.1h-1.1l3.3-8.4h1l3.3,8.4H492.7z M488.5,391.8h3l-1.5-3.8L488.5,391.8z"/>
	<path d="M495.7,394.9v-7.4H493v-1h6.4v1h-2.7v7.4H495.7z"/>
	<path d="M500.5,394.9v-8.4h1.1v8.4H500.5z"/>
	<path d="M503,390.7c0-2.5,1.7-4.3,4.1-4.3c2.4,0,4.1,1.8,4.1,4.3c0,2.5-1.7,4.3-4.1,4.3C504.7,395,503,393.2,503,390.7z
		 M510.1,390.7c0-1.9-1.3-3.3-3-3.3c-1.7,0-3,1.4-3,3.3s1.3,3.3,3,3.3C508.9,394,510.1,392.6,510.1,390.7z"/>
	<path d="M512.6,394.9v-8.4h1.2l4.2,6.7v-6.7h1.1v8.4h-1.2l-4.2-6.7v6.7H512.6z"/>
</g>
<g id="Group_277" transform="translate(1224.77 3493.707)">
	<circle id="Ellipse_8" class="st8" cx="-831" cy="-3092" r="4"/>
</g>
<g id="Group_279" transform="translate(1250.056 3305.214)">
	<g class="st9">
		<path d="M-819-3088.2c0-2.6,1.1-4.3,3.2-4.3c2.1,0,3.2,1.7,3.2,4.3c0,2.6-1.1,4.3-3.2,4.3C-817.9-3083.9-819-3085.6-819-3088.2z
			 M-813.7-3088.2c0-2-0.7-3.3-2.1-3.3c-1.4,0-2.1,1.3-2.1,3.3c0,2,0.7,3.3,2.1,3.3C-814.4-3084.9-813.7-3086.2-813.7-3088.2z"/>
		<path d="M-807.4-3084v-2.1h-4.4v-1l4.3-5.4h1.3v5.4h1.2v1h-1.2v2.1H-807.4z M-810.6-3087h3.3v-4.1L-810.6-3087z"/>
		<path d="M-804.1-3084.6c0-0.4,0.3-0.7,0.7-0.7c0.4,0,0.7,0.3,0.7,0.7c0,0.4-0.3,0.7-0.7,0.7
			C-803.8-3083.9-804.1-3084.2-804.1-3084.6z"/>
		<path d="M-798.1-3084v-8.4h1.3l2.8,6.8l2.8-6.8h1.3v8.4h-1.1v-6.3l-2.6,6.3h-0.9l-2.6-6.3v6.3H-798.1z"/>
		<path d="M-788.4-3088.2c0-2.5,1.7-4.3,4.1-4.3c2.4,0,4.1,1.8,4.1,4.3c0,2.5-1.7,4.3-4.1,4.3
			C-786.7-3083.9-788.4-3085.7-788.4-3088.2z M-781.3-3088.2c0-1.9-1.3-3.3-3-3.3c-1.7,0-3,1.4-3,3.3s1.3,3.3,3,3.3
			C-782.5-3084.9-781.3-3086.3-781.3-3088.2z"/>
		<path d="M-778.8-3084v-8.4h1.2l4.2,6.7v-6.7h1.1v8.4h-1.2l-4.2-6.7v6.7H-778.8z"/>
		<path d="M-770.5-3084v-8.4h1.1v8.4H-770.5z"/>
		<path d="M-765.7-3084v-7.4h-2.7v-1h6.4v1h-2.7v7.4H-765.7z"/>
		<path d="M-761.8-3088.2c0-2.5,1.7-4.3,4.1-4.3c2.4,0,4.1,1.8,4.1,4.3c0,2.5-1.7,4.3-4.1,4.3
			C-760-3083.9-761.8-3085.7-761.8-3088.2z M-754.6-3088.2c0-1.9-1.3-3.3-3-3.3c-1.7,0-3,1.4-3,3.3s1.3,3.3,3,3.3
			C-755.9-3084.9-754.6-3086.3-754.6-3088.2z"/>
		<path d="M-745.6-3084h-1.3l-2.3-3.7h-1.9v3.7h-1.1v-8.4h3c1.6,0,2.6,0.9,2.6,2.3c0,1-0.6,1.8-1.6,2.2L-745.6-3084z M-751-3091.4
			v2.7h1.8c1,0,1.6-0.5,1.6-1.3s-0.6-1.4-1.6-1.4H-751z"/>
		<path d="M-744.5-3084v-8.4h1.1v8.4H-744.5z"/>
		<path d="M-741.7-3084v-8.4h1.2l4.2,6.7v-6.7h1.1v8.4h-1.2l-4.2-6.7v6.7H-741.7z"/>
		<path d="M-733.8-3088.2c0-2.9,2-4.3,4.1-4.3c1.9,0,3.3,1,3.6,2.7l-1.1,0.2c-0.2-1.2-1.2-1.9-2.5-1.9c-1.7,0-2.9,1.2-2.9,3.3
			s1.2,3.3,2.9,3.3c1.6,0,2.6-1,2.6-2.5h-2.9v-0.9h4v4.3h-1v-1.3c-0.4,0.9-1.5,1.4-2.7,1.4C-731.9-3083.9-733.8-3085.3-733.8-3088.2
			z"/>
	</g>
	<g class="st9">
		<path d="M-716.6-3084c-0.2-0.2-0.4-0.5-0.8-0.8c-0.7,0.6-1.5,0.9-2.4,0.9c-1.6,0-2.5-1.1-2.5-2.3c0-1.1,0.7-1.9,1.6-2.4v0
			c-0.4-0.5-0.7-1.1-0.7-1.7c0-1,0.7-2,2.1-2c1,0,1.8,0.7,1.8,1.7c0,0.9-0.5,1.5-1.8,2.2v0c0.7,0.8,1.5,1.7,2,2.2
			c0.4-0.6,0.6-1.3,0.8-2.4h1c-0.2,1.3-0.6,2.3-1.2,3c0.4,0.5,0.9,0.9,1.3,1.4H-716.6z M-717.8-3085.4c-0.5-0.5-1.4-1.5-2.3-2.6
			c-0.4,0.3-1,0.8-1,1.7c0,0.9,0.7,1.6,1.7,1.6C-718.8-3084.7-718.2-3085-717.8-3085.4z M-720.3-3090.3c0,0.6,0.3,1,0.6,1.5
			c0.8-0.5,1.3-0.9,1.3-1.6c0-0.5-0.3-1-0.9-1C-719.9-3091.5-720.3-3091-720.3-3090.3z"/>
		<path d="M-711.9-3085.3c0.5,0.3,1.1,0.5,1.9,0.5c1.1,0,1.7-0.6,1.7-1.4c0-0.7-0.4-1.2-1.5-1.6c-1.3-0.5-2.1-1.2-2.1-2.3
			c0-1.3,1-2.2,2.6-2.2c0.8,0,1.4,0.2,1.8,0.4l-0.3,0.9c-0.3-0.2-0.8-0.4-1.5-0.4c-1.1,0-1.5,0.7-1.5,1.2c0,0.8,0.5,1.1,1.6,1.6
			c1.4,0.5,2.1,1.2,2.1,2.4c0,1.2-0.9,2.3-2.8,2.3c-0.8,0-1.6-0.2-2.1-0.5L-711.9-3085.3z"/>
		<path d="M-704.9-3092.1v4.8c0,1.8,0.8,2.6,1.9,2.6c1.2,0,2-0.8,2-2.6v-4.8h1.1v4.7c0,2.5-1.3,3.5-3.1,3.5c-1.7,0-2.9-0.9-2.9-3.5
			v-4.8H-704.9z"/>
		<path d="M-698.1-3092c0.5-0.1,1.2-0.2,2-0.2c1,0,1.8,0.2,2.3,0.7c0.4,0.4,0.7,1,0.7,1.7c0,0.7-0.2,1.3-0.6,1.7
			c-0.6,0.6-1.5,0.9-2.5,0.9c-0.3,0-0.6,0-0.8-0.1v3.2h-1V-3092z M-697.1-3088.1c0.2,0.1,0.5,0.1,0.9,0.1c1.3,0,2-0.6,2-1.7
			c0-1.1-0.8-1.6-1.9-1.6c-0.5,0-0.8,0-1,0.1V-3088.1z"/>
		<path d="M-691.7-3092c0.5-0.1,1.2-0.2,2-0.2c1,0,1.8,0.2,2.3,0.7c0.4,0.4,0.7,1,0.7,1.7c0,0.7-0.2,1.3-0.6,1.7
			c-0.6,0.6-1.5,0.9-2.5,0.9c-0.3,0-0.6,0-0.8-0.1v3.2h-1V-3092z M-690.7-3088.1c0.2,0.1,0.5,0.1,0.9,0.1c1.3,0,2-0.6,2-1.7
			c0-1.1-0.8-1.6-1.9-1.6c-0.5,0-0.8,0-1,0.1V-3088.1z"/>
		<path d="M-678.5-3088.1c0,2.8-1.7,4.3-3.8,4.3c-2.1,0-3.6-1.7-3.6-4.1c0-2.6,1.6-4.2,3.7-4.2
			C-679.9-3092.2-678.5-3090.5-678.5-3088.1z M-684.7-3088c0,1.7,0.9,3.3,2.6,3.3s2.6-1.5,2.6-3.4c0-1.6-0.8-3.3-2.6-3.3
			C-683.9-3091.4-684.7-3089.8-684.7-3088z"/>
		<path d="M-677.1-3092c0.5-0.1,1.3-0.2,2-0.2c1.1,0,1.8,0.2,2.3,0.7c0.4,0.4,0.6,0.9,0.6,1.5c0,1.1-0.7,1.8-1.5,2.1v0
			c0.6,0.2,1,0.8,1.2,1.6c0.3,1.1,0.5,1.9,0.6,2.2h-1.1c-0.1-0.2-0.3-0.9-0.5-1.9c-0.2-1.1-0.7-1.5-1.6-1.6h-1v3.5h-1V-3092z
			 M-676.1-3088.3h1.1c1.1,0,1.8-0.6,1.8-1.5c0-1-0.8-1.5-1.9-1.5c-0.5,0-0.9,0-1,0.1V-3088.3z"/>
		<path d="M-669-3091.2h-2.5v-0.9h6v0.9h-2.5v7.2h-1.1V-3091.2z"/>
	</g>
	<g id="Group_278" transform="translate(0 3.554)">
		<circle id="Ellipse_8-2" class="st8" cx="-832.5" cy="-3092" r="4"/>
	</g>
</g>
<g id="purevirtual-logo-white" transform="translate(1449.607 3151.001)">
	<path id="Path_97" d="M-835-3095.7h5c2.5,0,4.2,1.5,4.2,3.8c0,2.3-1.7,3.8-4.2,3.8h-3.3v5.5h-1.7V-3095.7z M-830.1-3089.6
		c1.2,0.2,2.3-0.7,2.5-1.9c0-0.1,0-0.3,0-0.4c0.1-1.2-0.9-2.3-2.1-2.3c-0.1,0-0.3,0-0.4,0h-3.2v4.6H-830.1z"/>
	<path id="Path_98" d="M-816.6-3082.5h-1.6v-1.8c-0.7,1.2-1.9,1.9-3.3,1.9c-1.8,0.1-3.3-1.3-3.4-3c0-0.1,0-0.2,0-0.3v-6.3h1.6v6
		c-0.1,1.1,0.7,2.1,1.9,2.2c0.1,0,0.2,0,0.3,0c1.3,0,2.9-1.5,2.9-4v-4.2h1.6L-816.6-3082.5z"/>
	<path id="Path_99" d="M-810.4-3090.6c-1.5,0-2.7,1.4-2.7,4.5v3.6h-1.6v-9.5h1.6v1.9c0.5-1.2,1.7-2,2.9-2.1c0.4,0,0.7,0.1,1.1,0.2
		l-0.1,1.5C-809.6-3090.6-810-3090.6-810.4-3090.6z"/>
	<path id="Path_100" d="M-782.4-3090.6c-1.5,0-2.7,1.4-2.7,4.5v3.6h-1.6v-9.5h1.6v1.9c0.5-1.2,1.7-2,2.9-2.1c0.4,0,0.7,0.1,1.1,0.2
		l-0.1,1.5C-781.5-3090.6-781.9-3090.6-782.4-3090.6z"/>
	<path id="Path_101" d="M-800-3086.9h-7.5c-0.1,1.7,1.2,3.1,2.9,3.2c0,0,0.1,0,0.1,0c1.7,0,2.4-0.7,2.7-1.9l1.5,0.4
		c-0.5,1.8-2,2.9-4.2,2.9c-2.5,0-4.6-2-4.7-4.5c0-0.1,0-0.2,0-0.4c0-2.7,1.7-4.9,4.6-4.9c2.4-0.1,4.4,1.7,4.5,4c0,0.1,0,0.3,0,0.4
		C-800-3087.4-800-3087.1-800-3086.9z M-801.7-3088.3c-0.1-1.5-1.3-2.6-2.8-2.5c0,0,0,0,0,0c-1.5,0-2.7,1.1-2.9,2.5H-801.7z"/>
	<path id="Path_102" d="M-799.8-3092h1.6l2.6,7.6l2.6-7.6h1.7l-3.5,9.5h-1.7L-799.8-3092z"/>
	<path id="Path_103" d="M-790.1-3092h1.6v9.5h-1.6V-3092z"/>
	<path id="Path_104" d="M-776.9-3082.3c-1.6,0-2.8-0.9-2.8-3v-5.2h1.6v-1.4h-1.6v-2.9h1.6v2.9h2.5v1.4h-2.5v5.3
		c-0.1,0.7,0.4,1.4,1.1,1.5c0.1,0,0.2,0,0.3,0c0.4,0,0.8-0.1,1.2-0.2l0.1,1.4C-775.9-3082.4-776.4-3082.3-776.9-3082.3
		L-776.9-3082.3z"/>
	<path id="Path_105" d="M-766-3082.5h-1.6v-1.8c-0.7,1.2-1.9,1.9-3.3,1.9c-1.8,0.1-3.3-1.3-3.4-3c0-0.1,0-0.2,0-0.3v-6.3h1.6v6
		c-0.1,1.1,0.7,2.1,1.9,2.2c0.1,0,0.2,0,0.3,0c1.3,0,2.9-1.5,2.9-4v-4.2h1.6L-766-3082.5z"/>
	<path id="Path_106" d="M-756.6-3088.6v6.1h-1.6v-1.6c-0.6,1.1-1.9,1.8-3.2,1.8c-1.6,0.2-3-1-3.2-2.6c0-0.1,0-0.2,0-0.3
		c0-1.7,1.5-2.8,4.5-3.1l1.8-0.2v-0.2c0-1.1-0.9-2.1-2-2.1c-0.1,0-0.2,0-0.3,0c-1.2-0.1-2.2,0.8-2.4,2c0,0,0,0.1,0,0.1l-1.5-0.3
		c0.4-2.1,2.5-3.5,4.6-3C-758-3091.7-756.7-3090.3-756.6-3088.6L-756.6-3088.6z M-758.1-3086.8v-0.5l-1.8,0.2
		c-1.9,0.2-2.9,0.9-2.9,1.9c0,1,0.8,1.5,1.8,1.5c1.5,0.1,2.9-1.1,2.9-2.7C-758.1-3086.5-758.1-3086.6-758.1-3086.8L-758.1-3086.8z"
		/>
	<path id="Path_107" d="M-754.7-3095.8h1.6v13.3h-1.6V-3095.8z"/>
	<path id="Path_108" d="M-790.4-3094.9c0-0.6,0.4-1.1,1-1.1c0,0,0.1,0,0.1,0c0.6,0,1.1,0.5,1.1,1.1c0,0,0,0,0,0.1
		c0,0.6-0.5,1.1-1.1,1.1c0,0,0,0,0,0C-789.9-3093.8-790.4-3094.2-790.4-3094.9C-790.4-3094.8-790.4-3094.8-790.4-3094.9
		L-790.4-3094.9z"/>
	<g id="Group_40" transform="translate(82.989 0.214)">
		<path id="Path_109" d="M-832.5-3093l-0.5-0.9h-0.4v0.9h-0.4v-2.1h0.8c0.3,0,0.6,0.2,0.7,0.6c0,0,0,0,0,0.1c0,0.2-0.1,0.5-0.4,0.6
			l0.6,1H-832.5z M-833.4-3094.3h0.4c0.2,0,0.4-0.1,0.4-0.3c0-0.2-0.1-0.3-0.4-0.3h-0.4V-3094.3z"/>
		<path id="Path_110" d="M-833-3095.7c0.9,0,1.7,0.7,1.7,1.7c0,0.9-0.7,1.7-1.7,1.7c-0.9,0-1.7-0.7-1.7-1.7c0,0,0,0,0,0
			C-834.7-3094.9-833.9-3095.7-833-3095.7C-833-3095.7-833-3095.7-833-3095.7 M-833-3096c-1.1,0-2,0.9-2,2c0,1.1,0.9,2,2,2
			c1.1,0,2-0.9,2-2c0,0,0,0,0,0C-831-3095.1-831.9-3096-833-3096z"/>
	</g>
</g>
<circle id="Ellipse_7-2" class="st8" cx="44.8" cy="527.9" r="4"/>
</svg>
