<svg xmlns="http://www.w3.org/2000/svg" width="397.09" height="540" viewBox="0 0 397.09 540">
  <path id="Path_317" data-name="Path 317" d="M546.3,473.181l-1.293,2.735-.1.625.224-.082.461.912.215.2.541.261-.577.552-.112.783.228,2.118-.031,1.1-.134.945-.269.859-.743,1.614-.206.309-.358.357-.344.149-.9.145-.148-.034-.367.746-.384,1.746-.094-.1-1.775-.8-.662-1.021-.7-.524-.757-.409-4.489-1.258-1.45.2-1.414.533-.39.362-.237.455.027.236.13.295.174,1.179.4.63.094.575-.121.637-.581,1.237-.206.6-.081.607.081,1.844-.09.68-.192.448-.2.338-.085.337-.246,1.384-.6,1.015-4.234,3.711-1.454.816-5.966,1.045-4.49,1.789-.7.5-1.611,1.552-1.4.781-.672.544.058.155-2.4.468-.653.351-.394.433-.792,1.252-.564.651-1.723,1.211-.175.214-.617.971-.264.121-.282-.014-.278.1-.264.466-.085.874.219.855.385.78.4.64,3.048,3.2.649,1.445.114.7.016.093.232.677.35.513,1.038.625.873.9.349.189.729.718,1.468,3.418.936,1.4.2.2-2.793,4.5-.237.506-.085.409-.013.413-.076.426-.278.459-.009.007L506.3,541l.707.72,2.412.451.649-.112,1.1-.484.671.108.537.406.533.647.846,1.453.344.933.121.824-.027.781-.094.777-.107.139-.515,1.273-.027.178-.7.919-.116-.043.036,1.456.094-.037-.05.093-.411,1.04-.108.167v1.117l.036.4.1.351.139.328.112.389.013.534-1.235,1.47-.3.261-.465.022-.269-.166-.241-.255-.417-.223-.452.013-.358.2-.367.128-.474-.194-2.122-1.606-1.978-2.185-.367-.3-.407-.146-.667-.116-1.07-.865-.228-1.584.528-1.488,1.182-.588-.86-.833-1.123-.744-.681-.837.448-1.123-.743.1-2.43-.629h-1.544l-1.544.373-.824.415-1.516,1.358-.413.369-.676.3-.913.179-.891-.023-.608-.3-1.289-1.039-.349-.42-.238-.527-.452-1.371-.2-.371-.712-.139-1.7.655-.734.119-2.5-.535-.945.136-.966.507-.47.072-.43-.384-.237-.71.143-.449.277-.386.153-.508.112-.687.134-.295-.108.022-.631.278-.376.236-1.042.871-.685.28.085.525.139.356.317.422.354.352.219.148.121.354.072,1.718-.045.6-.157.41-1.235,1.59-.345.072-9.949-.435-3.635.743-.487.293-.435,1.091-.447.149-2.439-.5-3.527-.015-1.889-.378-.8-.027-.148.186-1.208,1.051-.3.68-.34,1.486-.219.593-.788.878-.94.374-2.032.338-.98-.311-1.065-.146-.985.232-2.041,2.356.533.146.47.31.166.476-.372.636-.7.3-1.88.045-.8.258-.837.781-.573.774-.618.664-.944.433-1.038-.119.094-1.739-.927-.38-1.092.3-2.829,1.964-.845.26-4.516-.066-.605-.354-.443-.867.1-.006.139-.294.1-.444-.013-.43-.13-.291-2.162-2.336-2.229-1.036-.3-.509,1.4-.955.362-.441-.994-.751-.461-.262-.6-.041-.614.176-1.745.8-1.28.155-.371-.112-.215-.305-.144-.332-.174-.2-5.716-2.168-1.047-.013-.6.419L404.865,553l-.55.444-.511.089-1.844-.281-.676-.312-.353-.252-.228-.295-.076-.55.161-.408.21-.309.054-.252-.193-.6-.152-.12-.331.131-.725.131-.649.257.063.554.375.708.287.718-.054.593-.438,2.557.608.332.372.414.233.565.179.793.009,1.373-.394,1.439-.631,1.294-.721.961-.372.251-.913.319-.447.3-.26.4-.962,1.94-.779,1.05-.846.775-1.938,1.193-.944.368-2.789.342-.653.08-.192-.112.174-.4.4-.721.174-.12.573-.172.21-.208.108-.426-.023-.383-.1-.419.783-2.364.032-1.151-.8-.432-1.9.347-.515.57-.184.142h-.223l-.448-.273-.215-.028-.568.273-.331.246-.291.013-.421-.41-.233-.611-.04-.687-.116-.665-.475-.555.985-.769.2-.673-.38-.751-2.131-3.128-.492.225-.385.338-.38.165-.475-.285-.067-.374-.013-.2v-.194l-.394-.863-.542-.543-.452-.6-.12-1.06-.524.42-.654.13-1.289-.1-1.3-.484-.219.06-.533.344-.349.027-.882-.458-.165-.678.085-.78-.144-.76-.505-.554-.613-.222-.65.073-.626.335-.944,1.1-.538,1.167-.626.981-1.182.564-2.775.048-2.532-.7-.184-.05-.1-.065-11.877-7.42-1.683-.39-1.62,0-.586-.919h-2.395l-4.829-.545-.819.326-.689.751-1.576.505-1.7.161-1.061-.279-1.258-.942-.031-.032-.613-.615-.005-.447.8-.186-1.119-1.062-1.414-.827-1.164-.053-.389,1.262.353.4-2.287.034-.085-.419-.107-.491-.345-.427-.183-.526.143-.421.577-.87.117-.243-.287-.65-.425-.084-.479.1-.447-.1-.323-.513-.34-.746-.416-.634-.56-.187-.393.413-.224,1.405-.537.353-.425-.318-.153-.782-.04-.833-.067-.469-.8-.364-1.079-.06-.689.4.4,1.016-.654.333-2.332.466-.483-.013-.34.2-.586.865-.2.469-.327,1.288-.461.432-1.1.6-.425.487-.05.476.184.47.107.549-.277.7.68.251.215.033,1.11.849.9.511.77-.033.64-.332.6-.43.649-.327,2.1-.359.6.1.494.2.2.082.394.039-.246,1.523-.282-.143-.027-.4-.04-.1-.188.006-.228.087-.157.136-.1.355.071.292.1.251.018.221-.054.438.023.457-.05.481-.188.33-.094.166-.581.2-.389-.48-.09-.111-.515-.87-.667-.627-1.3.133-1.325.879-.5,1.1-.054.3-1.2.2-.131.023-2.77-.017-1.643-.438-.425-.279-.3-.618-.232-.62-.233-.278-.5-.053-1.124-.346-.783,0-2.336.4-.224.146-.215.313-.3.314-.792.237-.94.51-.354.275-.367.423-.174.325-.193.279-.421.287-1.947.438H290.65l-.117-.272-.085-.6-.139-.6-.264-.275-2.793-.169-.608-.312-.788,1.236-.689.827-.815.465-1.707.355-1.9.4-.954-.128-.628-.333-1.609-.854h.112l1.02.009.461-.446.568-1.608-.98.1-2.209.665.177-.655.1-.23-.094-.613-.228-.335-.278-.242-.259-.326-.976-1.956-.586-.821-.64-.335-.17-.3-.139-.693-.121-1.385.152-.386.716-.765.256-.425.022-1.052-.537-2.256.116-.894.618-2.089.242-.311.586-.321.094-.722-.224-1.2.009-.287-.036-.163-.022-.164.049-.27.13-.28.286-.279.175-.319.273-.647.08-.289-.053-1.05.232-.864,1.155-1.227.412-.779-.094-2.02-1.871-3.306-.134-2.674.273-1.265.291-.989.313-.58.295-.393.22-.51.085-.935.286-.794,2.739-3.847.457-.944.273-1.1.089-1.321.3-1.368.7-.573.8-.435.6-.957.054-.911-.219-.869-.282-.832-.139-.785.049-.857.318-1.723.219-.743.3-.62.282-.421.22-.635.089-1.244.224-.592.519-.534,1.083-.858v-.449l-.51-1.39,0-2.275.367-2.139,1.826-2.862.506-.359.716-.234.663-.576,1.186-1.423.515-.336.572-.56.466-.624.192-.519.054-1.252.228-.587.493-.163,1.217-.02.331-.116.246-.214.094-.363.094-.618.2-.35.2-.193.094-.163.381-.017,1.589-.857.264-.227.537-.908,1.964-5.425,1.352-2.568.891-1.026.018-.02-.5-.474-4.256-.887L291.5,455.5l-.783-.089-2.466.26-3.6-1.048-.479.13-1.016.556-.528.137-.416-.062-.918-.327-.479-.082-.546.116-.5.218-.52.133-.167-.038-.432-.1-.4-.345-.421-.857-.318-.4-.962-.5-1.893-.332-.945-.6-.568-.721-.98-1.6-.609-.635.076-.219.108-.151.322-.208-.286-.958-.784-.288-1.871-.126-.188-.74-.841-.072-.841.256-.175.053-.721.41-.2.329-.313.961-.22.366-.326.154-.886.113-.386.133-.273.332-.456.933-.255.264-.273-.042-1.164-.547-3.733-.034-.68-.232-.68-.356-1.656-1.207-.237-.031-.394.39.036.366.138.345-.067.336-1.329.841-.953-.753-.5-1.816.023-2.337-.936-.048-2.7-1.534-.479-.072-1.262.123-1.808-.414-.435.106-.25.921.327,1.072.165,1.1-.747,1-.551.127-1.687-.626-1.929-.017-.51-.219-.555-.928.121-.811.219-.839-.273-1.052-.175,0-.582.384-.192.02-.116-.236-.086-.521-.049-.147-.138-.278-.341-1.23-.183-.192-.6-.216-.233-.182-.049-.267.09-.672-.067-.282-2.881-2.786-.725-.882-.273-.773.238-.608.769-.038.188-.536-.147-.4-2.1-2.241-.3-.444.085-.027-.009-.372-.116-.55-.269-.554-.743-.719-3.974-1.993-.479-.083-.353.138-.824.568-.461.09-.37-.04,0-.491-.134-2.018.283-2.153.084-.642v-2.115l.246-.735.653-1.028,1.128-1.395.439-.9.327-.484.116-.3-.04-.442-.264-.259-.278-.19-.076-.222.671-.944,3.183-2.068-.085-.145-.3-.343.148-.325.2-.1.376.149-.309-.415-.206-.481-.1-.547.031-.6.421-.371.018-.259-.116-.3,0-.475.206-1.459.063-.045,0-.565.094-.094.013.014-.232-.253-.17-.01-1.334-.4h-2.077l-.756-.207-.734-.469-1.244-1.19-.734-.464-.381-.011-.649.4-.349-.032-.045-.225-.259-.693-.175-.466-.206-.368-.631-.41-1.468-.656-.676-.688-1.423-3.44-.743-1.207-.465.925-.345-.588-.658-1.892-.747-1.142-.188-.546.12-.749-.268-1.407-.282-.554-.47-.272.4-.788.161-.219-.1-.014-.26.024-.076-.049.273-1.9.21-.928.3-.977.394-.464.125-.454-.152-.415-.439-.357.094-.331.144-.758.08-.224.372-.23.864-.07.322-.21.259-.639.027-.762-.242-.77-.577-.643.448-.587.98-.7.425-.657.9-.427,1.862-.525.8-.721-.192-.61.089-.682.287-.652.43-.525.586-.34.483.042.492.192.582.106,1.151-.211.541-.578-.049-.515-.04-.431-1.5-2.623-.058-.8.3-.909.309-1.6.032-1.135-.166-.232-.309-.059-.371-.615-.238-.689-.125-.612.108-.545.483-.475-.788-.045-1.875-.433-.663-.316-.1-.1-.1-.036-.108.036-.094.1-1.463.453-.43-.021-.345-.278-.371-.777-.349-.324.344-.587-.505-.039-.35-.148-.058-.31.341-.524-.721-.912.8-1.254,1.365-1.138.966-.578v-.247l.493-.6.3-.607-.1-.409-2.99-.074-.891-.469-.506-.981.578-.37-2.636-4.04-.833-.834-.721-.067-1.714.474-.573-.067-.17-.573.162-.721-.023-.658-.72-.378-.063-.127-.005-.124.027-.124.072-.127.094-.892-.282-.417-.43-.3-.331-.573-.184-.878.658.166.623-.584L208,335.9l-.094-.631-.04-.592.38-.687.6-.34.976.085.483-.581.264-.706.014-.546-.367-1.412.08-.454.229-.372.085-.277-1.415-.494-1.02-.642-.331-.366-.112-.547-.063-.99.166-.573.264-.579-.09-.359-1.553.189-1.137-.377-.6-.082-.587.167-1.123.558-.591.121-.045-1.734L201.7,321.7l-.247-1.612,1.213-.641.6.338.515.671.577.53.8-.085.532-.587.833-1.754.582-.673,4-3.15,2.467-1.343.644-.857-.909-.852.99-.811.344-.2-.993-.343-2.158,1.487-1.016-.568-.309-1.276.126-1.543.371-1.377.443-.763.914-1.118,2.219-4.109.453-.446,1.1-.77.429-.611.233-.863.134-1.52.251-.61-.654-.783.058-1.279.332-1.477.156-1.376-.21-1.261-.309-2.278-1.745-2.025-2.883-3.979-.188-.855.233-1,.506-1.561-2.932-1.293-.993-1.27.582-1.979-.43-.444-.967-.735-.5-.238-1.257.028-.43-.175.036-.752.256-.255.706-.7.076-1.414-.577-1.355-.985-.758.148-.624.72-.513,1.768-.315.837-.358.9-.668.622-.334,1.764-.476,1.4.377,1.021.262.7.174-.582-.92-1.616-1.7-.537-.41,1.473-.8,1.4.661,1.392,1.133,1.464.6,1.351-.3.359.043.308.3.479.862.2.241,1.661.254.7.411.13,1.092,1.625-.455.179-.7-.354-1.581,2.775.824h.882l.716-.326,2.13-1.641,4.311-1.48,3.833-.123,1.173-.636,1.007-1.207.989-1.8.353-.391.332-.058.219-.214.04-.859-.107-.474-.224-.34-1.119-1.188-2.829-1.589-.949-.282-.689-.489-.089-1.073.3-.734.389-.186.457-.032.519-.262.349-.443.353-.9.229-.4.734-.767.693-.39.248-.028,2.559-.289.546-.5.958-1.961.841-.885,1.857-.817.864-.77,1.016-1.657.466-.546,1.924-1.177.121-.363-.109-.2-.254-.47-.384-1.512.026-1.3.314-1.068.868-2.025.367-2.584-.609-1.824-2.636-4.3-.273.128-.268.477-.4.382-1.083.319-1.137.076-1.222-.2-2.238-.859-3.428-.487-1.142-.56-.855-1-.263-1.06-.063-1.254-.152-1.27-.533-1.117.716-.064,2.4-1.22-1.419-1.206-.3-.459-.014-.593.2-.591.085-.639-.363-.747.749-.545.778-.566,1.45-.452,4.109-.066,2.3.7,2.135-.319.653.276,1.544.485.788-1.527.317-2.516.4-7.721.376-2.4.441-1.241.334-.939,3.553-5.615.94-2.406.4-2.294.067-2.579-.4-5.161L259,174.1l-.211-.377-.165-.458-.031-.864.107-.582.613-1.59.3-1.243.134-1.126-.045-1.16-.125-2.055.427-.235.493-.53.381-.531.387-.775.148-.863-.324-.8,1.093-1.663.588-.3,1-.018.938.248,1.494.953.818.33-1.04-1.54-1.716-.631-9.861-.351-1.6-.8-.634-2.02-.014-5.383.19-1.225.839-2.209.19-1.085.36-.664.849.012,1.744.383.233-.587.412-.223.314-.711-.078-.919-.384-.523-1.265-.64-.564-.582-.091-.959.613-.8,1.4-.977,1.572-1.768.846-.585,1.607-1.68,3.419-1.339,6.66-.756.465.322.462.636,1.026.247,6.385-1.339,12.994-1.825,3.464,1.013v.544l-.282,2.054,1.213,2.649,1.783,2.3,1.452,1.018v.449l-.367.926.67.326.959.276.486.762-.134,1.311-.409.67-.937.709-.783.4-1.7.155-.762.479.79,2.426.4.914.589.634.549-.267.494-.213.726.03.507.278.825.959.31.207.353.307.352.683.454.683.624.311.726-.021.529-.121.465-.284.532-.523.913-1.526.966-2.5.232-2.5-1.254-1.467-1.7.457-.909-.155.085-1.067.37-1.2.31-2.478.366-1.033.578-.615.733-.294,1.808-.089.828.383.642.9.529,1,.528.712,1.748.9,3.7.73,1.674.812v.54l-1.036.9-.952,1.162-.7,1.57-.264,2.114.049,4.081.254,1.8.585,1.335.127-1.8-.458-4.538.035-2.145.662-1.582.994-.705.9-.877.4-2.075-.215-.365-1.11-2.849-.331-.427-.451-.989-.381-1.093-.307-1.391-.613-1.662-.137-1.217.1-1.232.264-1.077,1.621-4.067,1.149-4.419.74-1.959.621-.939.845-.816.959-.577.98-.227.9.066.514.227,1.065,1.214,1.536,1.309,1.639.857,3.387.842,1.857-.054,3.147-.785,1.734.14.811-.959,3.443-.848,3.425.033.74-.535.589.445.712.129,1.469-.072.377.257.952,1.255,4.215,7.487,1.741,2.058,1.216,1,.6.771.592,2.21,2.975,4.4.662.606.8.362,1.032.125.539.264,2.573,1.777,2.918.653,2.383.534.563-.238-.539-.949-1.625-.955-3.883-.451-1.586-.635-3.123-2.031-1.423-1.616-.508-2.331-.127-1.994-.169-1.274-.433-.4-2.034-1.137-.652-.238-1.057-.972-1.011-2.2-.684-2.365-.064-1.466-1.578-.627-2.735-2.375-1.635-1-1.618-.383-5.5-.126-1.646-.765-1.1-.311-.5.323-.455.753-1-.335-1.522-1.166-1.449-1.8-3.58-7.294,1.666-.774.815-.063,1.036.288,1.7,1.149.93.312.948-.453.332-.807.352-1.462.24-1.583-.011-1.141-.5-.758-.8-.718-.593-.755.124-.842v-.46l-1.057-.325-1.512.28-1.41.686-.779.875h-.292l-1.184-2.067-.765-1.661-.123-.361.352-1.482.662-1.278.452-1.169-.307-1.125v-.506l.532-.408,1.833-.531.747-.072.458-.374.669-.924.677-1.177.434-1.118-.991.193-1.631,1.423-.931.413.085-.247.123-.528.088-.239-1.314.157-2.259.7-1.332.16-1.548-.268-.669.268-1.441,1.395-.508.169-1.152-.42-1.234-1.132-.9-1.63-.123-1.931.613-.765,1.184-.541,1.329-.269,1.018.051v-.508l-.779-.184-.6-.569-.571-.181-.687.934-.37-.816.126-.838.4-.778.434-.615.923.415,3.51-.966h4.758l1.1-.3.916-.575,1.83-1.624,1.67-.827.723-.555.292-1.21,0-1.805-1.1-1.712-3.534-3.835-.5-.794-.212-.794-.4-.346-.892.027-.912.259-.487.34-.3-.559,1.484-1.023-1.512-4.068-.56-1.043-1.244-.78-2.34-2.065-1.47-.733V54.34l.243-1.355-.564-1.527-.842-1.5-.581-1.3-.247-1.98.194-1.745.587-2.178,1.52.477,1.6.07,2.949-1.113,1.012-.156,3.459.6,3.4,1.4,9.184,2.178.725.645.2.757.13,1.049.318.894.765.31,3.16.012.649-.121.42-.438.618-.171.475-.427.783-.179.873.827.734.086.64-.218.025-.02.6,0,2.579-1.312.822-1.028,1.057-.422.543-.983.563-.459.141,2.709,2.1.78,2.661.14,1.8.805.758.577,1.124.486,1.025.734.451,1.3.5.7,1.131-.2,1.97-.76-.169-1.562,1.022-.07,1.406.877.994,1.268.592,2.561.275.6.391.567.811.879-.557.43-.571-.073-.536-.247-.4-.11.025.165-1.072.853-.137.006-.279.192-.186-.018-.106.162-.021.688.634.043,1.131-.344,1.132-.064.652.877.465-.4.493-.036.24.456-.31,1.052.218,1.038.028,1.482-.246,3.094-.219,1.325-.3,1.054-.416.86-.546.8-1.4,1.306-1.744.974-1.875.616-1.815.2V74.3l1.872.983,10.452-2.508.811.291,2.618,2.3-.863.867,0,.815.342.911.229,1.2-.25,1-.613.926-.782.665-.748.227.113.167.148.127.021.233-.282.489.465.5.131.623-.169.7-.427.711.952-.354.719-.888,1.018-2.314.575-2.466.313-.624.434-.29,1.635-.176.592-.348.289-.4.222-.415.4-.4.5-.164,1.839.164.952.472,2.622,2.111,6.83,3.047,3.859,3.655,1.78.447,1.984-.366,1.459-.909,2.474-2.319,1.427-.925,1.491-.632,3.615-.472v.5l-.778.039-1.082.012.75.339.751-.248,1.015.711,3.041-1.879,1.357.521-1.607,1.812-.462.725-.257-.214-.659-.294.469,1.216.4,2.955.342,1.4-.321.935.028,1.261.293,2.135-.187,1.266-.416.674-.416.467-.19.642-5.029,3.286-1.737,2.237-.758.493-1.751.607-.339-.012-.366.331-.293-.211-.307-.333-.387-.039-.342.222-.173.195-1.67,2.613-.444.5v.459l.574,1.44.631,1.062.832.692,1.18.378,1.674-.174.43.174.307.764.042.878.166.677.638.189.169.012.5.033.215-.045.553-.435,1.269-1.336.715-.282.825-.173,2.3-1.244,5.265-.7.381.147.3.42.282,1.037.307.515,1.54.426.236.371-.2,1.678.1.767.55.32,1.29.087.359-.087,1.752-1.509.331.224.444,1.042.268.243h1.8l.021.23,1.66,2.1.328.218h.493l.057-.774.437-1.182.334-1.467-.19-1.186.321-.54.419-.329.363-.09-.084-.33-.106-.833-.078-.348,1.481-1.505v-.549h-.3v-.459l1.106.462.374,0,.877-.651.772-1.96.581-.415.349-.123.286-.324.222-.469.19-.546.028-.367-.324-.261v-.379l.138-.379.179-.252.163-.2,1.071-1.945,1.378-.96,1.691-.244,3.616.644,10.322-2.227,1.625-1.048.222,2.12-.162,2.055.092,1.747,1.011,1.19-.419-.9-.215-1.918-.229-.719.451-.864,1.247-.71.37-1-.486-.048-.465.084-.444.189-.4.281L472.39,96l1.469-1.937.878-.8,1.029-1.737.61-.4.567-.166,3.264-1.789,1.642-1.385.641-.755L484.051,84l2.605-3.784.282-.717,1.786-3.117.688-1.955.5-.646.884-.449v.458h-.3l.923,1.495,1.868.77h9.857l1.625.791,1-.573,1.244.309.554.83-1.075,1-1.107.242-4.638-.4-1.85-.7-1.142-.155-.338.152-.462.675-.246.185h-.881L494.7,78.2l-.419.236-.265.993-.268-.551-.229.14-.384.333-.275.078.078.636.18.284.274.094.356.052-.155.039-.12,0-.063.1.014.321L492.6,80.5l-.931.088-.782.526-.388.853-.705-.892-.856-.433-1.568-.148-.705.339-.585.862-.282,1.134.239,1.17-.62-.127-.254-.109-.306-.272-.3.508.285.889-.211.879-.543.644-.715.166.306,1.012.36.794.1.651-.49.586,1.889,1.318,1.054.275.927-.582-.674.027-.51-.254-.889-.784.282-.872.409-.643,1.089-1.063.254-.175.476-.151.179-.139.138-.366.042-.939.092-.3.733-.625,2.812-1.361-.585-.438-.271-.07v-.508l.8-.3.293.027.352.272v-.508l.811.726,1.29-.342L497,80.492l-.1-.249-.117-.563-.084-.254.451-.333.507-.206.532-.072.55.06v.551l-.652.17-.437.59-.253.85-.106.929.542-.944.2-.5.148-.59.387.708.444.657.487.23.479-.575.508.454.465-.022.423-.348.38-.544.12.575.208.535.271.475.74.95.163.136.155-.082.437-.1.831.055.437-.127.487-.436.37-.6.447-1.207.388-.735,1.107-1.1,1.719-1.118,1.72-.645,1.1.327-.55.536-.021.888.328.944.511.727,1.874.974.515.5-.818,1.467.177,1.143,1.233,2,.123.809v.8l.124.628.479.254h1.935v.549l-.406.012-.289.127-.486.319,1.417-.135,2.262,1.294,1.509.362,1.11.609,1.427,2.944,1.174,1.039-.673.478-.511.533,1.082-.009,1.614-.828.853.332-.339.866-.208.344-.342.306.511.313.318-.177.285-.244.391.108.236.374.628,1.693.549,1.091.638.884.8.529,1.019.018v-.505l-.356-.34-.494-.844-.355-.328v-.5l5.346-1.056,1.282-.6,2.214-1.517,1.233-.415.2.385-.077.325-.278.235-.434.114v.457l1.322.686,3.436,2.9v.5l-.624,1.084-.356,1.424-.532,1.3-1.174.729.522.4,1.254,1.613.455.75.254.192,1.226.521.3.216.194.5.134.539.127.341.049.264-.056.336-.014.287.169.126.62-.06.141.06.233.191.264.162.275.108.243.036.539.3.067.7-.268.826-.486.691-3.1,2.566-.451.944.387.9.811.4.8.189.367.268.275.8.634.925.7.627.465-.1,3.186,2.676,1.434.328.7.879.169.164,1.043-.083.317.083,1.089.656.525.217,3.482.26,1.219-.37.515-1.013.328-.226.694.134.62.611.127,1.186-.342.545-2.026,1.456.546.315.634.221.7.1.334-.039,0,.008.054,2.055-.179,1.137.653,1.431.909,2.837.08.72-.116,2.668.031,1.616.313,1.5,1.052,1.633.452,1.519.909,1.537.452,3.763.907,4.229.292,1.363.068.614.026,1.314.135.712.264.46.662.563.17.4.564.524-1.128,2.232-.318.477-.456.246-.43.645-.309.883-.12.962.156,1.174.26,1.022.089,1.045-1.3,4.083-.121.6-.581,1.3-1.33,1.4-2.551,2.041-2.636,1.383-2.095,1.562v.448l.26.722.528,2.549.1.9-.179,1.357-.448.869-1.15,1,.5,1.008.751.593.909.285.962.07.869.385,1.414,1.677,1.181.635,4.6,3.4.671.789,1.481,2.932.452.438.824.386,1.244,1.708,2.592,1.031,2.512,2.834.249.28,1.347,1.113-1.213,2.556-.335,1.654.805.739.2.759-.716,1.668-1.048,1.67-2.242,1.983.242,2.819,1.029,3.1.909,2.061-.26,1.288.971,1.1,1.468.757,1.231.287,1.213.532.671,1.243-.013,1.446-.846,1.121v.439l.627.983-.166,1.009-.465,1.284-.264,1.83.434,1.012,2.815,2.116-.8,1-.331.6-.139.632-.08.645-.184.666-.935,1.7-.233.683-.152,4.291-.367,1.373-.667,1.264-.8,1.072-2.484,2.538-.568,1.215.13,1.484.711,1.091.784.544.6.807.17,1.845.448,1.778.976,1.149,2.1,1.756L586,277.4l.425,1.77.071,1.837-.51,1.4-.841,1.338-.354,1.353.1.5.141.737.958,1,2.829.955.913.654v.007l.989.568,2.032.6.98.47.676.532.8.844.448.957-.367.869.161,1.83.259,2.941v.064l.188,1.243.121.479.8,1.412.981,1.158.631,1.358-.224,2.008.157.214.179.193-.743,1.463L597.215,310l-.353,1.938-.049,1.744-.09.886-.286.46-.336.319-.233.478-.076.679-.009,1.325-.13.791-1.933,4.915-2.184,5.212L590,330.466l-.613,1.015-.005,1.277-.684,1.839-.412.794-.421.485-.7.191-.94-.036-1.607-.361-1.656-1.261-.617-.344-1.5-.425-.211-.514.153-1.227.734-1.727.25-.912-.233-.777-.523-.011-2.395,1-.5-.393.238-.838.519-.987.336-.828.08-1.034-.134-.672-.331-.543-.524-.637-.533-.419-1.168-.3-.537-.377-.407-.564-.148-.413-.094-.414-.25-.584-.376.952-.493.256-1.571-.089-1.213.539-.479-.011-.47-.256-.281-.375-.229-.383-.326-.3-1.612-.529-1.378.219-1.039,1.06-.608,1.981-.484.7.506.334,1.464.192.863.352-.067.138-.367.256-.04.721,1.106,1.1,1.6.472,1.155.671-.26,1.711-1.271,1.082-3.4-.27-1.557.326-.47.465-.792,1.2-.528.5-6.75,3.106-.832.057-1.585-.205-.846.184-.465.333-.663.849-.443.333-.546.082-.42-.128-.367.014-.4.492-.183.665.054.581.1.481-.023.36-.295.425-.251.088-.264.007-1.253.785-.779.159-1.987-.223-.936.1-1.647.611-.834.166-3.89-.021-1.965.371-1.772,1.074.5,1.049-.17.922-.577.748-.721.547.251.547-.04.413-.26.321-.43.243-.752.942-.734.67-.8.2-.967-.476-.286-.36-.609-1.026-.233-.265-.528-.194-.121.085-.027.247-.259.282-1.625,1.157-.242.434-.461,1.381-.908.465-.721-.32-.7-.494-.842-.077-1.441,3.864-.622,1.129-1.066.8-2.282-.134-1.222.423-.009.007h0l-.394.109-.407.031-.4-.035-.381-.112-.335-.254-.358-.077-.363.088-.358.25-.282,2.774-.282,1.24-.613.727-.945.934-.349.345-1.481-.085-4.01-2.448-.363-.109-.389.081-.609.4-.268.105-.775-.108-.694.042-.707.256-.555.552-.958,1.489-.483.467-.564.063-2.314-.422-3.24.243-1.746.516-1.2,1.031-.323.281-.152.337-.089.344-.117.3.009.14.059.228.026.267-.094.249-.174.094-.389-.014-.157.091-.515.463-1.271.715-.465.463-1.343,2.449-.492.518-.484.34-.353.528-.117,1.075-.855,1.1-.232.637-.135,1.2.13.839.251.723v.6l-.6.44-.739-.094-.438-.685-.52-1.863-.044-.349-.077-.4-.179-.44-.187-.256-.757-.766-.112-.157-.045-.15.041-.137.116-.129.054-.049.058-.039.058-.021.067-.01.193-.382.022-.311-.143-.245-.309-.172-1.244-.031-.631-.2-.484-.427-.17-.529.014-1.163-.255-.627-.833-.592-2.077-.154-1.092-.081,1,1.044.35.6.161.966-.081.869-.291.315-.447.294-.542.819.448.8,2.139,1.34,1.061,1.168.488.755.331.8.125,1.017-.3,1.536.027,1.013.376,1.022.613.562.693.4.627.544.385.666.089.69.009.614.139.428,6.553,3.518h.044l.663.654,1.593.167.73.7.112.985-.3.908-.049.73,1.772,1.042.617.24.269.487-.134,1.306-.349,1.028-1,1.85-.318,1.037-.868-.267-.265.947-.022,1.408-.139,1.1-.689.7-1.79.763-.511,1.007.215.707.448.858.895,1.291.622.564.663.453,1.441.692.6.315.359.708.031.889-.367.819.112.09.344.169-.205.525-.032.162.443.539,1.034.57.457.5.3.725.2,1.48.175.783.277.8.274.6.34.5.47.493.488.148.456-.065.322.262.059,1.123.125,2.187.215,1.081.492.964.846.705,2,.942.873.9,1.419,3.185.684.711.86.313,2.551.374.81-.11-.193-.855.6-.189,1.656.457.734.395.626.508,1.218,1.294.752.312.241.542.059.642.2.617,1.384,1.649.008.011.538.305,4.054,5.524.569,1.3.689,1.111,1.227.718,2.618.123.868.336.528.457,1.316,1.767,1.84,1.878.483,1.15.027,1.852.622,1.013,1.244,1.17,1.37.985,1.011.487.448-1.149.412-.726.6-.276.28.06.714.152.761.467.734.589.738.409.788-.088.108,1.246.461,1.2.675,1.028.739.739.819.388,1.613.255.609.34,1.007,1.575,2.09,4.18Zm17.077-359.135-.736,1.983-.358.247-.412.122.757.934.349,1.147-4.911.567-.966-.143-.726-.514-1.008,1.142-1.265.74-2.485.667-2.738.044-1.522-.457-.793-1.09.56-.209.9-.691,1.4-.305,1.5-.87.4-.436.318-2.124-1.607-3.06.112-1.888,2.182.135.772.32-.3.546.1.41-.345,1.438-.057,1.168.677-1.213.557-.3,1.748,0-.226.176-.176.192-.116.27-.067.413,1.473.458-.349-.955.554-1.81-.078-1.963-.6-1.226-1,.42-.352-1.2-.473-.99-.588-.784-.687-.549-.857-.207-.863.189-.444.564.387.922v.549l-.37.207-.391.453-.317.573-.127.549-.264.156-1.512.575.092-.989.324-.612.345-.435.12-.477-.226-.9-.324-.1-.373.271-1.385.621-.638.855-.61.6-.87-.342.345-1.428,1.177-2.432.247-1.932-.381-1.136-1.769-1.867-.536-.831.4-.836.666-.708.8-.316.814.344.38.716.881,2.416.515.956,1.149,1.175,2.854,1.674,1.636.63,1.318.829,7.612,8.392.74.551ZM242.4,138.521l-.972.142-1.505.659-.8.2v.449l.483.19.373.267.317.433.3.694-.388-.225-.561-.671-.37-.142-.436.077-.642.338-.264.083-.779-.388-.6-.855-.165-.858.5-.389,3.3-1.016,1.618-.125Zm3.278-4.99,1.6-.8,5.9-.767,1.663.523Zm11.231-2.583,1.984-1.171,2.337-.393,4.906.108.021.348-.071.083-.119,0-2.016.813-5.29.7Zm10.108-1.456.715-.5.885-.137.828.185.56.456-.137.285-.145.117-.338.1-1.734-.539Zm32.634.5.542-.944.853-.376.973.158.916.662h-.62l-.43.175-.691.673-.211.152-.374-.1-.239-.17-.261-.036-.458.3Zm-26.1-3,3.862-.036.871.536.021.319-.064.072-.105,0-.117.065-3.157-.1-1.463.361-.116,1.284-1.269.062-.388-.348-.148-.987.219-.84.536-.337Zm6.213,0,1.1-1.384,1.819-.408,3.661.25v.5h-.616l-.969.614-1.213.516-1.244.075-1.061-.7-.394.567-.381.292-.367-.006Zm9.219-1.044-.835-.6.19-.465.772-.29.906-.1.711.068.645.206,1.153.707-.413-.08-.465.062-1.822-.426-.779.041Zm151.649-15.1.638-1.676,1.568-1.352,1.794-.591,1.293.6-1.283,3.837-.458.686-.535.018-.036-.512.3-1.286-.19-.854-.36-.009-.236.626.194,1.013-.634.537-.695-.037-.7-.422Zm6.618-6.876,0-.174.232-.547,2.943-1.424.606-.589-.733,1.04-2,1.844-.571,1.189h-.244ZM336.163,70.688l-.2.092-.1.224-.022.334.046.413-.8.771-.55.919-.627.84-1.012.525-1.882.145-.891-.324-.479-.84.472-.255.077-.422-.2-.452-.352-.349,1.37-1.326,1.523-.7,1.713-.1Zm99.276,3.354,2.537,4.833-5.445-.921-.793.455.194.3.19.133-1.74.115-1.135-.191-.49-.615.084-1.514-.2-.582-.621-.234-1.134-.036-.466.149-.324.442h-.32l-.145-.545-.148-.31-.233-.012-.514.322-.12-1.028,1.212-3.012,1.7-1.667,2.093-.356,3.694,1.6,1.106.956.342.455Zm81.75-8.915L516.128,66l-.25,1.222-.042,1.447-.416,1.549-.317.416-.613.537-.261.577-.155.728-.081.747-.06,1.58h-.3V73.787l.123-1.714,1.357-4.9.292-1.892.318-.523.708-.188.6-.031.487.082.267.438-.007.831-.024-.083-.124-.155-.172-.018v1.022h-.272Zm24.028,15.365,1.153,2.117.739.974L544.17,84l-.578.417-.563.705-.43.963-.17,1.212v1.177l-.134.465-.451-.045-.944-.335h.507l.4-.227.176-.5-.176-.791h-.3l-.444.483-.666.254-.7.009-.528-.245v-.5l1.607-.695.666-.531.359-.847-2.252.155-1,.317-.857.586,2.39-1.686L540.9,84v-.508l-1.163-.111-.606.06-.423.3-.585.687-.367-.17-.334-.489-.49-.282L532.618,84l-.775.493-2.291,2.031-.483.773-.5,1.135-1.06.223-.952.5-.169,1.982.592-.506.01-.377-.091-.1-.12-.006-.07-.073,2.068-.362.3.136.317,1.692-.088.778-.683.335-1.237-.2-1.371-.489-1.537-1.013.345-.392.233-.875.448-1.134-.635.38-.285.3-.264.386.172.205.124.253L523.741,90l-.455.094-.317.265-.388.205-.43-.292-.4-.432-.275-.217-.634-.121-.765-.371-.472-.637.243-.948-.631-.19L517.894,88l-.433.051-.3-.573.265-.5.578-.217.659.278v-.465L515.98,84.5l.6-1.6.853-1.316,1.1-.5,1.322.871.3-.508.5.49.6-.109,1.286-.886-.68-.076-.514-.5-.212-.727.2-.775v-.466l-.592-.058-.321-.36-.274-.4L519.7,77.4l-1.924.509.75-1.551.325-.4,1.17-.291,1.307-.694.888-.164V74.3l.053-.015.264-.148.272-.346-1.2-.464-.525-.352-.342-.662.148-.176.137-.127.074-.24-.038-.525-1.276.507-.775.088-.342-.34-.1-.237-.2-.057-.2-.173-.1-.574-.053-.647-.162-.389-.282-.17-.388,0,.994-.483,3.316-.492.719.164.233.447.5.2.507.383.233.981.183.531.331-.279.163-.851-.356-1.16.623-.866.79-.83.817-.626.73-.277-.483,1.523-.324.657-.377.419.275-.009.236.046.208.173.194.346-.219.355-.4,1.081.623.04.5-.182.388-.471.26-.823-.366-.109-.412-.338-.377-.109v-.51l.588-.556.483,1,.765.972.511,1.021-.279,1.129L529.63,73l1.078.391,2.231-.057-.321-.558.416-.987.211-.309.286-.234v-.553l-.338-1.035-.237-.532-.338-.425v-.51l.254-.189.141-.158.176-.127.342-.082v-.459l-.539.03-.349.322-.275.4-.317.265-.469.082-1.487-.082-.233-.237-.232-.529-.3-.529-.412-.237-.652-.14L528,66.143l-.148-.486-.289-.53-.5-.745-.095-.3-.581.487-.339.358-.7.971-1.015.617-.737.806-.782.586-.867-.276-.152-.885.307-1.377.564-1.263.61-.56.13-.316.187-.707.095-.7-.127-.319-1.935.505-.634.445-.279-.083.025-.867.243-.506.458-.5.522-.377,5.942-1.734,1.209-.019,1.141.625v.463l-.666.537-.895.518-.786.694-.342,1.06.131,1.327.37,1.062.571.824.729.617,1.808.618,5.614-1.083,1.928.426,1.307,1.453.286,1.923-1.131,1.807-1.921,1.29-.952.928-.405,1.092.159,1.252.38,1.3.487,1.109.451.66.888.466,2.051.5ZM308.847,57.968l2.164,4.092.824.462-.592.512-1.473.535-1.015-.931-.818-1.492-.859-1.176,1.254-2.371.776-.857.951-.351.014.36-.067.082-.123-.018-.12.088-.479.495Zm7.154-4.7,2.41.146.984.6.771,1.343v.513l-.359.6-.493,1.439-.36.512-.592.192-.733-.088-.663-.256-.373-.314-1.128.43-1.4-.433-2.523-1.574.853-1.571.976-.953,1.184-.473Zm-5.942-14.426-.254,2.671,1.466,1.4,2.087.524,9.437-.478-1.085.864-5.413-.3-.677.368-1.194.94-.656.19h-2.985l-.282-.147-.374-.655-.366-.181-.416.018-.282.114-1.311.918-.222.209-.116.551-.063,1.481-.127.306.148,4.1-.113,1.338-.219,1.035-.271.22-.285-1.053-.036-1.979.5-8.161.408-1.6,3.278-9.238L312.459,30l2.062,1.108-2.643.144-.339.372,1.2.126.356.92-.384,1.039-1.762.995-.818,1.229-.451,1.514Zm11.873,30.427,2.788-1.191.088.809-.349,1.828-1,1.594-1.234.709L321.252,73l-.55-.491-.444-1.078.268-1.2.782-.607.317-.152ZM290.3,96.195l-.215.165-.063-.307-.18-.057-.137-.331-.194-.229-.261-.241.635-.054.264.295Zm.356-.88.758-.223.155.4-.683.214Z" transform="translate(-201.455 -30)" fill="#fff" opacity="0.2"/>
</svg>
