<svg xmlns="http://www.w3.org/2000/svg" width="680" height="777" viewBox="0 0 680 777">
  <g id="Group_572" data-name="Group 572" transform="translate(-836 -6262)">
    <g id="Rectangle_269" data-name="Rectangle 269" transform="translate(836 6584)" fill="#f7f7f7" stroke="#95a5a5" stroke-width="1">
      <rect width="190" height="81" rx="5" stroke="none"/>
      <rect x="0.5" y="0.5" width="189" height="80" rx="4.5" fill="none"/>
    </g>
    <g id="Rectangle_270" data-name="Rectangle 270" transform="translate(1031 6699)" fill="#f7f7f7" stroke="#95a5a5" stroke-width="1">
      <rect width="289" height="67" rx="5" stroke="none"/>
      <rect x="0.5" y="0.5" width="288" height="66" rx="4.5" fill="none"/>
    </g>
    <g id="Rectangle_271" data-name="Rectangle 271" transform="translate(1326 6584)" fill="#f7f7f7" stroke="#95a5a5" stroke-width="1">
      <rect width="190" height="81" rx="5" stroke="none"/>
      <rect x="0.5" y="0.5" width="189" height="80" rx="4.5" fill="none"/>
    </g>
    <g id="Ellipse_178" data-name="Ellipse 178" transform="translate(1077 6262)" fill="#e5e9e9" stroke="#95a5a5" stroke-width="1">
      <circle cx="99" cy="99" r="99" stroke="none"/>
      <circle cx="99" cy="99" r="98.5" fill="none"/>
    </g>
    <text id="IT_Security_Consulting" data-name="IT Security
Consulting" transform="translate(1176 6359)" font-size="20" font-family="Matter-Medium, Matter" font-weight="500" letter-spacing="-0.03em"><tspan x="-46.05" y="0">IT Security</tspan><tspan x="-47.13" y="20">Consulting</tspan></text>
    <text id="Identify_potential_security_risks" data-name="Identify potential 
security risks" transform="translate(926 6621)" font-size="18" font-family="Matter-Medium, Matter" font-weight="500" letter-spacing="-0.03em"><tspan x="-67.716" y="0">Identify potential </tspan><tspan x="-50.76" y="22">security risks</tspan></text>
    <text id="Protect_your_assets_data" data-name="Protect your assets &amp; data" transform="translate(1175 6740)" font-size="18" font-family="Matter-Medium, Matter" font-weight="500" letter-spacing="-0.03em"><tspan x="-101.556" y="0">Protect your assets &amp; data</tspan></text>
    <text id="Continuous_Monitoring" data-name="Continuous
Monitoring" transform="translate(1426 6621)" font-size="18" font-family="Matter-Medium, Matter" font-weight="500" letter-spacing="-0.03em"><tspan x="-45.342" y="0">Continuous</tspan><tspan x="-42.975" y="22">Monitoring</tspan></text>
    <line id="Line_415" data-name="Line 415" y2="40" transform="translate(1176 6544.5)" fill="none" stroke="#95a5a5" stroke-width="1"/>
    <line id="Line_422" data-name="Line 422" y2="23" transform="translate(1176 6460.5)" fill="none" stroke="#95a5a5" stroke-width="1"/>
    <line id="Line_416" data-name="Line 416" y2="44" transform="translate(1176 6764.5)" fill="none" stroke="#95a5a5" stroke-width="1"/>
    <line id="Line_417" data-name="Line 417" y2="34" transform="translate(1176 6664.5)" fill="none" stroke="#95a5a5" stroke-width="1"/>
    <line id="Line_418" data-name="Line 418" x1="55.5" transform="translate(1271 6624.5)" fill="none" stroke="#95a5a5" stroke-width="1"/>
    <line id="Line_419" data-name="Line 419" x1="272.5" transform="translate(1026 6624.5)" fill="none" stroke="#95a5a5" stroke-width="1"/>
    <g id="Ellipse_179" data-name="Ellipse 179" transform="translate(1022 6621)" fill="#fff" stroke="#95a5a5" stroke-width="1">
      <circle cx="3.5" cy="3.5" r="3.5" stroke="none"/>
      <circle cx="3.5" cy="3.5" r="3" fill="none"/>
    </g>
    <g id="Ellipse_181" data-name="Ellipse 181" transform="translate(1323 6621)" fill="#fff" stroke="#95a5a5" stroke-width="1">
      <circle cx="3.5" cy="3.5" r="3.5" stroke="none"/>
      <circle cx="3.5" cy="3.5" r="3" fill="none"/>
    </g>
    <g id="Rectangle_272" data-name="Rectangle 272" transform="translate(1081 6584)" fill="#f7f7f7" stroke="#95a5a5" stroke-width="1">
      <rect width="190" height="81" rx="5" stroke="none"/>
      <rect x="0.5" y="0.5" width="189" height="80" rx="4.5" fill="none"/>
    </g>
    <text id="Initial_vulnerability_scan_with_reports" data-name="Initial vulnerability 
scan with reports" transform="translate(1177 6621)" font-size="18" font-family="Matter-Medium, Matter" font-weight="500" letter-spacing="-0.03em"><tspan x="-71.253" y="0">Initial vulnerability </tspan><tspan x="-67.734" y="22">scan with reports</tspan></text>
    <g id="Ellipse_183" data-name="Ellipse 183" transform="translate(1172.5 6581)" fill="#fff" stroke="#95a5a5" stroke-width="1">
      <circle cx="3.5" cy="3.5" r="3.5" stroke="none"/>
      <circle cx="3.5" cy="3.5" r="3" fill="none"/>
    </g>
    <g id="Ellipse_196" data-name="Ellipse 196" transform="translate(1172.5 6456)" fill="#fff" stroke="#95a5a5" stroke-width="1">
      <circle cx="3.5" cy="3.5" r="3.5" stroke="none"/>
      <circle cx="3.5" cy="3.5" r="3" fill="none"/>
    </g>
    <g id="Ellipse_184" data-name="Ellipse 184" transform="translate(1172.5 6696)" fill="#fff" stroke="#95a5a5" stroke-width="1">
      <circle cx="3.5" cy="3.5" r="3.5" stroke="none"/>
      <circle cx="3.5" cy="3.5" r="3" fill="none"/>
    </g>
    <g id="Ellipse_185" data-name="Ellipse 185" transform="translate(1172.5 6762)" fill="#fff" stroke="#95a5a5" stroke-width="1">
      <circle cx="3.5" cy="3.5" r="3.5" stroke="none"/>
      <circle cx="3.5" cy="3.5" r="3" fill="none"/>
    </g>
    <g id="Ellipse_186" data-name="Ellipse 186" transform="translate(1172.5 6661)" fill="#fff" stroke="#95a5a5" stroke-width="1">
      <circle cx="3.5" cy="3.5" r="3.5" stroke="none"/>
      <circle cx="3.5" cy="3.5" r="3" fill="none"/>
    </g>
    <g id="Ellipse_187" data-name="Ellipse 187" transform="translate(1078 6621)" fill="#fff" stroke="#95a5a5" stroke-width="1">
      <circle cx="3.5" cy="3.5" r="3.5" stroke="none"/>
      <circle cx="3.5" cy="3.5" r="3" fill="none"/>
    </g>
    <g id="Ellipse_188" data-name="Ellipse 188" transform="translate(1267 6621)" fill="#fff" stroke="#95a5a5" stroke-width="1">
      <circle cx="3.5" cy="3.5" r="3.5" stroke="none"/>
      <circle cx="3.5" cy="3.5" r="3" fill="none"/>
    </g>
    <g id="Rectangle_273" data-name="Rectangle 273" transform="translate(1030.5 6798)" fill="#eef0f0" stroke="#95a5a5" stroke-width="1">
      <rect width="289" height="67" rx="5" stroke="none"/>
      <rect x="0.5" y="0.5" width="288" height="66" rx="4.5" fill="none"/>
    </g>
    <g id="Rectangle_274" data-name="Rectangle 274" transform="translate(1030.5 6887)" fill="#eef0f0" stroke="#95a5a5" stroke-width="1">
      <rect width="289" height="67" rx="5" stroke="none"/>
      <rect x="0.5" y="0.5" width="288" height="66" rx="4.5" fill="none"/>
    </g>
    <g id="Rectangle_275" data-name="Rectangle 275" transform="translate(1030.5 6972)" fill="#eef0f0" stroke="#95a5a5" stroke-width="1">
      <rect width="289" height="67" rx="5" stroke="none"/>
      <rect x="0.5" y="0.5" width="288" height="66" rx="4.5" fill="none"/>
    </g>
    <text id="Enhance_business_protection" data-name="Enhance business protection" transform="translate(1048.5 6823)" font-size="14" font-family="Matter-Regular, Matter"><tspan x="35.153" y="14">Enhance business protection</tspan></text>
    <text id="Enhance_operational_BAU" data-name="Enhance operational BAU" transform="translate(1048.5 6912)" font-size="14" font-family="Matter-Regular, Matter"><tspan x="46.507" y="14">Enhance operational BAU</tspan></text>
    <text id="Eliminate_expensive_investment" data-name="Eliminate expensive investment" transform="translate(1048.5 6997)" font-size="14" font-family="Matter-Regular, Matter"><tspan x="28.3" y="14">Eliminate expensive investment</tspan></text>
    <line id="Line_420" data-name="Line 420" y2="22" transform="translate(1175.5 6863.5)" fill="none" stroke="#95a5a5" stroke-width="1"/>
    <line id="Line_421" data-name="Line 421" y2="22" transform="translate(1175.5 6953.5)" fill="none" stroke="#95a5a5" stroke-width="1"/>
    <g id="Ellipse_189" data-name="Ellipse 189" transform="translate(1179 6868) rotate(180)" fill="#fff" stroke="#95a5a5" stroke-width="1">
      <circle cx="3.5" cy="3.5" r="3.5" stroke="none"/>
      <circle cx="3.5" cy="3.5" r="3" fill="none"/>
    </g>
    <g id="Ellipse_190" data-name="Ellipse 190" transform="translate(1179 6957) rotate(180)" fill="#fff" stroke="#95a5a5" stroke-width="1">
      <circle cx="3.5" cy="3.5" r="3.5" stroke="none"/>
      <circle cx="3.5" cy="3.5" r="3" fill="none"/>
    </g>
    <circle id="Ellipse_191" data-name="Ellipse 191" cx="13.5" cy="13.5" r="13.5" transform="translate(1162.5 6785)" fill="#95a5a5" opacity="0.18"/>
    <circle id="Ellipse_192" data-name="Ellipse 192" cx="13.5" cy="13.5" r="13.5" transform="translate(1162.5 6874)" fill="#95a5a5" opacity="0.18"/>
    <circle id="Ellipse_193" data-name="Ellipse 193" cx="13.5" cy="13.5" r="13.5" transform="translate(1162.5 6959)" fill="#95a5a5" opacity="0.18"/>
    <g id="Group_572-2" data-name="Group 572" transform="translate(775.5 -1223)">
      <g id="Ellipse_64" data-name="Ellipse 64" transform="translate(391 8012)" fill="#fff" stroke="#95a5a5" stroke-width="1">
        <circle cx="9.5" cy="9.5" r="9.5" stroke="none"/>
        <circle cx="9.5" cy="9.5" r="9" fill="none"/>
      </g>
      <path id="Path_495" data-name="Path 495" d="M2509.962,3508.709l2.047,2.047,5.029-5.029" transform="translate(-2112.731 4513.29)" fill="none" stroke="#182b39" stroke-width="1"/>
    </g>
    <g id="Group_573" data-name="Group 573" transform="translate(775.5 -1134)">
      <g id="Ellipse_64-2" data-name="Ellipse 64" transform="translate(391 8012)" fill="#fff" stroke="#95a5a5" stroke-width="1">
        <circle cx="9.5" cy="9.5" r="9.5" stroke="none"/>
        <circle cx="9.5" cy="9.5" r="9" fill="none"/>
      </g>
      <path id="Path_495-2" data-name="Path 495" d="M2509.962,3508.709l2.047,2.047,5.029-5.029" transform="translate(-2112.731 4513.29)" fill="none" stroke="#182b39" stroke-width="1"/>
    </g>
    <g id="Group_574" data-name="Group 574" transform="translate(775.5 -1049)">
      <g id="Ellipse_64-3" data-name="Ellipse 64" transform="translate(391 8012)" fill="#fff" stroke="#95a5a5" stroke-width="1">
        <circle cx="9.5" cy="9.5" r="9.5" stroke="none"/>
        <circle cx="9.5" cy="9.5" r="9" fill="none"/>
      </g>
      <path id="Path_495-3" data-name="Path 495" d="M2509.962,3508.709l2.047,2.047,5.029-5.029" transform="translate(-2112.731 4513.29)" fill="none" stroke="#182b39" stroke-width="1"/>
    </g>
    <circle id="Ellipse_194" data-name="Ellipse 194" cx="41.5" cy="41.5" r="41.5" transform="translate(1135 6471)" fill="#95a5a5" opacity="0.18"/>
    <g id="Ellipse_195" data-name="Ellipse 195" transform="translate(1144.578 6480.875)" fill="#fff" stroke="#95a5a5" stroke-width="1">
      <circle cx="31.866" cy="31.866" r="31.866" stroke="none"/>
      <circle cx="31.866" cy="31.866" r="31.366" fill="none"/>
    </g>
    <g id="Group_575" data-name="Group 575" transform="translate(323.625 6179.671)">
      <path id="Path_517" data-name="Path 517" d="M840.375,327.329v13c0,2.221.205,3.158,2,4.195l0,0,9,4.8h2l9-4.8,0,0c1.793-1.037,2-2.974,2-5.195v-12" fill="none" stroke="#182b38" stroke-miterlimit="10" stroke-width="2"/>
      <path id="Path_518" data-name="Path 518" d="M865.375,323.329h-7a6,6,0,0,1-6-6,6,6,0,0,1-6,6h-7" fill="none" stroke="#182b38" stroke-miterlimit="10" stroke-width="2"/>
      <g id="Group_437" data-name="Group 437">
        <g id="Group_435" data-name="Group 435">
          <rect id="Rectangle_177" data-name="Rectangle 177" width="1.879" height="7.299" transform="translate(844.94 335.749) rotate(-45)" fill="#182b39"/>
        </g>
        <g id="Group_436" data-name="Group 436">
          <rect id="Rectangle_178" data-name="Rectangle 178" width="9.978" height="1.879" transform="translate(851.426 336.931) rotate(-45)" fill="#182b39"/>
        </g>
      </g>
    </g>
  </g>
</svg>
