<svg xmlns="http://www.w3.org/2000/svg" id="server_1_" width="30.072" height="30.072" viewBox="0 0 30.072 30.072">
    <defs>
        <style>
            .cls-1{fill:#182b39}
        </style>
    </defs>
    <g id="Group_286">
        <g id="Group_285">
            <path id="Path_488" d="M28.569 9.022a1.5 1.5 0 0 0 1.5-1.5V1.5a1.5 1.5 0 0 0-1.5-1.5H1.5A1.5 1.5 0 0 0 0 1.5v6.018a1.5 1.5 0 0 0 1.5 1.5H3v1.5H1.5a1.5 1.5 0 0 0-1.5 1.5v6.014a1.5 1.5 0 0 0 1.5 1.5H3v1.5H1.5a1.5 1.5 0 0 0-1.5 1.5v6.014a1.5 1.5 0 0 0 1.5 1.5h27.069a1.5 1.5 0 0 0 1.5-1.5v-5.992a1.5 1.5 0 0 0-1.5-1.5h-1.5v-1.5h1.5a1.5 1.5 0 0 0 1.5-1.5v-6.025a1.5 1.5 0 0 0-1.5-1.5h-1.5v-1.5zm0 13.031a.5.5 0 0 1 .5.5v6.014a.5.5 0 0 1-.5.5H1.5a.5.5 0 0 1-.5-.5v-6.013a.5.5 0 0 1 .5-.5zm-24.559-1v-1.5h1v1.5zm2 0v-1.5h18.048v1.5zm19.046 0v-1.5h1v1.5zm3.508-9.523a.5.5 0 0 1 .5.5v6.014a.5.5 0 0 1-.5.5H1.5a.5.5 0 0 1-.5-.5v-6.015a.5.5 0 0 1 .5-.5zm-24.559-1v-1.5h1v1.5zm2 0v-1.5h18.053v1.5zm19.046 0v-1.5h1v1.5zM1.5 8.019a.5.5 0 0 1-.5-.5V1.5a.5.5 0 0 1 .5-.5h27.069a.5.5 0 0 1 .5.5v6.018a.5.5 0 0 1-.5.5z" class="cls-1"/>
        </g>
    </g>
    <g id="Group_288" transform="translate(3.001 3.007)">
        <g id="Group_287">
            <path id="Path_489" d="M60.932 49H50.816a1.5 1.5 0 1 0 0 1h10.116a.5.5 0 0 0 0-1zM49.4 50a.5.5 0 1 1 .5-.5.5.5 0 0 1-.5.5z" class="cls-1" transform="translate(-47.894 -47.994)"/>
        </g>
    </g>
    <g id="Group_290" transform="translate(22.227 1.961)">
        <g id="Group_289">
            <path id="Rectangle_121" d="M0 0H1V1H0z" class="cls-1" transform="translate(-.155 .111)"/>
        </g>
    </g>
    <g id="Group_292" transform="translate(24.189 1.961)">
        <g id="Group_291">
            <path id="Rectangle_122" d="M0 0H1V1H0z" class="cls-1" transform="translate(-.116 .111)"/>
        </g>
    </g>
    <g id="Group_294" transform="translate(26.149 1.961)">
        <g id="Group_293">
            <path id="Rectangle_123" d="M0 0H1V1H0z" class="cls-1" transform="translate(-.077 .111)"/>
        </g>
    </g>
    <g id="Group_296" transform="translate(20.266 1.961)">
        <g id="Group_295">
            <path id="Rectangle_124" d="M0 0H1V1H0z" class="cls-1" transform="translate(-.193 .111)"/>
        </g>
    </g>
    <g id="Group_298" transform="translate(18.305 1.961)">
        <g id="Group_297">
            <path id="Rectangle_125" d="M0 0H1V1H0z" class="cls-1" transform="translate(-.232 .111)"/>
        </g>
    </g>
    <g id="Group_300" transform="translate(22.227 3.923)">
        <g id="Group_299">
            <path id="Rectangle_126" d="M0 0H1V1H0z" class="cls-1" transform="translate(-.155 .149)"/>
        </g>
    </g>
    <g id="Group_302" transform="translate(24.189 3.923)">
        <g id="Group_301">
            <path id="Rectangle_127" d="M0 0H1V1H0z" class="cls-1" transform="translate(-.116 .149)"/>
        </g>
    </g>
    <g id="Group_304" transform="translate(26.149 3.923)">
        <g id="Group_303">
            <path id="Rectangle_128" d="M0 0H1V1H0z" class="cls-1" transform="translate(-.077 .149)"/>
        </g>
    </g>
    <g id="Group_306" transform="translate(20.266 3.923)">
        <g id="Group_305">
            <path id="Rectangle_129" d="M0 0H1V1H0z" class="cls-1" transform="translate(-.193 .149)"/>
        </g>
    </g>
    <g id="Group_308" transform="translate(18.305 3.923)">
        <g id="Group_307">
            <path id="Rectangle_130" d="M0 0H1V1H0z" class="cls-1" transform="translate(-.232 .149)"/>
        </g>
    </g>
    <g id="Group_310" transform="translate(22.227 5.884)">
        <g id="Group_309">
            <path id="Rectangle_131" d="M0 0H1V1H0z" class="cls-1" transform="translate(-.155 .188)"/>
        </g>
    </g>
    <g id="Group_312" transform="translate(24.189 5.884)">
        <g id="Group_311">
            <path id="Rectangle_132" d="M0 0H1V1H0z" class="cls-1" transform="translate(-.116 .188)"/>
        </g>
    </g>
    <g id="Group_314" transform="translate(26.149 5.884)">
        <g id="Group_313">
            <path id="Rectangle_133" d="M0 0H1V1H0z" class="cls-1" transform="translate(-.077 .188)"/>
        </g>
    </g>
    <g id="Group_316" transform="translate(20.266 5.884)">
        <g id="Group_315">
            <path id="Rectangle_134" d="M0 0H1V1H0z" class="cls-1" transform="translate(-.193 .188)"/>
        </g>
    </g>
    <g id="Group_318" transform="translate(18.305 5.884)">
        <g id="Group_317">
            <path id="Rectangle_135" d="M0 0H1V1H0z" class="cls-1" transform="translate(-.232 .188)"/>
        </g>
    </g>
    <g id="Group_320" transform="translate(3.001 13.532)">
        <g id="Group_319">
            <path id="Path_490" d="M60.932 217H50.816a1.5 1.5 0 1 0 0 1h10.116a.5.5 0 0 0 0-1zM49.4 218a.5.5 0 1 1 .5-.5.5.5 0 0 1-.5.5z" class="cls-1" transform="translate(-47.894 -215.994)"/>
        </g>
    </g>
    <g id="Group_322" transform="translate(22.227 12.421)">
        <g id="Group_321">
            <path id="Rectangle_136" d="M0 0H1V2H0z" class="cls-1" transform="translate(-.155 -.349)"/>
        </g>
    </g>
    <g id="Group_324" transform="translate(24.189 12.421)">
        <g id="Group_323">
            <path id="Rectangle_137" d="M0 0H1V2H0z" class="cls-1" transform="translate(-.116 -.349)"/>
        </g>
    </g>
    <g id="Group_326" transform="translate(26.149 12.421)">
        <g id="Group_325">
            <path id="Rectangle_138" d="M0 0H1V2H0z" class="cls-1" transform="translate(-.077 -.349)"/>
        </g>
    </g>
    <g id="Group_328" transform="translate(20.266 12.421)">
        <g id="Group_327">
            <path id="Rectangle_139" d="M0 0H1V2H0z" class="cls-1" transform="translate(-.193 -.349)"/>
        </g>
    </g>
    <g id="Group_330" transform="translate(18.305 12.421)">
        <g id="Group_329">
            <path id="Rectangle_140" d="M0 0H1V2H0z" class="cls-1" transform="translate(-.232 -.349)"/>
        </g>
    </g>
    <g id="Group_332" transform="translate(22.227 14.382)">
        <g id="Group_331">
            <path id="Rectangle_141" d="M0 0H1V2H0z" class="cls-1" transform="translate(-.155 -.311)"/>
        </g>
    </g>
    <g id="Group_334" transform="translate(24.189 14.382)">
        <g id="Group_333">
            <path id="Rectangle_142" d="M0 0H1V2H0z" class="cls-1" transform="translate(-.116 -.311)"/>
        </g>
    </g>
    <g id="Group_336" transform="translate(26.149 14.382)">
        <g id="Group_335">
            <path id="Rectangle_143" d="M0 0H1V2H0z" class="cls-1" transform="translate(-.077 -.311)"/>
        </g>
    </g>
    <g id="Group_338" transform="translate(20.266 14.382)">
        <g id="Group_337">
            <path id="Rectangle_144" d="M0 0H1V2H0z" class="cls-1" transform="translate(-.193 -.311)"/>
        </g>
    </g>
    <g id="Group_340" transform="translate(18.305 14.382)">
        <g id="Group_339">
            <path id="Rectangle_145" d="M0 0H1V2H0z" class="cls-1" transform="translate(-.232 -.311)"/>
        </g>
    </g>
    <g id="Group_342" transform="translate(22.227 16.344)">
        <g id="Group_341">
            <path id="Rectangle_146" d="M0 0H1V2H0z" class="cls-1" transform="translate(-.155 -.271)"/>
        </g>
    </g>
    <g id="Group_344" transform="translate(24.189 16.344)">
        <g id="Group_343">
            <path id="Rectangle_147" d="M0 0H1V2H0z" class="cls-1" transform="translate(-.116 -.271)"/>
        </g>
    </g>
    <g id="Group_346" transform="translate(26.149 16.344)">
        <g id="Group_345">
            <path id="Rectangle_148" d="M0 0H1V2H0z" class="cls-1" transform="translate(-.077 -.271)"/>
        </g>
    </g>
    <g id="Group_348" transform="translate(20.266 16.344)">
        <g id="Group_347">
            <path id="Rectangle_149" d="M0 0H1V2H0z" class="cls-1" transform="translate(-.193 -.271)"/>
        </g>
    </g>
    <g id="Group_350" transform="translate(18.305 16.344)">
        <g id="Group_349">
            <path id="Rectangle_150" d="M0 0H1V2H0z" class="cls-1" transform="translate(-.232 -.271)"/>
        </g>
    </g>
    <g id="Group_352" transform="translate(3.001 24.057)">
        <g id="Group_351">
            <path id="Path_491" d="M60.932 385H50.816a1.5 1.5 0 1 0 0 1h10.116a.5.5 0 0 0 0-1zM49.4 386a.5.5 0 1 1 .5-.5.5.5 0 0 1-.5.5z" class="cls-1" transform="translate(-47.894 -383.994)"/>
        </g>
    </g>
    <g id="Group_354" transform="translate(22.227 22.881)">
        <g id="Group_353">
            <path id="Rectangle_151" d="M0 0H1V1H0z" class="cls-1" transform="translate(-.155 .191)"/>
        </g>
    </g>
    <g id="Group_356" transform="translate(24.189 22.881)">
        <g id="Group_355">
            <path id="Rectangle_152" d="M0 0H1V1H0z" class="cls-1" transform="translate(-.116 .191)"/>
        </g>
    </g>
    <g id="Group_358" transform="translate(26.149 22.881)">
        <g id="Group_357">
            <path id="Rectangle_153" d="M0 0H1V1H0z" class="cls-1" transform="translate(-.077 .191)"/>
        </g>
    </g>
    <g id="Group_360" transform="translate(20.266 22.881)">
        <g id="Group_359">
            <path id="Rectangle_154" d="M0 0H1V1H0z" class="cls-1" transform="translate(-.193 .191)"/>
        </g>
    </g>
    <g id="Group_362" transform="translate(18.305 22.881)">
        <g id="Group_361">
            <path id="Rectangle_155" d="M0 0H1V1H0z" class="cls-1" transform="translate(-.232 .191)"/>
        </g>
    </g>
    <g id="Group_364" transform="translate(22.227 24.843)">
        <g id="Group_363">
            <path id="Rectangle_156" d="M0 0H1V1H0z" class="cls-1" transform="translate(-.155 .229)"/>
        </g>
    </g>
    <g id="Group_366" transform="translate(24.189 24.843)">
        <g id="Group_365">
            <path id="Rectangle_157" d="M0 0H1V1H0z" class="cls-1" transform="translate(-.116 .229)"/>
        </g>
    </g>
    <g id="Group_368" transform="translate(26.149 24.843)">
        <g id="Group_367">
            <path id="Rectangle_158" d="M0 0H1V1H0z" class="cls-1" transform="translate(-.077 .229)"/>
        </g>
    </g>
    <g id="Group_370" transform="translate(20.266 24.843)">
        <g id="Group_369">
            <path id="Rectangle_159" d="M0 0H1V1H0z" class="cls-1" transform="translate(-.193 .229)"/>
        </g>
    </g>
    <g id="Group_372" transform="translate(18.305 24.843)">
        <g id="Group_371">
            <path id="Rectangle_160" d="M0 0H1V1H0z" class="cls-1" transform="translate(-.232 .229)"/>
        </g>
    </g>
    <g id="Group_374" transform="translate(22.227 26.803)">
        <g id="Group_373">
            <path id="Rectangle_161" d="M0 0H1V1H0z" class="cls-1" transform="translate(-.155 .27)"/>
        </g>
    </g>
    <g id="Group_376" transform="translate(24.189 26.803)">
        <g id="Group_375">
            <path id="Rectangle_162" d="M0 0H1V1H0z" class="cls-1" transform="translate(-.116 .27)"/>
        </g>
    </g>
    <g id="Group_378" transform="translate(26.149 26.803)">
        <g id="Group_377">
            <path id="Rectangle_163" d="M0 0H1V1H0z" class="cls-1" transform="translate(-.077 .27)"/>
        </g>
    </g>
    <g id="Group_380" transform="translate(20.266 26.803)">
        <g id="Group_379">
            <path id="Rectangle_164" d="M0 0H1V1H0z" class="cls-1" transform="translate(-.193 .27)"/>
        </g>
    </g>
    <g id="Group_382" transform="translate(18.305 26.803)">
        <g id="Group_381">
            <path id="Rectangle_165" d="M0 0H1V1H0z" class="cls-1" transform="translate(-.232 .27)"/>
        </g>
    </g>
</svg>
