<svg xmlns="http://www.w3.org/2000/svg" viewBox="0 0 29.3 29.1">
  <defs>
    <style>
      .a {
        fill: none;
        stroke: #192b38;
        stroke-miterlimit: 10;
        stroke-width: 2px;
      }
    </style>
  </defs>
  <title>strategic-support</title>
  <g>
    <g>
      <path class="a" d="M13.5,25.9" transform="translate(-3.6 -3.6)"/>
      <path class="a" d="M18.6,31.7h2.3l1.2-4.4a9.2,9.2,0,0,0,2.7-1.6l4.1,1.1,2.2-3.7-3-3.1a11,11,0,0,0,.2-1.8c0-.5-.1-1-.1-1.5l3.4-3.4L29.5,9.5l-4.6,1.2a12.7,12.7,0,0,0-2.7-1.8L21,4.6H15.7" transform="translate(-3.6 -3.6)"/>
    </g>
    <g>
      <path class="a" d="M21,15.4a3.8,3.8,0,0,1,1.2,2.7,3.6,3.6,0,0,1-3.6,3.6" transform="translate(-3.6 -3.6)"/>
      <path class="a" d="M22.1,27.3a9.2,9.2,0,0,0,2.7-1.6L29,26.8l2.2-3.7L28.1,20a11,11,0,0,0,.2-1.8,7.6,7.6,0,0,0-.1-1.5l3.5-3.4L29.5,9.5,25,10.7a13.4,13.4,0,0,0-2.8-1.8L21,4.6H15.8" transform="translate(-3.6 -3.6)"/>
    </g>
    <path class="a" d="M14.1,13.9h4.2V11.2L11.5,6.1,9.9,7.9H7.3L4.7,19.7a3.1,3.1,0,0,0,3,3.9h0v2h8.4V21.7L11,14.2" transform="translate(-3.6 -3.6)"/>
    <polyline class="a" points="12.6 24.3 12.6 28.1 4.2 28.1 4.2 24.3"/>
  </g>
</svg>
