<svg xmlns="http://www.w3.org/2000/svg" width="35.89" height="32.248" viewBox="0 0 35.89 32.248">
    <defs>
        <style>
            .cls-1{fill:#182b39}
        </style>
    </defs>
    <g id="strategy" transform="translate(0 -25.982)">
        <g id="Group_406" transform="translate(26.917 52.902)">
            <g id="Group_405">
                <path id="Path_501" d="M390.3 410.012a2.668 2.668 0 0 0-2.57 1.963h-2.338v-.023a.7.7 0 0 0-1.4 0v.724a.7.7 0 0 0 .7.7h3.039a2.664 2.664 0 1 0 2.57-3.365zm0 3.926a1.262 1.262 0 1 1 1.262-1.262 1.263 1.263 0 0 1-1.262 1.262z" class="cls-1" transform="translate(-383.989 -410.012)"/>
            </g>
        </g>
        <g id="Group_408" transform="translate(0 25.982)">
            <g id="Group_407">
                <path id="Path_502" d="M8.272 27.945H5.234a2.664 2.664 0 1 0 0 1.4h2.337a.7.7 0 0 0 1.4 0v-.7a.7.7 0 0 0-.699-.7zm-5.608 1.963a1.262 1.262 0 1 1 1.262-1.262 1.263 1.263 0 0 1-1.262 1.262z" class="cls-1" transform="translate(0 -25.982)"/>
            </g>
        </g>
        <g id="Group_410" transform="translate(3.783 27.945)">
            <g id="Group_409">
                <path id="Path_503" d="M81.038 65.037h-1.5a11.756 11.756 0 0 0-1.138-2.765l1.059-1.059a1.248 1.248 0 0 0 0-1.765l-2.631-2.631a1.248 1.248 0 0 0-1.765 0L74 57.876a11.753 11.753 0 0 0-2.765-1.145v-1.5a1.25 1.25 0 0 0-1.248-1.248h-3.721a1.25 1.25 0 0 0-1.248 1.248v1.5a11.756 11.756 0 0 0-2.76 1.146l-1.064-1.064a1.248 1.248 0 0 0-1.765 0L56.8 59.448a1.248 1.248 0 0 0 0 1.765l1.068 1.068a11.752 11.752 0 0 0-1.14 2.757h-1.515a1.25 1.25 0 0 0-1.248 1.248v3.72a1.25 1.25 0 0 0 1.248 1.248h1.515a11.755 11.755 0 0 0 1.141 2.752L56.8 75.078a1.248 1.248 0 0 0 0 1.765l2.631 2.631a1.248 1.248 0 0 0 1.765 0l1.07-1.074a11.752 11.752 0 0 0 2.752 1.141v1.515a1.25 1.25 0 0 0 1.248 1.248h3.72a1.25 1.25 0 0 0 1.248-1.248v-1.509a11.757 11.757 0 0 0 2.757-1.14l1.067 1.067a1.248 1.248 0 0 0 1.765 0l2.631-2.631a1.249 1.249 0 0 0 0-1.765l-1.064-1.064a11.756 11.756 0 0 0 1.146-2.76h1.5a1.25 1.25 0 0 0 1.248-1.248v-3.72a1.25 1.25 0 0 0-1.246-1.249zm-.154 4.815h-1.465a1.246 1.246 0 0 0-1.206.929 10.359 10.359 0 0 1-1.091 2.629 1.246 1.246 0 0 0 .195 1.512l1.039 1.039-2.413 2.413-1.043-1.042a1.246 1.246 0 0 0-1.51-.2 10.355 10.355 0 0 1-2.625 1.085 1.246 1.246 0 0 0-.931 1.207V80.9h-3.415v-1.48a1.246 1.246 0 0 0-.929-1.207 10.359 10.359 0 0 1-2.621-1.087 1.247 1.247 0 0 0-1.511.2l-1.048 1.048-2.41-2.413 1.047-1.047a1.247 1.247 0 0 0 .2-1.511 10.355 10.355 0 0 1-1.087-2.621 1.246 1.246 0 0 0-1.207-.929h-1.48v-3.414h1.476a1.246 1.246 0 0 0 1.207-.931 10.354 10.354 0 0 1 1.085-2.625 1.247 1.247 0 0 0-.2-1.511L57.9 60.331l2.413-2.413 1.039 1.039a1.246 1.246 0 0 0 1.512.195 10.351 10.351 0 0 1 2.629-1.091 1.246 1.246 0 0 0 .929-1.206v-1.468h3.413v1.462a1.246 1.246 0 0 0 .931 1.207 10.353 10.353 0 0 1 2.633 1.09 1.247 1.247 0 0 0 1.511-.2l1.034-1.034 2.413 2.413-1.034 1.034a1.247 1.247 0 0 0-.2 1.511 10.353 10.353 0 0 1 1.09 2.633 1.246 1.246 0 0 0 1.207.93h1.462z" class="cls-1" transform="translate(-53.965 -53.985)"/>
            </g>
        </g>
        <g id="Group_412" transform="translate(9.671 34.291)">
            <g id="Group_411">
                <path id="Path_504" d="M149.08 144.556a.7.7 0 0 0-.481 1.317 6.87 6.87 0 1 1-4.887.066.7.7 0 1 0-.517-1.3 8.272 8.272 0 1 0 5.885-.079z" class="cls-1" transform="translate(-137.969 -144.513)"/>
            </g>
        </g>
        <g id="Group_414" transform="translate(17.243 33.834)">
            <g id="Group_413">
                <path id="Path_505" d="M246.719 137.991h-.039a.7.7 0 1 0 0 1.4h.035a.7.7 0 0 0 0-1.4z" class="cls-1" transform="translate(-245.979 -137.991)"/>
            </g>
        </g>
        <g id="Group_416" transform="translate(14.671 39.038)">
            <g id="Group_415">
                <path id="Path_506" d="M216.645 212.23h-1.485a.7.7 0 0 0-.183 1.377l-1.731 1.731-1.444-1.444a.7.7 0 0 0-.991 0l-1.316 1.316a.7.7 0 0 0 .992.991l.82-.82 1.444 1.444a.7.7 0 0 0 .991 0l2.227-2.227a.7.7 0 0 0 1.377-.182v-1.485a.7.7 0 0 0-.701-.701z" class="cls-1" transform="translate(-209.289 -212.23)"/>
            </g>
        </g>
        <g id="Group_418" transform="translate(13.058 43.424)">
            <g id="Group_417">
                <path id="Path_507" d="M187.48 275.016a.7.7 0 1 0 .205.5.705.705 0 0 0-.205-.5z" class="cls-1" transform="translate(-186.283 -274.811)"/>
            </g>
        </g>
        <g id="Group_420" transform="translate(26.917 25.982)">
            <g id="Group_419">
                <path id="Path_508" d="M390.3 25.982a2.668 2.668 0 0 0-2.57 1.963h-3.039a.7.7 0 0 0-.7.7v.7a.7.7 0 0 0 1.4 0h2.338a2.664 2.664 0 1 0 2.57-3.365zm0 3.926a1.262 1.262 0 1 1 1.262-1.262 1.263 1.263 0 0 1-1.262 1.262z" class="cls-1" transform="translate(-383.99 -25.982)"/>
            </g>
        </g>
        <g id="Group_422" transform="translate(0 52.902)">
            <g id="Group_421">
                <path id="Path_509" d="M8.272 411.25a.7.7 0 0 0-.7.7v.023H5.234a2.664 2.664 0 1 0 0 1.4h3.038a.7.7 0 0 0 .7-.7v-.724a.7.7 0 0 0-.7-.699zm-5.608 2.687a1.262 1.262 0 1 1 1.262-1.262 1.263 1.263 0 0 1-1.262 1.263z" class="cls-1" transform="translate(0 -410.012)"/>
            </g>
        </g>
    </g>
</svg>
