<svg xmlns="http://www.w3.org/2000/svg" width="30" height="30" viewBox="0 0 30 30">
    <g>
        <path fill="#182b39" d="M29.821 8.814q0-.017-.006-.034a10.685 10.685 0 0 0-.821-2.552.437.437 0 0 0-.041-.088 10.8 10.8 0 0 0-1.274-2.04.441.441 0 0 0-.067-.087L27.6 4a10.867 10.867 0 0 0-1.643-1.636l-.01-.011a.439.439 0 0 0-.089-.068 10.8 10.8 0 0 0-2.047-1.263.433.433 0 0 0-.087-.041 10.682 10.682 0 0 0-2.566-.807l-.034-.007A10.81 10.81 0 0 0 17.76.1a10.8 10.8 0 0 0-9.098 8.562 10.73 10.73 0 0 0-3.324 1.261.44.44 0 0 0 .445.76 9.838 9.838 0 0 1 2.736-1.089 10.805 10.805 0 0 0 .1 3.074c0 .012 0 .024.007.036a10.68 10.68 0 0 0 .811 2.565.436.436 0 0 0 .041.088 10.8 10.8 0 0 0 1.264 2.043.44.44 0 0 0 .068.089l.011.01a10.869 10.869 0 0 0 1.636 1.643l.01.011a.44.44 0 0 0 .087.067 10.8 10.8 0 0 0 2.04 1.273.436.436 0 0 0 .088.041 10.682 10.682 0 0 0 2.552.822l.033.006a10.788 10.788 0 0 0 3.138.114A9.893 9.893 0 0 1 .881 19.227a9.8 9.8 0 0 1 3.1-7.195.44.44 0 0 0-.6-.64 10.773 10.773 0 1 0 17.959 9.946 10.8 10.8 0 0 0 8.572-9.173v-.008a10.825 10.825 0 0 0-.09-3.343zM27.252 5a9.91 9.91 0 0 1 .788 1.287l-7.8 7.8a10.81 10.81 0 0 0-.81-1.266zm-.55-.7l-7.831 7.831a10.85 10.85 0 0 0-1.04-1.036l7.83-7.83A9.985 9.985 0 0 1 26.7 4.3zm-1.739-1.582l-7.824 7.824a10.806 10.806 0 0 0-1.271-.8l7.8-7.8a9.9 9.9 0 0 1 1.295.776zM21.2 1.079a9.809 9.809 0 0 1 1.6.472l-7.771 7.78a10.686 10.686 0 0 0-1.544-.531zM18 .955A9.94 9.94 0 0 1 19.22.88c.3 0 .6.014.891.04l-7.657 7.665a10.812 10.812 0 0 0-1.681-.131h-.268zm-1.572.326l-6.7 6.7a9.933 9.933 0 0 1 6.708-6.699zM9.375 11.664c-.026-.294-.041-.591-.041-.891a9.94 9.94 0 0 1 .075-1.22l.142-.142a9.922 9.922 0 0 1 1.221-.076c.3 0 .6.014.891.04zm.158 1.087l3.217-3.217a9.8 9.8 0 0 1 1.6.472l-4.348 4.348a9.811 9.811 0 0 1-.469-1.603zm1.639 3.758a9.9 9.9 0 0 1-.782-1.294l4.825-4.825a9.911 9.911 0 0 1 1.294.782zm.547.7l5.488-5.488a9.99 9.99 0 0 1 1.041 1.035l-5.494 5.494a9.979 9.979 0 0 1-1.035-1.043zM13.45 18.8l5.35-5.35a9.9 9.9 0 0 1 .788 1.287l-4.849 4.849a9.923 9.923 0 0 1-1.289-.786zm3.741 1.656a9.8 9.8 0 0 1-1.6-.48l4.38-4.38a9.81 9.81 0 0 1 .48 1.6zm3.409-.088l-.234.234a9.943 9.943 0 0 1-1.139.066c-.323 0-.642-.016-.956-.046l2.348-2.348c.03.315.046.634.046.956a9.942 9.942 0 0 1-.065 1.136zm.586-3.907a10.689 10.689 0 0 0-.538-1.538l7.78-7.783a9.805 9.805 0 0 1 .48 1.6zm.732 3.834l6.83-6.83a9.933 9.933 0 0 1-6.831 6.828zm7.136-8.382l-7.51 7.51v-.195a10.8 10.8 0 0 0-.142-1.742l7.669-7.669c.03.315.046.634.046.956a9.969 9.969 0 0 1-.064 1.139z"/>
    </g>
</svg>
