<svg xmlns="http://www.w3.org/2000/svg" width="21.299" height="21.299" viewBox="0 0 21.299 21.299">
    <path d="M20.708 14.153a10.651 10.651 0 0 0 0-7.007.767.767 0 0 0-.034-.1 10.65 10.65 0 0 0-20.046 0 .757.757 0 0 0-.034.1 10.651 10.651 0 0 0 0 7.007.767.767 0 0 0 .034.1 10.65 10.65 0 0 0 20.046 0 .761.761 0 0 0 .034-.1zm-10.057 5.62c-.406 0-1.059-.734-1.606-2.374a16.718 16.718 0 0 1-.629-2.69h4.47a16.732 16.732 0 0 1-.629 2.69c-.546 1.64-1.2 2.374-1.606 2.374zm-2.42-6.591c-.073-.814-.112-1.663-.112-2.532s.039-1.718.112-2.532h4.84c.073.814.112 1.663.112 2.532s-.039 1.718-.112 2.532zm-6.7-2.532a9.1 9.1 0 0 1 .358-2.532H6.7c-.071.831-.108 1.682-.108 2.532s.036 1.7.108 2.532H1.886a9.1 9.1 0 0 1-.358-2.532zm9.123-9.123c.406 0 1.06.734 1.606 2.374a16.72 16.72 0 0 1 .629 2.69H8.416A16.717 16.717 0 0 1 9.045 3.9c.547-1.639 1.201-2.373 1.606-2.373zm3.946 6.59h4.814a9.139 9.139 0 0 1 0 5.064H14.6c.071-.831.108-1.682.108-2.532s-.034-1.701-.108-2.532zm4.22-1.526h-4.393a14.651 14.651 0 0 0-1.391-4.747 9.162 9.162 0 0 1 5.784 4.747zM8.266 1.844a14.651 14.651 0 0 0-1.391 4.747H2.483a9.163 9.163 0 0 1 5.783-4.747zM2.483 14.708h4.392a14.652 14.652 0 0 0 1.391 4.747 9.163 9.163 0 0 1-5.783-4.747zm10.554 4.747a14.651 14.651 0 0 0 1.391-4.747h4.392a9.163 9.163 0 0 1-5.783 4.747z" transform="translate(-.002)"/>
</svg>
